G75*
G70*
%OFA0B0*%
%FSLAX24Y24*%
%IPPOS*%
%LPD*%
%AMOC8*
5,1,8,0,0,1.08239X$1,22.5*
%
%ADD10C,0.0060*%
%ADD11C,0.0090*%
%ADD12C,0.0080*%
%ADD13C,0.0320*%
%ADD14R,0.0110X0.0005*%
%ADD15R,0.0210X0.0005*%
%ADD16R,0.0280X0.0005*%
%ADD17R,0.0325X0.0005*%
%ADD18R,0.0365X0.0005*%
%ADD19R,0.0410X0.0005*%
%ADD20R,0.0440X0.0005*%
%ADD21R,0.0470X0.0005*%
%ADD22R,0.0505X0.0005*%
%ADD23R,0.0530X0.0005*%
%ADD24R,0.0555X0.0005*%
%ADD25R,0.0580X0.0005*%
%ADD26R,0.0600X0.0005*%
%ADD27R,0.0625X0.0005*%
%ADD28R,0.0645X0.0005*%
%ADD29R,0.0665X0.0005*%
%ADD30R,0.0685X0.0005*%
%ADD31R,0.0705X0.0005*%
%ADD32R,0.0715X0.0005*%
%ADD33R,0.0735X0.0005*%
%ADD34R,0.0755X0.0005*%
%ADD35R,0.0090X0.0005*%
%ADD36R,0.0770X0.0005*%
%ADD37R,0.0190X0.0005*%
%ADD38R,0.0355X0.0005*%
%ADD39R,0.0360X0.0005*%
%ADD40R,0.0260X0.0005*%
%ADD41R,0.0315X0.0005*%
%ADD42R,0.0320X0.0005*%
%ADD43R,0.0295X0.0005*%
%ADD44R,0.0275X0.0005*%
%ADD45R,0.0400X0.0005*%
%ADD46R,0.0265X0.0005*%
%ADD47R,0.0435X0.0005*%
%ADD48R,0.0255X0.0005*%
%ADD49R,0.0465X0.0005*%
%ADD50R,0.0245X0.0005*%
%ADD51R,0.0495X0.0005*%
%ADD52R,0.0235X0.0005*%
%ADD53R,0.0525X0.0005*%
%ADD54R,0.0230X0.0005*%
%ADD55R,0.0240X0.0005*%
%ADD56R,0.0545X0.0005*%
%ADD57R,0.0820X0.0005*%
%ADD58R,0.0220X0.0005*%
%ADD59R,0.0025X0.0005*%
%ADD60R,0.0795X0.0005*%
%ADD61R,0.0215X0.0005*%
%ADD62R,0.0035X0.0005*%
%ADD63R,0.0040X0.0005*%
%ADD64R,0.0800X0.0005*%
%ADD65R,0.0205X0.0005*%
%ADD66R,0.0050X0.0005*%
%ADD67R,0.0805X0.0005*%
%ADD68R,0.0165X0.0005*%
%ADD69R,0.0055X0.0005*%
%ADD70R,0.0200X0.0005*%
%ADD71R,0.0060X0.0005*%
%ADD72R,0.0300X0.0005*%
%ADD73R,0.0195X0.0005*%
%ADD74R,0.0065X0.0005*%
%ADD75R,0.0345X0.0005*%
%ADD76R,0.0070X0.0005*%
%ADD77R,0.0385X0.0005*%
%ADD78R,0.0080X0.0005*%
%ADD79R,0.0425X0.0005*%
%ADD80R,0.0185X0.0005*%
%ADD81R,0.0085X0.0005*%
%ADD82R,0.0635X0.0005*%
%ADD83R,0.0810X0.0005*%
%ADD84R,0.0095X0.0005*%
%ADD85R,0.0335X0.0005*%
%ADD86R,0.0655X0.0005*%
%ADD87R,0.0105X0.0005*%
%ADD88R,0.0290X0.0005*%
%ADD89R,0.0660X0.0005*%
%ADD90R,0.0115X0.0005*%
%ADD91R,0.0285X0.0005*%
%ADD92R,0.0120X0.0005*%
%ADD93R,0.0270X0.0005*%
%ADD94R,0.0675X0.0005*%
%ADD95R,0.0130X0.0005*%
%ADD96R,0.0680X0.0005*%
%ADD97R,0.0135X0.0005*%
%ADD98R,0.0250X0.0005*%
%ADD99R,0.0140X0.0005*%
%ADD100R,0.0180X0.0005*%
%ADD101R,0.0695X0.0005*%
%ADD102R,0.0150X0.0005*%
%ADD103R,0.0160X0.0005*%
%ADD104R,0.0155X0.0005*%
%ADD105R,0.0145X0.0005*%
%ADD106R,0.0700X0.0005*%
%ADD107R,0.0225X0.0005*%
%ADD108R,0.0170X0.0005*%
%ADD109R,0.0100X0.0005*%
%ADD110R,0.0075X0.0005*%
%ADD111R,0.0720X0.0005*%
%ADD112R,0.0725X0.0005*%
%ADD113R,0.0340X0.0005*%
%ADD114R,0.0305X0.0005*%
%ADD115R,0.0175X0.0005*%
%ADD116R,0.0005X0.0005*%
%ADD117R,0.0010X0.0005*%
%ADD118R,0.0015X0.0005*%
%ADD119R,0.0020X0.0005*%
%ADD120R,0.0030X0.0005*%
%ADD121R,0.0125X0.0005*%
%ADD122R,0.0045X0.0005*%
%ADD123R,0.0370X0.0005*%
%ADD124R,0.0375X0.0005*%
%ADD125R,0.0350X0.0005*%
%ADD126R,0.0330X0.0005*%
%ADD127R,0.0485X0.0005*%
%ADD128R,0.0480X0.0005*%
%ADD129R,0.0460X0.0005*%
%ADD130R,0.0445X0.0005*%
%ADD131R,0.0310X0.0005*%
%ADD132R,0.0380X0.0005*%
%ADD133R,0.0415X0.0005*%
%ADD134R,0.0450X0.0005*%
%ADD135R,0.0490X0.0005*%
%ADD136R,0.0965X0.0005*%
%ADD137R,0.0975X0.0005*%
%ADD138R,0.0980X0.0005*%
%ADD139R,0.0990X0.0005*%
%ADD140R,0.1005X0.0005*%
%ADD141R,0.0615X0.0005*%
%ADD142R,0.0640X0.0005*%
%ADD143R,0.0605X0.0005*%
%ADD144R,0.0620X0.0005*%
%ADD145R,0.0590X0.0005*%
%ADD146R,0.0570X0.0005*%
%ADD147R,0.0540X0.0005*%
%ADD148R,0.0515X0.0005*%
%ADD149R,0.0565X0.0005*%
%ADD150R,0.0535X0.0005*%
%ADD151R,0.0395X0.0005*%
%ADD152R,0.0520X0.0005*%
%ADD153R,0.0500X0.0005*%
%ADD154R,0.0430X0.0005*%
%ADD155C,0.0050*%
%ADD156C,0.0100*%
%ADD157C,0.0000*%
%ADD158C,0.0030*%
D10*
X006006Y006762D02*
X006006Y012668D01*
X006297Y012668D01*
X006297Y006762D01*
X006006Y006762D01*
X006297Y006762D02*
X008277Y006762D01*
X008277Y012668D01*
X008330Y012668D01*
X008563Y012668D01*
X008958Y012668D01*
X008958Y006762D01*
X008277Y006762D01*
X008277Y012668D02*
X006297Y012668D01*
X006297Y013849D02*
X006006Y013849D01*
X006006Y019754D01*
X006297Y019754D01*
X006297Y013849D01*
X008277Y013849D01*
X008277Y019754D01*
X008330Y019754D01*
X008563Y019754D01*
X008958Y019754D01*
X008958Y013849D01*
X008277Y013849D01*
X008277Y019754D02*
X006297Y019754D01*
X020572Y021929D02*
X020619Y021927D01*
X020667Y021921D01*
X020713Y021912D01*
X020759Y021899D01*
X020803Y021883D01*
X020847Y021862D01*
X020888Y021839D01*
X020927Y021813D01*
X020964Y021783D01*
X020999Y021750D01*
X021031Y021715D01*
X021060Y021678D01*
X020572Y020729D02*
X020527Y020731D01*
X020481Y020736D01*
X020437Y020744D01*
X020393Y020756D01*
X020350Y020772D01*
X020308Y020790D01*
X020268Y020812D01*
X020230Y020836D01*
X020194Y020863D01*
X020159Y020893D01*
X020128Y020926D01*
X020098Y020961D01*
X020572Y020729D02*
X020617Y020731D01*
X020663Y020736D01*
X020707Y020744D01*
X020751Y020756D01*
X020794Y020772D01*
X020836Y020790D01*
X020876Y020812D01*
X020914Y020836D01*
X020950Y020863D01*
X020985Y020893D01*
X021016Y020926D01*
X021046Y020961D01*
X020572Y021929D02*
X020526Y021927D01*
X020480Y021922D01*
X020434Y021913D01*
X020389Y021901D01*
X020346Y021885D01*
X020304Y021866D01*
X020263Y021843D01*
X020224Y021818D01*
X020188Y021790D01*
X020153Y021759D01*
X020121Y021725D01*
X020092Y021689D01*
X021655Y017195D02*
X022336Y017195D01*
X022336Y013258D01*
X022283Y013258D01*
X022051Y013258D01*
X021655Y013258D01*
X021655Y017195D01*
X021475Y016721D02*
X021532Y016664D01*
X021532Y016550D01*
X021475Y016494D01*
X021248Y016494D01*
X021192Y016550D01*
X021192Y016664D01*
X021248Y016721D01*
X021248Y016352D02*
X021192Y016295D01*
X021192Y016182D01*
X021248Y016125D01*
X021475Y016125D01*
X021532Y016182D01*
X021532Y016295D01*
X021475Y016352D01*
X021418Y015984D02*
X021192Y015984D01*
X021418Y015984D02*
X021532Y015870D01*
X021418Y015757D01*
X021192Y015757D01*
X021236Y015042D02*
X021293Y015042D01*
X021350Y014986D01*
X021350Y014816D01*
X021350Y014986D02*
X021407Y015042D01*
X021463Y015042D01*
X021520Y014986D01*
X021520Y014816D01*
X021180Y014816D01*
X021180Y014986D01*
X021236Y015042D01*
X021520Y014674D02*
X021520Y014447D01*
X021180Y014447D01*
X021180Y014306D02*
X021180Y014079D01*
X021180Y014192D02*
X021520Y014192D01*
X021463Y013937D02*
X021520Y013881D01*
X021520Y013767D01*
X021463Y013711D01*
X021236Y013711D01*
X021180Y013767D01*
X021180Y013881D01*
X021236Y013937D01*
X021655Y013258D02*
X022336Y013258D01*
X024317Y013258D01*
X024317Y017195D01*
X024608Y017195D01*
X024608Y013258D01*
X024317Y013258D01*
X024317Y009321D01*
X022336Y009321D01*
X022336Y013258D01*
X024317Y013258D01*
X024608Y013258D01*
X024608Y009321D01*
X024317Y009321D01*
X022336Y009321D02*
X022283Y009321D01*
X022051Y009321D01*
X021655Y009321D01*
X021655Y013258D01*
X021520Y013074D02*
X021293Y013074D01*
X021180Y012960D01*
X021293Y012847D01*
X021520Y012847D01*
X021520Y012706D02*
X021520Y012479D01*
X021180Y012479D01*
X021180Y012337D02*
X021180Y012110D01*
X021180Y012224D02*
X021520Y012224D01*
X021463Y011969D02*
X021520Y011912D01*
X021520Y011799D01*
X021463Y011742D01*
X021236Y011742D01*
X021180Y011799D01*
X021180Y011912D01*
X021236Y011969D01*
X021350Y012847D02*
X021350Y013074D01*
X021463Y010772D02*
X021236Y010772D01*
X021180Y010715D01*
X021180Y010545D01*
X021520Y010545D01*
X021520Y010715D01*
X021463Y010772D01*
X021520Y010403D02*
X021180Y010403D01*
X021180Y010177D02*
X021520Y010403D01*
X021520Y010177D02*
X021180Y010177D01*
X021236Y010035D02*
X021180Y009978D01*
X021180Y009865D01*
X021236Y009808D01*
X021463Y009808D01*
X021520Y009865D01*
X021520Y009978D01*
X021463Y010035D01*
X021350Y010035D01*
X021350Y009922D01*
X020098Y004819D02*
X020128Y004784D01*
X020159Y004751D01*
X020194Y004721D01*
X020230Y004694D01*
X020268Y004670D01*
X020308Y004648D01*
X020350Y004630D01*
X020393Y004614D01*
X020437Y004602D01*
X020481Y004594D01*
X020527Y004589D01*
X020572Y004587D01*
X020092Y005547D02*
X020121Y005583D01*
X020153Y005617D01*
X020188Y005648D01*
X020224Y005676D01*
X020263Y005701D01*
X020304Y005724D01*
X020346Y005743D01*
X020389Y005759D01*
X020434Y005771D01*
X020480Y005780D01*
X020526Y005785D01*
X020572Y005787D01*
X021046Y004819D02*
X021016Y004784D01*
X020985Y004751D01*
X020950Y004721D01*
X020914Y004694D01*
X020876Y004670D01*
X020836Y004648D01*
X020794Y004630D01*
X020751Y004614D01*
X020707Y004602D01*
X020663Y004594D01*
X020617Y004589D01*
X020572Y004587D01*
X021060Y005536D02*
X021031Y005573D01*
X020999Y005608D01*
X020964Y005641D01*
X020927Y005671D01*
X020888Y005697D01*
X020847Y005720D01*
X020803Y005741D01*
X020759Y005757D01*
X020713Y005770D01*
X020667Y005779D01*
X020619Y005785D01*
X020572Y005787D01*
X022336Y017195D02*
X024317Y017195D01*
D11*
X018618Y017110D02*
X018618Y016940D01*
X018533Y016855D01*
X018193Y016855D01*
X018108Y016940D01*
X018108Y017110D01*
X018193Y017195D01*
X018533Y017195D01*
X018618Y017110D01*
X018618Y017408D02*
X018618Y017748D01*
X018618Y018130D02*
X018108Y018130D01*
X018108Y017960D02*
X018108Y018300D01*
X018278Y018512D02*
X018108Y018683D01*
X018278Y018853D01*
X018618Y018853D01*
X018533Y019065D02*
X018193Y019065D01*
X018108Y019150D01*
X018108Y019320D01*
X018193Y019405D01*
X018363Y019405D02*
X018363Y019235D01*
X018363Y019405D02*
X018533Y019405D01*
X018618Y019320D01*
X018618Y019150D01*
X018533Y019065D01*
X018363Y018853D02*
X018363Y018512D01*
X018278Y018512D02*
X018618Y018512D01*
X018618Y019617D02*
X018108Y019617D01*
X018108Y019958D01*
X018363Y019788D02*
X018363Y019617D01*
X018618Y019617D02*
X018618Y019958D01*
X018618Y017408D02*
X018108Y017408D01*
X018108Y016643D02*
X018448Y016643D01*
X018618Y016473D01*
X018448Y016303D01*
X018108Y016303D01*
X018108Y015538D02*
X018618Y015538D01*
X018363Y015538D02*
X018363Y015198D01*
X018363Y014985D02*
X018363Y014815D01*
X018363Y014985D02*
X018533Y014985D01*
X018618Y014900D01*
X018618Y014730D01*
X018533Y014645D01*
X018193Y014645D01*
X018108Y014730D01*
X018108Y014900D01*
X018193Y014985D01*
X018108Y015198D02*
X018618Y015198D01*
X018618Y014447D02*
X018618Y014277D01*
X018618Y014362D02*
X018108Y014362D01*
X018108Y014277D02*
X018108Y014447D01*
X018108Y014065D02*
X018618Y014065D01*
X018363Y014065D02*
X018363Y013724D01*
X018618Y013724D02*
X018108Y013724D01*
X018193Y011217D02*
X018108Y011132D01*
X018108Y010877D01*
X018618Y010877D01*
X018448Y010877D02*
X018448Y011132D01*
X018363Y011217D01*
X018193Y011217D01*
X018448Y011047D02*
X018618Y011217D01*
X018618Y010664D02*
X018618Y010324D01*
X018108Y010324D01*
X018108Y010664D01*
X018363Y010494D02*
X018363Y010324D01*
X018363Y010112D02*
X018363Y009942D01*
X018363Y010112D02*
X018533Y010112D01*
X018618Y010027D01*
X018618Y009857D01*
X018533Y009772D01*
X018193Y009772D01*
X018108Y009857D01*
X018108Y010027D01*
X018193Y010112D01*
X018108Y009559D02*
X018618Y009559D01*
X018108Y009219D01*
X018618Y009219D01*
X018618Y009007D02*
X018278Y009007D01*
X018108Y008837D01*
X018278Y008667D01*
X018618Y008667D01*
X018533Y008454D02*
X018193Y008454D01*
X018108Y008369D01*
X018108Y008114D01*
X018618Y008114D01*
X018618Y008369D01*
X018533Y008454D01*
X018363Y008667D02*
X018363Y009007D01*
X017139Y005252D02*
X017139Y004742D01*
X017054Y004742D02*
X017224Y004742D01*
X016842Y004827D02*
X016842Y004997D01*
X016757Y005082D01*
X016587Y005082D01*
X016502Y004997D01*
X016502Y004827D01*
X016587Y004742D01*
X016757Y004742D01*
X016842Y004827D01*
X017054Y005252D02*
X017139Y005252D01*
X016297Y005082D02*
X016212Y005082D01*
X016041Y004912D01*
X016041Y004742D02*
X016041Y005082D01*
X015843Y005082D02*
X015673Y005082D01*
X015758Y005167D02*
X015758Y004827D01*
X015843Y004742D01*
X015461Y004742D02*
X015461Y004997D01*
X015376Y005082D01*
X015121Y005082D01*
X015121Y004742D01*
X014908Y004827D02*
X014908Y004997D01*
X014823Y005082D01*
X014653Y005082D01*
X014568Y004997D01*
X014568Y004827D01*
X014653Y004742D01*
X014823Y004742D01*
X014908Y004827D01*
X014356Y004827D02*
X014271Y004742D01*
X014101Y004742D01*
X014016Y004827D01*
X014016Y005167D01*
X014101Y005252D01*
X014271Y005252D01*
X014356Y005167D01*
X013251Y005082D02*
X013251Y004657D01*
X013166Y004572D01*
X013081Y004572D01*
X012996Y004742D02*
X013251Y004742D01*
X012996Y004742D02*
X012911Y004827D01*
X012911Y005082D01*
X012699Y004997D02*
X012699Y004742D01*
X012443Y004742D01*
X012358Y004827D01*
X012443Y004912D01*
X012699Y004912D01*
X012699Y004997D02*
X012613Y005082D01*
X012443Y005082D01*
X012075Y005252D02*
X012075Y004742D01*
X011990Y004742D02*
X012160Y004742D01*
X011778Y004912D02*
X011437Y004912D01*
X011437Y004997D02*
X011523Y005082D01*
X011693Y005082D01*
X011778Y004997D01*
X011778Y004912D01*
X011693Y004742D02*
X011523Y004742D01*
X011437Y004827D01*
X011437Y004997D01*
X011225Y004997D02*
X011225Y005167D01*
X011140Y005252D01*
X010885Y005252D01*
X010885Y004742D01*
X010885Y004912D02*
X011140Y004912D01*
X011225Y004997D01*
X011055Y004912D02*
X011225Y004742D01*
X011990Y005252D02*
X012075Y005252D01*
X010120Y005167D02*
X010120Y005082D01*
X009780Y004742D01*
X010120Y004742D01*
X010120Y005167D02*
X010035Y005252D01*
X009865Y005252D01*
X009780Y005167D01*
X010277Y020850D02*
X010192Y020935D01*
X010277Y020850D02*
X010447Y020850D01*
X010532Y020935D01*
X010532Y021020D01*
X010447Y021105D01*
X010277Y021105D01*
X010192Y021190D01*
X010192Y021275D01*
X010277Y021360D01*
X010447Y021360D01*
X010532Y021275D01*
X010744Y021190D02*
X010744Y020850D01*
X010914Y020850D02*
X010914Y021105D01*
X011000Y021190D01*
X011085Y021105D01*
X011085Y020850D01*
X011297Y020935D02*
X011297Y021105D01*
X011382Y021190D01*
X011552Y021190D01*
X011637Y021105D01*
X011637Y020935D01*
X011552Y020850D01*
X011382Y020850D01*
X011297Y020935D01*
X010914Y021105D02*
X010829Y021190D01*
X010744Y021190D01*
X010829Y021750D02*
X010744Y021835D01*
X010829Y021920D01*
X011085Y021920D01*
X011085Y022005D02*
X011085Y021750D01*
X010829Y021750D01*
X010532Y021750D02*
X010532Y022260D01*
X010362Y022090D01*
X010192Y022260D01*
X010192Y021750D01*
X010829Y022090D02*
X011000Y022090D01*
X011085Y022005D01*
X011297Y022005D02*
X011297Y021835D01*
X011382Y021750D01*
X011637Y021750D01*
X011637Y021665D02*
X011637Y022090D01*
X011382Y022090D01*
X011297Y022005D01*
X011637Y021665D02*
X011552Y021579D01*
X011467Y021579D01*
X011849Y021750D02*
X012019Y021750D01*
X011934Y021750D02*
X011934Y022090D01*
X011849Y022090D01*
X011934Y022260D02*
X011934Y022345D01*
X012218Y022005D02*
X012218Y021835D01*
X012303Y021750D01*
X012558Y021750D01*
X012558Y022090D02*
X012303Y022090D01*
X012218Y022005D01*
X011849Y021360D02*
X011849Y020850D01*
X011849Y021020D02*
X012104Y021190D01*
X012310Y021105D02*
X012310Y020935D01*
X012395Y020850D01*
X012565Y020850D01*
X012650Y021020D02*
X012310Y021020D01*
X012310Y021105D02*
X012395Y021190D01*
X012565Y021190D01*
X012650Y021105D01*
X012650Y021020D01*
X012104Y020850D02*
X011849Y021020D01*
D12*
X009474Y019908D02*
X017577Y019908D01*
X017606Y019906D01*
X017634Y019901D01*
X017662Y019892D01*
X017689Y019881D01*
X017713Y019866D01*
X017736Y019848D01*
X017757Y019827D01*
X017775Y019804D01*
X017790Y019780D01*
X017801Y019753D01*
X017810Y019725D01*
X017815Y019697D01*
X017817Y019668D01*
X017817Y013927D01*
X017815Y013898D01*
X017810Y013870D01*
X017801Y013842D01*
X017790Y013815D01*
X017775Y013791D01*
X017757Y013768D01*
X017736Y013747D01*
X017713Y013729D01*
X017689Y013714D01*
X017662Y013703D01*
X017634Y013694D01*
X017606Y013689D01*
X017577Y013687D01*
X009474Y013687D01*
X009445Y013689D01*
X009417Y013694D01*
X009389Y013703D01*
X009362Y013714D01*
X009338Y013729D01*
X009315Y013747D01*
X009294Y013768D01*
X009276Y013791D01*
X009261Y013815D01*
X009250Y013842D01*
X009241Y013870D01*
X009236Y013898D01*
X009234Y013927D01*
X009234Y019668D01*
X009236Y019697D01*
X009241Y019725D01*
X009250Y019753D01*
X009261Y019780D01*
X009276Y019804D01*
X009294Y019827D01*
X009315Y019848D01*
X009338Y019866D01*
X009362Y019881D01*
X009389Y019892D01*
X009417Y019901D01*
X009445Y019906D01*
X009474Y019908D01*
X014010Y018876D02*
X014010Y018666D01*
X014430Y018666D01*
X014430Y018876D01*
X014360Y018946D01*
X014080Y018946D01*
X014010Y018876D01*
X014080Y018486D02*
X014010Y018416D01*
X014010Y018206D01*
X014430Y018206D01*
X014290Y018206D02*
X014290Y018416D01*
X014220Y018486D01*
X014080Y018486D01*
X014290Y018346D02*
X014430Y018486D01*
X014360Y018026D02*
X014290Y018026D01*
X014220Y017956D01*
X014220Y017815D01*
X014150Y017745D01*
X014080Y017745D01*
X014010Y017815D01*
X014010Y017956D01*
X014080Y018026D01*
X014360Y018026D02*
X014430Y017956D01*
X014430Y017815D01*
X014360Y017745D01*
X014290Y017105D02*
X014290Y016825D01*
X014360Y016825D02*
X014220Y016825D01*
X014150Y016895D01*
X014150Y017035D01*
X014220Y017105D01*
X014290Y017105D01*
X014430Y017035D02*
X014430Y016895D01*
X014360Y016825D01*
X014430Y016658D02*
X014430Y016518D01*
X014430Y016588D02*
X014010Y016588D01*
X014010Y016518D01*
X014150Y016338D02*
X014150Y016127D01*
X014220Y016057D01*
X014360Y016057D01*
X014430Y016127D01*
X014430Y016338D01*
X014500Y016338D02*
X014150Y016338D01*
X014500Y016338D02*
X014570Y016267D01*
X014570Y016197D01*
X014430Y015877D02*
X014220Y015877D01*
X014150Y015807D01*
X014150Y015597D01*
X014430Y015597D01*
X014360Y015417D02*
X014220Y015417D01*
X014150Y015347D01*
X014150Y015207D01*
X014220Y015136D01*
X014360Y015136D01*
X014430Y015207D01*
X014430Y015347D01*
X014360Y015417D01*
X014360Y014956D02*
X014290Y014956D01*
X014220Y014886D01*
X014220Y014746D01*
X014150Y014676D01*
X014080Y014676D01*
X014010Y014746D01*
X014010Y014886D01*
X014080Y014956D01*
X014360Y014956D02*
X014430Y014886D01*
X014430Y014746D01*
X014360Y014676D01*
X017537Y012825D02*
X009434Y012825D01*
X009405Y012823D01*
X009377Y012818D01*
X009349Y012809D01*
X009322Y012798D01*
X009298Y012783D01*
X009275Y012765D01*
X009254Y012744D01*
X009236Y012721D01*
X009221Y012697D01*
X009210Y012670D01*
X009201Y012642D01*
X009196Y012614D01*
X009194Y012585D01*
X009194Y006845D01*
X009196Y006816D01*
X009201Y006788D01*
X009210Y006760D01*
X009221Y006733D01*
X009236Y006709D01*
X009254Y006686D01*
X009275Y006665D01*
X009298Y006647D01*
X009322Y006632D01*
X009349Y006621D01*
X009377Y006612D01*
X009405Y006607D01*
X009434Y006605D01*
X017537Y006605D01*
X017566Y006607D01*
X017594Y006612D01*
X017622Y006621D01*
X017649Y006632D01*
X017673Y006647D01*
X017696Y006665D01*
X017717Y006686D01*
X017735Y006709D01*
X017750Y006733D01*
X017761Y006760D01*
X017770Y006788D01*
X017775Y006816D01*
X017777Y006845D01*
X017777Y012585D01*
X017775Y012614D01*
X017770Y012642D01*
X017761Y012670D01*
X017750Y012697D01*
X017735Y012721D01*
X017717Y012744D01*
X017696Y012765D01*
X017673Y012783D01*
X017649Y012798D01*
X017622Y012809D01*
X017594Y012818D01*
X017566Y012823D01*
X017537Y012825D01*
X014430Y011790D02*
X014360Y011860D01*
X014080Y011860D01*
X014010Y011790D01*
X014010Y011580D01*
X014430Y011580D01*
X014430Y011790D01*
X014430Y011399D02*
X014290Y011259D01*
X014290Y011329D02*
X014290Y011119D01*
X014430Y011119D02*
X014010Y011119D01*
X014010Y011329D01*
X014080Y011399D01*
X014220Y011399D01*
X014290Y011329D01*
X014290Y010939D02*
X014360Y010939D01*
X014430Y010869D01*
X014430Y010729D01*
X014360Y010659D01*
X014220Y010729D02*
X014220Y010869D01*
X014290Y010939D01*
X014080Y010939D02*
X014010Y010869D01*
X014010Y010729D01*
X014080Y010659D01*
X014150Y010659D01*
X014220Y010729D01*
X014220Y010018D02*
X014290Y010018D01*
X014290Y009738D01*
X014360Y009738D02*
X014220Y009738D01*
X014150Y009808D01*
X014150Y009948D01*
X014220Y010018D01*
X014430Y009948D02*
X014430Y009808D01*
X014360Y009738D01*
X014430Y009571D02*
X014430Y009431D01*
X014430Y009501D02*
X014010Y009501D01*
X014010Y009431D01*
X014150Y009251D02*
X014150Y009041D01*
X014220Y008971D01*
X014360Y008971D01*
X014430Y009041D01*
X014430Y009251D01*
X014500Y009251D02*
X014150Y009251D01*
X014500Y009251D02*
X014570Y009181D01*
X014570Y009111D01*
X014430Y008790D02*
X014220Y008790D01*
X014150Y008720D01*
X014150Y008510D01*
X014430Y008510D01*
X014360Y008330D02*
X014220Y008330D01*
X014150Y008260D01*
X014150Y008120D01*
X014220Y008050D01*
X014360Y008050D01*
X014430Y008120D01*
X014430Y008260D01*
X014360Y008330D01*
X014360Y007870D02*
X014290Y007870D01*
X014220Y007800D01*
X014220Y007660D01*
X014150Y007589D01*
X014080Y007589D01*
X014010Y007660D01*
X014010Y007800D01*
X014080Y007870D01*
X014360Y007870D02*
X014430Y007800D01*
X014430Y007660D01*
X014360Y007589D01*
X019682Y007238D02*
X019682Y009238D01*
X019982Y009238D01*
X019982Y009338D01*
X019982Y009238D02*
X020282Y009238D01*
X020282Y007238D01*
X019982Y007238D01*
X019982Y007138D01*
X019982Y007238D02*
X019682Y007238D01*
X021638Y006762D02*
X021738Y006762D01*
X021738Y007062D01*
X023738Y007062D01*
X023738Y006762D01*
X023838Y006762D01*
X023738Y006762D02*
X023738Y006462D01*
X021738Y006462D01*
X021738Y006762D01*
X021738Y007446D02*
X021738Y007746D01*
X021638Y007746D01*
X021738Y007746D02*
X021738Y008046D01*
X023738Y008046D01*
X023738Y007746D01*
X023838Y007746D01*
X023738Y007746D02*
X023738Y007446D01*
X021738Y007446D01*
X021738Y008431D02*
X021738Y008731D01*
X021638Y008731D01*
X021738Y008731D02*
X021738Y009031D01*
X023738Y009031D01*
X023738Y008731D01*
X023838Y008731D01*
X023738Y008731D02*
X023738Y008431D01*
X021738Y008431D01*
X023488Y008481D02*
X023488Y008981D01*
X019982Y017178D02*
X019982Y017278D01*
X019682Y017278D01*
X019682Y019278D01*
X019982Y019278D01*
X019982Y019378D01*
X019982Y019278D02*
X020282Y019278D01*
X020282Y017278D01*
X019982Y017278D01*
X021638Y017786D02*
X021738Y017786D01*
X021738Y018086D01*
X023738Y018086D01*
X023738Y017786D01*
X023838Y017786D01*
X023738Y017786D02*
X023738Y017486D01*
X021738Y017486D01*
X021738Y017786D01*
X021738Y018470D02*
X021738Y018770D01*
X021638Y018770D01*
X021738Y018770D02*
X021738Y019070D01*
X023738Y019070D01*
X023738Y018770D01*
X023838Y018770D01*
X023738Y018770D02*
X023738Y018470D01*
X021738Y018470D01*
X021738Y019454D02*
X021738Y019754D01*
X021638Y019754D01*
X021738Y019754D02*
X021738Y020054D01*
X023738Y020054D01*
X023738Y019754D01*
X023838Y019754D01*
X023738Y019754D02*
X023738Y019454D01*
X021738Y019454D01*
X023488Y019504D02*
X023488Y020004D01*
D13*
X018998Y020102D02*
X018998Y019439D01*
X018998Y018799D02*
X018998Y018137D01*
X018998Y017497D02*
X018998Y016834D01*
X018998Y016194D02*
X018998Y015532D01*
X018998Y014892D02*
X018998Y014229D01*
X018998Y013589D02*
X018998Y012927D01*
X018998Y012287D02*
X018998Y011624D01*
X018998Y010984D02*
X018998Y010322D01*
X018998Y009682D02*
X018998Y009019D01*
X018998Y008379D02*
X018998Y007717D01*
X018998Y007077D02*
X018998Y006414D01*
X018998Y005774D02*
X018998Y005112D01*
X018998Y004472D02*
X018998Y003809D01*
X018998Y020742D02*
X018998Y021404D01*
X018998Y022044D02*
X018998Y022707D01*
D14*
X015888Y021390D03*
X015888Y021385D03*
X015883Y021380D03*
X015883Y021375D03*
X015763Y021220D03*
X015588Y020960D03*
X015593Y020955D03*
X015598Y020950D03*
X015608Y020945D03*
X015613Y020940D03*
X015628Y020930D03*
X015643Y020920D03*
X015648Y020915D03*
X015663Y020905D03*
X015708Y020875D03*
X015723Y020865D03*
X015728Y020860D03*
X015733Y020855D03*
X015748Y020845D03*
X015578Y020965D03*
X015573Y020970D03*
X015563Y020975D03*
X015558Y020980D03*
X015543Y020990D03*
X015643Y020570D03*
X015168Y020890D03*
X015138Y021085D03*
X015198Y021555D03*
X015198Y021560D03*
X015358Y021535D03*
X015358Y021530D03*
X015513Y022095D03*
X015513Y022100D03*
D15*
X015643Y022295D03*
X015233Y022490D03*
X014293Y021985D03*
X014293Y021445D03*
X014298Y021440D03*
X014553Y020920D03*
X015283Y020740D03*
X015643Y020575D03*
X016748Y020845D03*
X016833Y021875D03*
X016548Y022025D03*
D16*
X016583Y022005D03*
X015233Y022485D03*
X014388Y022035D03*
X015643Y020580D03*
X015918Y020695D03*
D17*
X015645Y020585D03*
X016615Y020785D03*
X015655Y022325D03*
X015235Y022480D03*
D18*
X016640Y021960D03*
X015645Y020590D03*
D19*
X015643Y020595D03*
X014548Y022090D03*
D20*
X014538Y022080D03*
X015643Y020600D03*
D21*
X015643Y020605D03*
X014528Y022065D03*
D22*
X015245Y022450D03*
X015645Y020610D03*
D23*
X015643Y020615D03*
D24*
X015645Y020620D03*
X015270Y022430D03*
D25*
X015288Y022415D03*
X015643Y020625D03*
D26*
X015643Y020630D03*
X015298Y022405D03*
D27*
X015645Y020635D03*
D28*
X015645Y020640D03*
X015000Y020785D03*
D29*
X014970Y020800D03*
X015645Y020645D03*
D30*
X015645Y020650D03*
X014945Y020815D03*
D31*
X014915Y020835D03*
X015645Y020655D03*
D32*
X015645Y020660D03*
X014910Y020840D03*
X014905Y020845D03*
D33*
X015645Y020665D03*
D34*
X015645Y020670D03*
D35*
X015828Y020780D03*
X016378Y020670D03*
X015763Y021195D03*
X015898Y021425D03*
X015903Y021435D03*
X015903Y021440D03*
X015358Y021555D03*
X015193Y021530D03*
X015138Y021060D03*
X015173Y020895D03*
X015518Y022125D03*
D36*
X015643Y020675D03*
D37*
X015563Y021005D03*
X016378Y020675D03*
X016853Y021330D03*
X016858Y021335D03*
X016863Y021345D03*
X016868Y021350D03*
X016873Y021355D03*
X016878Y021360D03*
X016883Y021835D03*
X016878Y021840D03*
X016873Y021845D03*
X016538Y022030D03*
X016413Y022250D03*
X016408Y022255D03*
X016403Y022260D03*
X014423Y021345D03*
X014263Y021470D03*
X014258Y021475D03*
X014258Y021955D03*
X014263Y021960D03*
X014508Y020955D03*
X014513Y020950D03*
D38*
X015430Y020680D03*
X016380Y020690D03*
X016625Y021970D03*
D39*
X016633Y021965D03*
X016683Y021935D03*
X015448Y022385D03*
X014568Y022110D03*
X014448Y022050D03*
X015858Y020680D03*
D40*
X016378Y020680D03*
X016678Y020805D03*
X016573Y022010D03*
X016293Y022330D03*
X015648Y022310D03*
X014623Y020880D03*
D41*
X015400Y020685D03*
X015890Y020685D03*
X015480Y022380D03*
D42*
X014423Y022045D03*
X016378Y020685D03*
X016713Y021930D03*
X016603Y021990D03*
D43*
X016590Y022000D03*
X016730Y021925D03*
X015905Y020690D03*
X015385Y020690D03*
X014405Y022040D03*
D44*
X014600Y022135D03*
X014640Y020875D03*
X015115Y020860D03*
X015370Y020695D03*
X015570Y021030D03*
D45*
X016378Y020695D03*
X014553Y022095D03*
D46*
X014375Y022030D03*
X015580Y021020D03*
X015355Y020700D03*
X015935Y020700D03*
X016115Y020795D03*
X016760Y021915D03*
D47*
X016380Y020700D03*
D48*
X015945Y020705D03*
X015580Y021015D03*
X015345Y020705D03*
X014615Y020885D03*
X014365Y022025D03*
X016770Y021910D03*
D49*
X016380Y020705D03*
X015220Y022465D03*
D50*
X016315Y022320D03*
X016780Y021905D03*
X015955Y020710D03*
X015335Y020710D03*
X014605Y020890D03*
X014390Y021380D03*
X014385Y021385D03*
X014350Y021410D03*
D51*
X016380Y020710D03*
D52*
X015965Y020715D03*
X015325Y020715D03*
X014920Y020755D03*
X014585Y020900D03*
X014400Y021370D03*
X014395Y021375D03*
X014335Y022010D03*
X016325Y022315D03*
X016800Y021895D03*
D53*
X016380Y020715D03*
D54*
X016708Y020820D03*
X016718Y020825D03*
X016808Y021890D03*
X016558Y022020D03*
X016333Y022310D03*
X015318Y020720D03*
X015308Y020725D03*
X014333Y021420D03*
X014323Y021425D03*
X014323Y022005D03*
D55*
X014343Y022015D03*
X014343Y021415D03*
X014593Y020895D03*
X015583Y021035D03*
X015973Y020720D03*
X016108Y020800D03*
X016698Y020815D03*
X016793Y021900D03*
X015648Y022305D03*
D56*
X015265Y022435D03*
X016380Y020720D03*
D57*
X016258Y020725D03*
D58*
X016733Y020835D03*
X016818Y021885D03*
X016348Y022300D03*
X016343Y022305D03*
X015298Y020730D03*
X014568Y020910D03*
X014308Y021995D03*
D59*
X015175Y021445D03*
X015175Y021440D03*
X015350Y021620D03*
X015950Y021595D03*
X015950Y021590D03*
X015750Y021095D03*
X015750Y021090D03*
X015855Y020730D03*
X015130Y020990D03*
X015530Y022210D03*
X015530Y022215D03*
D60*
X016280Y020730D03*
X016290Y020735D03*
D61*
X016100Y020805D03*
X015595Y021040D03*
X015290Y020735D03*
X014560Y020915D03*
X014410Y021360D03*
X014305Y021435D03*
X014300Y021990D03*
X016355Y022295D03*
X016825Y021880D03*
X016740Y020840D03*
D62*
X015850Y020735D03*
X015175Y020905D03*
X015175Y021455D03*
X015350Y021610D03*
X015350Y021615D03*
X015940Y021560D03*
X015945Y021570D03*
X015945Y021575D03*
X015525Y022195D03*
D63*
X015528Y022190D03*
X015353Y021605D03*
X015178Y021465D03*
X015178Y021460D03*
X015133Y021010D03*
X015133Y021005D03*
X015753Y021115D03*
X015753Y021120D03*
X016078Y020850D03*
X015848Y020740D03*
X015938Y021550D03*
X015938Y021555D03*
X015943Y021565D03*
D64*
X016328Y020755D03*
X016318Y020750D03*
X016298Y020740D03*
D65*
X016755Y020850D03*
X016760Y020855D03*
X016840Y021870D03*
X016370Y022285D03*
X016365Y022290D03*
X015270Y020750D03*
X015275Y020745D03*
X014545Y020925D03*
X014415Y021355D03*
X014285Y021450D03*
X014285Y021980D03*
D66*
X015183Y021480D03*
X015353Y021595D03*
X015933Y021535D03*
X015933Y021530D03*
X015523Y022175D03*
X015133Y021025D03*
X015133Y021020D03*
X015133Y021015D03*
X015848Y020745D03*
D67*
X016310Y020745D03*
X016335Y020760D03*
X016345Y020765D03*
X016350Y020770D03*
X016360Y020775D03*
D68*
X016840Y020935D03*
X016845Y020940D03*
X016845Y020945D03*
X016850Y020950D03*
X016855Y021275D03*
X016850Y021285D03*
X016845Y021290D03*
X016845Y021295D03*
X016840Y021305D03*
X016840Y021310D03*
X016940Y021430D03*
X016945Y021435D03*
X016950Y021445D03*
X016945Y021760D03*
X016940Y021770D03*
X016935Y021775D03*
X016525Y022035D03*
X016470Y022180D03*
X016465Y022185D03*
X016465Y022190D03*
X016460Y022195D03*
X016455Y022200D03*
X015795Y020830D03*
X014920Y020750D03*
X014455Y021015D03*
X014450Y021020D03*
X014450Y021025D03*
X014445Y021030D03*
X014440Y021040D03*
X014430Y021335D03*
X014205Y021530D03*
X014200Y021540D03*
X014195Y021545D03*
X014190Y021550D03*
X014185Y021560D03*
X014185Y021870D03*
X014190Y021880D03*
X014195Y021885D03*
X014200Y021890D03*
X014205Y021900D03*
D69*
X015065Y022180D03*
X015060Y022210D03*
X015055Y022240D03*
X015050Y022270D03*
X015045Y022295D03*
X015045Y022300D03*
X015040Y022325D03*
X015040Y022330D03*
X015035Y022355D03*
X015035Y022360D03*
X015015Y022480D03*
X015015Y022485D03*
X015525Y022170D03*
X015355Y021590D03*
X015180Y021485D03*
X015755Y021140D03*
X015755Y021135D03*
X015925Y021510D03*
X015925Y021515D03*
X015930Y021520D03*
X015930Y021525D03*
X015845Y020750D03*
D70*
X016098Y020810D03*
X015263Y020755D03*
X015143Y020870D03*
X014538Y020930D03*
X014533Y020935D03*
X014418Y021350D03*
X014278Y021455D03*
X014273Y021460D03*
X014273Y021970D03*
X014278Y021975D03*
X014633Y022150D03*
X015103Y022385D03*
X016378Y022280D03*
X016848Y021865D03*
X016853Y021860D03*
X016768Y020860D03*
D71*
X015863Y020945D03*
X015863Y020950D03*
X015863Y020955D03*
X015863Y020960D03*
X015863Y020965D03*
X015863Y020970D03*
X015863Y020975D03*
X015863Y020980D03*
X015863Y020985D03*
X015863Y020990D03*
X015868Y020995D03*
X015868Y021000D03*
X015868Y021005D03*
X015868Y021010D03*
X015868Y021015D03*
X015868Y021020D03*
X015868Y021025D03*
X015868Y021030D03*
X015868Y021035D03*
X015868Y021040D03*
X015873Y021045D03*
X015873Y021050D03*
X015873Y021055D03*
X015873Y021060D03*
X015873Y021065D03*
X015873Y021070D03*
X015873Y021075D03*
X015873Y021080D03*
X015873Y021085D03*
X015878Y021095D03*
X015878Y021100D03*
X015878Y021105D03*
X015878Y021110D03*
X015883Y021145D03*
X015883Y021150D03*
X015883Y021155D03*
X015888Y021195D03*
X015888Y021200D03*
X015893Y021225D03*
X015893Y021230D03*
X015893Y021235D03*
X015893Y021240D03*
X015893Y021245D03*
X015898Y021255D03*
X015898Y021260D03*
X015898Y021265D03*
X015898Y021270D03*
X015898Y021275D03*
X015898Y021280D03*
X015898Y021285D03*
X015898Y021290D03*
X015903Y021300D03*
X015903Y021305D03*
X015903Y021310D03*
X015903Y021315D03*
X015903Y021320D03*
X015903Y021325D03*
X015923Y021500D03*
X015923Y021505D03*
X015688Y021445D03*
X015693Y021425D03*
X015698Y021400D03*
X015703Y021380D03*
X015708Y021360D03*
X015713Y021335D03*
X015718Y021320D03*
X015718Y021315D03*
X015723Y021305D03*
X015723Y021300D03*
X015723Y021295D03*
X015728Y021280D03*
X015728Y021275D03*
X015728Y021270D03*
X015733Y021260D03*
X015733Y021255D03*
X015758Y021150D03*
X015758Y021145D03*
X015858Y020940D03*
X015858Y020935D03*
X015858Y020930D03*
X015858Y020925D03*
X015858Y020920D03*
X015858Y020915D03*
X015858Y020910D03*
X015858Y020905D03*
X015858Y020900D03*
X015858Y020895D03*
X015853Y020890D03*
X015853Y020885D03*
X015853Y020880D03*
X015853Y020875D03*
X015853Y020870D03*
X015853Y020865D03*
X015853Y020860D03*
X015853Y020855D03*
X015853Y020850D03*
X015853Y020845D03*
X015848Y020840D03*
X015843Y020755D03*
X015683Y021465D03*
X015678Y021490D03*
X015673Y021510D03*
X015668Y021530D03*
X015663Y021555D03*
X015658Y021575D03*
X015653Y021595D03*
X015648Y021620D03*
X015643Y021640D03*
X015638Y021660D03*
X015633Y021685D03*
X015628Y021705D03*
X015623Y021725D03*
X015618Y021750D03*
X015613Y021770D03*
X015608Y021790D03*
X015603Y021815D03*
X015598Y021835D03*
X015593Y021855D03*
X015588Y021880D03*
X015583Y021900D03*
X015578Y021920D03*
X015573Y021945D03*
X015568Y021965D03*
X015563Y021985D03*
X015558Y022005D03*
X015558Y022010D03*
X015553Y022030D03*
X015548Y022050D03*
X015523Y022160D03*
X015523Y022165D03*
X015083Y022090D03*
X015083Y022085D03*
X015083Y022080D03*
X015083Y022075D03*
X015083Y022070D03*
X015083Y022065D03*
X015088Y022055D03*
X015088Y022050D03*
X015088Y022045D03*
X015088Y022040D03*
X015088Y022035D03*
X015093Y022025D03*
X015093Y022020D03*
X015093Y022015D03*
X015093Y022010D03*
X015098Y022000D03*
X015098Y021995D03*
X015098Y021990D03*
X015098Y021985D03*
X015098Y021980D03*
X015103Y021970D03*
X015103Y021965D03*
X015103Y021960D03*
X015103Y021955D03*
X015103Y021950D03*
X015108Y021940D03*
X015108Y021935D03*
X015108Y021930D03*
X015108Y021925D03*
X015108Y021920D03*
X015113Y021910D03*
X015113Y021905D03*
X015113Y021900D03*
X015113Y021895D03*
X015118Y021885D03*
X015118Y021880D03*
X015118Y021875D03*
X015118Y021870D03*
X015118Y021865D03*
X015123Y021855D03*
X015123Y021850D03*
X015123Y021845D03*
X015123Y021840D03*
X015123Y021835D03*
X015128Y021825D03*
X015128Y021820D03*
X015128Y021815D03*
X015128Y021810D03*
X015128Y021805D03*
X015133Y021795D03*
X015133Y021790D03*
X015133Y021785D03*
X015133Y021780D03*
X015133Y021775D03*
X015138Y021765D03*
X015138Y021760D03*
X015138Y021755D03*
X015138Y021750D03*
X015143Y021740D03*
X015143Y021735D03*
X015143Y021730D03*
X015143Y021725D03*
X015143Y021720D03*
X015148Y021710D03*
X015148Y021705D03*
X015148Y021700D03*
X015148Y021695D03*
X015148Y021690D03*
X015153Y021680D03*
X015153Y021675D03*
X015153Y021670D03*
X015153Y021665D03*
X015153Y021660D03*
X015158Y021650D03*
X015158Y021645D03*
X015158Y021640D03*
X015158Y021635D03*
X015163Y021625D03*
X015163Y021620D03*
X015163Y021615D03*
X015163Y021610D03*
X015163Y021605D03*
X015183Y021490D03*
X015303Y021450D03*
X015293Y021425D03*
X015283Y021400D03*
X015313Y021475D03*
X015353Y021585D03*
X014973Y021445D03*
X014983Y021420D03*
X014963Y021470D03*
X014953Y021495D03*
X014928Y021560D03*
X014918Y021585D03*
X014908Y021610D03*
X014898Y021635D03*
X014863Y021725D03*
X014853Y021750D03*
X014843Y021775D03*
X014833Y021800D03*
X014808Y021865D03*
X014798Y021890D03*
X014788Y021915D03*
X014778Y021940D03*
X014768Y021965D03*
X014758Y021990D03*
X014753Y022005D03*
X014743Y022030D03*
X015078Y022095D03*
X015078Y022100D03*
X015078Y022105D03*
X015078Y022110D03*
X015078Y022115D03*
X015078Y022120D03*
X015073Y022125D03*
X015073Y022130D03*
X015073Y022135D03*
X015073Y022140D03*
X015073Y022145D03*
X015073Y022150D03*
X015068Y022155D03*
X015068Y022160D03*
X015068Y022165D03*
X015068Y022170D03*
X015068Y022175D03*
X015063Y022185D03*
X015063Y022190D03*
X015063Y022195D03*
X015063Y022200D03*
X015063Y022205D03*
X015058Y022215D03*
X015058Y022220D03*
X015058Y022225D03*
X015058Y022230D03*
X015058Y022235D03*
X015053Y022245D03*
X015053Y022250D03*
X015053Y022255D03*
X015053Y022260D03*
X015053Y022265D03*
X015048Y022275D03*
X015048Y022280D03*
X015048Y022285D03*
X015048Y022290D03*
X015043Y022305D03*
X015043Y022310D03*
X015043Y022315D03*
X015043Y022320D03*
X015038Y022335D03*
X015038Y022340D03*
X015038Y022345D03*
X015038Y022350D03*
X015013Y022490D03*
X015013Y022495D03*
X015008Y021355D03*
X015018Y021330D03*
X015028Y021305D03*
X015038Y021280D03*
X015063Y021215D03*
X015073Y021190D03*
X015083Y021165D03*
X015093Y021140D03*
X015133Y021035D03*
X015133Y021030D03*
D72*
X014918Y020760D03*
X016638Y020790D03*
X015653Y022320D03*
X015998Y022450D03*
D73*
X016385Y022275D03*
X016390Y022270D03*
X016395Y022265D03*
X016860Y021855D03*
X016865Y021850D03*
X016785Y020875D03*
X016780Y020870D03*
X016775Y020865D03*
X015255Y020760D03*
X015250Y020765D03*
X015245Y020770D03*
X014525Y020940D03*
X014520Y020945D03*
X014265Y021465D03*
X014270Y021965D03*
D74*
X014635Y022310D03*
X014630Y022320D03*
X014625Y022335D03*
X014620Y022345D03*
X014615Y022360D03*
X014610Y022370D03*
X014605Y022385D03*
X014600Y022395D03*
X014595Y022410D03*
X014590Y022420D03*
X014585Y022435D03*
X014580Y022445D03*
X014580Y022450D03*
X014575Y022460D03*
X014570Y022470D03*
X014570Y022475D03*
X014570Y022480D03*
X014565Y022485D03*
X014565Y022490D03*
X014560Y022495D03*
X014640Y022295D03*
X014650Y022270D03*
X014660Y022245D03*
X014665Y022230D03*
X014670Y022220D03*
X014675Y022205D03*
X014680Y022195D03*
X014685Y022180D03*
X014690Y022170D03*
X014690Y022165D03*
X014735Y022045D03*
X014740Y022040D03*
X014740Y022035D03*
X014745Y022025D03*
X014745Y022020D03*
X014750Y022015D03*
X014750Y022010D03*
X014755Y022000D03*
X014755Y021995D03*
X014760Y021985D03*
X014760Y021980D03*
X014765Y021975D03*
X014765Y021970D03*
X014770Y021960D03*
X014770Y021955D03*
X014775Y021950D03*
X014775Y021945D03*
X014780Y021935D03*
X014780Y021930D03*
X014785Y021925D03*
X014785Y021920D03*
X014790Y021910D03*
X014790Y021905D03*
X014795Y021900D03*
X014795Y021895D03*
X014800Y021885D03*
X014800Y021880D03*
X014805Y021875D03*
X014805Y021870D03*
X014810Y021860D03*
X014810Y021855D03*
X014815Y021850D03*
X014815Y021845D03*
X014815Y021840D03*
X014820Y021835D03*
X014820Y021830D03*
X014825Y021825D03*
X014825Y021820D03*
X014825Y021815D03*
X014830Y021810D03*
X014830Y021805D03*
X014835Y021795D03*
X014835Y021790D03*
X014840Y021785D03*
X014840Y021780D03*
X014845Y021770D03*
X014845Y021765D03*
X014850Y021760D03*
X014850Y021755D03*
X014855Y021745D03*
X014855Y021740D03*
X014860Y021735D03*
X014860Y021730D03*
X014865Y021720D03*
X014865Y021715D03*
X014870Y021710D03*
X014870Y021705D03*
X014870Y021700D03*
X014875Y021695D03*
X014875Y021690D03*
X014880Y021685D03*
X014880Y021680D03*
X014880Y021675D03*
X014885Y021670D03*
X014885Y021665D03*
X014890Y021660D03*
X014890Y021655D03*
X014890Y021650D03*
X014895Y021645D03*
X014895Y021640D03*
X014900Y021630D03*
X014900Y021625D03*
X014905Y021620D03*
X014905Y021615D03*
X014910Y021605D03*
X014910Y021600D03*
X014915Y021595D03*
X014915Y021590D03*
X014920Y021580D03*
X014920Y021575D03*
X014925Y021570D03*
X014925Y021565D03*
X014930Y021555D03*
X014930Y021550D03*
X014935Y021545D03*
X014935Y021540D03*
X014935Y021535D03*
X014940Y021530D03*
X014940Y021525D03*
X014945Y021520D03*
X014945Y021515D03*
X014945Y021510D03*
X014950Y021505D03*
X014950Y021500D03*
X014955Y021490D03*
X014955Y021485D03*
X014960Y021480D03*
X014960Y021475D03*
X014965Y021465D03*
X014965Y021460D03*
X014970Y021455D03*
X014970Y021450D03*
X014975Y021440D03*
X014975Y021435D03*
X014980Y021430D03*
X014980Y021425D03*
X014985Y021415D03*
X014985Y021410D03*
X014990Y021405D03*
X014990Y021400D03*
X014990Y021395D03*
X014995Y021390D03*
X014995Y021385D03*
X015000Y021380D03*
X015000Y021375D03*
X015000Y021370D03*
X015005Y021365D03*
X015005Y021360D03*
X015010Y021350D03*
X015010Y021345D03*
X015015Y021340D03*
X015015Y021335D03*
X015020Y021325D03*
X015020Y021320D03*
X015025Y021315D03*
X015025Y021310D03*
X015030Y021300D03*
X015030Y021295D03*
X015035Y021290D03*
X015035Y021285D03*
X015040Y021275D03*
X015040Y021270D03*
X015045Y021265D03*
X015045Y021260D03*
X015045Y021255D03*
X015050Y021250D03*
X015050Y021245D03*
X015055Y021240D03*
X015055Y021235D03*
X015055Y021230D03*
X015060Y021225D03*
X015060Y021220D03*
X015065Y021210D03*
X015065Y021205D03*
X015070Y021200D03*
X015070Y021195D03*
X015075Y021185D03*
X015075Y021180D03*
X015080Y021175D03*
X015080Y021170D03*
X015085Y021160D03*
X015085Y021155D03*
X015090Y021150D03*
X015090Y021145D03*
X015095Y021135D03*
X015095Y021130D03*
X015100Y021125D03*
X015180Y021145D03*
X015190Y021170D03*
X015195Y021180D03*
X015200Y021195D03*
X015205Y021205D03*
X015210Y021215D03*
X015210Y021220D03*
X015215Y021230D03*
X015220Y021240D03*
X015220Y021245D03*
X015225Y021255D03*
X015230Y021265D03*
X015230Y021270D03*
X015235Y021280D03*
X015240Y021290D03*
X015245Y021300D03*
X015245Y021305D03*
X015250Y021315D03*
X015255Y021325D03*
X015255Y021330D03*
X015260Y021340D03*
X015265Y021350D03*
X015265Y021355D03*
X015265Y021360D03*
X015270Y021365D03*
X015270Y021370D03*
X015275Y021375D03*
X015275Y021380D03*
X015275Y021385D03*
X015280Y021390D03*
X015280Y021395D03*
X015285Y021405D03*
X015285Y021410D03*
X015290Y021415D03*
X015290Y021420D03*
X015295Y021430D03*
X015295Y021435D03*
X015300Y021440D03*
X015300Y021445D03*
X015305Y021455D03*
X015305Y021460D03*
X015310Y021465D03*
X015310Y021470D03*
X015315Y021480D03*
X015315Y021485D03*
X015320Y021490D03*
X015320Y021495D03*
X015320Y021500D03*
X015355Y021580D03*
X015305Y021730D03*
X015310Y021740D03*
X015315Y021750D03*
X015320Y021760D03*
X015325Y021770D03*
X015330Y021780D03*
X015335Y021790D03*
X015340Y021800D03*
X015345Y021810D03*
X015350Y021820D03*
X015355Y021825D03*
X015355Y021830D03*
X015360Y021835D03*
X015360Y021840D03*
X015365Y021845D03*
X015365Y021850D03*
X015370Y021855D03*
X015370Y021860D03*
X015375Y021865D03*
X015380Y021875D03*
X015385Y021885D03*
X015390Y021895D03*
X015395Y021905D03*
X015400Y021915D03*
X015405Y021925D03*
X015410Y021935D03*
X015415Y021945D03*
X015420Y021955D03*
X015425Y021965D03*
X015430Y021975D03*
X015435Y021985D03*
X015440Y021995D03*
X015445Y022005D03*
X015450Y022015D03*
X015455Y022025D03*
X015460Y022035D03*
X015465Y022045D03*
X015470Y022055D03*
X015475Y022065D03*
X015545Y022065D03*
X015545Y022060D03*
X015545Y022055D03*
X015550Y022045D03*
X015550Y022040D03*
X015550Y022035D03*
X015555Y022025D03*
X015555Y022020D03*
X015555Y022015D03*
X015560Y022000D03*
X015560Y021995D03*
X015560Y021990D03*
X015565Y021980D03*
X015565Y021975D03*
X015565Y021970D03*
X015570Y021960D03*
X015570Y021955D03*
X015570Y021950D03*
X015575Y021940D03*
X015575Y021935D03*
X015575Y021930D03*
X015575Y021925D03*
X015580Y021915D03*
X015580Y021910D03*
X015580Y021905D03*
X015585Y021895D03*
X015585Y021890D03*
X015585Y021885D03*
X015590Y021875D03*
X015590Y021870D03*
X015590Y021865D03*
X015590Y021860D03*
X015595Y021850D03*
X015595Y021845D03*
X015595Y021840D03*
X015600Y021830D03*
X015600Y021825D03*
X015600Y021820D03*
X015605Y021810D03*
X015605Y021805D03*
X015605Y021800D03*
X015605Y021795D03*
X015610Y021785D03*
X015610Y021780D03*
X015610Y021775D03*
X015615Y021765D03*
X015615Y021760D03*
X015615Y021755D03*
X015620Y021745D03*
X015620Y021740D03*
X015620Y021735D03*
X015620Y021730D03*
X015625Y021720D03*
X015625Y021715D03*
X015625Y021710D03*
X015630Y021700D03*
X015630Y021695D03*
X015630Y021690D03*
X015635Y021680D03*
X015635Y021675D03*
X015635Y021670D03*
X015635Y021665D03*
X015640Y021655D03*
X015640Y021650D03*
X015640Y021645D03*
X015645Y021635D03*
X015645Y021630D03*
X015645Y021625D03*
X015650Y021615D03*
X015650Y021610D03*
X015650Y021605D03*
X015650Y021600D03*
X015655Y021590D03*
X015655Y021585D03*
X015655Y021580D03*
X015660Y021570D03*
X015660Y021565D03*
X015660Y021560D03*
X015665Y021550D03*
X015665Y021545D03*
X015665Y021540D03*
X015665Y021535D03*
X015670Y021525D03*
X015670Y021520D03*
X015670Y021515D03*
X015675Y021505D03*
X015675Y021500D03*
X015675Y021495D03*
X015680Y021485D03*
X015680Y021480D03*
X015680Y021475D03*
X015680Y021470D03*
X015685Y021460D03*
X015685Y021455D03*
X015685Y021450D03*
X015690Y021440D03*
X015690Y021435D03*
X015690Y021430D03*
X015695Y021420D03*
X015695Y021415D03*
X015695Y021410D03*
X015695Y021405D03*
X015700Y021395D03*
X015700Y021390D03*
X015700Y021385D03*
X015705Y021375D03*
X015705Y021370D03*
X015705Y021365D03*
X015710Y021355D03*
X015710Y021350D03*
X015710Y021345D03*
X015710Y021340D03*
X015715Y021330D03*
X015715Y021325D03*
X015720Y021310D03*
X015725Y021290D03*
X015725Y021285D03*
X015730Y021265D03*
X015800Y021255D03*
X015805Y021265D03*
X015810Y021275D03*
X015815Y021285D03*
X015820Y021295D03*
X015825Y021305D03*
X015830Y021315D03*
X015835Y021325D03*
X015900Y021295D03*
X015895Y021250D03*
X015890Y021220D03*
X015890Y021215D03*
X015890Y021210D03*
X015890Y021205D03*
X015885Y021190D03*
X015885Y021185D03*
X015885Y021180D03*
X015885Y021175D03*
X015885Y021170D03*
X015885Y021165D03*
X015885Y021160D03*
X015880Y021140D03*
X015880Y021135D03*
X015880Y021130D03*
X015880Y021125D03*
X015880Y021120D03*
X015880Y021115D03*
X015875Y021090D03*
X015755Y021155D03*
X015920Y021490D03*
X015920Y021495D03*
X015185Y021495D03*
X015165Y021600D03*
X015160Y021630D03*
X015155Y021655D03*
X015150Y021685D03*
X015145Y021715D03*
X015140Y021745D03*
X015135Y021770D03*
X015130Y021800D03*
X015125Y021830D03*
X015120Y021860D03*
X015115Y021890D03*
X015110Y021915D03*
X015105Y021945D03*
X015100Y021975D03*
X015095Y022005D03*
X015090Y022030D03*
X015085Y022060D03*
X015520Y022150D03*
X015520Y022155D03*
X015635Y022250D03*
X015170Y020900D03*
X015840Y020760D03*
D75*
X014920Y020765D03*
D76*
X015133Y021040D03*
X015133Y021045D03*
X015173Y021125D03*
X015173Y021130D03*
X015178Y021135D03*
X015178Y021140D03*
X015183Y021150D03*
X015183Y021155D03*
X015188Y021160D03*
X015188Y021165D03*
X015193Y021175D03*
X015198Y021185D03*
X015198Y021190D03*
X015203Y021200D03*
X015208Y021210D03*
X015213Y021225D03*
X015218Y021235D03*
X015223Y021250D03*
X015228Y021260D03*
X015233Y021275D03*
X015238Y021285D03*
X015243Y021295D03*
X015248Y021310D03*
X015253Y021320D03*
X015258Y021335D03*
X015263Y021345D03*
X015188Y021500D03*
X015188Y021505D03*
X015238Y021600D03*
X015243Y021610D03*
X015248Y021620D03*
X015253Y021625D03*
X015253Y021630D03*
X015258Y021635D03*
X015258Y021640D03*
X015263Y021645D03*
X015263Y021650D03*
X015268Y021655D03*
X015268Y021660D03*
X015273Y021665D03*
X015273Y021670D03*
X015278Y021675D03*
X015278Y021680D03*
X015283Y021685D03*
X015283Y021690D03*
X015288Y021695D03*
X015288Y021700D03*
X015293Y021705D03*
X015293Y021710D03*
X015298Y021715D03*
X015298Y021720D03*
X015303Y021725D03*
X015308Y021735D03*
X015313Y021745D03*
X015318Y021755D03*
X015323Y021765D03*
X015328Y021775D03*
X015333Y021785D03*
X015338Y021795D03*
X015343Y021805D03*
X015348Y021815D03*
X015378Y021870D03*
X015383Y021880D03*
X015388Y021890D03*
X015393Y021900D03*
X015398Y021910D03*
X015403Y021920D03*
X015408Y021930D03*
X015413Y021940D03*
X015418Y021950D03*
X015423Y021960D03*
X015428Y021970D03*
X015433Y021980D03*
X015438Y021990D03*
X015443Y022000D03*
X015448Y022010D03*
X015453Y022020D03*
X015458Y022030D03*
X015463Y022040D03*
X015468Y022050D03*
X015473Y022060D03*
X015353Y021575D03*
X015418Y021460D03*
X015433Y021435D03*
X015448Y021410D03*
X015453Y021400D03*
X015463Y021385D03*
X015468Y021375D03*
X015473Y021365D03*
X015478Y021360D03*
X015483Y021350D03*
X015488Y021340D03*
X015493Y021335D03*
X015498Y021325D03*
X015503Y021315D03*
X015508Y021305D03*
X015513Y021300D03*
X015513Y021295D03*
X015518Y021290D03*
X015518Y021285D03*
X015523Y021280D03*
X015528Y021275D03*
X015528Y021270D03*
X015533Y021265D03*
X015533Y021260D03*
X015538Y021255D03*
X015543Y021250D03*
X015543Y021245D03*
X015548Y021240D03*
X015548Y021235D03*
X015553Y021230D03*
X015558Y021225D03*
X015558Y021220D03*
X015563Y021215D03*
X015563Y021210D03*
X015568Y021205D03*
X015573Y021200D03*
X015573Y021195D03*
X015578Y021190D03*
X015578Y021185D03*
X015583Y021180D03*
X015588Y021175D03*
X015588Y021170D03*
X015593Y021165D03*
X015593Y021160D03*
X015598Y021155D03*
X015603Y021150D03*
X015603Y021145D03*
X015608Y021140D03*
X015608Y021135D03*
X015613Y021130D03*
X015618Y021125D03*
X015618Y021120D03*
X015623Y021115D03*
X015623Y021110D03*
X015628Y021105D03*
X015633Y021100D03*
X015633Y021095D03*
X015638Y021090D03*
X015638Y021085D03*
X015643Y021080D03*
X015648Y021075D03*
X015648Y021070D03*
X015653Y021065D03*
X015758Y021160D03*
X015758Y021165D03*
X015803Y021260D03*
X015808Y021270D03*
X015813Y021280D03*
X015818Y021290D03*
X015823Y021300D03*
X015828Y021310D03*
X015833Y021320D03*
X015918Y021485D03*
X015838Y020765D03*
X014688Y022175D03*
X014683Y022185D03*
X014683Y022190D03*
X014678Y022200D03*
X014673Y022210D03*
X014673Y022215D03*
X014668Y022225D03*
X014663Y022235D03*
X014663Y022240D03*
X014658Y022250D03*
X014658Y022255D03*
X014653Y022260D03*
X014653Y022265D03*
X014648Y022275D03*
X014648Y022280D03*
X014643Y022285D03*
X014643Y022290D03*
X014638Y022300D03*
X014638Y022305D03*
X014633Y022315D03*
X014628Y022325D03*
X014628Y022330D03*
X014623Y022340D03*
X014618Y022350D03*
X014618Y022355D03*
X014613Y022365D03*
X014608Y022375D03*
X014608Y022380D03*
X014603Y022390D03*
X014598Y022400D03*
X014598Y022405D03*
X014593Y022415D03*
X014588Y022425D03*
X014588Y022430D03*
X014583Y022440D03*
X014578Y022455D03*
X014573Y022465D03*
D77*
X014555Y022100D03*
X014920Y020770D03*
D78*
X015133Y021055D03*
X015188Y021510D03*
X015188Y021515D03*
X015648Y021060D03*
X015833Y020770D03*
X015908Y021455D03*
X015908Y021460D03*
X015518Y022135D03*
X015518Y022140D03*
D79*
X016000Y022435D03*
X014545Y022085D03*
X014920Y020775D03*
D80*
X014505Y020960D03*
X014500Y020965D03*
X014250Y021480D03*
X014245Y021485D03*
X014240Y021490D03*
X014240Y021940D03*
X014245Y021945D03*
X014250Y021950D03*
X015640Y022290D03*
X016890Y021830D03*
X016895Y021825D03*
X016900Y021380D03*
X016895Y021375D03*
X016890Y021370D03*
X016885Y021365D03*
X016860Y021340D03*
X016850Y021325D03*
X016800Y020890D03*
X016795Y020885D03*
X016790Y020880D03*
X015240Y020775D03*
D81*
X015830Y020775D03*
X015760Y021180D03*
X015760Y021185D03*
X015760Y021190D03*
X015905Y021445D03*
X015905Y021450D03*
X015355Y021560D03*
X015190Y021525D03*
X015190Y021520D03*
X015515Y022130D03*
X015635Y022255D03*
D82*
X015010Y020780D03*
D83*
X016368Y020780D03*
D84*
X015825Y020785D03*
X015760Y021200D03*
X015895Y021415D03*
X015895Y021420D03*
X015900Y021430D03*
X015355Y021550D03*
X015195Y021535D03*
X015135Y021065D03*
X015515Y022115D03*
X015515Y022120D03*
X015050Y022370D03*
D85*
X016615Y021980D03*
X016135Y020785D03*
D86*
X014985Y020790D03*
D87*
X015135Y021080D03*
X015195Y021545D03*
X015195Y021550D03*
X015765Y021215D03*
X015890Y021395D03*
X015890Y021400D03*
X015620Y020935D03*
X015635Y020925D03*
X015655Y020910D03*
X015670Y020900D03*
X015675Y020895D03*
X015685Y020890D03*
X015740Y020850D03*
X015755Y020840D03*
X015820Y020790D03*
X015515Y022105D03*
X015515Y022110D03*
X015235Y022495D03*
X014675Y022160D03*
D88*
X014593Y022130D03*
X014653Y020870D03*
X016123Y020790D03*
D89*
X014978Y020795D03*
X015998Y022390D03*
D90*
X015880Y021370D03*
X015880Y021365D03*
X015765Y021235D03*
X015765Y021230D03*
X015765Y021225D03*
X015635Y021055D03*
X015550Y020985D03*
X015695Y020885D03*
X015700Y020880D03*
X015715Y020870D03*
X015820Y020795D03*
X016080Y020835D03*
X015135Y021090D03*
X015200Y021565D03*
D91*
X015650Y022315D03*
X016265Y022340D03*
X016745Y021920D03*
X016650Y020795D03*
D92*
X015818Y020800D03*
X015543Y020995D03*
X015768Y021240D03*
X015878Y021355D03*
X015878Y021360D03*
X015358Y021525D03*
X015198Y021570D03*
X015138Y021100D03*
X015138Y021095D03*
X015513Y022085D03*
X015513Y022090D03*
X015638Y022265D03*
X015063Y022375D03*
D93*
X016283Y022335D03*
X015573Y021025D03*
X016663Y020800D03*
D94*
X014960Y020805D03*
D95*
X015163Y020885D03*
X015138Y021110D03*
X015203Y021585D03*
X015203Y021590D03*
X015508Y022070D03*
X015638Y022270D03*
X015873Y021340D03*
X015868Y021330D03*
X015768Y021250D03*
X016083Y020830D03*
X015813Y020805D03*
D96*
X014953Y020810D03*
X015998Y022385D03*
D97*
X015205Y021595D03*
X015360Y021510D03*
X015360Y021505D03*
X015135Y021115D03*
X015810Y020810D03*
D98*
X016688Y020810D03*
X016568Y022015D03*
X016303Y022325D03*
X015998Y022455D03*
X014608Y022140D03*
X014353Y022020D03*
X014358Y021405D03*
X014368Y021400D03*
X014373Y021395D03*
X014378Y021390D03*
D99*
X015138Y021120D03*
X015808Y020815D03*
D100*
X016093Y020815D03*
X015608Y021045D03*
X015153Y020875D03*
X014493Y020970D03*
X014488Y020975D03*
X014483Y020980D03*
X014238Y021935D03*
X015998Y022460D03*
X016418Y022245D03*
X016423Y022240D03*
X016428Y022235D03*
X016433Y022230D03*
X016898Y021820D03*
X016903Y021815D03*
X016908Y021810D03*
X016903Y021385D03*
X016848Y021320D03*
X016808Y020895D03*
D101*
X014935Y020820D03*
X014930Y020825D03*
D102*
X015158Y020880D03*
X015803Y020820D03*
X016883Y021015D03*
X016888Y021025D03*
X016888Y021030D03*
X016888Y021035D03*
X016893Y021045D03*
X016893Y021050D03*
X016893Y021055D03*
X016898Y021065D03*
X016898Y021070D03*
X016898Y021075D03*
X016898Y021080D03*
X016898Y021085D03*
X016903Y021125D03*
X016903Y021130D03*
X016903Y021135D03*
X016898Y021155D03*
X016898Y021160D03*
X016898Y021165D03*
X016898Y021170D03*
X016898Y021175D03*
X016893Y021180D03*
X016893Y021185D03*
X016893Y021190D03*
X016893Y021195D03*
X016888Y021200D03*
X016888Y021205D03*
X016883Y021220D03*
X016973Y021490D03*
X016978Y021505D03*
X016983Y021515D03*
X016983Y021520D03*
X016983Y021525D03*
X016988Y021535D03*
X016988Y021540D03*
X016988Y021545D03*
X016988Y021550D03*
X016993Y021565D03*
X016993Y021570D03*
X016993Y021575D03*
X016993Y021580D03*
X016993Y021585D03*
X016993Y021590D03*
X016993Y021595D03*
X016993Y021600D03*
X016993Y021605D03*
X016993Y021610D03*
X016993Y021615D03*
X016993Y021620D03*
X016993Y021625D03*
X016993Y021630D03*
X016988Y021650D03*
X016988Y021655D03*
X016988Y021660D03*
X016988Y021665D03*
X016983Y021670D03*
X016983Y021675D03*
X016983Y021680D03*
X016978Y021690D03*
X016978Y021695D03*
X016518Y022040D03*
X016518Y022045D03*
X016518Y022050D03*
X016513Y022065D03*
X016513Y022070D03*
X016513Y022075D03*
X016513Y022080D03*
X016508Y022090D03*
X016508Y022095D03*
X016508Y022100D03*
X016503Y022110D03*
X016498Y022125D03*
X014413Y021290D03*
X014408Y021280D03*
X014408Y021275D03*
X014408Y021270D03*
X014403Y021260D03*
X014403Y021255D03*
X014403Y021250D03*
X014403Y021245D03*
X014398Y021235D03*
X014398Y021230D03*
X014398Y021225D03*
X014398Y021220D03*
X014398Y021215D03*
X014398Y021210D03*
X014398Y021205D03*
X014398Y021200D03*
X014398Y021195D03*
X014398Y021190D03*
X014398Y021185D03*
X014398Y021180D03*
X014398Y021175D03*
X014398Y021170D03*
X014398Y021165D03*
X014398Y021160D03*
X014398Y021155D03*
X014403Y021140D03*
X014403Y021135D03*
X014403Y021130D03*
X014403Y021125D03*
X014408Y021120D03*
X014408Y021115D03*
X014408Y021110D03*
X014413Y021100D03*
X014158Y021620D03*
X014153Y021635D03*
X014153Y021640D03*
X014153Y021645D03*
X014148Y021650D03*
X014148Y021655D03*
X014148Y021660D03*
X014148Y021665D03*
X014143Y021675D03*
X014143Y021680D03*
X014143Y021685D03*
X014143Y021690D03*
X014143Y021695D03*
X014143Y021700D03*
X014143Y021705D03*
X014143Y021710D03*
X014143Y021715D03*
X014143Y021720D03*
X014143Y021725D03*
X014143Y021730D03*
X014143Y021735D03*
X014143Y021740D03*
X014143Y021745D03*
X014143Y021750D03*
X014148Y021765D03*
X014148Y021770D03*
X014148Y021775D03*
X014148Y021780D03*
X014153Y021785D03*
X014153Y021790D03*
X014153Y021795D03*
X014158Y021805D03*
X014158Y021810D03*
D103*
X014168Y021835D03*
X014173Y021845D03*
X014178Y021855D03*
X014183Y021865D03*
X014188Y021875D03*
X014168Y021595D03*
X014173Y021585D03*
X014178Y021575D03*
X014183Y021565D03*
X014188Y021555D03*
X014428Y021325D03*
X014423Y021315D03*
X014428Y021060D03*
X014433Y021050D03*
X014438Y021045D03*
X014443Y021035D03*
X016088Y020820D03*
X016853Y020955D03*
X016858Y020960D03*
X016858Y020965D03*
X016863Y020970D03*
X016868Y020980D03*
X016873Y020990D03*
X016873Y021245D03*
X016868Y021255D03*
X016863Y021265D03*
X016858Y021270D03*
X016853Y021280D03*
X016843Y021300D03*
X016948Y021440D03*
X016953Y021450D03*
X016958Y021455D03*
X016958Y021460D03*
X016963Y021730D03*
X016958Y021740D03*
X016953Y021745D03*
X016953Y021750D03*
X016948Y021755D03*
X016943Y021765D03*
X016483Y022155D03*
X016483Y022160D03*
X016478Y022165D03*
X016478Y022170D03*
X016473Y022175D03*
X015638Y022280D03*
D104*
X016485Y022150D03*
X016490Y022145D03*
X016490Y022140D03*
X016495Y022135D03*
X016495Y022130D03*
X016500Y022120D03*
X016500Y022115D03*
X016505Y022105D03*
X016960Y021735D03*
X016965Y021725D03*
X016965Y021720D03*
X016970Y021715D03*
X016970Y021710D03*
X016975Y021705D03*
X016975Y021700D03*
X016980Y021685D03*
X016985Y021530D03*
X016980Y021510D03*
X016975Y021500D03*
X016975Y021495D03*
X016970Y021485D03*
X016970Y021480D03*
X016965Y021475D03*
X016965Y021470D03*
X016960Y021465D03*
X016865Y021260D03*
X016870Y021250D03*
X016875Y021240D03*
X016875Y021235D03*
X016880Y021230D03*
X016880Y021225D03*
X016885Y021215D03*
X016885Y021210D03*
X016890Y021040D03*
X016885Y021020D03*
X016880Y021010D03*
X016880Y021005D03*
X016875Y021000D03*
X016875Y020995D03*
X016870Y020985D03*
X016865Y020975D03*
X015800Y020825D03*
X015550Y021000D03*
X014430Y021055D03*
X014425Y021065D03*
X014425Y021070D03*
X014420Y021075D03*
X014420Y021080D03*
X014415Y021085D03*
X014415Y021090D03*
X014415Y021095D03*
X014410Y021105D03*
X014405Y021265D03*
X014410Y021285D03*
X014415Y021295D03*
X014415Y021300D03*
X014420Y021305D03*
X014420Y021310D03*
X014425Y021320D03*
X014430Y021330D03*
X014180Y021570D03*
X014175Y021580D03*
X014170Y021590D03*
X014165Y021600D03*
X014165Y021605D03*
X014160Y021610D03*
X014160Y021615D03*
X014155Y021625D03*
X014155Y021630D03*
X014155Y021800D03*
X014160Y021815D03*
X014160Y021820D03*
X014165Y021825D03*
X014165Y021830D03*
X014170Y021840D03*
X014175Y021850D03*
X014180Y021860D03*
D105*
X014145Y021760D03*
X014145Y021755D03*
X014145Y021670D03*
X014400Y021240D03*
X014400Y021150D03*
X014400Y021145D03*
X015620Y021050D03*
X016085Y020825D03*
X016895Y021060D03*
X016900Y021090D03*
X016900Y021095D03*
X016900Y021100D03*
X016900Y021105D03*
X016900Y021110D03*
X016900Y021115D03*
X016900Y021120D03*
X016900Y021140D03*
X016900Y021145D03*
X016900Y021150D03*
X016990Y021555D03*
X016990Y021560D03*
X016990Y021635D03*
X016990Y021640D03*
X016990Y021645D03*
X016515Y022055D03*
X016515Y022060D03*
X016510Y022085D03*
X015640Y022275D03*
X015075Y022380D03*
D106*
X015998Y022380D03*
X014923Y020830D03*
D107*
X015135Y020865D03*
X015570Y021010D03*
X014575Y020905D03*
X014405Y021365D03*
X014315Y021430D03*
X014315Y022000D03*
X014620Y022145D03*
X015645Y022300D03*
X016725Y020830D03*
D108*
X016828Y020920D03*
X016833Y020925D03*
X016838Y020930D03*
X016918Y021400D03*
X016923Y021405D03*
X016928Y021410D03*
X016928Y021415D03*
X016933Y021420D03*
X016938Y021425D03*
X016933Y021780D03*
X016928Y021785D03*
X016923Y021790D03*
X016923Y021795D03*
X016453Y022205D03*
X016448Y022210D03*
X015793Y020835D03*
X014468Y021000D03*
X014463Y021005D03*
X014458Y021010D03*
X014218Y021515D03*
X014213Y021520D03*
X014208Y021525D03*
X014203Y021535D03*
X014203Y021895D03*
X014208Y021905D03*
X014213Y021910D03*
X014218Y021915D03*
X014643Y022155D03*
D109*
X015193Y021540D03*
X015358Y021540D03*
X015358Y021545D03*
X015138Y021075D03*
X015138Y021070D03*
X015763Y021205D03*
X015763Y021210D03*
X015893Y021405D03*
X015893Y021410D03*
X016078Y020840D03*
X015638Y022260D03*
D110*
X015520Y022145D03*
X015040Y022365D03*
X014730Y022050D03*
X015245Y021615D03*
X015240Y021605D03*
X015355Y021570D03*
X015355Y021565D03*
X015395Y021500D03*
X015395Y021495D03*
X015400Y021490D03*
X015405Y021485D03*
X015405Y021480D03*
X015410Y021475D03*
X015410Y021470D03*
X015415Y021465D03*
X015420Y021455D03*
X015425Y021450D03*
X015425Y021445D03*
X015430Y021440D03*
X015435Y021430D03*
X015440Y021425D03*
X015440Y021420D03*
X015445Y021415D03*
X015450Y021405D03*
X015455Y021395D03*
X015460Y021390D03*
X015465Y021380D03*
X015470Y021370D03*
X015480Y021355D03*
X015485Y021345D03*
X015495Y021330D03*
X015500Y021320D03*
X015505Y021310D03*
X015760Y021175D03*
X015760Y021170D03*
X015910Y021465D03*
X015910Y021470D03*
X015915Y021475D03*
X015915Y021480D03*
X016080Y020845D03*
X015135Y021050D03*
D111*
X014898Y020850D03*
D112*
X014890Y020855D03*
D113*
X014693Y020860D03*
X014573Y022115D03*
D114*
X014665Y020865D03*
X016250Y022345D03*
X016595Y021995D03*
D115*
X016445Y022215D03*
X016440Y022220D03*
X016435Y022225D03*
X016910Y021805D03*
X016915Y021800D03*
X016915Y021395D03*
X016910Y021390D03*
X016845Y021315D03*
X016825Y020915D03*
X016820Y020910D03*
X016815Y020905D03*
X016810Y020900D03*
X015640Y022285D03*
X014425Y021340D03*
X014235Y021495D03*
X014230Y021500D03*
X014225Y021505D03*
X014220Y021510D03*
X014220Y021920D03*
X014225Y021925D03*
X014230Y021930D03*
X014470Y020995D03*
X014475Y020990D03*
X014480Y020985D03*
D116*
X015130Y020965D03*
X015170Y021410D03*
X015170Y021415D03*
X015750Y021065D03*
X015965Y021640D03*
X015965Y021645D03*
X015635Y022245D03*
D117*
X015533Y022235D03*
X015533Y022230D03*
X015348Y021640D03*
X015348Y021635D03*
X015173Y021420D03*
X015133Y020970D03*
X015748Y021070D03*
X015748Y021075D03*
X015963Y021630D03*
X015963Y021635D03*
D118*
X015960Y021625D03*
X015960Y021620D03*
X015750Y021085D03*
X015750Y021080D03*
X015130Y020975D03*
X015170Y021425D03*
X015350Y021630D03*
X015530Y022220D03*
X015530Y022225D03*
X015995Y022465D03*
D119*
X015958Y021615D03*
X015958Y021610D03*
X015953Y021605D03*
X015953Y021600D03*
X015348Y021625D03*
X015173Y021435D03*
X015173Y021430D03*
X015133Y020985D03*
X015133Y020980D03*
D120*
X015133Y020995D03*
X015133Y021000D03*
X015178Y021450D03*
X015753Y021110D03*
X015753Y021105D03*
X015753Y021100D03*
X015948Y021580D03*
X015948Y021585D03*
X015528Y022200D03*
X015528Y022205D03*
D121*
X015510Y022080D03*
X015510Y022075D03*
X015360Y021520D03*
X015360Y021515D03*
X015200Y021575D03*
X015200Y021580D03*
X015135Y021105D03*
X015765Y021245D03*
X015870Y021335D03*
X015875Y021345D03*
X015875Y021350D03*
D122*
X015935Y021540D03*
X015935Y021545D03*
X015755Y021130D03*
X015755Y021125D03*
X015350Y021600D03*
X015180Y021475D03*
X015180Y021470D03*
X015525Y022180D03*
X015525Y022185D03*
D123*
X016648Y021955D03*
X016663Y021945D03*
X016673Y021940D03*
D124*
X016655Y021950D03*
X014560Y022105D03*
D125*
X015658Y022330D03*
X015998Y022445D03*
X016623Y021975D03*
D126*
X016608Y021985D03*
X016233Y022350D03*
X014578Y022120D03*
D127*
X014520Y022055D03*
X015230Y022460D03*
D128*
X014523Y022060D03*
D129*
X014533Y022070D03*
X015998Y022430D03*
D130*
X014535Y022075D03*
D131*
X014583Y022125D03*
D132*
X015663Y022335D03*
D133*
X015665Y022340D03*
D134*
X015673Y022345D03*
X015213Y022470D03*
D135*
X015683Y022350D03*
X015998Y022425D03*
D136*
X015905Y022355D03*
D137*
X015895Y022360D03*
D138*
X015883Y022365D03*
D139*
X015868Y022370D03*
D140*
X015850Y022375D03*
D141*
X015310Y022390D03*
X015305Y022395D03*
D142*
X015998Y022395D03*
D143*
X015300Y022400D03*
D144*
X015998Y022400D03*
D145*
X015998Y022405D03*
X015293Y022410D03*
D146*
X015283Y022420D03*
X015998Y022410D03*
D147*
X015998Y022415D03*
D148*
X016000Y022420D03*
D149*
X015275Y022425D03*
D150*
X015260Y022440D03*
D151*
X016000Y022440D03*
D152*
X015253Y022445D03*
D153*
X015238Y022455D03*
D154*
X015203Y022475D03*
D155*
X019851Y018450D02*
X019851Y018270D01*
X019986Y018270D01*
X019941Y018360D01*
X019941Y018405D01*
X019986Y018450D01*
X020076Y018450D01*
X020121Y018405D01*
X020121Y018315D01*
X020076Y018270D01*
X020121Y018156D02*
X020031Y018066D01*
X020031Y018111D02*
X020031Y017976D01*
X020121Y017976D02*
X019851Y017976D01*
X019851Y018111D01*
X019896Y018156D01*
X019986Y018156D01*
X020031Y018111D01*
X022500Y017890D02*
X022500Y017620D01*
X022500Y017710D02*
X022635Y017710D01*
X022680Y017755D01*
X022680Y017845D01*
X022635Y017890D01*
X022500Y017890D01*
X022590Y017710D02*
X022680Y017620D01*
X022795Y017665D02*
X022840Y017620D01*
X022930Y017620D01*
X022975Y017665D01*
X022975Y017710D01*
X022930Y017755D01*
X022885Y017755D01*
X022930Y017755D02*
X022975Y017800D01*
X022975Y017845D01*
X022930Y017890D01*
X022840Y017890D01*
X022795Y017845D01*
X022840Y018654D02*
X022795Y018699D01*
X022795Y018790D01*
X022930Y018790D01*
X022975Y018744D01*
X022975Y018699D01*
X022930Y018654D01*
X022840Y018654D01*
X022795Y018790D02*
X022885Y018880D01*
X022975Y018925D01*
X022680Y018880D02*
X022680Y018790D01*
X022635Y018744D01*
X022500Y018744D01*
X022500Y018654D02*
X022500Y018925D01*
X022635Y018925D01*
X022680Y018880D01*
X022590Y018744D02*
X022680Y018654D01*
X022638Y019639D02*
X022503Y019639D01*
X022503Y019909D01*
X022638Y019909D01*
X022684Y019864D01*
X022684Y019684D01*
X022638Y019639D01*
X022798Y019639D02*
X022978Y019819D01*
X022978Y019864D01*
X022933Y019909D01*
X022843Y019909D01*
X022798Y019864D01*
X022798Y019639D02*
X022978Y019639D01*
X021771Y020734D02*
X021771Y020914D01*
X021771Y021028D02*
X021771Y021209D01*
X021771Y021323D02*
X021771Y021458D01*
X021726Y021503D01*
X021545Y021503D01*
X021500Y021458D01*
X021500Y021323D01*
X021771Y021323D01*
X021635Y021119D02*
X021635Y021028D01*
X021500Y021028D02*
X021771Y021028D01*
X021500Y021028D02*
X021500Y021209D01*
X021545Y021618D02*
X021500Y021663D01*
X021500Y021753D01*
X021545Y021798D01*
X021590Y021798D01*
X021771Y021618D01*
X021771Y021798D01*
X021771Y020734D02*
X021500Y020734D01*
X024723Y016189D02*
X025173Y016189D01*
X025173Y016039D02*
X025173Y016339D01*
X024873Y016039D02*
X024723Y016189D01*
X021126Y014635D02*
X020968Y014635D01*
X020905Y014085D02*
X019256Y014085D01*
X019419Y013922D02*
X019419Y013652D01*
X019555Y013652D01*
X019600Y013697D01*
X019600Y013742D01*
X019555Y013787D01*
X019419Y013787D01*
X019419Y013922D02*
X019555Y013922D01*
X019600Y013877D01*
X019600Y013832D01*
X019555Y013787D01*
X019714Y013877D02*
X019714Y013697D01*
X019759Y013652D01*
X019849Y013652D01*
X019894Y013697D01*
X020009Y013697D02*
X020054Y013652D01*
X020144Y013652D01*
X020189Y013697D01*
X020189Y013742D01*
X020144Y013787D01*
X020099Y013787D01*
X020144Y013787D02*
X020189Y013832D01*
X020189Y013877D01*
X020144Y013922D01*
X020054Y013922D01*
X020009Y013877D01*
X019894Y013877D02*
X019849Y013922D01*
X019759Y013922D01*
X019714Y013877D01*
X020303Y013877D02*
X020348Y013922D01*
X020439Y013922D01*
X020484Y013877D01*
X020484Y013832D01*
X020439Y013787D01*
X020484Y013742D01*
X020484Y013697D01*
X020439Y013652D01*
X020348Y013652D01*
X020303Y013697D01*
X020393Y013787D02*
X020439Y013787D01*
X020598Y013697D02*
X020778Y013877D01*
X020778Y013922D01*
X020598Y013922D01*
X020598Y013697D02*
X020598Y013652D01*
X020193Y014635D02*
X019968Y014635D01*
X019255Y014084D02*
X019220Y014132D01*
X019187Y014182D01*
X019156Y014234D01*
X019129Y014288D01*
X019105Y014343D01*
X019085Y014400D01*
X019067Y014457D01*
X019053Y014515D01*
X019042Y014574D01*
X019035Y014634D01*
X019035Y014635D02*
X019193Y014635D01*
X020390Y015738D02*
X020450Y015718D01*
X020509Y015694D01*
X020566Y015666D01*
X020621Y015635D01*
X020675Y015600D01*
X020726Y015563D01*
X020775Y015522D01*
X020821Y015478D01*
X020865Y015432D01*
X020906Y015383D01*
X020944Y015332D01*
X020978Y015279D01*
X021010Y015223D01*
X021037Y015166D01*
X021062Y015107D01*
X021082Y015047D01*
X021100Y014986D01*
X021113Y014924D01*
X021122Y014861D01*
X021128Y014798D01*
X021130Y014734D01*
X021128Y014670D01*
X021122Y014607D01*
X021113Y014544D01*
X021099Y014482D01*
X021082Y014421D01*
X021061Y014361D01*
X021037Y014302D01*
X021009Y014245D01*
X020977Y014189D01*
X020942Y014136D01*
X020905Y014085D01*
X019035Y014635D02*
X019031Y014697D01*
X019030Y014760D01*
X019034Y014822D01*
X019041Y014884D01*
X019051Y014945D01*
X019066Y015006D01*
X019084Y015066D01*
X019105Y015125D01*
X019130Y015182D01*
X019158Y015237D01*
X019189Y015291D01*
X019224Y015343D01*
X019262Y015393D01*
X019302Y015440D01*
X019346Y015485D01*
X019391Y015528D01*
X019440Y015567D01*
X019490Y015604D01*
X019543Y015637D01*
X019597Y015668D01*
X019654Y015695D01*
X019711Y015718D01*
X019770Y015738D01*
X019770Y012785D02*
X019711Y012765D01*
X019654Y012742D01*
X019597Y012715D01*
X019543Y012684D01*
X019490Y012651D01*
X019440Y012614D01*
X019391Y012575D01*
X019346Y012532D01*
X019302Y012487D01*
X019262Y012440D01*
X019224Y012390D01*
X019189Y012338D01*
X019158Y012284D01*
X019130Y012229D01*
X019105Y012172D01*
X019084Y012113D01*
X019066Y012053D01*
X019051Y011992D01*
X019041Y011931D01*
X019034Y011869D01*
X019030Y011807D01*
X019031Y011744D01*
X019035Y011682D01*
X019193Y011682D01*
X019256Y011132D02*
X020905Y011132D01*
X020680Y010970D02*
X020680Y010925D01*
X020500Y010744D01*
X020500Y010699D01*
X020385Y010744D02*
X020340Y010699D01*
X020250Y010699D01*
X020205Y010744D01*
X020090Y010744D02*
X020045Y010699D01*
X019955Y010699D01*
X019910Y010744D01*
X019796Y010744D02*
X019751Y010699D01*
X019661Y010699D01*
X019616Y010744D01*
X019616Y010925D01*
X019661Y010970D01*
X019751Y010970D01*
X019796Y010925D01*
X019910Y010925D02*
X019955Y010970D01*
X020045Y010970D01*
X020090Y010925D01*
X020090Y010880D01*
X020045Y010834D01*
X020090Y010789D01*
X020090Y010744D01*
X020045Y010834D02*
X020000Y010834D01*
X020205Y010925D02*
X020250Y010970D01*
X020340Y010970D01*
X020385Y010925D01*
X020385Y010880D01*
X020340Y010834D01*
X020385Y010789D01*
X020385Y010744D01*
X020340Y010834D02*
X020295Y010834D01*
X020500Y010970D02*
X020680Y010970D01*
X020968Y011682D02*
X021126Y011682D01*
X020193Y011682D02*
X019968Y011682D01*
X019255Y011132D02*
X019220Y011180D01*
X019187Y011230D01*
X019156Y011282D01*
X019129Y011336D01*
X019105Y011391D01*
X019085Y011448D01*
X019067Y011505D01*
X019053Y011563D01*
X019042Y011622D01*
X019035Y011682D01*
X019321Y010970D02*
X019456Y010970D01*
X019501Y010925D01*
X019501Y010880D01*
X019456Y010834D01*
X019321Y010834D01*
X019321Y010699D02*
X019321Y010970D01*
X019456Y010834D02*
X019501Y010789D01*
X019501Y010744D01*
X019456Y010699D01*
X019321Y010699D01*
X020905Y011132D02*
X020942Y011183D01*
X020977Y011236D01*
X021009Y011292D01*
X021037Y011349D01*
X021061Y011408D01*
X021082Y011468D01*
X021099Y011529D01*
X021113Y011591D01*
X021122Y011654D01*
X021128Y011717D01*
X021130Y011781D01*
X021128Y011845D01*
X021122Y011908D01*
X021113Y011971D01*
X021100Y012033D01*
X021082Y012094D01*
X021062Y012154D01*
X021037Y012213D01*
X021010Y012270D01*
X020978Y012326D01*
X020944Y012379D01*
X020906Y012430D01*
X020865Y012479D01*
X020821Y012525D01*
X020775Y012569D01*
X020726Y012610D01*
X020675Y012647D01*
X020621Y012682D01*
X020566Y012713D01*
X020509Y012741D01*
X020450Y012765D01*
X020390Y012785D01*
X024723Y012252D02*
X025173Y012252D01*
X025173Y012102D02*
X025173Y012402D01*
X024873Y012102D02*
X024723Y012252D01*
X022898Y008876D02*
X022807Y008786D01*
X022693Y008831D02*
X022648Y008876D01*
X022513Y008876D01*
X022513Y008606D01*
X022648Y008606D01*
X022693Y008651D01*
X022693Y008831D01*
X022898Y008876D02*
X022898Y008606D01*
X022988Y008606D02*
X022807Y008606D01*
X022898Y007892D02*
X022807Y007801D01*
X022693Y007756D02*
X022648Y007711D01*
X022513Y007711D01*
X022513Y007621D02*
X022513Y007892D01*
X022648Y007892D01*
X022693Y007847D01*
X022693Y007756D01*
X022603Y007711D02*
X022693Y007621D01*
X022807Y007621D02*
X022988Y007621D01*
X022898Y007621D02*
X022898Y007892D01*
X022943Y006907D02*
X022852Y006907D01*
X022807Y006862D01*
X022693Y006862D02*
X022693Y006772D01*
X022648Y006727D01*
X022513Y006727D01*
X022603Y006727D02*
X022693Y006637D01*
X022807Y006637D02*
X022988Y006817D01*
X022988Y006862D01*
X022943Y006907D01*
X022693Y006862D02*
X022648Y006907D01*
X022513Y006907D01*
X022513Y006637D01*
X022807Y006637D02*
X022988Y006637D01*
X021771Y005706D02*
X021771Y005526D01*
X021771Y005616D02*
X021500Y005616D01*
X021590Y005526D01*
X021545Y005412D02*
X021500Y005367D01*
X021500Y005231D01*
X021771Y005231D01*
X021771Y005367D01*
X021726Y005412D01*
X021545Y005412D01*
X021500Y005117D02*
X021500Y004937D01*
X021771Y004937D01*
X021771Y005117D01*
X021635Y005027D02*
X021635Y004937D01*
X021771Y004822D02*
X021771Y004642D01*
X021500Y004642D01*
X020127Y007974D02*
X019857Y007974D01*
X019857Y008109D01*
X019902Y008154D01*
X019992Y008154D01*
X020037Y008109D01*
X020037Y007974D01*
X020037Y008064D02*
X020127Y008154D01*
X019992Y008269D02*
X019857Y008404D01*
X020127Y008404D01*
X019992Y008449D02*
X019992Y008269D01*
X009532Y011847D02*
X009457Y011772D01*
X009532Y011847D02*
X009532Y011922D01*
X009457Y011997D01*
X009081Y011997D01*
X009081Y011922D02*
X009081Y012072D01*
X009156Y012232D02*
X009081Y012307D01*
X009081Y012457D01*
X009156Y012532D01*
X009231Y012532D01*
X009532Y012232D01*
X009532Y012532D01*
X005890Y014594D02*
X005890Y014895D01*
X005890Y014745D02*
X005440Y014745D01*
X005590Y014594D01*
X009081Y019009D02*
X009081Y019159D01*
X009081Y019084D02*
X009457Y019084D01*
X009532Y019009D01*
X009532Y018933D01*
X009457Y018858D01*
X009307Y019319D02*
X009307Y019619D01*
X009532Y019544D02*
X009081Y019544D01*
X009307Y019319D01*
X005890Y007808D02*
X005890Y007508D01*
X005890Y007658D02*
X005440Y007658D01*
X005590Y007508D01*
D156*
X019877Y004790D02*
X019907Y004742D01*
X019940Y004697D01*
X019976Y004654D01*
X020014Y004613D01*
X020056Y004576D01*
X020100Y004541D01*
X020146Y004510D01*
X020195Y004481D01*
X020245Y004457D01*
X020297Y004436D01*
X020351Y004418D01*
X020405Y004405D01*
X020460Y004395D01*
X020516Y004389D01*
X020572Y004387D01*
X019866Y005563D02*
X019893Y005610D01*
X019923Y005655D01*
X019956Y005698D01*
X019992Y005738D01*
X020031Y005776D01*
X020072Y005811D01*
X020115Y005844D01*
X020160Y005873D01*
X020208Y005899D01*
X020257Y005922D01*
X020307Y005942D01*
X020358Y005958D01*
X020411Y005971D01*
X020464Y005980D01*
X020518Y005985D01*
X020572Y005987D01*
X021183Y004670D02*
X021147Y004631D01*
X021108Y004593D01*
X021068Y004559D01*
X021025Y004527D01*
X020980Y004499D01*
X020933Y004473D01*
X020884Y004450D01*
X020834Y004431D01*
X020783Y004415D01*
X020731Y004403D01*
X020679Y004394D01*
X020625Y004389D01*
X020572Y004387D01*
X021187Y005699D02*
X021151Y005739D01*
X021112Y005777D01*
X021071Y005812D01*
X021028Y005844D01*
X020983Y005874D01*
X020936Y005900D01*
X020887Y005922D01*
X020836Y005942D01*
X020785Y005958D01*
X020733Y005971D01*
X020679Y005980D01*
X020626Y005985D01*
X020572Y005987D01*
X019866Y021705D02*
X019893Y021752D01*
X019923Y021797D01*
X019956Y021840D01*
X019992Y021880D01*
X020031Y021918D01*
X020072Y021953D01*
X020115Y021986D01*
X020160Y022015D01*
X020208Y022041D01*
X020257Y022064D01*
X020307Y022084D01*
X020358Y022100D01*
X020411Y022113D01*
X020464Y022122D01*
X020518Y022127D01*
X020572Y022129D01*
X019877Y020932D02*
X019907Y020884D01*
X019940Y020839D01*
X019976Y020796D01*
X020014Y020755D01*
X020056Y020718D01*
X020100Y020683D01*
X020146Y020652D01*
X020195Y020623D01*
X020245Y020599D01*
X020297Y020578D01*
X020351Y020560D01*
X020405Y020547D01*
X020460Y020537D01*
X020516Y020531D01*
X020572Y020529D01*
X020625Y020531D01*
X020679Y020536D01*
X020731Y020545D01*
X020783Y020557D01*
X020834Y020573D01*
X020884Y020592D01*
X020933Y020615D01*
X020980Y020641D01*
X021025Y020669D01*
X021068Y020701D01*
X021108Y020735D01*
X021147Y020773D01*
X021183Y020812D01*
X021187Y021841D02*
X021151Y021881D01*
X021112Y021919D01*
X021071Y021954D01*
X021028Y021986D01*
X020983Y022016D01*
X020936Y022042D01*
X020887Y022064D01*
X020836Y022084D01*
X020785Y022100D01*
X020733Y022113D01*
X020679Y022122D01*
X020626Y022127D01*
X020572Y022129D01*
D157*
X005612Y021526D02*
X005612Y004990D01*
X006557Y004990D02*
X006559Y005040D01*
X006565Y005090D01*
X006575Y005139D01*
X006589Y005187D01*
X006606Y005234D01*
X006627Y005279D01*
X006652Y005323D01*
X006680Y005364D01*
X006712Y005403D01*
X006746Y005440D01*
X006783Y005474D01*
X006823Y005504D01*
X006865Y005531D01*
X006909Y005555D01*
X006955Y005576D01*
X007002Y005592D01*
X007050Y005605D01*
X007100Y005614D01*
X007149Y005619D01*
X007200Y005620D01*
X007250Y005617D01*
X007299Y005610D01*
X007348Y005599D01*
X007396Y005584D01*
X007442Y005566D01*
X007487Y005544D01*
X007530Y005518D01*
X007571Y005489D01*
X007610Y005457D01*
X007646Y005422D01*
X007678Y005384D01*
X007708Y005344D01*
X007735Y005301D01*
X007758Y005257D01*
X007777Y005211D01*
X007793Y005163D01*
X007805Y005114D01*
X007813Y005065D01*
X007817Y005015D01*
X007817Y004965D01*
X007813Y004915D01*
X007805Y004866D01*
X007793Y004817D01*
X007777Y004769D01*
X007758Y004723D01*
X007735Y004679D01*
X007708Y004636D01*
X007678Y004596D01*
X007646Y004558D01*
X007610Y004523D01*
X007571Y004491D01*
X007530Y004462D01*
X007487Y004436D01*
X007442Y004414D01*
X007396Y004396D01*
X007348Y004381D01*
X007299Y004370D01*
X007250Y004363D01*
X007200Y004360D01*
X007149Y004361D01*
X007100Y004366D01*
X007050Y004375D01*
X007002Y004388D01*
X006955Y004404D01*
X006909Y004425D01*
X006865Y004449D01*
X006823Y004476D01*
X006783Y004506D01*
X006746Y004540D01*
X006712Y004577D01*
X006680Y004616D01*
X006652Y004657D01*
X006627Y004701D01*
X006606Y004746D01*
X006589Y004793D01*
X006575Y004841D01*
X006565Y004890D01*
X006559Y004940D01*
X006557Y004990D01*
X005612Y004990D02*
X005614Y004913D01*
X005620Y004836D01*
X005629Y004759D01*
X005642Y004683D01*
X005659Y004607D01*
X005680Y004533D01*
X005704Y004459D01*
X005732Y004387D01*
X005763Y004317D01*
X005798Y004248D01*
X005836Y004180D01*
X005877Y004115D01*
X005922Y004052D01*
X005970Y003991D01*
X006020Y003932D01*
X006073Y003876D01*
X006129Y003823D01*
X006188Y003773D01*
X006249Y003725D01*
X006312Y003680D01*
X006377Y003639D01*
X006445Y003601D01*
X006514Y003566D01*
X006584Y003535D01*
X006656Y003507D01*
X006730Y003483D01*
X006804Y003462D01*
X006880Y003445D01*
X006956Y003432D01*
X007033Y003423D01*
X007110Y003417D01*
X007187Y003415D01*
X007187Y003416D02*
X023722Y003416D01*
X023092Y004990D02*
X023094Y005040D01*
X023100Y005090D01*
X023110Y005139D01*
X023124Y005187D01*
X023141Y005234D01*
X023162Y005279D01*
X023187Y005323D01*
X023215Y005364D01*
X023247Y005403D01*
X023281Y005440D01*
X023318Y005474D01*
X023358Y005504D01*
X023400Y005531D01*
X023444Y005555D01*
X023490Y005576D01*
X023537Y005592D01*
X023585Y005605D01*
X023635Y005614D01*
X023684Y005619D01*
X023735Y005620D01*
X023785Y005617D01*
X023834Y005610D01*
X023883Y005599D01*
X023931Y005584D01*
X023977Y005566D01*
X024022Y005544D01*
X024065Y005518D01*
X024106Y005489D01*
X024145Y005457D01*
X024181Y005422D01*
X024213Y005384D01*
X024243Y005344D01*
X024270Y005301D01*
X024293Y005257D01*
X024312Y005211D01*
X024328Y005163D01*
X024340Y005114D01*
X024348Y005065D01*
X024352Y005015D01*
X024352Y004965D01*
X024348Y004915D01*
X024340Y004866D01*
X024328Y004817D01*
X024312Y004769D01*
X024293Y004723D01*
X024270Y004679D01*
X024243Y004636D01*
X024213Y004596D01*
X024181Y004558D01*
X024145Y004523D01*
X024106Y004491D01*
X024065Y004462D01*
X024022Y004436D01*
X023977Y004414D01*
X023931Y004396D01*
X023883Y004381D01*
X023834Y004370D01*
X023785Y004363D01*
X023735Y004360D01*
X023684Y004361D01*
X023635Y004366D01*
X023585Y004375D01*
X023537Y004388D01*
X023490Y004404D01*
X023444Y004425D01*
X023400Y004449D01*
X023358Y004476D01*
X023318Y004506D01*
X023281Y004540D01*
X023247Y004577D01*
X023215Y004616D01*
X023187Y004657D01*
X023162Y004701D01*
X023141Y004746D01*
X023124Y004793D01*
X023110Y004841D01*
X023100Y004890D01*
X023094Y004940D01*
X023092Y004990D01*
X023722Y003415D02*
X023799Y003417D01*
X023876Y003423D01*
X023953Y003432D01*
X024029Y003445D01*
X024105Y003462D01*
X024179Y003483D01*
X024253Y003507D01*
X024325Y003535D01*
X024395Y003566D01*
X024464Y003601D01*
X024532Y003639D01*
X024597Y003680D01*
X024660Y003725D01*
X024721Y003773D01*
X024780Y003823D01*
X024836Y003876D01*
X024889Y003932D01*
X024939Y003991D01*
X024987Y004052D01*
X025032Y004115D01*
X025073Y004180D01*
X025111Y004248D01*
X025146Y004317D01*
X025177Y004387D01*
X025205Y004459D01*
X025229Y004533D01*
X025250Y004607D01*
X025267Y004683D01*
X025280Y004759D01*
X025289Y004836D01*
X025295Y004913D01*
X025297Y004990D01*
X025297Y021526D01*
X023092Y021526D02*
X023094Y021576D01*
X023100Y021626D01*
X023110Y021675D01*
X023124Y021723D01*
X023141Y021770D01*
X023162Y021815D01*
X023187Y021859D01*
X023215Y021900D01*
X023247Y021939D01*
X023281Y021976D01*
X023318Y022010D01*
X023358Y022040D01*
X023400Y022067D01*
X023444Y022091D01*
X023490Y022112D01*
X023537Y022128D01*
X023585Y022141D01*
X023635Y022150D01*
X023684Y022155D01*
X023735Y022156D01*
X023785Y022153D01*
X023834Y022146D01*
X023883Y022135D01*
X023931Y022120D01*
X023977Y022102D01*
X024022Y022080D01*
X024065Y022054D01*
X024106Y022025D01*
X024145Y021993D01*
X024181Y021958D01*
X024213Y021920D01*
X024243Y021880D01*
X024270Y021837D01*
X024293Y021793D01*
X024312Y021747D01*
X024328Y021699D01*
X024340Y021650D01*
X024348Y021601D01*
X024352Y021551D01*
X024352Y021501D01*
X024348Y021451D01*
X024340Y021402D01*
X024328Y021353D01*
X024312Y021305D01*
X024293Y021259D01*
X024270Y021215D01*
X024243Y021172D01*
X024213Y021132D01*
X024181Y021094D01*
X024145Y021059D01*
X024106Y021027D01*
X024065Y020998D01*
X024022Y020972D01*
X023977Y020950D01*
X023931Y020932D01*
X023883Y020917D01*
X023834Y020906D01*
X023785Y020899D01*
X023735Y020896D01*
X023684Y020897D01*
X023635Y020902D01*
X023585Y020911D01*
X023537Y020924D01*
X023490Y020940D01*
X023444Y020961D01*
X023400Y020985D01*
X023358Y021012D01*
X023318Y021042D01*
X023281Y021076D01*
X023247Y021113D01*
X023215Y021152D01*
X023187Y021193D01*
X023162Y021237D01*
X023141Y021282D01*
X023124Y021329D01*
X023110Y021377D01*
X023100Y021426D01*
X023094Y021476D01*
X023092Y021526D01*
X023722Y023101D02*
X023799Y023099D01*
X023876Y023093D01*
X023953Y023084D01*
X024029Y023071D01*
X024105Y023054D01*
X024179Y023033D01*
X024253Y023009D01*
X024325Y022981D01*
X024395Y022950D01*
X024464Y022915D01*
X024532Y022877D01*
X024597Y022836D01*
X024660Y022791D01*
X024721Y022743D01*
X024780Y022693D01*
X024836Y022640D01*
X024889Y022584D01*
X024939Y022525D01*
X024987Y022464D01*
X025032Y022401D01*
X025073Y022336D01*
X025111Y022268D01*
X025146Y022199D01*
X025177Y022129D01*
X025205Y022057D01*
X025229Y021983D01*
X025250Y021909D01*
X025267Y021833D01*
X025280Y021757D01*
X025289Y021680D01*
X025295Y021603D01*
X025297Y021526D01*
X023722Y023101D02*
X007187Y023101D01*
X006557Y021526D02*
X006559Y021576D01*
X006565Y021626D01*
X006575Y021675D01*
X006589Y021723D01*
X006606Y021770D01*
X006627Y021815D01*
X006652Y021859D01*
X006680Y021900D01*
X006712Y021939D01*
X006746Y021976D01*
X006783Y022010D01*
X006823Y022040D01*
X006865Y022067D01*
X006909Y022091D01*
X006955Y022112D01*
X007002Y022128D01*
X007050Y022141D01*
X007100Y022150D01*
X007149Y022155D01*
X007200Y022156D01*
X007250Y022153D01*
X007299Y022146D01*
X007348Y022135D01*
X007396Y022120D01*
X007442Y022102D01*
X007487Y022080D01*
X007530Y022054D01*
X007571Y022025D01*
X007610Y021993D01*
X007646Y021958D01*
X007678Y021920D01*
X007708Y021880D01*
X007735Y021837D01*
X007758Y021793D01*
X007777Y021747D01*
X007793Y021699D01*
X007805Y021650D01*
X007813Y021601D01*
X007817Y021551D01*
X007817Y021501D01*
X007813Y021451D01*
X007805Y021402D01*
X007793Y021353D01*
X007777Y021305D01*
X007758Y021259D01*
X007735Y021215D01*
X007708Y021172D01*
X007678Y021132D01*
X007646Y021094D01*
X007610Y021059D01*
X007571Y021027D01*
X007530Y020998D01*
X007487Y020972D01*
X007442Y020950D01*
X007396Y020932D01*
X007348Y020917D01*
X007299Y020906D01*
X007250Y020899D01*
X007200Y020896D01*
X007149Y020897D01*
X007100Y020902D01*
X007050Y020911D01*
X007002Y020924D01*
X006955Y020940D01*
X006909Y020961D01*
X006865Y020985D01*
X006823Y021012D01*
X006783Y021042D01*
X006746Y021076D01*
X006712Y021113D01*
X006680Y021152D01*
X006652Y021193D01*
X006627Y021237D01*
X006606Y021282D01*
X006589Y021329D01*
X006575Y021377D01*
X006565Y021426D01*
X006559Y021476D01*
X006557Y021526D01*
X005612Y021526D02*
X005614Y021603D01*
X005620Y021680D01*
X005629Y021757D01*
X005642Y021833D01*
X005659Y021909D01*
X005680Y021983D01*
X005704Y022057D01*
X005732Y022129D01*
X005763Y022199D01*
X005798Y022268D01*
X005836Y022336D01*
X005877Y022401D01*
X005922Y022464D01*
X005970Y022525D01*
X006020Y022584D01*
X006073Y022640D01*
X006129Y022693D01*
X006188Y022743D01*
X006249Y022791D01*
X006312Y022836D01*
X006377Y022877D01*
X006445Y022915D01*
X006514Y022950D01*
X006584Y022981D01*
X006656Y023009D01*
X006730Y023033D01*
X006804Y023054D01*
X006880Y023071D01*
X006956Y023084D01*
X007033Y023093D01*
X007110Y023099D01*
X007187Y023101D01*
D158*
X008269Y019983D02*
X008330Y019754D01*
X008563Y019754D02*
X008624Y019983D01*
X008269Y019983D01*
X008269Y018770D02*
X008271Y018796D01*
X008277Y018822D01*
X008287Y018847D01*
X008300Y018870D01*
X008316Y018890D01*
X008336Y018908D01*
X008358Y018923D01*
X008381Y018935D01*
X008407Y018943D01*
X008433Y018947D01*
X008459Y018947D01*
X008485Y018943D01*
X008511Y018935D01*
X008535Y018923D01*
X008556Y018908D01*
X008576Y018890D01*
X008592Y018870D01*
X008605Y018847D01*
X008615Y018822D01*
X008621Y018796D01*
X008623Y018770D01*
X008621Y018744D01*
X008615Y018718D01*
X008605Y018693D01*
X008592Y018670D01*
X008576Y018650D01*
X008556Y018632D01*
X008534Y018617D01*
X008511Y018605D01*
X008485Y018597D01*
X008459Y018593D01*
X008433Y018593D01*
X008407Y018597D01*
X008381Y018605D01*
X008357Y018617D01*
X008336Y018632D01*
X008316Y018650D01*
X008300Y018670D01*
X008287Y018693D01*
X008277Y018718D01*
X008271Y018744D01*
X008269Y018770D01*
X008269Y016801D02*
X008271Y016827D01*
X008277Y016853D01*
X008287Y016878D01*
X008300Y016901D01*
X008316Y016921D01*
X008336Y016939D01*
X008358Y016954D01*
X008381Y016966D01*
X008407Y016974D01*
X008433Y016978D01*
X008459Y016978D01*
X008485Y016974D01*
X008511Y016966D01*
X008535Y016954D01*
X008556Y016939D01*
X008576Y016921D01*
X008592Y016901D01*
X008605Y016878D01*
X008615Y016853D01*
X008621Y016827D01*
X008623Y016801D01*
X008621Y016775D01*
X008615Y016749D01*
X008605Y016724D01*
X008592Y016701D01*
X008576Y016681D01*
X008556Y016663D01*
X008534Y016648D01*
X008511Y016636D01*
X008485Y016628D01*
X008459Y016624D01*
X008433Y016624D01*
X008407Y016628D01*
X008381Y016636D01*
X008357Y016648D01*
X008336Y016663D01*
X008316Y016681D01*
X008300Y016701D01*
X008287Y016724D01*
X008277Y016749D01*
X008271Y016775D01*
X008269Y016801D01*
X008269Y014833D02*
X008271Y014859D01*
X008277Y014885D01*
X008287Y014910D01*
X008300Y014933D01*
X008316Y014953D01*
X008336Y014971D01*
X008358Y014986D01*
X008381Y014998D01*
X008407Y015006D01*
X008433Y015010D01*
X008459Y015010D01*
X008485Y015006D01*
X008511Y014998D01*
X008535Y014986D01*
X008556Y014971D01*
X008576Y014953D01*
X008592Y014933D01*
X008605Y014910D01*
X008615Y014885D01*
X008621Y014859D01*
X008623Y014833D01*
X008621Y014807D01*
X008615Y014781D01*
X008605Y014756D01*
X008592Y014733D01*
X008576Y014713D01*
X008556Y014695D01*
X008534Y014680D01*
X008511Y014668D01*
X008485Y014660D01*
X008459Y014656D01*
X008433Y014656D01*
X008407Y014660D01*
X008381Y014668D01*
X008357Y014680D01*
X008336Y014695D01*
X008316Y014713D01*
X008300Y014733D01*
X008287Y014756D01*
X008277Y014781D01*
X008271Y014807D01*
X008269Y014833D01*
X008269Y012896D02*
X008330Y012668D01*
X008563Y012668D02*
X008624Y012896D01*
X008269Y012896D01*
X008269Y011683D02*
X008271Y011709D01*
X008277Y011735D01*
X008287Y011760D01*
X008300Y011783D01*
X008316Y011803D01*
X008336Y011821D01*
X008358Y011836D01*
X008381Y011848D01*
X008407Y011856D01*
X008433Y011860D01*
X008459Y011860D01*
X008485Y011856D01*
X008511Y011848D01*
X008535Y011836D01*
X008556Y011821D01*
X008576Y011803D01*
X008592Y011783D01*
X008605Y011760D01*
X008615Y011735D01*
X008621Y011709D01*
X008623Y011683D01*
X008621Y011657D01*
X008615Y011631D01*
X008605Y011606D01*
X008592Y011583D01*
X008576Y011563D01*
X008556Y011545D01*
X008534Y011530D01*
X008511Y011518D01*
X008485Y011510D01*
X008459Y011506D01*
X008433Y011506D01*
X008407Y011510D01*
X008381Y011518D01*
X008357Y011530D01*
X008336Y011545D01*
X008316Y011563D01*
X008300Y011583D01*
X008287Y011606D01*
X008277Y011631D01*
X008271Y011657D01*
X008269Y011683D01*
X008269Y009715D02*
X008271Y009741D01*
X008277Y009767D01*
X008287Y009792D01*
X008300Y009815D01*
X008316Y009835D01*
X008336Y009853D01*
X008358Y009868D01*
X008381Y009880D01*
X008407Y009888D01*
X008433Y009892D01*
X008459Y009892D01*
X008485Y009888D01*
X008511Y009880D01*
X008535Y009868D01*
X008556Y009853D01*
X008576Y009835D01*
X008592Y009815D01*
X008605Y009792D01*
X008615Y009767D01*
X008621Y009741D01*
X008623Y009715D01*
X008621Y009689D01*
X008615Y009663D01*
X008605Y009638D01*
X008592Y009615D01*
X008576Y009595D01*
X008556Y009577D01*
X008534Y009562D01*
X008511Y009550D01*
X008485Y009542D01*
X008459Y009538D01*
X008433Y009538D01*
X008407Y009542D01*
X008381Y009550D01*
X008357Y009562D01*
X008336Y009577D01*
X008316Y009595D01*
X008300Y009615D01*
X008287Y009638D01*
X008277Y009663D01*
X008271Y009689D01*
X008269Y009715D01*
X008269Y007746D02*
X008271Y007772D01*
X008277Y007798D01*
X008287Y007823D01*
X008300Y007846D01*
X008316Y007866D01*
X008336Y007884D01*
X008358Y007899D01*
X008381Y007911D01*
X008407Y007919D01*
X008433Y007923D01*
X008459Y007923D01*
X008485Y007919D01*
X008511Y007911D01*
X008535Y007899D01*
X008556Y007884D01*
X008576Y007866D01*
X008592Y007846D01*
X008605Y007823D01*
X008615Y007798D01*
X008621Y007772D01*
X008623Y007746D01*
X008621Y007720D01*
X008615Y007694D01*
X008605Y007669D01*
X008592Y007646D01*
X008576Y007626D01*
X008556Y007608D01*
X008534Y007593D01*
X008511Y007581D01*
X008485Y007573D01*
X008459Y007569D01*
X008433Y007569D01*
X008407Y007573D01*
X008381Y007581D01*
X008357Y007593D01*
X008336Y007608D01*
X008316Y007626D01*
X008300Y007646D01*
X008287Y007669D01*
X008277Y007694D01*
X008271Y007720D01*
X008269Y007746D01*
X021990Y009093D02*
X022344Y009093D01*
X022283Y009321D01*
X022051Y009321D02*
X021990Y009093D01*
X021990Y010305D02*
X021992Y010331D01*
X021998Y010357D01*
X022008Y010382D01*
X022021Y010405D01*
X022037Y010425D01*
X022057Y010443D01*
X022079Y010458D01*
X022102Y010470D01*
X022128Y010478D01*
X022154Y010482D01*
X022180Y010482D01*
X022206Y010478D01*
X022232Y010470D01*
X022256Y010458D01*
X022277Y010443D01*
X022297Y010425D01*
X022313Y010405D01*
X022326Y010382D01*
X022336Y010357D01*
X022342Y010331D01*
X022344Y010305D01*
X022342Y010279D01*
X022336Y010253D01*
X022326Y010228D01*
X022313Y010205D01*
X022297Y010185D01*
X022277Y010167D01*
X022255Y010152D01*
X022232Y010140D01*
X022206Y010132D01*
X022180Y010128D01*
X022154Y010128D01*
X022128Y010132D01*
X022102Y010140D01*
X022078Y010152D01*
X022057Y010167D01*
X022037Y010185D01*
X022021Y010205D01*
X022008Y010228D01*
X021998Y010253D01*
X021992Y010279D01*
X021990Y010305D01*
X021990Y012274D02*
X021992Y012300D01*
X021998Y012326D01*
X022008Y012351D01*
X022021Y012374D01*
X022037Y012394D01*
X022057Y012412D01*
X022079Y012427D01*
X022102Y012439D01*
X022128Y012447D01*
X022154Y012451D01*
X022180Y012451D01*
X022206Y012447D01*
X022232Y012439D01*
X022256Y012427D01*
X022277Y012412D01*
X022297Y012394D01*
X022313Y012374D01*
X022326Y012351D01*
X022336Y012326D01*
X022342Y012300D01*
X022344Y012274D01*
X022342Y012248D01*
X022336Y012222D01*
X022326Y012197D01*
X022313Y012174D01*
X022297Y012154D01*
X022277Y012136D01*
X022255Y012121D01*
X022232Y012109D01*
X022206Y012101D01*
X022180Y012097D01*
X022154Y012097D01*
X022128Y012101D01*
X022102Y012109D01*
X022078Y012121D01*
X022057Y012136D01*
X022037Y012154D01*
X022021Y012174D01*
X022008Y012197D01*
X021998Y012222D01*
X021992Y012248D01*
X021990Y012274D01*
X021990Y013030D02*
X022344Y013030D01*
X022283Y013258D01*
X022051Y013258D02*
X021990Y013030D01*
X021990Y014242D02*
X021992Y014268D01*
X021998Y014294D01*
X022008Y014319D01*
X022021Y014342D01*
X022037Y014362D01*
X022057Y014380D01*
X022079Y014395D01*
X022102Y014407D01*
X022128Y014415D01*
X022154Y014419D01*
X022180Y014419D01*
X022206Y014415D01*
X022232Y014407D01*
X022256Y014395D01*
X022277Y014380D01*
X022297Y014362D01*
X022313Y014342D01*
X022326Y014319D01*
X022336Y014294D01*
X022342Y014268D01*
X022344Y014242D01*
X022342Y014216D01*
X022336Y014190D01*
X022326Y014165D01*
X022313Y014142D01*
X022297Y014122D01*
X022277Y014104D01*
X022255Y014089D01*
X022232Y014077D01*
X022206Y014069D01*
X022180Y014065D01*
X022154Y014065D01*
X022128Y014069D01*
X022102Y014077D01*
X022078Y014089D01*
X022057Y014104D01*
X022037Y014122D01*
X022021Y014142D01*
X022008Y014165D01*
X021998Y014190D01*
X021992Y014216D01*
X021990Y014242D01*
X021990Y016211D02*
X021992Y016237D01*
X021998Y016263D01*
X022008Y016288D01*
X022021Y016311D01*
X022037Y016331D01*
X022057Y016349D01*
X022079Y016364D01*
X022102Y016376D01*
X022128Y016384D01*
X022154Y016388D01*
X022180Y016388D01*
X022206Y016384D01*
X022232Y016376D01*
X022256Y016364D01*
X022277Y016349D01*
X022297Y016331D01*
X022313Y016311D01*
X022326Y016288D01*
X022336Y016263D01*
X022342Y016237D01*
X022344Y016211D01*
X022342Y016185D01*
X022336Y016159D01*
X022326Y016134D01*
X022313Y016111D01*
X022297Y016091D01*
X022277Y016073D01*
X022255Y016058D01*
X022232Y016046D01*
X022206Y016038D01*
X022180Y016034D01*
X022154Y016034D01*
X022128Y016038D01*
X022102Y016046D01*
X022078Y016058D01*
X022057Y016073D01*
X022037Y016091D01*
X022021Y016111D01*
X022008Y016134D01*
X021998Y016159D01*
X021992Y016185D01*
X021990Y016211D01*
M02*
