%
M48
M72
T01C0.0236
T02C0.0320
T03C0.0354
T04C0.0512
T05C0.0551
T06C0.1260
%
T01
X9943Y7353
X13486Y9715
X15061Y9715
X9943Y12077
X9943Y14439
X13486Y16801
X15061Y16801
X9943Y19164
T02
X19580Y14735
X20080Y15485
X20580Y14735
X20080Y12532
X19580Y11782
X20580Y11782
X21072Y5187
X20072Y5187
X20072Y21329
X21072Y21329
T03
X21238Y19754
X21238Y18770
X21238Y17786
X19982Y16778
X19982Y19778
X24238Y19754
X24238Y18770
X24238Y17786
X19982Y9738
X21238Y8731
X21238Y7746
X21238Y6762
X19982Y6738
X24238Y6762
X24238Y7746
X24238Y8731
T04
X16911Y9715
X16124Y7353
X11320Y7353
X11320Y12077
X11360Y14435
X16163Y14435
X16124Y12077
X16950Y16798
X16163Y19160
X11360Y19160
T05
X7305Y18770
X7305Y16801
X7305Y14833
X7305Y11683
X7305Y9715
X7305Y7746
X23309Y10305
X23309Y12274
X23309Y14242
X23309Y16211
T06
X7187Y4990
X23722Y4990
X23722Y21526
X7187Y21526
M30
