G75*
G70*
%OFA0B0*%
%FSLAX24Y24*%
%IPPOS*%
%LPD*%
%AMOC8*
5,1,8,0,0,1.08239X$1,22.5*
%
%ADD10C,0.0740*%
%ADD11C,0.0937*%
%ADD12OC8,0.0480*%
%ADD13C,0.0768*%
%ADD14C,0.0000*%
%ADD15C,0.0160*%
%ADD16C,0.1000*%
%ADD17C,0.0100*%
D10*
X017817Y005459D03*
X019285Y005384D03*
X020285Y005384D03*
X017817Y008459D03*
X017817Y009593D03*
X018801Y009593D03*
X019785Y009593D03*
X019785Y012593D03*
X018801Y012593D03*
X017817Y012593D03*
X017817Y014514D03*
X019285Y014439D03*
X020285Y014439D03*
X017817Y017514D03*
X017817Y018648D03*
X018801Y018648D03*
X019785Y018648D03*
X019785Y021648D03*
X018801Y021648D03*
X017817Y021648D03*
D11*
X022840Y016211D02*
X023777Y016211D01*
X023777Y014242D02*
X022840Y014242D01*
X022840Y012274D02*
X023777Y012274D01*
X023777Y010305D02*
X022840Y010305D01*
X008561Y016809D02*
X007624Y016809D01*
X007624Y018778D02*
X008561Y018778D01*
X008462Y009715D02*
X007525Y009715D01*
X007525Y007746D02*
X008462Y007746D01*
D12*
X019285Y007943D03*
X019785Y008693D03*
X020285Y007943D03*
X020285Y016998D03*
X019785Y017748D03*
X019285Y016998D03*
D13*
X015887Y015616D03*
X013486Y012156D03*
X015848Y011368D03*
X011163Y015616D03*
X011124Y011368D03*
X011124Y006565D03*
X015848Y006565D03*
X015887Y020420D03*
X013525Y021207D03*
X011163Y020420D03*
D14*
X005612Y021526D02*
X005612Y004990D01*
X006557Y004990D02*
X006559Y005040D01*
X006565Y005090D01*
X006575Y005139D01*
X006589Y005187D01*
X006606Y005234D01*
X006627Y005279D01*
X006652Y005323D01*
X006680Y005364D01*
X006712Y005403D01*
X006746Y005440D01*
X006783Y005474D01*
X006823Y005504D01*
X006865Y005531D01*
X006909Y005555D01*
X006955Y005576D01*
X007002Y005592D01*
X007050Y005605D01*
X007100Y005614D01*
X007149Y005619D01*
X007200Y005620D01*
X007250Y005617D01*
X007299Y005610D01*
X007348Y005599D01*
X007396Y005584D01*
X007442Y005566D01*
X007487Y005544D01*
X007530Y005518D01*
X007571Y005489D01*
X007610Y005457D01*
X007646Y005422D01*
X007678Y005384D01*
X007708Y005344D01*
X007735Y005301D01*
X007758Y005257D01*
X007777Y005211D01*
X007793Y005163D01*
X007805Y005114D01*
X007813Y005065D01*
X007817Y005015D01*
X007817Y004965D01*
X007813Y004915D01*
X007805Y004866D01*
X007793Y004817D01*
X007777Y004769D01*
X007758Y004723D01*
X007735Y004679D01*
X007708Y004636D01*
X007678Y004596D01*
X007646Y004558D01*
X007610Y004523D01*
X007571Y004491D01*
X007530Y004462D01*
X007487Y004436D01*
X007442Y004414D01*
X007396Y004396D01*
X007348Y004381D01*
X007299Y004370D01*
X007250Y004363D01*
X007200Y004360D01*
X007149Y004361D01*
X007100Y004366D01*
X007050Y004375D01*
X007002Y004388D01*
X006955Y004404D01*
X006909Y004425D01*
X006865Y004449D01*
X006823Y004476D01*
X006783Y004506D01*
X006746Y004540D01*
X006712Y004577D01*
X006680Y004616D01*
X006652Y004657D01*
X006627Y004701D01*
X006606Y004746D01*
X006589Y004793D01*
X006575Y004841D01*
X006565Y004890D01*
X006559Y004940D01*
X006557Y004990D01*
X005612Y004990D02*
X005614Y004913D01*
X005620Y004836D01*
X005629Y004759D01*
X005642Y004683D01*
X005659Y004607D01*
X005680Y004533D01*
X005704Y004459D01*
X005732Y004387D01*
X005763Y004317D01*
X005798Y004248D01*
X005836Y004180D01*
X005877Y004115D01*
X005922Y004052D01*
X005970Y003991D01*
X006020Y003932D01*
X006073Y003876D01*
X006129Y003823D01*
X006188Y003773D01*
X006249Y003725D01*
X006312Y003680D01*
X006377Y003639D01*
X006445Y003601D01*
X006514Y003566D01*
X006584Y003535D01*
X006656Y003507D01*
X006730Y003483D01*
X006804Y003462D01*
X006880Y003445D01*
X006956Y003432D01*
X007033Y003423D01*
X007110Y003417D01*
X007187Y003415D01*
X007187Y003416D02*
X023722Y003416D01*
X023092Y004990D02*
X023094Y005040D01*
X023100Y005090D01*
X023110Y005139D01*
X023124Y005187D01*
X023141Y005234D01*
X023162Y005279D01*
X023187Y005323D01*
X023215Y005364D01*
X023247Y005403D01*
X023281Y005440D01*
X023318Y005474D01*
X023358Y005504D01*
X023400Y005531D01*
X023444Y005555D01*
X023490Y005576D01*
X023537Y005592D01*
X023585Y005605D01*
X023635Y005614D01*
X023684Y005619D01*
X023735Y005620D01*
X023785Y005617D01*
X023834Y005610D01*
X023883Y005599D01*
X023931Y005584D01*
X023977Y005566D01*
X024022Y005544D01*
X024065Y005518D01*
X024106Y005489D01*
X024145Y005457D01*
X024181Y005422D01*
X024213Y005384D01*
X024243Y005344D01*
X024270Y005301D01*
X024293Y005257D01*
X024312Y005211D01*
X024328Y005163D01*
X024340Y005114D01*
X024348Y005065D01*
X024352Y005015D01*
X024352Y004965D01*
X024348Y004915D01*
X024340Y004866D01*
X024328Y004817D01*
X024312Y004769D01*
X024293Y004723D01*
X024270Y004679D01*
X024243Y004636D01*
X024213Y004596D01*
X024181Y004558D01*
X024145Y004523D01*
X024106Y004491D01*
X024065Y004462D01*
X024022Y004436D01*
X023977Y004414D01*
X023931Y004396D01*
X023883Y004381D01*
X023834Y004370D01*
X023785Y004363D01*
X023735Y004360D01*
X023684Y004361D01*
X023635Y004366D01*
X023585Y004375D01*
X023537Y004388D01*
X023490Y004404D01*
X023444Y004425D01*
X023400Y004449D01*
X023358Y004476D01*
X023318Y004506D01*
X023281Y004540D01*
X023247Y004577D01*
X023215Y004616D01*
X023187Y004657D01*
X023162Y004701D01*
X023141Y004746D01*
X023124Y004793D01*
X023110Y004841D01*
X023100Y004890D01*
X023094Y004940D01*
X023092Y004990D01*
X023722Y003415D02*
X023799Y003417D01*
X023876Y003423D01*
X023953Y003432D01*
X024029Y003445D01*
X024105Y003462D01*
X024179Y003483D01*
X024253Y003507D01*
X024325Y003535D01*
X024395Y003566D01*
X024464Y003601D01*
X024532Y003639D01*
X024597Y003680D01*
X024660Y003725D01*
X024721Y003773D01*
X024780Y003823D01*
X024836Y003876D01*
X024889Y003932D01*
X024939Y003991D01*
X024987Y004052D01*
X025032Y004115D01*
X025073Y004180D01*
X025111Y004248D01*
X025146Y004317D01*
X025177Y004387D01*
X025205Y004459D01*
X025229Y004533D01*
X025250Y004607D01*
X025267Y004683D01*
X025280Y004759D01*
X025289Y004836D01*
X025295Y004913D01*
X025297Y004990D01*
X025297Y021526D01*
X023092Y021526D02*
X023094Y021576D01*
X023100Y021626D01*
X023110Y021675D01*
X023124Y021723D01*
X023141Y021770D01*
X023162Y021815D01*
X023187Y021859D01*
X023215Y021900D01*
X023247Y021939D01*
X023281Y021976D01*
X023318Y022010D01*
X023358Y022040D01*
X023400Y022067D01*
X023444Y022091D01*
X023490Y022112D01*
X023537Y022128D01*
X023585Y022141D01*
X023635Y022150D01*
X023684Y022155D01*
X023735Y022156D01*
X023785Y022153D01*
X023834Y022146D01*
X023883Y022135D01*
X023931Y022120D01*
X023977Y022102D01*
X024022Y022080D01*
X024065Y022054D01*
X024106Y022025D01*
X024145Y021993D01*
X024181Y021958D01*
X024213Y021920D01*
X024243Y021880D01*
X024270Y021837D01*
X024293Y021793D01*
X024312Y021747D01*
X024328Y021699D01*
X024340Y021650D01*
X024348Y021601D01*
X024352Y021551D01*
X024352Y021501D01*
X024348Y021451D01*
X024340Y021402D01*
X024328Y021353D01*
X024312Y021305D01*
X024293Y021259D01*
X024270Y021215D01*
X024243Y021172D01*
X024213Y021132D01*
X024181Y021094D01*
X024145Y021059D01*
X024106Y021027D01*
X024065Y020998D01*
X024022Y020972D01*
X023977Y020950D01*
X023931Y020932D01*
X023883Y020917D01*
X023834Y020906D01*
X023785Y020899D01*
X023735Y020896D01*
X023684Y020897D01*
X023635Y020902D01*
X023585Y020911D01*
X023537Y020924D01*
X023490Y020940D01*
X023444Y020961D01*
X023400Y020985D01*
X023358Y021012D01*
X023318Y021042D01*
X023281Y021076D01*
X023247Y021113D01*
X023215Y021152D01*
X023187Y021193D01*
X023162Y021237D01*
X023141Y021282D01*
X023124Y021329D01*
X023110Y021377D01*
X023100Y021426D01*
X023094Y021476D01*
X023092Y021526D01*
X023722Y023101D02*
X023799Y023099D01*
X023876Y023093D01*
X023953Y023084D01*
X024029Y023071D01*
X024105Y023054D01*
X024179Y023033D01*
X024253Y023009D01*
X024325Y022981D01*
X024395Y022950D01*
X024464Y022915D01*
X024532Y022877D01*
X024597Y022836D01*
X024660Y022791D01*
X024721Y022743D01*
X024780Y022693D01*
X024836Y022640D01*
X024889Y022584D01*
X024939Y022525D01*
X024987Y022464D01*
X025032Y022401D01*
X025073Y022336D01*
X025111Y022268D01*
X025146Y022199D01*
X025177Y022129D01*
X025205Y022057D01*
X025229Y021983D01*
X025250Y021909D01*
X025267Y021833D01*
X025280Y021757D01*
X025289Y021680D01*
X025295Y021603D01*
X025297Y021526D01*
X023722Y023101D02*
X007187Y023101D01*
X006557Y021526D02*
X006559Y021576D01*
X006565Y021626D01*
X006575Y021675D01*
X006589Y021723D01*
X006606Y021770D01*
X006627Y021815D01*
X006652Y021859D01*
X006680Y021900D01*
X006712Y021939D01*
X006746Y021976D01*
X006783Y022010D01*
X006823Y022040D01*
X006865Y022067D01*
X006909Y022091D01*
X006955Y022112D01*
X007002Y022128D01*
X007050Y022141D01*
X007100Y022150D01*
X007149Y022155D01*
X007200Y022156D01*
X007250Y022153D01*
X007299Y022146D01*
X007348Y022135D01*
X007396Y022120D01*
X007442Y022102D01*
X007487Y022080D01*
X007530Y022054D01*
X007571Y022025D01*
X007610Y021993D01*
X007646Y021958D01*
X007678Y021920D01*
X007708Y021880D01*
X007735Y021837D01*
X007758Y021793D01*
X007777Y021747D01*
X007793Y021699D01*
X007805Y021650D01*
X007813Y021601D01*
X007817Y021551D01*
X007817Y021501D01*
X007813Y021451D01*
X007805Y021402D01*
X007793Y021353D01*
X007777Y021305D01*
X007758Y021259D01*
X007735Y021215D01*
X007708Y021172D01*
X007678Y021132D01*
X007646Y021094D01*
X007610Y021059D01*
X007571Y021027D01*
X007530Y020998D01*
X007487Y020972D01*
X007442Y020950D01*
X007396Y020932D01*
X007348Y020917D01*
X007299Y020906D01*
X007250Y020899D01*
X007200Y020896D01*
X007149Y020897D01*
X007100Y020902D01*
X007050Y020911D01*
X007002Y020924D01*
X006955Y020940D01*
X006909Y020961D01*
X006865Y020985D01*
X006823Y021012D01*
X006783Y021042D01*
X006746Y021076D01*
X006712Y021113D01*
X006680Y021152D01*
X006652Y021193D01*
X006627Y021237D01*
X006606Y021282D01*
X006589Y021329D01*
X006575Y021377D01*
X006565Y021426D01*
X006559Y021476D01*
X006557Y021526D01*
X005612Y021526D02*
X005614Y021603D01*
X005620Y021680D01*
X005629Y021757D01*
X005642Y021833D01*
X005659Y021909D01*
X005680Y021983D01*
X005704Y022057D01*
X005732Y022129D01*
X005763Y022199D01*
X005798Y022268D01*
X005836Y022336D01*
X005877Y022401D01*
X005922Y022464D01*
X005970Y022525D01*
X006020Y022584D01*
X006073Y022640D01*
X006129Y022693D01*
X006188Y022743D01*
X006249Y022791D01*
X006312Y022836D01*
X006377Y022877D01*
X006445Y022915D01*
X006514Y022950D01*
X006584Y022981D01*
X006656Y023009D01*
X006730Y023033D01*
X006804Y023054D01*
X006880Y023071D01*
X006956Y023084D01*
X007033Y023093D01*
X007110Y023099D01*
X007187Y023101D01*
D15*
X008049Y020420D02*
X011163Y020420D01*
X008049Y020420D02*
X006793Y020148D01*
X006399Y019754D01*
X006399Y016211D01*
X008761Y013849D01*
X011124Y011486D01*
X011124Y011368D01*
X008761Y013849D02*
X016635Y013849D01*
X017817Y012668D01*
X017817Y012593D01*
X018801Y012593D02*
X018801Y012274D01*
X020572Y010502D01*
X022541Y010502D01*
X022738Y010305D01*
X023309Y010305D01*
X023309Y012274D02*
X022738Y012274D01*
X022419Y012593D01*
X019785Y012593D01*
X018801Y012593D02*
X018801Y013061D01*
X018210Y013652D01*
X017423Y013652D01*
X017029Y014046D01*
X017029Y015423D01*
X017620Y016014D01*
X019301Y016014D01*
X020285Y016998D01*
X020769Y017483D01*
X020769Y019360D01*
X018801Y021329D01*
X018801Y021648D01*
X019785Y021648D02*
X021557Y019876D01*
X021557Y015227D01*
X022738Y014242D01*
X023309Y014242D01*
X019285Y014439D02*
X017939Y014439D01*
X017817Y014514D01*
X018332Y016998D02*
X017817Y017514D01*
X017817Y018648D01*
X016242Y020420D01*
X015887Y020420D01*
X018801Y018648D02*
X019785Y018648D01*
X019785Y017748D01*
X019285Y016998D02*
X018332Y016998D01*
X016069Y011368D02*
X017817Y009593D01*
X017817Y008459D01*
X018387Y007943D01*
X019285Y007943D01*
X019785Y008693D02*
X019785Y009593D01*
X018801Y009593D01*
X020572Y010502D02*
X020572Y008034D01*
X020285Y007943D01*
X017817Y005459D02*
X017891Y005384D01*
X019285Y005384D01*
X016069Y011368D02*
X015848Y011368D01*
D16*
X013506Y011128D02*
X013506Y012136D01*
X013486Y012156D01*
X013506Y011128D02*
X012092Y009715D01*
X007994Y009715D01*
X007994Y007746D02*
X008958Y007746D01*
X008761Y007549D01*
X008761Y007353D01*
X009155Y006959D01*
X011124Y006565D01*
X009943Y007746D02*
X008958Y007746D01*
X011163Y015616D02*
X009970Y016809D01*
X009360Y016809D01*
X008958Y016408D01*
X008958Y016801D01*
X008171Y016801D01*
X008663Y016309D01*
X008761Y016309D01*
X008261Y016809D01*
X008092Y016809D01*
X008100Y018770D02*
X008092Y018778D01*
X008100Y018770D02*
X012305Y018770D01*
X013525Y019990D01*
X013525Y021207D01*
D17*
X013475Y021244D02*
X012108Y021244D01*
X012108Y021146D02*
X012994Y021146D01*
X012993Y021157D02*
X013004Y021082D01*
X013030Y021002D01*
X013069Y020927D01*
X013118Y020859D01*
X013177Y020800D01*
X013245Y020750D01*
X013320Y020712D01*
X013400Y020686D01*
X013475Y020674D01*
X013475Y021157D01*
X012993Y021157D01*
X012993Y021257D02*
X013475Y021257D01*
X013475Y021157D01*
X013575Y021157D01*
X013575Y020674D01*
X013650Y020686D01*
X013730Y020712D01*
X013805Y020750D01*
X013873Y020800D01*
X013932Y020859D01*
X013982Y020927D01*
X014020Y021002D01*
X014046Y021082D01*
X014058Y021157D01*
X013575Y021157D01*
X013575Y021257D01*
X013475Y021257D01*
X013475Y021740D01*
X013400Y021728D01*
X013320Y021702D01*
X013245Y021664D01*
X013177Y021614D01*
X013118Y021555D01*
X013069Y021487D01*
X013030Y021412D01*
X013004Y021332D01*
X012993Y021257D01*
X013008Y021343D02*
X012108Y021343D01*
X012108Y021441D02*
X013045Y021441D01*
X013107Y021540D02*
X012122Y021540D01*
X012108Y021526D02*
X012502Y021920D01*
X013880Y021920D01*
X014273Y021526D01*
X014273Y019754D01*
X014254Y018553D01*
X013978Y018278D01*
X009155Y018278D01*
X009155Y018376D01*
X009059Y018308D01*
X009015Y018358D01*
X009032Y018375D01*
X009090Y018454D01*
X009134Y018540D01*
X009164Y018633D01*
X009179Y018728D01*
X008688Y018728D01*
X008661Y018758D01*
X008704Y018828D01*
X009179Y018828D01*
X009164Y018923D01*
X009134Y019015D01*
X009090Y019102D01*
X009032Y019181D01*
X008964Y019249D01*
X009155Y019557D01*
X009165Y019561D01*
X009175Y019563D01*
X009185Y019561D01*
X009194Y019557D01*
X011714Y019557D01*
X012108Y019951D01*
X012108Y021526D01*
X012220Y021638D02*
X013210Y021638D01*
X013475Y021638D02*
X013575Y021638D01*
X013575Y021540D02*
X013475Y021540D01*
X013475Y021441D02*
X013575Y021441D01*
X013575Y021343D02*
X013475Y021343D01*
X013575Y021257D02*
X013575Y021740D01*
X013650Y021728D01*
X013730Y021702D01*
X013805Y021664D01*
X013873Y021614D01*
X013932Y021555D01*
X013982Y021487D01*
X014020Y021412D01*
X014046Y021332D01*
X014058Y021257D01*
X013575Y021257D01*
X013575Y021244D02*
X014273Y021244D01*
X014273Y021146D02*
X014056Y021146D01*
X014035Y021047D02*
X014273Y021047D01*
X014273Y020949D02*
X013993Y020949D01*
X013923Y020850D02*
X014273Y020850D01*
X014273Y020752D02*
X013807Y020752D01*
X013575Y020752D02*
X013475Y020752D01*
X013475Y020850D02*
X013575Y020850D01*
X013575Y020949D02*
X013475Y020949D01*
X013475Y021047D02*
X013575Y021047D01*
X013575Y021146D02*
X013475Y021146D01*
X014042Y021343D02*
X014273Y021343D01*
X014273Y021441D02*
X014005Y021441D01*
X013943Y021540D02*
X014259Y021540D01*
X014161Y021638D02*
X013840Y021638D01*
X013964Y021835D02*
X012417Y021835D01*
X012319Y021737D02*
X013457Y021737D01*
X013475Y021737D02*
X013575Y021737D01*
X013593Y021737D02*
X014062Y021737D01*
X014273Y020653D02*
X012108Y020653D01*
X012108Y020555D02*
X014273Y020555D01*
X014273Y020456D02*
X012108Y020456D01*
X012108Y020358D02*
X014273Y020358D01*
X014273Y020259D02*
X012108Y020259D01*
X012108Y020161D02*
X014273Y020161D01*
X014273Y020062D02*
X012108Y020062D01*
X012108Y019964D02*
X014273Y019964D01*
X014273Y019865D02*
X012022Y019865D01*
X011923Y019767D02*
X014273Y019767D01*
X014272Y019668D02*
X011825Y019668D01*
X011726Y019570D02*
X014270Y019570D01*
X014269Y019471D02*
X009102Y019471D01*
X009041Y019373D02*
X014267Y019373D01*
X014265Y019274D02*
X008980Y019274D01*
X009036Y019176D02*
X014264Y019176D01*
X014262Y019077D02*
X009102Y019077D01*
X009146Y018979D02*
X014261Y018979D01*
X014259Y018880D02*
X009171Y018880D01*
X009172Y018683D02*
X014256Y018683D01*
X014254Y018585D02*
X009148Y018585D01*
X009106Y018486D02*
X014186Y018486D01*
X014088Y018388D02*
X009042Y018388D01*
X009155Y018289D02*
X013989Y018289D01*
X014257Y018782D02*
X008676Y018782D01*
X008978Y017266D02*
X009156Y017286D01*
X011446Y017283D01*
X011911Y016801D01*
X011911Y015227D01*
X011517Y014833D01*
X009155Y014833D01*
X008209Y016191D01*
X008609Y016191D01*
X008705Y016206D01*
X008798Y016236D01*
X008885Y016280D01*
X008964Y016338D01*
X009032Y016406D01*
X009090Y016485D01*
X009134Y016572D01*
X009164Y016664D01*
X009179Y016759D01*
X008142Y016759D01*
X008142Y016859D01*
X009179Y016859D01*
X009164Y016954D01*
X009134Y017047D01*
X009090Y017133D01*
X009032Y017212D01*
X008978Y017266D01*
X009037Y017206D02*
X011521Y017206D01*
X011616Y017107D02*
X009103Y017107D01*
X009146Y017009D02*
X011711Y017009D01*
X011806Y016910D02*
X009171Y016910D01*
X009172Y016713D02*
X011911Y016713D01*
X011911Y016615D02*
X009148Y016615D01*
X009105Y016516D02*
X011911Y016516D01*
X011911Y016418D02*
X009041Y016418D01*
X008938Y016319D02*
X011911Y016319D01*
X011911Y016221D02*
X008750Y016221D01*
X008326Y016024D02*
X010815Y016024D01*
X010756Y015964D01*
X010706Y015896D01*
X010668Y015821D01*
X010642Y015741D01*
X010630Y015666D01*
X011113Y015666D01*
X011113Y015566D01*
X011213Y015566D01*
X011213Y015084D01*
X011288Y015096D01*
X011368Y015122D01*
X011443Y015160D01*
X011511Y015209D01*
X011570Y015269D01*
X011620Y015337D01*
X011658Y015411D01*
X011684Y015491D01*
X011696Y015566D01*
X011213Y015566D01*
X011213Y015666D01*
X011696Y015666D01*
X011684Y015741D01*
X011658Y015821D01*
X011620Y015896D01*
X011570Y015964D01*
X011511Y016024D01*
X011911Y016024D01*
X011911Y016122D02*
X011334Y016122D01*
X011368Y016111D02*
X011288Y016137D01*
X011213Y016149D01*
X011213Y015666D01*
X011113Y015666D01*
X011113Y016149D01*
X011038Y016137D01*
X010958Y016111D01*
X010883Y016073D01*
X010815Y016024D01*
X010727Y015925D02*
X008394Y015925D01*
X008463Y015827D02*
X010671Y015827D01*
X010640Y015728D02*
X008532Y015728D01*
X008600Y015630D02*
X011113Y015630D01*
X011113Y015566D02*
X010630Y015566D01*
X010642Y015491D01*
X010668Y015411D01*
X010706Y015337D01*
X010756Y015269D01*
X010815Y015209D01*
X010883Y015160D01*
X010958Y015122D01*
X011038Y015096D01*
X011113Y015084D01*
X011113Y015566D01*
X011113Y015531D02*
X011213Y015531D01*
X011213Y015433D02*
X011113Y015433D01*
X011113Y015334D02*
X011213Y015334D01*
X011213Y015236D02*
X011113Y015236D01*
X011113Y015137D02*
X011213Y015137D01*
X011398Y015137D02*
X011822Y015137D01*
X011911Y015236D02*
X011537Y015236D01*
X011618Y015334D02*
X011911Y015334D01*
X011911Y015433D02*
X011665Y015433D01*
X011690Y015531D02*
X011911Y015531D01*
X011911Y015630D02*
X011213Y015630D01*
X011213Y015728D02*
X011113Y015728D01*
X011113Y015827D02*
X011213Y015827D01*
X011213Y015925D02*
X011113Y015925D01*
X011113Y016024D02*
X011213Y016024D01*
X011213Y016122D02*
X011113Y016122D01*
X010992Y016122D02*
X008257Y016122D01*
X008669Y015531D02*
X010636Y015531D01*
X010661Y015433D02*
X008737Y015433D01*
X008806Y015334D02*
X010708Y015334D01*
X010789Y015236D02*
X008875Y015236D01*
X008943Y015137D02*
X010928Y015137D01*
X011526Y014842D02*
X009149Y014842D01*
X009080Y014940D02*
X011625Y014940D01*
X011723Y015039D02*
X009012Y015039D01*
X008142Y016812D02*
X011901Y016812D01*
X011443Y016073D02*
X011368Y016111D01*
X011443Y016073D02*
X011511Y016024D01*
X011599Y015925D02*
X011911Y015925D01*
X011911Y015827D02*
X011655Y015827D01*
X011686Y015728D02*
X011911Y015728D01*
X012502Y012864D02*
X013880Y012864D01*
X014273Y012471D01*
X014273Y009715D01*
X013880Y009223D01*
X009059Y009253D01*
X008967Y009357D01*
X008991Y009391D01*
X009035Y009477D01*
X009065Y009570D01*
X009080Y009665D01*
X008695Y009665D01*
X008661Y009703D01*
X008700Y009765D01*
X009080Y009765D01*
X009065Y009860D01*
X009035Y009952D01*
X008991Y010039D01*
X008934Y010118D01*
X008924Y010128D01*
X009155Y010502D01*
X009168Y010507D01*
X009182Y010507D01*
X009194Y010502D01*
X011714Y010502D01*
X012108Y010896D01*
X012108Y012471D01*
X012502Y012864D01*
X012410Y012773D02*
X013971Y012773D01*
X014069Y012675D02*
X013617Y012675D01*
X013611Y012676D02*
X013536Y012688D01*
X013536Y012206D01*
X013436Y012206D01*
X013436Y012688D01*
X013361Y012676D01*
X013281Y012651D01*
X013206Y012612D01*
X013138Y012563D01*
X013079Y012504D01*
X013029Y012436D01*
X012991Y012361D01*
X012965Y012281D01*
X012953Y012206D01*
X013436Y012206D01*
X013436Y012106D01*
X012953Y012106D01*
X012965Y012031D01*
X012991Y011951D01*
X013029Y011876D01*
X013079Y011808D01*
X013138Y011749D01*
X013206Y011699D01*
X013281Y011661D01*
X013361Y011635D01*
X013436Y011623D01*
X013436Y012106D01*
X013536Y012106D01*
X013536Y012206D01*
X014018Y012206D01*
X014007Y012281D01*
X013981Y012361D01*
X013942Y012436D01*
X013893Y012504D01*
X013834Y012563D01*
X013766Y012612D01*
X013691Y012651D01*
X013611Y012676D01*
X013536Y012675D02*
X013436Y012675D01*
X013355Y012675D02*
X012312Y012675D01*
X012213Y012576D02*
X013156Y012576D01*
X013060Y012478D02*
X012115Y012478D01*
X012108Y012379D02*
X013000Y012379D01*
X012965Y012281D02*
X012108Y012281D01*
X012108Y012182D02*
X013436Y012182D01*
X013436Y012084D02*
X013536Y012084D01*
X013536Y012106D02*
X013536Y011623D01*
X013611Y011635D01*
X013691Y011661D01*
X013766Y011699D01*
X013834Y011749D01*
X013893Y011808D01*
X013942Y011876D01*
X013981Y011951D01*
X014007Y012031D01*
X014018Y012106D01*
X013536Y012106D01*
X013536Y012182D02*
X014273Y012182D01*
X014273Y012084D02*
X014015Y012084D01*
X013992Y011985D02*
X014273Y011985D01*
X014273Y011887D02*
X013948Y011887D01*
X013873Y011788D02*
X014273Y011788D01*
X014273Y011690D02*
X013747Y011690D01*
X013536Y011690D02*
X013436Y011690D01*
X013436Y011788D02*
X013536Y011788D01*
X013536Y011887D02*
X013436Y011887D01*
X013436Y011985D02*
X013536Y011985D01*
X013536Y012281D02*
X013436Y012281D01*
X013436Y012379D02*
X013536Y012379D01*
X013536Y012478D02*
X013436Y012478D01*
X013436Y012576D02*
X013536Y012576D01*
X013815Y012576D02*
X014168Y012576D01*
X014266Y012478D02*
X013912Y012478D01*
X013971Y012379D02*
X014273Y012379D01*
X014273Y012281D02*
X014007Y012281D01*
X014273Y011591D02*
X012108Y011591D01*
X012108Y011493D02*
X014273Y011493D01*
X014273Y011394D02*
X012108Y011394D01*
X012108Y011296D02*
X014273Y011296D01*
X014273Y011197D02*
X012108Y011197D01*
X012108Y011099D02*
X014273Y011099D01*
X014273Y011000D02*
X012108Y011000D01*
X012108Y010902D02*
X014273Y010902D01*
X014273Y010803D02*
X012015Y010803D01*
X011917Y010705D02*
X014273Y010705D01*
X014273Y010606D02*
X011818Y010606D01*
X011720Y010508D02*
X014273Y010508D01*
X014273Y010409D02*
X009098Y010409D01*
X009037Y010311D02*
X014273Y010311D01*
X014273Y010212D02*
X008976Y010212D01*
X008937Y010114D02*
X014273Y010114D01*
X014273Y010015D02*
X009003Y010015D01*
X009047Y009917D02*
X014273Y009917D01*
X014273Y009818D02*
X009072Y009818D01*
X009074Y009621D02*
X014198Y009621D01*
X014273Y009720D02*
X008672Y009720D01*
X009050Y009523D02*
X014119Y009523D01*
X014041Y009424D02*
X009008Y009424D01*
X008995Y009326D02*
X013962Y009326D01*
X013883Y009227D02*
X013175Y009227D01*
X011813Y007848D02*
X009072Y007848D01*
X009065Y007891D02*
X009035Y007984D01*
X008991Y008070D01*
X008934Y008149D01*
X008892Y008191D01*
X009076Y008258D01*
X011446Y008228D01*
X011911Y007746D01*
X011911Y006172D01*
X011517Y005778D01*
X009155Y005778D01*
X008384Y007128D01*
X008511Y007128D01*
X008607Y007143D01*
X008700Y007173D01*
X008786Y007217D01*
X008865Y007275D01*
X008934Y007343D01*
X008991Y007422D01*
X009035Y007509D01*
X009065Y007601D01*
X009080Y007696D01*
X008044Y007696D01*
X008044Y007796D01*
X009080Y007796D01*
X009065Y007891D01*
X009047Y007947D02*
X011718Y007947D01*
X011623Y008045D02*
X009004Y008045D01*
X008938Y008144D02*
X011528Y008144D01*
X011908Y007750D02*
X008044Y007750D01*
X008422Y007060D02*
X010919Y007060D01*
X010844Y007022D01*
X010776Y006972D01*
X010716Y006913D01*
X010667Y006845D01*
X010629Y006770D01*
X010603Y006690D01*
X010591Y006615D01*
X011074Y006615D01*
X011074Y007098D01*
X010999Y007086D01*
X010919Y007060D01*
X011074Y007060D02*
X011174Y007060D01*
X011174Y007098D02*
X011174Y006615D01*
X011656Y006615D01*
X011644Y006690D01*
X011618Y006770D01*
X011580Y006845D01*
X011531Y006913D01*
X011471Y006972D01*
X011403Y007022D01*
X011329Y007060D01*
X011249Y007086D01*
X011174Y007098D01*
X011174Y006962D02*
X011074Y006962D01*
X011074Y006863D02*
X011174Y006863D01*
X011174Y006765D02*
X011074Y006765D01*
X011074Y006666D02*
X011174Y006666D01*
X011174Y006615D02*
X011074Y006615D01*
X011074Y006515D01*
X011174Y006515D01*
X011174Y006615D01*
X011174Y006568D02*
X011911Y006568D01*
X011911Y006666D02*
X011648Y006666D01*
X011620Y006765D02*
X011911Y006765D01*
X011911Y006863D02*
X011567Y006863D01*
X011482Y006962D02*
X011911Y006962D01*
X011911Y007060D02*
X011328Y007060D01*
X011074Y006568D02*
X008704Y006568D01*
X008648Y006666D02*
X010599Y006666D01*
X010627Y006765D02*
X008591Y006765D01*
X008535Y006863D02*
X010680Y006863D01*
X010765Y006962D02*
X008479Y006962D01*
X008655Y007159D02*
X011911Y007159D01*
X011911Y007257D02*
X008841Y007257D01*
X008943Y007356D02*
X011911Y007356D01*
X011911Y007454D02*
X009007Y007454D01*
X009050Y007553D02*
X011911Y007553D01*
X011911Y007651D02*
X009073Y007651D01*
X009032Y008242D02*
X010344Y008242D01*
X010591Y006515D02*
X010603Y006440D01*
X010629Y006360D01*
X010667Y006285D01*
X010716Y006217D01*
X010776Y006158D01*
X010844Y006109D01*
X010919Y006070D01*
X010999Y006045D01*
X011074Y006033D01*
X011074Y006515D01*
X010591Y006515D01*
X010598Y006469D02*
X008760Y006469D01*
X008816Y006371D02*
X010626Y006371D01*
X010677Y006272D02*
X008873Y006272D01*
X008929Y006174D02*
X010760Y006174D01*
X010910Y006075D02*
X008985Y006075D01*
X009042Y005977D02*
X011716Y005977D01*
X011815Y006075D02*
X011338Y006075D01*
X011329Y006070D02*
X011403Y006109D01*
X011471Y006158D01*
X011531Y006217D01*
X011580Y006285D01*
X011618Y006360D01*
X011644Y006440D01*
X011656Y006515D01*
X011174Y006515D01*
X011174Y006033D01*
X011249Y006045D01*
X011329Y006070D01*
X011174Y006075D02*
X011074Y006075D01*
X011074Y006174D02*
X011174Y006174D01*
X011174Y006272D02*
X011074Y006272D01*
X011074Y006371D02*
X011174Y006371D01*
X011174Y006469D02*
X011074Y006469D01*
X011487Y006174D02*
X011911Y006174D01*
X011911Y006272D02*
X011571Y006272D01*
X011622Y006371D02*
X011911Y006371D01*
X011911Y006469D02*
X011649Y006469D01*
X011618Y005878D02*
X009098Y005878D01*
X009154Y005780D02*
X011519Y005780D01*
X012108Y011690D02*
X013225Y011690D01*
X013098Y011788D02*
X012108Y011788D01*
X012108Y011887D02*
X013024Y011887D01*
X012980Y011985D02*
X012108Y011985D01*
X012108Y012084D02*
X012957Y012084D01*
X013244Y020752D02*
X012108Y020752D01*
X012108Y020850D02*
X013127Y020850D01*
X013058Y020949D02*
X012108Y020949D01*
X012108Y021047D02*
X013016Y021047D01*
M02*
