G75*
G70*
%OFA0B0*%
%FSLAX24Y24*%
%IPPOS*%
%LPD*%
%AMOC8*
5,1,8,0,0,1.08239X$1,22.5*
%
%ADD10R,0.2190X0.0010*%
%ADD11R,0.2210X0.0010*%
%ADD12R,0.2200X0.0010*%
%ADD13R,0.2170X0.0010*%
%ADD14R,0.0090X0.0010*%
%ADD15R,0.0100X0.0010*%
%ADD16R,0.0010X0.0010*%
%ADD17R,0.0020X0.0010*%
%ADD18R,0.0030X0.0010*%
%ADD19R,0.0040X0.0010*%
%ADD20R,0.0050X0.0010*%
%ADD21R,0.0060X0.0010*%
%ADD22R,0.0070X0.0010*%
%ADD23R,0.0110X0.0010*%
%ADD24R,0.0130X0.0010*%
%ADD25R,0.0140X0.0010*%
%ADD26R,0.0160X0.0010*%
%ADD27R,0.0170X0.0010*%
%ADD28R,0.0180X0.0010*%
%ADD29R,0.0200X0.0010*%
%ADD30R,0.0210X0.0010*%
%ADD31R,0.0220X0.0010*%
%ADD32R,0.0240X0.0010*%
%ADD33R,0.0080X0.0010*%
%ADD34R,0.0120X0.0010*%
%ADD35R,0.0150X0.0010*%
%ADD36R,0.0230X0.0010*%
%ADD37R,0.0310X0.0010*%
%ADD38R,0.0300X0.0010*%
%ADD39R,0.0290X0.0010*%
%ADD40R,0.0270X0.0010*%
%ADD41R,0.0260X0.0010*%
%ADD42R,0.0250X0.0010*%
%ADD43R,0.0190X0.0010*%
%ADD44C,0.0090*%
%ADD45C,0.0060*%
%ADD46R,0.0110X0.0005*%
%ADD47R,0.0210X0.0005*%
%ADD48R,0.0280X0.0005*%
%ADD49R,0.0325X0.0005*%
%ADD50R,0.0365X0.0005*%
%ADD51R,0.0410X0.0005*%
%ADD52R,0.0440X0.0005*%
%ADD53R,0.0470X0.0005*%
%ADD54R,0.0505X0.0005*%
%ADD55R,0.0530X0.0005*%
%ADD56R,0.0555X0.0005*%
%ADD57R,0.0580X0.0005*%
%ADD58R,0.0600X0.0005*%
%ADD59R,0.0625X0.0005*%
%ADD60R,0.0645X0.0005*%
%ADD61R,0.0665X0.0005*%
%ADD62R,0.0685X0.0005*%
%ADD63R,0.0705X0.0005*%
%ADD64R,0.0715X0.0005*%
%ADD65R,0.0735X0.0005*%
%ADD66R,0.0755X0.0005*%
%ADD67R,0.0090X0.0005*%
%ADD68R,0.0770X0.0005*%
%ADD69R,0.0190X0.0005*%
%ADD70R,0.0355X0.0005*%
%ADD71R,0.0360X0.0005*%
%ADD72R,0.0260X0.0005*%
%ADD73R,0.0315X0.0005*%
%ADD74R,0.0320X0.0005*%
%ADD75R,0.0295X0.0005*%
%ADD76R,0.0275X0.0005*%
%ADD77R,0.0400X0.0005*%
%ADD78R,0.0265X0.0005*%
%ADD79R,0.0435X0.0005*%
%ADD80R,0.0255X0.0005*%
%ADD81R,0.0465X0.0005*%
%ADD82R,0.0245X0.0005*%
%ADD83R,0.0495X0.0005*%
%ADD84R,0.0235X0.0005*%
%ADD85R,0.0525X0.0005*%
%ADD86R,0.0230X0.0005*%
%ADD87R,0.0240X0.0005*%
%ADD88R,0.0545X0.0005*%
%ADD89R,0.0820X0.0005*%
%ADD90R,0.0220X0.0005*%
%ADD91R,0.0025X0.0005*%
%ADD92R,0.0795X0.0005*%
%ADD93R,0.0215X0.0005*%
%ADD94R,0.0035X0.0005*%
%ADD95R,0.0040X0.0005*%
%ADD96R,0.0800X0.0005*%
%ADD97R,0.0205X0.0005*%
%ADD98R,0.0050X0.0005*%
%ADD99R,0.0805X0.0005*%
%ADD100R,0.0165X0.0005*%
%ADD101R,0.0055X0.0005*%
%ADD102R,0.0200X0.0005*%
%ADD103R,0.0060X0.0005*%
%ADD104R,0.0300X0.0005*%
%ADD105R,0.0195X0.0005*%
%ADD106R,0.0065X0.0005*%
%ADD107R,0.0345X0.0005*%
%ADD108R,0.0070X0.0005*%
%ADD109R,0.0385X0.0005*%
%ADD110R,0.0080X0.0005*%
%ADD111R,0.0425X0.0005*%
%ADD112R,0.0185X0.0005*%
%ADD113R,0.0085X0.0005*%
%ADD114R,0.0635X0.0005*%
%ADD115R,0.0810X0.0005*%
%ADD116R,0.0095X0.0005*%
%ADD117R,0.0335X0.0005*%
%ADD118R,0.0655X0.0005*%
%ADD119R,0.0105X0.0005*%
%ADD120R,0.0290X0.0005*%
%ADD121R,0.0660X0.0005*%
%ADD122R,0.0115X0.0005*%
%ADD123R,0.0285X0.0005*%
%ADD124R,0.0120X0.0005*%
%ADD125R,0.0270X0.0005*%
%ADD126R,0.0675X0.0005*%
%ADD127R,0.0130X0.0005*%
%ADD128R,0.0680X0.0005*%
%ADD129R,0.0135X0.0005*%
%ADD130R,0.0250X0.0005*%
%ADD131R,0.0140X0.0005*%
%ADD132R,0.0180X0.0005*%
%ADD133R,0.0695X0.0005*%
%ADD134R,0.0150X0.0005*%
%ADD135R,0.0160X0.0005*%
%ADD136R,0.0155X0.0005*%
%ADD137R,0.0145X0.0005*%
%ADD138R,0.0700X0.0005*%
%ADD139R,0.0225X0.0005*%
%ADD140R,0.0170X0.0005*%
%ADD141R,0.0100X0.0005*%
%ADD142R,0.0075X0.0005*%
%ADD143R,0.0720X0.0005*%
%ADD144R,0.0725X0.0005*%
%ADD145R,0.0340X0.0005*%
%ADD146R,0.0305X0.0005*%
%ADD147R,0.0175X0.0005*%
%ADD148R,0.0005X0.0005*%
%ADD149R,0.0010X0.0005*%
%ADD150R,0.0015X0.0005*%
%ADD151R,0.0020X0.0005*%
%ADD152R,0.0030X0.0005*%
%ADD153R,0.0125X0.0005*%
%ADD154R,0.0045X0.0005*%
%ADD155R,0.0370X0.0005*%
%ADD156R,0.0375X0.0005*%
%ADD157R,0.0350X0.0005*%
%ADD158R,0.0330X0.0005*%
%ADD159R,0.0485X0.0005*%
%ADD160R,0.0480X0.0005*%
%ADD161R,0.0460X0.0005*%
%ADD162R,0.0445X0.0005*%
%ADD163R,0.0310X0.0005*%
%ADD164R,0.0380X0.0005*%
%ADD165R,0.0415X0.0005*%
%ADD166R,0.0450X0.0005*%
%ADD167R,0.0490X0.0005*%
%ADD168R,0.0965X0.0005*%
%ADD169R,0.0975X0.0005*%
%ADD170R,0.0980X0.0005*%
%ADD171R,0.0990X0.0005*%
%ADD172R,0.1005X0.0005*%
%ADD173R,0.0615X0.0005*%
%ADD174R,0.0640X0.0005*%
%ADD175R,0.0605X0.0005*%
%ADD176R,0.0620X0.0005*%
%ADD177R,0.0590X0.0005*%
%ADD178R,0.0570X0.0005*%
%ADD179R,0.0540X0.0005*%
%ADD180R,0.0515X0.0005*%
%ADD181R,0.0565X0.0005*%
%ADD182R,0.0535X0.0005*%
%ADD183R,0.0395X0.0005*%
%ADD184R,0.0520X0.0005*%
%ADD185R,0.0500X0.0005*%
%ADD186R,0.0430X0.0005*%
%ADD187C,0.0000*%
%ADD188C,0.0059*%
D10*
X011616Y007568D03*
X011616Y007618D03*
X011616Y016623D03*
X011616Y016673D03*
D11*
X011616Y016653D03*
X011616Y016643D03*
X011616Y016633D03*
X011616Y007598D03*
X011616Y007588D03*
X011616Y007578D03*
D12*
X011611Y007608D03*
X011611Y016663D03*
D13*
X011616Y016683D03*
X011616Y007628D03*
D14*
X011586Y007808D03*
X011626Y008018D03*
X011626Y008028D03*
X011626Y008038D03*
X011356Y008228D03*
X011396Y008348D03*
X011396Y008358D03*
X011086Y008528D03*
X011086Y008538D03*
X011096Y008548D03*
X011096Y008558D03*
X011106Y008568D03*
X011116Y008588D03*
X011126Y008608D03*
X011136Y008618D03*
X011136Y008628D03*
X011146Y008638D03*
X011156Y008658D03*
X011166Y008678D03*
X011176Y008688D03*
X011186Y008708D03*
X011196Y008728D03*
X011206Y008748D03*
X011216Y008758D03*
X011216Y008768D03*
X011226Y008778D03*
X011236Y008798D03*
X011246Y008818D03*
X011256Y008838D03*
X011266Y008848D03*
X011276Y008868D03*
X011286Y008888D03*
X011296Y008908D03*
X011306Y008918D03*
X011316Y008938D03*
X011326Y008958D03*
X011336Y008978D03*
X011346Y008988D03*
X011346Y008998D03*
X011356Y009008D03*
X011366Y009028D03*
X011376Y009048D03*
X011386Y009068D03*
X011396Y009078D03*
X011406Y009098D03*
X011416Y009118D03*
X011426Y009138D03*
X011436Y009148D03*
X011446Y009168D03*
X011456Y009188D03*
X011466Y009208D03*
X011486Y009238D03*
X011496Y009258D03*
X011506Y009278D03*
X011516Y009288D03*
X011526Y009308D03*
X011536Y009328D03*
X011546Y009348D03*
X011556Y009358D03*
X011556Y009368D03*
X011566Y009378D03*
X011576Y009398D03*
X011586Y009418D03*
X011696Y009418D03*
X011706Y009398D03*
X011716Y009378D03*
X011726Y009358D03*
X011736Y009348D03*
X011736Y009338D03*
X011746Y009328D03*
X011756Y009308D03*
X011766Y009288D03*
X011776Y009268D03*
X011786Y009248D03*
X011796Y009228D03*
X011806Y009218D03*
X011806Y009208D03*
X011816Y009198D03*
X011826Y009178D03*
X011836Y009158D03*
X011846Y009138D03*
X011856Y009118D03*
X011866Y009108D03*
X011866Y009098D03*
X011876Y009088D03*
X011876Y009078D03*
X011886Y009068D03*
X011896Y009048D03*
X011906Y009028D03*
X011916Y009008D03*
X011926Y008998D03*
X011926Y008988D03*
X011936Y008978D03*
X011936Y008968D03*
X011946Y008958D03*
X011946Y008948D03*
X011956Y008938D03*
X011956Y008928D03*
X011966Y008918D03*
X011976Y008898D03*
X011986Y008878D03*
X011996Y008858D03*
X012006Y008848D03*
X012006Y008838D03*
X012016Y008828D03*
X012016Y008818D03*
X012026Y008808D03*
X012026Y008798D03*
X012036Y008788D03*
X012046Y008768D03*
X012056Y008748D03*
X012066Y008738D03*
X012066Y008728D03*
X012076Y008708D03*
X012086Y008698D03*
X012086Y008688D03*
X012096Y008678D03*
X012096Y008668D03*
X012106Y008658D03*
X012116Y008638D03*
X012126Y008618D03*
X012136Y008598D03*
X012146Y008578D03*
X012156Y008568D03*
X012156Y008558D03*
X012166Y008548D03*
X012166Y008538D03*
X012176Y008528D03*
X012186Y008508D03*
X012196Y008488D03*
X012206Y008468D03*
X012216Y008448D03*
X012226Y008438D03*
X012226Y008428D03*
X012236Y008418D03*
X012236Y008408D03*
X012246Y008398D03*
X012256Y008378D03*
X012266Y008358D03*
X012276Y008348D03*
X012276Y008338D03*
X012286Y008328D03*
X012286Y008318D03*
X012296Y008308D03*
X012296Y008298D03*
X012306Y008288D03*
X012306Y008278D03*
X012316Y008268D03*
X012326Y008248D03*
X012336Y008228D03*
X012346Y008208D03*
X012356Y008188D03*
X012366Y008178D03*
X012366Y008168D03*
X012376Y008158D03*
X012376Y008148D03*
X012386Y008138D03*
X012396Y008118D03*
X012406Y008098D03*
X012416Y008078D03*
X012426Y008068D03*
X012426Y008058D03*
X012436Y008048D03*
X012436Y008038D03*
X012446Y008028D03*
X012446Y008018D03*
X012456Y008008D03*
X012466Y007988D03*
X012476Y007968D03*
X012486Y007948D03*
X012496Y007938D03*
X012496Y007928D03*
X012506Y007918D03*
X012506Y007908D03*
X012516Y007898D03*
X012516Y007888D03*
X012526Y007878D03*
X012536Y007858D03*
X012546Y007838D03*
X012556Y007818D03*
X012566Y007798D03*
X012576Y007788D03*
X012576Y007778D03*
X012586Y007768D03*
X012586Y007758D03*
X012596Y007748D03*
X012606Y007728D03*
X012616Y007708D03*
X012626Y007688D03*
X012636Y007668D03*
X012646Y007658D03*
X012646Y007648D03*
X012656Y007638D03*
X011046Y008458D03*
X011046Y008468D03*
X011056Y008478D03*
X011066Y008498D03*
X011076Y008518D03*
X011036Y008448D03*
X011026Y008428D03*
X011016Y008408D03*
X011006Y008398D03*
X011006Y008388D03*
X010996Y008378D03*
X010986Y008358D03*
X010976Y008338D03*
X010966Y008318D03*
X010956Y008308D03*
X010956Y008298D03*
X010946Y008288D03*
X010936Y008268D03*
X010926Y008248D03*
X010916Y008238D03*
X010916Y008228D03*
X010906Y008218D03*
X010896Y008198D03*
X010886Y008178D03*
X010876Y008168D03*
X010876Y008158D03*
X010866Y008148D03*
X010856Y008128D03*
X010846Y008108D03*
X010836Y008098D03*
X010836Y008088D03*
X010826Y008078D03*
X010816Y008058D03*
X010806Y008038D03*
X010796Y008028D03*
X010796Y008018D03*
X010776Y007988D03*
X010766Y007968D03*
X010756Y007948D03*
X010746Y007928D03*
X010736Y007918D03*
X010726Y007898D03*
X010716Y007878D03*
X010706Y007868D03*
X010706Y007858D03*
X010696Y007848D03*
X010686Y007828D03*
X010676Y007808D03*
X010666Y007788D03*
X010656Y007778D03*
X010646Y007758D03*
X010636Y007738D03*
X010626Y007718D03*
X010616Y007708D03*
X010616Y007698D03*
X010606Y007688D03*
X010596Y007668D03*
X010586Y007648D03*
X010576Y007638D03*
X011646Y009518D03*
X012656Y016693D03*
X012646Y016703D03*
X012646Y016713D03*
X012636Y016723D03*
X012626Y016743D03*
X012616Y016763D03*
X012606Y016783D03*
X012596Y016803D03*
X012586Y016813D03*
X012586Y016823D03*
X012576Y016833D03*
X012576Y016843D03*
X012566Y016853D03*
X012556Y016873D03*
X012546Y016893D03*
X012536Y016913D03*
X012526Y016933D03*
X012516Y016943D03*
X012516Y016953D03*
X012506Y016963D03*
X012506Y016973D03*
X012496Y016983D03*
X012496Y016993D03*
X012486Y017003D03*
X012476Y017023D03*
X012466Y017043D03*
X012456Y017063D03*
X012446Y017073D03*
X012446Y017083D03*
X012436Y017093D03*
X012436Y017103D03*
X012426Y017113D03*
X012426Y017123D03*
X012416Y017133D03*
X012406Y017153D03*
X012396Y017173D03*
X012386Y017193D03*
X012376Y017203D03*
X012376Y017213D03*
X012366Y017223D03*
X012366Y017233D03*
X012356Y017243D03*
X012346Y017263D03*
X012336Y017283D03*
X012326Y017303D03*
X012316Y017323D03*
X012306Y017333D03*
X012306Y017343D03*
X012296Y017353D03*
X012296Y017363D03*
X012286Y017373D03*
X012286Y017383D03*
X012276Y017393D03*
X012276Y017403D03*
X012266Y017413D03*
X012256Y017433D03*
X012246Y017453D03*
X012236Y017463D03*
X012236Y017473D03*
X012226Y017483D03*
X012226Y017493D03*
X012216Y017503D03*
X012206Y017523D03*
X012196Y017543D03*
X012186Y017563D03*
X012176Y017583D03*
X012166Y017593D03*
X012166Y017603D03*
X012156Y017613D03*
X012156Y017623D03*
X012146Y017633D03*
X012136Y017653D03*
X012126Y017673D03*
X012116Y017693D03*
X012106Y017713D03*
X012096Y017723D03*
X012096Y017733D03*
X012086Y017743D03*
X012086Y017753D03*
X012076Y017763D03*
X012066Y017783D03*
X012066Y017793D03*
X012056Y017803D03*
X012046Y017823D03*
X012036Y017843D03*
X012026Y017853D03*
X012026Y017863D03*
X012016Y017873D03*
X012016Y017883D03*
X012006Y017893D03*
X012006Y017903D03*
X011996Y017913D03*
X011986Y017933D03*
X011976Y017953D03*
X011966Y017973D03*
X011956Y017983D03*
X011956Y017993D03*
X011946Y018003D03*
X011946Y018013D03*
X011936Y018023D03*
X011936Y018033D03*
X011926Y018043D03*
X011926Y018053D03*
X011916Y018063D03*
X011906Y018083D03*
X011896Y018103D03*
X011886Y018123D03*
X011876Y018133D03*
X011876Y018143D03*
X011866Y018153D03*
X011866Y018163D03*
X011856Y018173D03*
X011846Y018193D03*
X011836Y018213D03*
X011826Y018233D03*
X011816Y018253D03*
X011806Y018263D03*
X011806Y018273D03*
X011796Y018283D03*
X011786Y018303D03*
X011776Y018323D03*
X011766Y018343D03*
X011756Y018363D03*
X011746Y018383D03*
X011736Y018393D03*
X011736Y018403D03*
X011726Y018413D03*
X011716Y018433D03*
X011706Y018453D03*
X011696Y018473D03*
X011586Y018473D03*
X011576Y018453D03*
X011566Y018433D03*
X011556Y018423D03*
X011556Y018413D03*
X011546Y018403D03*
X011536Y018383D03*
X011526Y018363D03*
X011516Y018343D03*
X011506Y018333D03*
X011496Y018313D03*
X011486Y018293D03*
X011466Y018263D03*
X011456Y018243D03*
X011446Y018223D03*
X011436Y018203D03*
X011426Y018193D03*
X011416Y018173D03*
X011406Y018153D03*
X011396Y018133D03*
X011386Y018123D03*
X011376Y018103D03*
X011366Y018083D03*
X011356Y018063D03*
X011346Y018053D03*
X011346Y018043D03*
X011336Y018033D03*
X011326Y018013D03*
X011316Y017993D03*
X011306Y017973D03*
X011296Y017963D03*
X011286Y017943D03*
X011276Y017923D03*
X011266Y017903D03*
X011256Y017893D03*
X011246Y017873D03*
X011236Y017853D03*
X011226Y017833D03*
X011216Y017823D03*
X011216Y017813D03*
X011206Y017803D03*
X011196Y017783D03*
X011186Y017763D03*
X011176Y017743D03*
X011166Y017733D03*
X011156Y017713D03*
X011146Y017693D03*
X011136Y017683D03*
X011136Y017673D03*
X011126Y017663D03*
X011116Y017643D03*
X011106Y017623D03*
X011096Y017613D03*
X011096Y017603D03*
X011086Y017593D03*
X011086Y017583D03*
X011076Y017573D03*
X011066Y017553D03*
X011056Y017533D03*
X011046Y017523D03*
X011046Y017513D03*
X011036Y017503D03*
X011026Y017483D03*
X011016Y017463D03*
X011006Y017453D03*
X011006Y017443D03*
X010996Y017433D03*
X010986Y017413D03*
X010976Y017393D03*
X010966Y017373D03*
X010956Y017363D03*
X010956Y017353D03*
X010946Y017343D03*
X010936Y017323D03*
X010926Y017303D03*
X010916Y017293D03*
X010916Y017283D03*
X010906Y017273D03*
X010896Y017253D03*
X010886Y017233D03*
X010876Y017223D03*
X010876Y017213D03*
X010866Y017203D03*
X010856Y017183D03*
X010846Y017163D03*
X010836Y017153D03*
X010836Y017143D03*
X010826Y017133D03*
X010816Y017113D03*
X010806Y017093D03*
X010796Y017083D03*
X010796Y017073D03*
X010776Y017043D03*
X010766Y017023D03*
X010756Y017003D03*
X010746Y016983D03*
X010736Y016973D03*
X010726Y016953D03*
X010716Y016933D03*
X010706Y016923D03*
X010706Y016913D03*
X010696Y016903D03*
X010686Y016883D03*
X010676Y016863D03*
X010666Y016843D03*
X010656Y016833D03*
X010646Y016813D03*
X010636Y016793D03*
X010626Y016773D03*
X010616Y016763D03*
X010616Y016753D03*
X010606Y016743D03*
X010596Y016723D03*
X010586Y016703D03*
X010576Y016693D03*
X011356Y017283D03*
X011396Y017403D03*
X011396Y017413D03*
X011626Y017093D03*
X011626Y017083D03*
X011626Y017073D03*
X011586Y016863D03*
X011646Y018573D03*
D15*
X011641Y018563D03*
X011701Y018463D03*
X011711Y018443D03*
X011721Y018423D03*
X011751Y018373D03*
X011761Y018353D03*
X011771Y018333D03*
X011781Y018313D03*
X011791Y018293D03*
X011821Y018243D03*
X011831Y018223D03*
X011841Y018203D03*
X011851Y018183D03*
X011891Y018113D03*
X011901Y018093D03*
X011911Y018073D03*
X011971Y017963D03*
X011981Y017943D03*
X011991Y017923D03*
X012041Y017833D03*
X012051Y017813D03*
X012071Y017773D03*
X012111Y017703D03*
X012121Y017683D03*
X012131Y017663D03*
X012141Y017643D03*
X012181Y017573D03*
X012191Y017553D03*
X012201Y017533D03*
X012211Y017513D03*
X012251Y017443D03*
X012261Y017423D03*
X012321Y017313D03*
X012331Y017293D03*
X012341Y017273D03*
X012351Y017253D03*
X012391Y017183D03*
X012401Y017163D03*
X012411Y017143D03*
X012461Y017053D03*
X012471Y017033D03*
X012481Y017013D03*
X012531Y016923D03*
X012541Y016903D03*
X012551Y016883D03*
X012561Y016863D03*
X012601Y016793D03*
X012611Y016773D03*
X012621Y016753D03*
X012631Y016733D03*
X011761Y017563D03*
X011431Y017503D03*
X011411Y017463D03*
X011411Y017453D03*
X011411Y017443D03*
X011401Y017433D03*
X011401Y017423D03*
X011361Y017293D03*
X011641Y017163D03*
X011631Y017133D03*
X011631Y017123D03*
X011631Y017113D03*
X011631Y017103D03*
X011591Y016883D03*
X011591Y016873D03*
X010891Y017243D03*
X010901Y017263D03*
X010931Y017313D03*
X010941Y017333D03*
X010971Y017383D03*
X010981Y017403D03*
X010991Y017423D03*
X011021Y017473D03*
X011031Y017493D03*
X011061Y017543D03*
X011071Y017563D03*
X011111Y017633D03*
X011121Y017653D03*
X011151Y017703D03*
X011161Y017723D03*
X011181Y017753D03*
X011191Y017773D03*
X011201Y017793D03*
X011231Y017843D03*
X011241Y017863D03*
X011251Y017883D03*
X011271Y017913D03*
X011281Y017933D03*
X011291Y017953D03*
X011311Y017983D03*
X011321Y018003D03*
X011331Y018023D03*
X011361Y018073D03*
X011371Y018093D03*
X011381Y018113D03*
X011401Y018143D03*
X011411Y018163D03*
X011421Y018183D03*
X011441Y018213D03*
X011451Y018233D03*
X011461Y018253D03*
X011471Y018273D03*
X011481Y018283D03*
X011491Y018303D03*
X011501Y018323D03*
X011521Y018353D03*
X011531Y018373D03*
X011541Y018393D03*
X011571Y018443D03*
X011581Y018463D03*
X010861Y017193D03*
X010851Y017173D03*
X010821Y017123D03*
X010811Y017103D03*
X010791Y017063D03*
X010781Y017053D03*
X010771Y017033D03*
X010761Y017013D03*
X010751Y016993D03*
X010731Y016963D03*
X010721Y016943D03*
X010691Y016893D03*
X010681Y016873D03*
X010671Y016853D03*
X010651Y016823D03*
X010641Y016803D03*
X010631Y016783D03*
X010601Y016733D03*
X010591Y016713D03*
X011641Y009508D03*
X011701Y009408D03*
X011711Y009388D03*
X011721Y009368D03*
X011751Y009318D03*
X011761Y009298D03*
X011771Y009278D03*
X011781Y009258D03*
X011791Y009238D03*
X011821Y009188D03*
X011831Y009168D03*
X011841Y009148D03*
X011851Y009128D03*
X011891Y009058D03*
X011901Y009038D03*
X011911Y009018D03*
X011971Y008908D03*
X011981Y008888D03*
X011991Y008868D03*
X012041Y008778D03*
X012051Y008758D03*
X012071Y008718D03*
X012111Y008648D03*
X012121Y008628D03*
X012131Y008608D03*
X012141Y008588D03*
X012181Y008518D03*
X012191Y008498D03*
X012201Y008478D03*
X012211Y008458D03*
X012251Y008388D03*
X012261Y008368D03*
X012321Y008258D03*
X012331Y008238D03*
X012341Y008218D03*
X012351Y008198D03*
X012391Y008128D03*
X012401Y008108D03*
X012411Y008088D03*
X012461Y007998D03*
X012471Y007978D03*
X012481Y007958D03*
X012531Y007868D03*
X012541Y007848D03*
X012551Y007828D03*
X012561Y007808D03*
X012601Y007738D03*
X012611Y007718D03*
X012621Y007698D03*
X012631Y007678D03*
X011591Y007818D03*
X011591Y007828D03*
X011631Y008048D03*
X011631Y008058D03*
X011631Y008068D03*
X011631Y008078D03*
X011641Y008108D03*
X011361Y008238D03*
X011401Y008368D03*
X011401Y008378D03*
X011411Y008388D03*
X011411Y008398D03*
X011411Y008408D03*
X011431Y008448D03*
X011761Y008508D03*
X011231Y008788D03*
X011241Y008808D03*
X011251Y008828D03*
X011271Y008858D03*
X011281Y008878D03*
X011291Y008898D03*
X011311Y008928D03*
X011321Y008948D03*
X011331Y008968D03*
X011361Y009018D03*
X011371Y009038D03*
X011381Y009058D03*
X011401Y009088D03*
X011411Y009108D03*
X011421Y009128D03*
X011441Y009158D03*
X011451Y009178D03*
X011461Y009198D03*
X011471Y009218D03*
X011481Y009228D03*
X011491Y009248D03*
X011501Y009268D03*
X011521Y009298D03*
X011531Y009318D03*
X011541Y009338D03*
X011571Y009388D03*
X011581Y009408D03*
X011201Y008738D03*
X011191Y008718D03*
X011181Y008698D03*
X011161Y008668D03*
X011151Y008648D03*
X011121Y008598D03*
X011111Y008578D03*
X011071Y008508D03*
X011061Y008488D03*
X011031Y008438D03*
X011021Y008418D03*
X010991Y008368D03*
X010981Y008348D03*
X010971Y008328D03*
X010941Y008278D03*
X010931Y008258D03*
X010901Y008208D03*
X010891Y008188D03*
X010861Y008138D03*
X010851Y008118D03*
X010821Y008068D03*
X010811Y008048D03*
X010791Y008008D03*
X010781Y007998D03*
X010771Y007978D03*
X010761Y007958D03*
X010751Y007938D03*
X010731Y007908D03*
X010721Y007888D03*
X010691Y007838D03*
X010681Y007818D03*
X010671Y007798D03*
X010651Y007768D03*
X010641Y007748D03*
X010631Y007728D03*
X010601Y007678D03*
X010591Y007658D03*
D16*
X011306Y008178D03*
X011576Y007728D03*
X011576Y016783D03*
X011306Y017233D03*
D17*
X011571Y016793D03*
X011821Y017623D03*
X011821Y008568D03*
X011571Y007738D03*
D18*
X011576Y007748D03*
X011316Y008188D03*
X011806Y008558D03*
X011576Y016803D03*
X011316Y017243D03*
X011806Y017613D03*
D19*
X011801Y017603D03*
X011581Y016813D03*
X011801Y008548D03*
X011581Y007758D03*
D20*
X011576Y007768D03*
X011326Y008198D03*
X011336Y008208D03*
X011576Y016823D03*
X011326Y017253D03*
X011336Y017263D03*
D21*
X011581Y016833D03*
X011791Y017593D03*
X011641Y018593D03*
X011641Y009538D03*
X011791Y008538D03*
X011581Y007778D03*
D22*
X011586Y007788D03*
X011586Y007798D03*
X011346Y008218D03*
X011776Y008528D03*
X011586Y016843D03*
X011586Y016853D03*
X011346Y017273D03*
X011776Y017583D03*
D23*
X011446Y017553D03*
X011436Y017533D03*
X011436Y017523D03*
X011436Y017513D03*
X011426Y017493D03*
X011426Y017483D03*
X011416Y017473D03*
X011376Y017303D03*
X011646Y017203D03*
X011646Y017193D03*
X011646Y017183D03*
X011646Y017173D03*
X011636Y017153D03*
X011636Y017143D03*
X011596Y016893D03*
X011446Y008498D03*
X011436Y008478D03*
X011436Y008468D03*
X011436Y008458D03*
X011426Y008438D03*
X011426Y008428D03*
X011416Y008418D03*
X011376Y008248D03*
X011646Y008148D03*
X011646Y008138D03*
X011646Y008128D03*
X011646Y008118D03*
X011636Y008098D03*
X011636Y008088D03*
X011596Y007838D03*
D24*
X011596Y007848D03*
X011656Y008188D03*
X011656Y008198D03*
X011656Y008208D03*
X011656Y008218D03*
X011386Y008258D03*
X011466Y008558D03*
X011476Y008578D03*
X011476Y008588D03*
X011486Y008608D03*
X011486Y008618D03*
X011496Y008638D03*
X011506Y008668D03*
X011596Y016903D03*
X011656Y017243D03*
X011656Y017253D03*
X011656Y017263D03*
X011656Y017273D03*
X011386Y017313D03*
X011466Y017613D03*
X011476Y017633D03*
X011476Y017643D03*
X011486Y017663D03*
X011486Y017673D03*
X011496Y017693D03*
X011506Y017723D03*
D25*
X011501Y017713D03*
X011501Y017703D03*
X011491Y017683D03*
X011511Y017733D03*
X011511Y017743D03*
X011521Y017763D03*
X011531Y017793D03*
X011731Y017533D03*
X011671Y017343D03*
X011671Y017333D03*
X011671Y017323D03*
X011661Y017303D03*
X011661Y017293D03*
X011661Y017283D03*
X011391Y017323D03*
X011601Y016923D03*
X011601Y016913D03*
X011641Y018523D03*
X011641Y018533D03*
X011641Y009478D03*
X011641Y009468D03*
X011531Y008738D03*
X011521Y008708D03*
X011511Y008688D03*
X011511Y008678D03*
X011501Y008658D03*
X011501Y008648D03*
X011491Y008628D03*
X011731Y008478D03*
X011671Y008288D03*
X011671Y008278D03*
X011671Y008268D03*
X011661Y008248D03*
X011661Y008238D03*
X011661Y008228D03*
X011391Y008268D03*
X011601Y007868D03*
X011601Y007858D03*
D26*
X011601Y007878D03*
X011581Y007978D03*
X011681Y008338D03*
X011711Y008458D03*
X011721Y008468D03*
X011561Y008818D03*
X011561Y008828D03*
X011571Y008848D03*
X011571Y008858D03*
X011581Y008878D03*
X011881Y008838D03*
X011641Y009448D03*
X011641Y009458D03*
X011601Y016933D03*
X011581Y017033D03*
X011681Y017393D03*
X011711Y017513D03*
X011721Y017523D03*
X011561Y017873D03*
X011561Y017883D03*
X011571Y017903D03*
X011571Y017913D03*
X011581Y017933D03*
X011881Y017893D03*
X011641Y018503D03*
X011641Y018513D03*
D27*
X011616Y018033D03*
X011606Y018003D03*
X011596Y017983D03*
X011596Y017973D03*
X011586Y017953D03*
X011586Y017943D03*
X011576Y017923D03*
X011416Y017343D03*
X011606Y016953D03*
X011606Y016943D03*
X011616Y008978D03*
X011606Y008948D03*
X011596Y008928D03*
X011596Y008918D03*
X011586Y008898D03*
X011586Y008888D03*
X011576Y008868D03*
X011416Y008288D03*
X011606Y007898D03*
X011606Y007888D03*
D28*
X011611Y007908D03*
X011421Y008298D03*
X011701Y008448D03*
X011591Y008908D03*
X011601Y008938D03*
X011611Y008958D03*
X011611Y008968D03*
X011621Y008988D03*
X011621Y008998D03*
X011631Y009018D03*
X011631Y009028D03*
X011641Y009438D03*
X011611Y016963D03*
X011421Y017353D03*
X011701Y017503D03*
X011591Y017963D03*
X011601Y017993D03*
X011611Y018013D03*
X011611Y018023D03*
X011621Y018043D03*
X011621Y018053D03*
X011631Y018073D03*
X011631Y018083D03*
X011641Y018493D03*
D29*
X011641Y018483D03*
X011691Y017493D03*
X011681Y017483D03*
X011431Y017363D03*
X011611Y016973D03*
X011641Y009428D03*
X011691Y008438D03*
X011681Y008428D03*
X011431Y008308D03*
X011611Y007918D03*
D30*
X011616Y007928D03*
X011616Y007938D03*
X011446Y008318D03*
X011616Y016983D03*
X011616Y016993D03*
X011446Y017373D03*
D31*
X011671Y017473D03*
X011621Y017003D03*
X011671Y008418D03*
X011621Y007948D03*
D32*
X011621Y007958D03*
X011621Y007968D03*
X011461Y008338D03*
X011661Y008408D03*
X011621Y017013D03*
X011621Y017023D03*
X011461Y017393D03*
X011661Y017463D03*
D33*
X011771Y017573D03*
X011621Y017063D03*
X011621Y017053D03*
X011621Y017043D03*
X011531Y017043D03*
X011641Y018583D03*
X011641Y009528D03*
X011771Y008518D03*
X011621Y008008D03*
X011621Y007998D03*
X011621Y007988D03*
X011531Y007988D03*
D34*
X011651Y008158D03*
X011651Y008168D03*
X011651Y008178D03*
X011741Y008488D03*
X011751Y008498D03*
X011481Y008598D03*
X011471Y008568D03*
X011461Y008548D03*
X011461Y008538D03*
X011451Y008518D03*
X011451Y008508D03*
X011441Y008488D03*
X011661Y009038D03*
X011641Y009488D03*
X011641Y009498D03*
X011651Y017213D03*
X011651Y017223D03*
X011651Y017233D03*
X011741Y017543D03*
X011751Y017553D03*
X011481Y017653D03*
X011471Y017623D03*
X011461Y017603D03*
X011461Y017593D03*
X011451Y017573D03*
X011451Y017563D03*
X011441Y017543D03*
X011661Y018093D03*
X011641Y018543D03*
X011641Y018553D03*
D35*
X011566Y017893D03*
X011556Y017863D03*
X011556Y017853D03*
X011546Y017843D03*
X011546Y017833D03*
X011546Y017823D03*
X011536Y017813D03*
X011536Y017803D03*
X011526Y017783D03*
X011526Y017773D03*
X011516Y017753D03*
X011676Y017373D03*
X011676Y017363D03*
X011676Y017353D03*
X011666Y017313D03*
X011406Y017333D03*
X011566Y008838D03*
X011556Y008808D03*
X011556Y008798D03*
X011546Y008788D03*
X011546Y008778D03*
X011546Y008768D03*
X011536Y008758D03*
X011536Y008748D03*
X011526Y008728D03*
X011526Y008718D03*
X011516Y008698D03*
X011676Y008318D03*
X011676Y008308D03*
X011676Y008298D03*
X011666Y008258D03*
X011406Y008278D03*
D36*
X011456Y008328D03*
X011456Y017383D03*
D37*
X011606Y017403D03*
X011606Y008348D03*
D38*
X011611Y008358D03*
X011611Y017413D03*
D39*
X011626Y017423D03*
X011626Y008368D03*
D40*
X011636Y008378D03*
X011636Y017433D03*
D41*
X011641Y017443D03*
X011641Y008388D03*
D42*
X011656Y008398D03*
X011656Y017453D03*
D43*
X011626Y018063D03*
X011636Y018093D03*
X011636Y009038D03*
X011626Y009008D03*
D44*
X009760Y011067D02*
X009420Y011067D01*
X009208Y011152D02*
X009208Y011492D01*
X009123Y011577D01*
X008952Y011577D01*
X008867Y011492D01*
X008867Y011152D01*
X008952Y011067D01*
X009123Y011067D01*
X009208Y011152D01*
X009760Y011067D02*
X009760Y011577D01*
X008655Y011407D02*
X008655Y011067D01*
X008655Y011322D02*
X008315Y011322D01*
X008315Y011407D02*
X008315Y011067D01*
X008103Y011067D02*
X007847Y011067D01*
X007762Y011152D01*
X007762Y011492D01*
X007847Y011577D01*
X008103Y011577D01*
X008103Y011067D01*
X008315Y011407D02*
X008485Y011577D01*
X008655Y011407D01*
X006998Y011407D02*
X006998Y011067D01*
X006998Y011322D02*
X006657Y011322D01*
X006657Y011407D02*
X006657Y011067D01*
X006657Y011407D02*
X006828Y011577D01*
X006998Y011407D01*
X006998Y015004D02*
X006743Y015004D01*
X006657Y015089D01*
X006657Y015174D01*
X006743Y015259D01*
X006998Y015259D01*
X006998Y015004D02*
X006998Y015514D01*
X006743Y015514D01*
X006657Y015429D01*
X006657Y015344D01*
X006743Y015259D01*
X007762Y015089D02*
X007762Y015429D01*
X007847Y015514D01*
X008103Y015514D01*
X008103Y015004D01*
X007847Y015004D01*
X007762Y015089D01*
X008315Y015004D02*
X008315Y015344D01*
X008485Y015514D01*
X008655Y015344D01*
X008655Y015004D01*
X008867Y015089D02*
X008867Y015429D01*
X008952Y015514D01*
X009123Y015514D01*
X009208Y015429D01*
X009208Y015089D01*
X009123Y015004D01*
X008952Y015004D01*
X008867Y015089D01*
X008655Y015259D02*
X008315Y015259D01*
X009420Y015004D02*
X009760Y015004D01*
X009760Y015514D01*
X021423Y018573D02*
X021764Y018573D01*
X021764Y018488D02*
X021764Y018658D01*
X021678Y018743D01*
X021508Y018743D01*
X021423Y018658D01*
X021423Y018573D01*
X021508Y018403D02*
X021678Y018403D01*
X021764Y018488D01*
X021969Y018403D02*
X022224Y018573D01*
X021969Y018743D01*
X022224Y018914D02*
X022224Y018403D01*
X022436Y018488D02*
X022436Y018658D01*
X022521Y018743D01*
X022691Y018743D01*
X022776Y018658D01*
X022776Y018488D01*
X022691Y018403D01*
X022521Y018403D01*
X022436Y018488D01*
X022521Y018014D02*
X022436Y017928D01*
X022776Y017588D01*
X022691Y017503D01*
X022521Y017503D01*
X022436Y017588D01*
X022436Y017928D01*
X022521Y018014D02*
X022691Y018014D01*
X022776Y017928D01*
X022776Y017588D01*
X022989Y017588D02*
X023074Y017503D01*
X023329Y017503D01*
X023329Y018014D01*
X023074Y018014D01*
X022989Y017928D01*
X022989Y017843D01*
X023074Y017758D01*
X023329Y017758D01*
X023541Y017758D02*
X023626Y017673D01*
X023881Y017673D01*
X023711Y017673D02*
X023541Y017503D01*
X023541Y017758D02*
X023541Y017928D01*
X023626Y018014D01*
X023881Y018014D01*
X023881Y017503D01*
X023074Y017758D02*
X022989Y017673D01*
X022989Y017588D01*
X022224Y017503D02*
X021884Y017843D01*
X021884Y017928D01*
X021969Y018014D01*
X022139Y018014D01*
X022224Y017928D01*
X022224Y017503D02*
X021884Y017503D01*
X022989Y018403D02*
X022989Y018658D01*
X023074Y018743D01*
X023159Y018658D01*
X023159Y018403D01*
X023329Y018403D02*
X023329Y018743D01*
X023244Y018743D01*
X023159Y018658D01*
X023541Y018573D02*
X023541Y018488D01*
X023626Y018403D01*
X023796Y018403D01*
X023881Y018488D01*
X023796Y018658D02*
X023626Y018658D01*
X023541Y018573D01*
X023541Y018828D02*
X023626Y018914D01*
X023796Y018914D01*
X023881Y018828D01*
X023881Y018743D01*
X023796Y018658D01*
X023881Y019303D02*
X023881Y019814D01*
X023711Y019643D01*
X023541Y019814D01*
X023541Y019303D01*
X023329Y019388D02*
X023244Y019473D01*
X022989Y019473D01*
X022989Y019558D02*
X022989Y019303D01*
X023244Y019303D01*
X023329Y019388D01*
X023244Y019643D02*
X023074Y019643D01*
X022989Y019558D01*
X022776Y019558D02*
X022776Y019388D01*
X022691Y019303D01*
X022436Y019303D01*
X022436Y019218D02*
X022436Y019643D01*
X022691Y019643D01*
X022776Y019558D01*
X022606Y019133D02*
X022521Y019133D01*
X022436Y019218D01*
X022224Y019303D02*
X022054Y019303D01*
X022139Y019303D02*
X022139Y019643D01*
X022224Y019643D01*
X022139Y019814D02*
X022139Y019899D01*
X021856Y019558D02*
X021856Y019388D01*
X021771Y019303D01*
X021515Y019303D01*
X021515Y019643D02*
X021771Y019643D01*
X021856Y019558D01*
X018284Y004671D02*
X018114Y004671D01*
X018029Y004586D01*
X017817Y004586D02*
X017817Y004246D01*
X017732Y004161D01*
X017562Y004161D01*
X017477Y004246D01*
X017477Y004586D02*
X017562Y004671D01*
X017732Y004671D01*
X017817Y004586D01*
X018029Y004246D02*
X018114Y004161D01*
X018284Y004161D01*
X018370Y004246D01*
X018370Y004586D01*
X018284Y004671D01*
X016712Y004671D02*
X016712Y004161D01*
X016457Y004161D01*
X016372Y004246D01*
X016372Y004331D01*
X016457Y004416D01*
X016712Y004416D01*
X016712Y004671D02*
X016457Y004671D01*
X016372Y004586D01*
X016372Y004501D01*
X016457Y004416D01*
X016160Y004586D02*
X016160Y004671D01*
X016160Y004586D02*
X015990Y004416D01*
X015990Y004161D01*
X015990Y004416D02*
X015819Y004586D01*
X015819Y004671D01*
X015607Y004416D02*
X015267Y004416D01*
X015055Y004501D02*
X014970Y004416D01*
X014800Y004416D01*
X014714Y004331D01*
X014714Y004246D01*
X014800Y004161D01*
X014970Y004161D01*
X015055Y004246D01*
X015055Y004501D02*
X015055Y004586D01*
X014970Y004671D01*
X014800Y004671D01*
X014714Y004586D01*
X014502Y004501D02*
X014502Y004161D01*
X014502Y004416D02*
X014162Y004416D01*
X014162Y004501D02*
X014162Y004161D01*
X014162Y004501D02*
X014332Y004671D01*
X014502Y004501D01*
X013397Y004586D02*
X013312Y004671D01*
X013142Y004671D01*
X013057Y004586D01*
X013057Y004501D01*
X013142Y004416D01*
X013057Y004331D01*
X013057Y004246D01*
X013142Y004161D01*
X013312Y004161D01*
X013397Y004246D01*
X013227Y004416D02*
X013142Y004416D01*
X012845Y004246D02*
X012760Y004246D01*
X012760Y004161D01*
X012845Y004161D01*
X012845Y004246D01*
X012569Y004246D02*
X012569Y004586D01*
X012484Y004671D01*
X012313Y004671D01*
X012228Y004586D01*
X012569Y004246D01*
X012484Y004161D01*
X012313Y004161D01*
X012228Y004246D01*
X012228Y004586D01*
D45*
X018534Y003839D02*
X018828Y003839D01*
X018681Y003839D02*
X018681Y004280D01*
X018828Y004133D01*
X018995Y003986D02*
X018995Y004280D01*
X019288Y004280D02*
X019288Y003986D01*
X019141Y003839D01*
X018995Y003986D01*
X019455Y003766D02*
X019749Y003766D01*
X019915Y003913D02*
X019989Y003839D01*
X020136Y003839D01*
X020209Y003913D01*
X019915Y004206D01*
X019915Y003913D01*
X019915Y004206D02*
X019989Y004280D01*
X020136Y004280D01*
X020209Y004206D01*
X020209Y003913D01*
X020376Y003913D02*
X020449Y003839D01*
X020596Y003839D01*
X020669Y003913D01*
X020669Y004060D02*
X020523Y004133D01*
X020449Y004133D01*
X020376Y004060D01*
X020376Y003913D01*
X020669Y004060D02*
X020669Y004280D01*
X020376Y004280D01*
X020836Y004206D02*
X020836Y003913D01*
X020910Y003839D01*
X021056Y003839D01*
X021130Y003913D01*
X020836Y004206D01*
X020910Y004280D01*
X021056Y004280D01*
X021130Y004206D01*
X021130Y003913D01*
X021297Y003913D02*
X021370Y003839D01*
X021517Y003839D01*
X021590Y003913D01*
X021590Y004060D02*
X021443Y004133D01*
X021370Y004133D01*
X021297Y004060D01*
X021297Y003913D01*
X021590Y004060D02*
X021590Y004280D01*
X021297Y004280D01*
X021757Y004206D02*
X021757Y004060D01*
X021830Y003986D01*
X022051Y003986D01*
X022051Y003839D02*
X022051Y004280D01*
X021830Y004280D01*
X021757Y004206D01*
X022217Y004206D02*
X022217Y003913D01*
X022291Y003839D01*
X022511Y003839D01*
X022511Y004280D01*
X022291Y004280D01*
X022217Y004206D01*
X021464Y009808D02*
X021237Y009808D01*
X021180Y009865D01*
X021180Y009978D01*
X021237Y010035D01*
X021350Y010035D01*
X021350Y009922D01*
X021464Y010035D02*
X021520Y009978D01*
X021520Y009865D01*
X021464Y009808D01*
X021520Y010177D02*
X021180Y010177D01*
X021180Y010403D02*
X021520Y010403D01*
X021520Y010545D02*
X021180Y010545D01*
X021180Y010715D01*
X021237Y010772D01*
X021464Y010772D01*
X021520Y010715D01*
X021520Y010545D01*
X021520Y010177D02*
X021180Y010403D01*
X021237Y011742D02*
X021180Y011799D01*
X021180Y011912D01*
X021237Y011969D01*
X021464Y011969D02*
X021520Y011912D01*
X021520Y011799D01*
X021464Y011742D01*
X021237Y011742D01*
X021520Y012110D02*
X021520Y012337D01*
X021520Y012224D02*
X021180Y012224D01*
X021180Y012479D02*
X021180Y012706D01*
X021180Y012847D02*
X021407Y012847D01*
X021520Y012960D01*
X021407Y013074D01*
X021180Y013074D01*
X021350Y013074D02*
X021350Y012847D01*
X021520Y012479D02*
X021180Y012479D01*
X021237Y013711D02*
X021180Y013767D01*
X021180Y013881D01*
X021237Y013937D01*
X021237Y013711D02*
X021464Y013711D01*
X021520Y013767D01*
X021520Y013881D01*
X021464Y013937D01*
X021520Y014079D02*
X021520Y014306D01*
X021520Y014192D02*
X021180Y014192D01*
X021180Y014447D02*
X021180Y014674D01*
X021180Y014816D02*
X021180Y014986D01*
X021237Y015042D01*
X021293Y015042D01*
X021350Y014986D01*
X021350Y014816D01*
X021350Y014986D02*
X021407Y015042D01*
X021464Y015042D01*
X021520Y014986D01*
X021520Y014816D01*
X021180Y014816D01*
X021180Y014447D02*
X021520Y014447D01*
X021532Y015757D02*
X021305Y015757D01*
X021192Y015870D01*
X021305Y015984D01*
X021532Y015984D01*
X021475Y016125D02*
X021249Y016125D01*
X021192Y016182D01*
X021192Y016295D01*
X021249Y016352D01*
X021249Y016494D02*
X021192Y016550D01*
X021192Y016664D01*
X021249Y016721D01*
X021475Y016721D02*
X021532Y016664D01*
X021532Y016550D01*
X021475Y016494D01*
X021249Y016494D01*
X021475Y016352D02*
X021532Y016295D01*
X021532Y016182D01*
X021475Y016125D01*
X009516Y013769D02*
X009516Y013429D01*
X009289Y013429D02*
X009289Y013769D01*
X009148Y013599D02*
X009091Y013656D01*
X008978Y013656D01*
X008921Y013599D01*
X008921Y013486D01*
X008978Y013429D01*
X009091Y013429D01*
X009148Y013486D01*
X009148Y013599D01*
X009289Y013429D02*
X009516Y013769D01*
X008878Y013123D02*
X008935Y013066D01*
X008935Y012839D01*
X008878Y012782D01*
X008765Y012782D01*
X008708Y012839D01*
X008708Y013066D01*
X008765Y013123D01*
X008878Y013123D01*
X008779Y013429D02*
X008779Y013656D01*
X008666Y013656D02*
X008609Y013656D01*
X008666Y013656D02*
X008779Y013543D01*
X008473Y013656D02*
X008416Y013656D01*
X008359Y013599D01*
X008302Y013656D01*
X008246Y013599D01*
X008246Y013429D01*
X008359Y013429D02*
X008359Y013599D01*
X008473Y013656D02*
X008473Y013429D01*
X008104Y013486D02*
X008047Y013543D01*
X007877Y013543D01*
X007877Y013599D02*
X007877Y013429D01*
X008047Y013429D01*
X008104Y013486D01*
X008047Y013656D02*
X007934Y013656D01*
X007877Y013599D01*
X007736Y013429D02*
X007622Y013429D01*
X007679Y013429D02*
X007679Y013769D01*
X007736Y013769D01*
X007490Y013769D02*
X007434Y013769D01*
X007434Y013429D01*
X007490Y013429D02*
X007377Y013429D01*
X007245Y013486D02*
X007245Y013656D01*
X007245Y013486D02*
X007188Y013429D01*
X007018Y013429D01*
X007018Y013372D02*
X007075Y013316D01*
X007131Y013316D01*
X007018Y013372D02*
X007018Y013656D01*
X007660Y013009D02*
X007603Y012952D01*
X007603Y012782D01*
X007830Y012782D02*
X007830Y013009D01*
X007660Y013009D01*
X007971Y012952D02*
X007971Y012896D01*
X008198Y012896D01*
X008198Y012952D02*
X008142Y013009D01*
X008028Y013009D01*
X007971Y012952D01*
X008028Y012782D02*
X008142Y012782D01*
X008198Y012839D01*
X008198Y012952D01*
X008340Y012952D02*
X008340Y012839D01*
X008397Y012782D01*
X008567Y012782D01*
X008567Y012669D02*
X008567Y013009D01*
X008397Y013009D01*
X008340Y012952D01*
D46*
X022304Y007611D03*
X022304Y007606D03*
X022309Y007601D03*
X022309Y007596D03*
X022429Y007441D03*
X022604Y007181D03*
X022599Y007176D03*
X022594Y007171D03*
X022584Y007166D03*
X022579Y007161D03*
X022564Y007151D03*
X022549Y007141D03*
X022544Y007136D03*
X022529Y007126D03*
X022484Y007096D03*
X022469Y007086D03*
X022464Y007081D03*
X022459Y007076D03*
X022444Y007066D03*
X022614Y007186D03*
X022619Y007191D03*
X022629Y007196D03*
X022634Y007201D03*
X022649Y007211D03*
X023024Y007111D03*
X023054Y007306D03*
X022994Y007776D03*
X022994Y007781D03*
X022834Y007756D03*
X022834Y007751D03*
X022679Y008316D03*
X022679Y008321D03*
X022549Y006791D03*
D47*
X022549Y006796D03*
X022909Y006961D03*
X023639Y007141D03*
X023894Y007661D03*
X023899Y007666D03*
X023899Y008206D03*
X022959Y008711D03*
X022549Y008516D03*
X021644Y008246D03*
X021359Y008096D03*
X021444Y007066D03*
D48*
X022274Y006916D03*
X022549Y006801D03*
X021609Y008226D03*
X022959Y008706D03*
X023804Y008256D03*
D49*
X022957Y008701D03*
X022537Y008546D03*
X021577Y007006D03*
X022547Y006806D03*
D50*
X022547Y006811D03*
X021552Y008181D03*
D51*
X022549Y006816D03*
X023644Y008311D03*
D52*
X023654Y008301D03*
X022549Y006821D03*
D53*
X022549Y006826D03*
X023664Y008286D03*
D54*
X022947Y008671D03*
X022547Y006831D03*
D55*
X022549Y006836D03*
D56*
X022547Y006841D03*
X022922Y008651D03*
D57*
X022904Y008636D03*
X022549Y006846D03*
D58*
X022549Y006851D03*
X022894Y008626D03*
D59*
X022547Y006856D03*
D60*
X022547Y006861D03*
X023192Y007006D03*
D61*
X023222Y007021D03*
X022547Y006866D03*
D62*
X022547Y006871D03*
X023247Y007036D03*
D63*
X023277Y007056D03*
X022547Y006876D03*
D64*
X022547Y006881D03*
X023282Y007061D03*
X023287Y007066D03*
D65*
X022547Y006886D03*
D66*
X022547Y006891D03*
D67*
X022364Y007001D03*
X022429Y007416D03*
X022294Y007646D03*
X022289Y007656D03*
X022289Y007661D03*
X022834Y007776D03*
X022999Y007751D03*
X023054Y007281D03*
X023019Y007116D03*
X021814Y006891D03*
X022674Y008346D03*
D68*
X022549Y006896D03*
D69*
X022629Y007226D03*
X021814Y006896D03*
X021339Y007551D03*
X021334Y007556D03*
X021329Y007566D03*
X021324Y007571D03*
X021319Y007576D03*
X021314Y007581D03*
X021309Y008056D03*
X021314Y008061D03*
X021319Y008066D03*
X021654Y008251D03*
X021779Y008471D03*
X021784Y008476D03*
X021789Y008481D03*
X023679Y007171D03*
X023684Y007176D03*
X023769Y007566D03*
X023929Y007691D03*
X023934Y007696D03*
X023934Y008176D03*
X023929Y008181D03*
D70*
X022762Y006901D03*
X021812Y006911D03*
X021567Y008191D03*
D71*
X021559Y008186D03*
X021509Y008156D03*
X022744Y008606D03*
X023624Y008331D03*
X023744Y008271D03*
X022334Y006901D03*
D72*
X021814Y006901D03*
X021514Y007026D03*
X021619Y008231D03*
X021899Y008551D03*
X022544Y008531D03*
X023569Y007101D03*
D73*
X022792Y006906D03*
X022302Y006906D03*
X022712Y008601D03*
D74*
X023769Y008266D03*
X021814Y006906D03*
X021479Y008151D03*
X021589Y008211D03*
D75*
X021602Y008221D03*
X021462Y008146D03*
X022287Y006911D03*
X022807Y006911D03*
X023787Y008261D03*
D76*
X023592Y008356D03*
X022622Y007251D03*
X023077Y007081D03*
X022822Y006916D03*
X023552Y007096D03*
D77*
X023639Y008316D03*
X021814Y006916D03*
D78*
X022077Y007016D03*
X022257Y006921D03*
X022612Y007241D03*
X022837Y006921D03*
X021432Y008136D03*
X023817Y008251D03*
D79*
X021812Y006921D03*
D80*
X022247Y006926D03*
X022612Y007236D03*
X022847Y006926D03*
X023577Y007106D03*
X023827Y008246D03*
X021422Y008131D03*
D81*
X021812Y006926D03*
X022972Y008686D03*
D82*
X021877Y008541D03*
X021412Y008126D03*
X022237Y006931D03*
X022857Y006931D03*
X023587Y007111D03*
X023802Y007601D03*
X023807Y007606D03*
X023842Y007631D03*
D83*
X021812Y006931D03*
D84*
X022227Y006936D03*
X022867Y006936D03*
X023272Y006976D03*
X023607Y007121D03*
X023792Y007591D03*
X023797Y007596D03*
X023857Y008231D03*
X021867Y008536D03*
X021392Y008116D03*
D85*
X021812Y006936D03*
D86*
X021484Y007041D03*
X021474Y007046D03*
X021384Y008111D03*
X021634Y008241D03*
X021859Y008531D03*
X022874Y006941D03*
X022884Y006946D03*
X023859Y007641D03*
X023869Y007646D03*
X023869Y008226D03*
D87*
X023849Y008236D03*
X023849Y007636D03*
X023599Y007116D03*
X022609Y007256D03*
X022219Y006941D03*
X022084Y007021D03*
X021494Y007036D03*
X021399Y008121D03*
X022544Y008526D03*
D88*
X022927Y008656D03*
X021812Y006941D03*
D89*
X021934Y006946D03*
D90*
X021459Y007056D03*
X021374Y008106D03*
X021844Y008521D03*
X021849Y008526D03*
X022894Y006951D03*
X023624Y007131D03*
X023884Y008216D03*
D91*
X023017Y007666D03*
X023017Y007661D03*
X022842Y007841D03*
X022662Y008431D03*
X022662Y008436D03*
X022242Y007816D03*
X022242Y007811D03*
X022442Y007316D03*
X022442Y007311D03*
X022337Y006951D03*
X023062Y007211D03*
D92*
X021912Y006951D03*
X021902Y006956D03*
D93*
X022092Y007026D03*
X022597Y007261D03*
X022902Y006956D03*
X023632Y007136D03*
X023782Y007581D03*
X023887Y007656D03*
X023892Y008211D03*
X021837Y008516D03*
X021367Y008101D03*
X021452Y007061D03*
D94*
X022342Y006956D03*
X023017Y007126D03*
X023017Y007676D03*
X022842Y007831D03*
X022842Y007836D03*
X022252Y007781D03*
X022247Y007791D03*
X022247Y007796D03*
X022667Y008416D03*
D95*
X022664Y008411D03*
X022839Y007826D03*
X023014Y007686D03*
X023014Y007681D03*
X023059Y007231D03*
X023059Y007226D03*
X022439Y007336D03*
X022439Y007341D03*
X022344Y006961D03*
X022114Y007071D03*
X022254Y007771D03*
X022254Y007776D03*
X022249Y007786D03*
D96*
X021864Y006976D03*
X021874Y006971D03*
X021894Y006961D03*
D97*
X021437Y007071D03*
X021432Y007076D03*
X021352Y008091D03*
X021822Y008506D03*
X021827Y008511D03*
X022922Y006971D03*
X022917Y006966D03*
X023647Y007146D03*
X023777Y007576D03*
X023907Y007671D03*
X023907Y008201D03*
D98*
X023009Y007701D03*
X022839Y007816D03*
X022259Y007756D03*
X022259Y007751D03*
X022669Y008396D03*
X023059Y007246D03*
X023059Y007241D03*
X023059Y007236D03*
X022344Y006966D03*
D99*
X021882Y006966D03*
X021857Y006981D03*
X021847Y006986D03*
X021842Y006991D03*
X021832Y006996D03*
D100*
X021352Y007156D03*
X021347Y007161D03*
X021347Y007166D03*
X021342Y007171D03*
X021337Y007496D03*
X021342Y007506D03*
X021347Y007511D03*
X021347Y007516D03*
X021352Y007526D03*
X021352Y007531D03*
X021252Y007651D03*
X021247Y007656D03*
X021242Y007666D03*
X021247Y007981D03*
X021252Y007991D03*
X021257Y007996D03*
X021667Y008256D03*
X021722Y008401D03*
X021727Y008406D03*
X021727Y008411D03*
X021732Y008416D03*
X021737Y008421D03*
X022397Y007051D03*
X023272Y006971D03*
X023737Y007236D03*
X023742Y007241D03*
X023742Y007246D03*
X023747Y007251D03*
X023752Y007261D03*
X023762Y007556D03*
X023987Y007751D03*
X023992Y007761D03*
X023997Y007766D03*
X024002Y007771D03*
X024007Y007781D03*
X024007Y008091D03*
X024002Y008101D03*
X023997Y008106D03*
X023992Y008111D03*
X023987Y008121D03*
D101*
X023132Y008431D03*
X023137Y008461D03*
X023142Y008491D03*
X023147Y008516D03*
X023147Y008521D03*
X023152Y008546D03*
X023152Y008551D03*
X023157Y008576D03*
X023157Y008581D03*
X023177Y008701D03*
X023177Y008706D03*
X023127Y008401D03*
X022667Y008391D03*
X022837Y007811D03*
X023012Y007706D03*
X022437Y007361D03*
X022437Y007356D03*
X022347Y006971D03*
X022267Y007731D03*
X022267Y007736D03*
X022262Y007741D03*
X022262Y007746D03*
D102*
X022094Y007031D03*
X021424Y007081D03*
X021339Y008081D03*
X021344Y008086D03*
X021814Y008501D03*
X023089Y008606D03*
X023559Y008371D03*
X023914Y008196D03*
X023919Y008191D03*
X023919Y007681D03*
X023914Y007676D03*
X023774Y007571D03*
X023659Y007156D03*
X023654Y007151D03*
X023049Y007091D03*
X022929Y006976D03*
D103*
X023059Y007251D03*
X023059Y007256D03*
X023099Y007361D03*
X023109Y007386D03*
X023119Y007411D03*
X023129Y007436D03*
X023154Y007501D03*
X023164Y007526D03*
X023174Y007551D03*
X023184Y007576D03*
X023209Y007641D03*
X023219Y007666D03*
X023229Y007691D03*
X023239Y007716D03*
X023264Y007781D03*
X023274Y007806D03*
X023284Y007831D03*
X023294Y007856D03*
X023329Y007946D03*
X023339Y007971D03*
X023349Y007996D03*
X023359Y008021D03*
X023384Y008086D03*
X023394Y008111D03*
X023404Y008136D03*
X023414Y008161D03*
X023424Y008186D03*
X023434Y008211D03*
X023439Y008226D03*
X023449Y008251D03*
X023129Y008406D03*
X023129Y008411D03*
X023129Y008416D03*
X023129Y008421D03*
X023129Y008426D03*
X023134Y008436D03*
X023134Y008441D03*
X023134Y008446D03*
X023134Y008451D03*
X023134Y008456D03*
X023139Y008466D03*
X023139Y008471D03*
X023139Y008476D03*
X023139Y008481D03*
X023139Y008486D03*
X023144Y008496D03*
X023144Y008501D03*
X023144Y008506D03*
X023144Y008511D03*
X023149Y008526D03*
X023149Y008531D03*
X023149Y008536D03*
X023149Y008541D03*
X023154Y008556D03*
X023154Y008561D03*
X023154Y008566D03*
X023154Y008571D03*
X023179Y008711D03*
X023179Y008716D03*
X023124Y008396D03*
X023124Y008391D03*
X023124Y008386D03*
X023124Y008381D03*
X023124Y008376D03*
X023119Y008371D03*
X023119Y008366D03*
X023119Y008361D03*
X023119Y008356D03*
X023119Y008351D03*
X023119Y008346D03*
X023114Y008341D03*
X023114Y008336D03*
X023114Y008331D03*
X023114Y008326D03*
X023114Y008321D03*
X023114Y008316D03*
X023109Y008311D03*
X023109Y008306D03*
X023109Y008301D03*
X023109Y008296D03*
X023109Y008291D03*
X023109Y008286D03*
X023104Y008276D03*
X023104Y008271D03*
X023104Y008266D03*
X023104Y008261D03*
X023104Y008256D03*
X023099Y008246D03*
X023099Y008241D03*
X023099Y008236D03*
X023099Y008231D03*
X023094Y008221D03*
X023094Y008216D03*
X023094Y008211D03*
X023094Y008206D03*
X023094Y008201D03*
X023089Y008191D03*
X023089Y008186D03*
X023089Y008181D03*
X023089Y008176D03*
X023089Y008171D03*
X023084Y008161D03*
X023084Y008156D03*
X023084Y008151D03*
X023084Y008146D03*
X023084Y008141D03*
X023079Y008131D03*
X023079Y008126D03*
X023079Y008121D03*
X023079Y008116D03*
X023074Y008106D03*
X023074Y008101D03*
X023074Y008096D03*
X023074Y008091D03*
X023074Y008086D03*
X023069Y008076D03*
X023069Y008071D03*
X023069Y008066D03*
X023069Y008061D03*
X023069Y008056D03*
X023064Y008046D03*
X023064Y008041D03*
X023064Y008036D03*
X023064Y008031D03*
X023064Y008026D03*
X023059Y008016D03*
X023059Y008011D03*
X023059Y008006D03*
X023059Y008001D03*
X023059Y007996D03*
X023054Y007986D03*
X023054Y007981D03*
X023054Y007976D03*
X023054Y007971D03*
X023049Y007961D03*
X023049Y007956D03*
X023049Y007951D03*
X023049Y007946D03*
X023049Y007941D03*
X023044Y007931D03*
X023044Y007926D03*
X023044Y007921D03*
X023044Y007916D03*
X023044Y007911D03*
X023039Y007901D03*
X023039Y007896D03*
X023039Y007891D03*
X023039Y007886D03*
X023039Y007881D03*
X023034Y007871D03*
X023034Y007866D03*
X023034Y007861D03*
X023034Y007856D03*
X023029Y007846D03*
X023029Y007841D03*
X023029Y007836D03*
X023029Y007831D03*
X023029Y007826D03*
X023009Y007711D03*
X022889Y007671D03*
X022879Y007696D03*
X022899Y007646D03*
X022909Y007621D03*
X022839Y007806D03*
X022554Y007881D03*
X022549Y007861D03*
X022544Y007841D03*
X022539Y007816D03*
X022534Y007796D03*
X022529Y007776D03*
X022524Y007751D03*
X022519Y007731D03*
X022514Y007711D03*
X022509Y007686D03*
X022504Y007666D03*
X022499Y007646D03*
X022494Y007621D03*
X022489Y007601D03*
X022484Y007581D03*
X022479Y007556D03*
X022474Y007541D03*
X022474Y007536D03*
X022469Y007526D03*
X022469Y007521D03*
X022469Y007516D03*
X022464Y007501D03*
X022464Y007496D03*
X022464Y007491D03*
X022459Y007481D03*
X022459Y007476D03*
X022434Y007371D03*
X022434Y007366D03*
X022309Y007366D03*
X022309Y007371D03*
X022309Y007376D03*
X022304Y007416D03*
X022304Y007421D03*
X022299Y007446D03*
X022299Y007451D03*
X022299Y007456D03*
X022299Y007461D03*
X022299Y007466D03*
X022294Y007476D03*
X022294Y007481D03*
X022294Y007486D03*
X022294Y007491D03*
X022294Y007496D03*
X022294Y007501D03*
X022294Y007506D03*
X022294Y007511D03*
X022289Y007521D03*
X022289Y007526D03*
X022289Y007531D03*
X022289Y007536D03*
X022289Y007541D03*
X022289Y007546D03*
X022269Y007721D03*
X022269Y007726D03*
X022559Y007906D03*
X022564Y007926D03*
X022569Y007946D03*
X022574Y007971D03*
X022579Y007991D03*
X022584Y008011D03*
X022589Y008036D03*
X022594Y008056D03*
X022599Y008076D03*
X022604Y008101D03*
X022609Y008121D03*
X022614Y008141D03*
X022619Y008166D03*
X022624Y008186D03*
X022629Y008206D03*
X022634Y008226D03*
X022634Y008231D03*
X022639Y008251D03*
X022644Y008271D03*
X022669Y008381D03*
X022669Y008386D03*
X022314Y007331D03*
X022314Y007326D03*
X022314Y007321D03*
X022314Y007316D03*
X022319Y007306D03*
X022319Y007301D03*
X022319Y007296D03*
X022319Y007291D03*
X022319Y007286D03*
X022319Y007281D03*
X022319Y007276D03*
X022319Y007271D03*
X022319Y007266D03*
X022324Y007261D03*
X022324Y007256D03*
X022324Y007251D03*
X022324Y007246D03*
X022324Y007241D03*
X022324Y007236D03*
X022324Y007231D03*
X022324Y007226D03*
X022324Y007221D03*
X022324Y007216D03*
X022329Y007211D03*
X022329Y007206D03*
X022329Y007201D03*
X022329Y007196D03*
X022329Y007191D03*
X022329Y007186D03*
X022329Y007181D03*
X022329Y007176D03*
X022329Y007171D03*
X022329Y007166D03*
X022334Y007161D03*
X022334Y007156D03*
X022334Y007151D03*
X022334Y007146D03*
X022334Y007141D03*
X022334Y007136D03*
X022334Y007131D03*
X022334Y007126D03*
X022334Y007121D03*
X022334Y007116D03*
X022339Y007111D03*
X022339Y007106D03*
X022339Y007101D03*
X022339Y007096D03*
X022339Y007091D03*
X022339Y007086D03*
X022339Y007081D03*
X022339Y007076D03*
X022339Y007071D03*
X022339Y007066D03*
X022344Y007061D03*
X022349Y006976D03*
D104*
X021554Y007011D03*
X023274Y006981D03*
X022539Y008541D03*
X022194Y008671D03*
D105*
X021807Y008496D03*
X021802Y008491D03*
X021797Y008486D03*
X021332Y008076D03*
X021327Y008071D03*
X021407Y007096D03*
X021412Y007091D03*
X021417Y007086D03*
X022937Y006981D03*
X022942Y006986D03*
X022947Y006991D03*
X023667Y007161D03*
X023672Y007166D03*
X023927Y007686D03*
X023922Y008186D03*
D106*
X023502Y008386D03*
X023502Y008391D03*
X023507Y008401D03*
X023512Y008416D03*
X023517Y008426D03*
X023522Y008441D03*
X023527Y008451D03*
X023532Y008466D03*
X023542Y008491D03*
X023552Y008516D03*
X023557Y008531D03*
X023562Y008541D03*
X023567Y008556D03*
X023572Y008566D03*
X023577Y008581D03*
X023582Y008591D03*
X023587Y008606D03*
X023592Y008616D03*
X023597Y008631D03*
X023602Y008641D03*
X023607Y008656D03*
X023612Y008666D03*
X023612Y008671D03*
X023617Y008681D03*
X023622Y008691D03*
X023622Y008696D03*
X023622Y008701D03*
X023627Y008706D03*
X023627Y008711D03*
X023632Y008716D03*
X023457Y008266D03*
X023452Y008261D03*
X023452Y008256D03*
X023447Y008246D03*
X023447Y008241D03*
X023442Y008236D03*
X023442Y008231D03*
X023437Y008221D03*
X023437Y008216D03*
X023432Y008206D03*
X023432Y008201D03*
X023427Y008196D03*
X023427Y008191D03*
X023422Y008181D03*
X023422Y008176D03*
X023417Y008171D03*
X023417Y008166D03*
X023412Y008156D03*
X023412Y008151D03*
X023407Y008146D03*
X023407Y008141D03*
X023402Y008131D03*
X023402Y008126D03*
X023397Y008121D03*
X023397Y008116D03*
X023392Y008106D03*
X023392Y008101D03*
X023387Y008096D03*
X023387Y008091D03*
X023382Y008081D03*
X023382Y008076D03*
X023377Y008071D03*
X023377Y008066D03*
X023377Y008061D03*
X023372Y008056D03*
X023372Y008051D03*
X023367Y008046D03*
X023367Y008041D03*
X023367Y008036D03*
X023362Y008031D03*
X023362Y008026D03*
X023357Y008016D03*
X023357Y008011D03*
X023352Y008006D03*
X023352Y008001D03*
X023347Y007991D03*
X023347Y007986D03*
X023342Y007981D03*
X023342Y007976D03*
X023337Y007966D03*
X023337Y007961D03*
X023332Y007956D03*
X023332Y007951D03*
X023327Y007941D03*
X023327Y007936D03*
X023322Y007931D03*
X023322Y007926D03*
X023322Y007921D03*
X023317Y007916D03*
X023317Y007911D03*
X023312Y007906D03*
X023312Y007901D03*
X023312Y007896D03*
X023307Y007891D03*
X023307Y007886D03*
X023302Y007881D03*
X023302Y007876D03*
X023302Y007871D03*
X023297Y007866D03*
X023297Y007861D03*
X023292Y007851D03*
X023292Y007846D03*
X023287Y007841D03*
X023287Y007836D03*
X023282Y007826D03*
X023282Y007821D03*
X023277Y007816D03*
X023277Y007811D03*
X023272Y007801D03*
X023272Y007796D03*
X023267Y007791D03*
X023267Y007786D03*
X023262Y007776D03*
X023262Y007771D03*
X023257Y007766D03*
X023257Y007761D03*
X023257Y007756D03*
X023252Y007751D03*
X023252Y007746D03*
X023247Y007741D03*
X023247Y007736D03*
X023247Y007731D03*
X023242Y007726D03*
X023242Y007721D03*
X023237Y007711D03*
X023237Y007706D03*
X023232Y007701D03*
X023232Y007696D03*
X023227Y007686D03*
X023227Y007681D03*
X023222Y007676D03*
X023222Y007671D03*
X023217Y007661D03*
X023217Y007656D03*
X023212Y007651D03*
X023212Y007646D03*
X023207Y007636D03*
X023207Y007631D03*
X023202Y007626D03*
X023202Y007621D03*
X023202Y007616D03*
X023197Y007611D03*
X023197Y007606D03*
X023192Y007601D03*
X023192Y007596D03*
X023192Y007591D03*
X023187Y007586D03*
X023187Y007581D03*
X023182Y007571D03*
X023182Y007566D03*
X023177Y007561D03*
X023177Y007556D03*
X023172Y007546D03*
X023172Y007541D03*
X023167Y007536D03*
X023167Y007531D03*
X023162Y007521D03*
X023162Y007516D03*
X023157Y007511D03*
X023157Y007506D03*
X023152Y007496D03*
X023152Y007491D03*
X023147Y007486D03*
X023147Y007481D03*
X023147Y007476D03*
X023142Y007471D03*
X023142Y007466D03*
X023137Y007461D03*
X023137Y007456D03*
X023137Y007451D03*
X023132Y007446D03*
X023132Y007441D03*
X023127Y007431D03*
X023127Y007426D03*
X023122Y007421D03*
X023122Y007416D03*
X023117Y007406D03*
X023117Y007401D03*
X023112Y007396D03*
X023112Y007391D03*
X023107Y007381D03*
X023107Y007376D03*
X023102Y007371D03*
X023102Y007366D03*
X023097Y007356D03*
X023097Y007351D03*
X023092Y007346D03*
X023012Y007366D03*
X023002Y007391D03*
X022997Y007401D03*
X022992Y007416D03*
X022987Y007426D03*
X022982Y007436D03*
X022982Y007441D03*
X022977Y007451D03*
X022972Y007461D03*
X022972Y007466D03*
X022967Y007476D03*
X022962Y007486D03*
X022962Y007491D03*
X022957Y007501D03*
X022952Y007511D03*
X022947Y007521D03*
X022947Y007526D03*
X022942Y007536D03*
X022937Y007546D03*
X022937Y007551D03*
X022932Y007561D03*
X022927Y007571D03*
X022927Y007576D03*
X022927Y007581D03*
X022922Y007586D03*
X022922Y007591D03*
X022917Y007596D03*
X022917Y007601D03*
X022917Y007606D03*
X022912Y007611D03*
X022912Y007616D03*
X022907Y007626D03*
X022907Y007631D03*
X022902Y007636D03*
X022902Y007641D03*
X022897Y007651D03*
X022897Y007656D03*
X022892Y007661D03*
X022892Y007666D03*
X022887Y007676D03*
X022887Y007681D03*
X022882Y007686D03*
X022882Y007691D03*
X022877Y007701D03*
X022877Y007706D03*
X022872Y007711D03*
X022872Y007716D03*
X022872Y007721D03*
X022837Y007801D03*
X022887Y007951D03*
X022882Y007961D03*
X022877Y007971D03*
X022872Y007981D03*
X022867Y007991D03*
X022862Y008001D03*
X022857Y008011D03*
X022852Y008021D03*
X022847Y008031D03*
X022842Y008041D03*
X022837Y008046D03*
X022837Y008051D03*
X022832Y008056D03*
X022832Y008061D03*
X022827Y008066D03*
X022827Y008071D03*
X022822Y008076D03*
X022822Y008081D03*
X022817Y008086D03*
X022812Y008096D03*
X022807Y008106D03*
X022802Y008116D03*
X022797Y008126D03*
X022792Y008136D03*
X022787Y008146D03*
X022782Y008156D03*
X022777Y008166D03*
X022772Y008176D03*
X022767Y008186D03*
X022762Y008196D03*
X022757Y008206D03*
X022752Y008216D03*
X022747Y008226D03*
X022742Y008236D03*
X022737Y008246D03*
X022732Y008256D03*
X022727Y008266D03*
X022722Y008276D03*
X022717Y008286D03*
X022647Y008286D03*
X022647Y008281D03*
X022647Y008276D03*
X022642Y008266D03*
X022642Y008261D03*
X022642Y008256D03*
X022637Y008246D03*
X022637Y008241D03*
X022637Y008236D03*
X022632Y008221D03*
X022632Y008216D03*
X022632Y008211D03*
X022627Y008201D03*
X022627Y008196D03*
X022627Y008191D03*
X022622Y008181D03*
X022622Y008176D03*
X022622Y008171D03*
X022617Y008161D03*
X022617Y008156D03*
X022617Y008151D03*
X022617Y008146D03*
X022612Y008136D03*
X022612Y008131D03*
X022612Y008126D03*
X022607Y008116D03*
X022607Y008111D03*
X022607Y008106D03*
X022602Y008096D03*
X022602Y008091D03*
X022602Y008086D03*
X022602Y008081D03*
X022597Y008071D03*
X022597Y008066D03*
X022597Y008061D03*
X022592Y008051D03*
X022592Y008046D03*
X022592Y008041D03*
X022587Y008031D03*
X022587Y008026D03*
X022587Y008021D03*
X022587Y008016D03*
X022582Y008006D03*
X022582Y008001D03*
X022582Y007996D03*
X022577Y007986D03*
X022577Y007981D03*
X022577Y007976D03*
X022572Y007966D03*
X022572Y007961D03*
X022572Y007956D03*
X022572Y007951D03*
X022567Y007941D03*
X022567Y007936D03*
X022567Y007931D03*
X022562Y007921D03*
X022562Y007916D03*
X022562Y007911D03*
X022557Y007901D03*
X022557Y007896D03*
X022557Y007891D03*
X022557Y007886D03*
X022552Y007876D03*
X022552Y007871D03*
X022552Y007866D03*
X022547Y007856D03*
X022547Y007851D03*
X022547Y007846D03*
X022542Y007836D03*
X022542Y007831D03*
X022542Y007826D03*
X022542Y007821D03*
X022537Y007811D03*
X022537Y007806D03*
X022537Y007801D03*
X022532Y007791D03*
X022532Y007786D03*
X022532Y007781D03*
X022527Y007771D03*
X022527Y007766D03*
X022527Y007761D03*
X022527Y007756D03*
X022522Y007746D03*
X022522Y007741D03*
X022522Y007736D03*
X022517Y007726D03*
X022517Y007721D03*
X022517Y007716D03*
X022512Y007706D03*
X022512Y007701D03*
X022512Y007696D03*
X022512Y007691D03*
X022507Y007681D03*
X022507Y007676D03*
X022507Y007671D03*
X022502Y007661D03*
X022502Y007656D03*
X022502Y007651D03*
X022497Y007641D03*
X022497Y007636D03*
X022497Y007631D03*
X022497Y007626D03*
X022492Y007616D03*
X022492Y007611D03*
X022492Y007606D03*
X022487Y007596D03*
X022487Y007591D03*
X022487Y007586D03*
X022482Y007576D03*
X022482Y007571D03*
X022482Y007566D03*
X022482Y007561D03*
X022477Y007551D03*
X022477Y007546D03*
X022472Y007531D03*
X022467Y007511D03*
X022467Y007506D03*
X022462Y007486D03*
X022392Y007476D03*
X022387Y007486D03*
X022382Y007496D03*
X022377Y007506D03*
X022372Y007516D03*
X022367Y007526D03*
X022362Y007536D03*
X022357Y007546D03*
X022292Y007516D03*
X022297Y007471D03*
X022302Y007441D03*
X022302Y007436D03*
X022302Y007431D03*
X022302Y007426D03*
X022307Y007411D03*
X022307Y007406D03*
X022307Y007401D03*
X022307Y007396D03*
X022307Y007391D03*
X022307Y007386D03*
X022307Y007381D03*
X022312Y007361D03*
X022312Y007356D03*
X022312Y007351D03*
X022312Y007346D03*
X022312Y007341D03*
X022312Y007336D03*
X022317Y007311D03*
X022437Y007376D03*
X022352Y006981D03*
X023022Y007121D03*
X023007Y007716D03*
X023027Y007821D03*
X023032Y007851D03*
X023037Y007876D03*
X023042Y007906D03*
X023047Y007936D03*
X023052Y007966D03*
X023057Y007991D03*
X023062Y008021D03*
X023067Y008051D03*
X023072Y008081D03*
X023077Y008111D03*
X023082Y008136D03*
X023087Y008166D03*
X023092Y008196D03*
X023097Y008226D03*
X023102Y008251D03*
X023107Y008281D03*
X022672Y008371D03*
X022672Y008376D03*
X022557Y008471D03*
X022272Y007716D03*
X022272Y007711D03*
D107*
X023272Y006986D03*
D108*
X023059Y007261D03*
X023059Y007266D03*
X023019Y007346D03*
X023019Y007351D03*
X023014Y007356D03*
X023014Y007361D03*
X023009Y007371D03*
X023009Y007376D03*
X023004Y007381D03*
X023004Y007386D03*
X022999Y007396D03*
X022994Y007406D03*
X022994Y007411D03*
X022989Y007421D03*
X022984Y007431D03*
X022979Y007446D03*
X022974Y007456D03*
X022969Y007471D03*
X022964Y007481D03*
X022959Y007496D03*
X022954Y007506D03*
X022949Y007516D03*
X022944Y007531D03*
X022939Y007541D03*
X022934Y007556D03*
X022929Y007566D03*
X023004Y007721D03*
X023004Y007726D03*
X022954Y007821D03*
X022949Y007831D03*
X022944Y007841D03*
X022939Y007846D03*
X022939Y007851D03*
X022934Y007856D03*
X022934Y007861D03*
X022929Y007866D03*
X022929Y007871D03*
X022924Y007876D03*
X022924Y007881D03*
X022919Y007886D03*
X022919Y007891D03*
X022914Y007896D03*
X022914Y007901D03*
X022909Y007906D03*
X022909Y007911D03*
X022904Y007916D03*
X022904Y007921D03*
X022899Y007926D03*
X022899Y007931D03*
X022894Y007936D03*
X022894Y007941D03*
X022889Y007946D03*
X022884Y007956D03*
X022879Y007966D03*
X022874Y007976D03*
X022869Y007986D03*
X022864Y007996D03*
X022859Y008006D03*
X022854Y008016D03*
X022849Y008026D03*
X022844Y008036D03*
X022814Y008091D03*
X022809Y008101D03*
X022804Y008111D03*
X022799Y008121D03*
X022794Y008131D03*
X022789Y008141D03*
X022784Y008151D03*
X022779Y008161D03*
X022774Y008171D03*
X022769Y008181D03*
X022764Y008191D03*
X022759Y008201D03*
X022754Y008211D03*
X022749Y008221D03*
X022744Y008231D03*
X022739Y008241D03*
X022734Y008251D03*
X022729Y008261D03*
X022724Y008271D03*
X022719Y008281D03*
X022839Y007796D03*
X022774Y007681D03*
X022759Y007656D03*
X022744Y007631D03*
X022739Y007621D03*
X022729Y007606D03*
X022724Y007596D03*
X022719Y007586D03*
X022714Y007581D03*
X022709Y007571D03*
X022704Y007561D03*
X022699Y007556D03*
X022694Y007546D03*
X022689Y007536D03*
X022684Y007526D03*
X022679Y007521D03*
X022679Y007516D03*
X022674Y007511D03*
X022674Y007506D03*
X022669Y007501D03*
X022664Y007496D03*
X022664Y007491D03*
X022659Y007486D03*
X022659Y007481D03*
X022654Y007476D03*
X022649Y007471D03*
X022649Y007466D03*
X022644Y007461D03*
X022644Y007456D03*
X022639Y007451D03*
X022634Y007446D03*
X022634Y007441D03*
X022629Y007436D03*
X022629Y007431D03*
X022624Y007426D03*
X022619Y007421D03*
X022619Y007416D03*
X022614Y007411D03*
X022614Y007406D03*
X022609Y007401D03*
X022604Y007396D03*
X022604Y007391D03*
X022599Y007386D03*
X022599Y007381D03*
X022594Y007376D03*
X022589Y007371D03*
X022589Y007366D03*
X022584Y007361D03*
X022584Y007356D03*
X022579Y007351D03*
X022574Y007346D03*
X022574Y007341D03*
X022569Y007336D03*
X022569Y007331D03*
X022564Y007326D03*
X022559Y007321D03*
X022559Y007316D03*
X022554Y007311D03*
X022554Y007306D03*
X022549Y007301D03*
X022544Y007296D03*
X022544Y007291D03*
X022539Y007286D03*
X022434Y007381D03*
X022434Y007386D03*
X022389Y007481D03*
X022384Y007491D03*
X022379Y007501D03*
X022374Y007511D03*
X022369Y007521D03*
X022364Y007531D03*
X022359Y007541D03*
X022274Y007706D03*
X022354Y006986D03*
X023504Y008396D03*
X023509Y008406D03*
X023509Y008411D03*
X023514Y008421D03*
X023519Y008431D03*
X023519Y008436D03*
X023524Y008446D03*
X023529Y008456D03*
X023529Y008461D03*
X023534Y008471D03*
X023534Y008476D03*
X023539Y008481D03*
X023539Y008486D03*
X023544Y008496D03*
X023544Y008501D03*
X023549Y008506D03*
X023549Y008511D03*
X023554Y008521D03*
X023554Y008526D03*
X023559Y008536D03*
X023564Y008546D03*
X023564Y008551D03*
X023569Y008561D03*
X023574Y008571D03*
X023574Y008576D03*
X023579Y008586D03*
X023584Y008596D03*
X023584Y008601D03*
X023589Y008611D03*
X023594Y008621D03*
X023594Y008626D03*
X023599Y008636D03*
X023604Y008646D03*
X023604Y008651D03*
X023609Y008661D03*
X023614Y008676D03*
X023619Y008686D03*
D109*
X023637Y008321D03*
X023272Y006991D03*
D110*
X023059Y007276D03*
X022544Y007281D03*
X022359Y006991D03*
X022284Y007676D03*
X022284Y007681D03*
X023004Y007731D03*
X023004Y007736D03*
X022674Y008356D03*
X022674Y008361D03*
D111*
X022192Y008656D03*
X023647Y008306D03*
X023272Y006996D03*
D112*
X022952Y006996D03*
X023687Y007181D03*
X023692Y007186D03*
X023942Y007701D03*
X023947Y007706D03*
X023952Y007711D03*
X023952Y008161D03*
X023947Y008166D03*
X023942Y008171D03*
X022552Y008511D03*
X021302Y008051D03*
X021297Y008046D03*
X021292Y007601D03*
X021297Y007596D03*
X021302Y007591D03*
X021307Y007586D03*
X021332Y007561D03*
X021342Y007546D03*
X021392Y007111D03*
X021397Y007106D03*
X021402Y007101D03*
D113*
X022362Y006996D03*
X022432Y007401D03*
X022432Y007406D03*
X022432Y007411D03*
X022287Y007666D03*
X022287Y007671D03*
X022837Y007781D03*
X023002Y007746D03*
X023002Y007741D03*
X022677Y008351D03*
X022557Y008476D03*
D114*
X023182Y007001D03*
D115*
X021824Y007001D03*
D116*
X022367Y007006D03*
X022432Y007421D03*
X022297Y007636D03*
X022297Y007641D03*
X022292Y007651D03*
X022837Y007771D03*
X022997Y007756D03*
X023057Y007286D03*
X022677Y008336D03*
X022677Y008341D03*
X023142Y008591D03*
D117*
X021577Y008201D03*
X022057Y007006D03*
D118*
X023207Y007011D03*
D119*
X023057Y007301D03*
X022572Y007156D03*
X022557Y007146D03*
X022537Y007131D03*
X022522Y007121D03*
X022517Y007116D03*
X022507Y007111D03*
X022452Y007071D03*
X022437Y007061D03*
X022372Y007011D03*
X022427Y007436D03*
X022302Y007616D03*
X022302Y007621D03*
X022997Y007766D03*
X022997Y007771D03*
X022677Y008326D03*
X022677Y008331D03*
X022957Y008716D03*
X023517Y008381D03*
D120*
X023599Y008351D03*
X023539Y007091D03*
X022069Y007011D03*
D121*
X023214Y007016D03*
X022194Y008611D03*
D122*
X022992Y007786D03*
X023057Y007311D03*
X022642Y007206D03*
X022557Y007276D03*
X022497Y007106D03*
X022492Y007101D03*
X022477Y007091D03*
X022372Y007016D03*
X022112Y007056D03*
X022427Y007446D03*
X022427Y007451D03*
X022427Y007456D03*
X022312Y007586D03*
X022312Y007591D03*
D123*
X021542Y007016D03*
X021447Y008141D03*
X021927Y008561D03*
X022542Y008536D03*
D124*
X022554Y008486D03*
X022679Y008311D03*
X022679Y008306D03*
X023129Y008596D03*
X022994Y007791D03*
X022834Y007746D03*
X022424Y007461D03*
X022314Y007576D03*
X022314Y007581D03*
X022649Y007216D03*
X022374Y007021D03*
X023054Y007316D03*
X023054Y007321D03*
D125*
X022619Y007246D03*
X021529Y007021D03*
X021909Y008556D03*
D126*
X023232Y007026D03*
D127*
X023029Y007106D03*
X023054Y007331D03*
X022989Y007806D03*
X022989Y007811D03*
X022684Y008291D03*
X022554Y008491D03*
X022319Y007561D03*
X022324Y007551D03*
X022424Y007471D03*
X022379Y007026D03*
X022109Y007051D03*
D128*
X023239Y007031D03*
X022194Y008606D03*
D129*
X022832Y007731D03*
X022832Y007726D03*
X022987Y007816D03*
X023057Y007336D03*
X022382Y007031D03*
D130*
X021504Y007031D03*
X021624Y008236D03*
X021889Y008546D03*
X022194Y008676D03*
X023584Y008361D03*
X023839Y008241D03*
X023834Y007626D03*
X023824Y007621D03*
X023819Y007616D03*
X023814Y007611D03*
D131*
X023054Y007341D03*
X022384Y007036D03*
D132*
X022099Y007036D03*
X022584Y007266D03*
X023039Y007096D03*
X023699Y007191D03*
X023704Y007196D03*
X023709Y007201D03*
X023954Y008156D03*
X022194Y008681D03*
X021774Y008466D03*
X021769Y008461D03*
X021764Y008456D03*
X021759Y008451D03*
X021294Y008041D03*
X021289Y008036D03*
X021284Y008031D03*
X021289Y007606D03*
X021344Y007541D03*
X021384Y007116D03*
D133*
X023257Y007041D03*
X023262Y007046D03*
D134*
X023034Y007101D03*
X022389Y007041D03*
X021309Y007236D03*
X021304Y007246D03*
X021304Y007251D03*
X021304Y007256D03*
X021299Y007266D03*
X021299Y007271D03*
X021299Y007276D03*
X021294Y007286D03*
X021294Y007291D03*
X021294Y007296D03*
X021294Y007301D03*
X021294Y007306D03*
X021289Y007346D03*
X021289Y007351D03*
X021289Y007356D03*
X021294Y007376D03*
X021294Y007381D03*
X021294Y007386D03*
X021294Y007391D03*
X021294Y007396D03*
X021299Y007401D03*
X021299Y007406D03*
X021299Y007411D03*
X021299Y007416D03*
X021304Y007421D03*
X021304Y007426D03*
X021309Y007441D03*
X021219Y007711D03*
X021214Y007726D03*
X021209Y007736D03*
X021209Y007741D03*
X021209Y007746D03*
X021204Y007756D03*
X021204Y007761D03*
X021204Y007766D03*
X021204Y007771D03*
X021199Y007786D03*
X021199Y007791D03*
X021199Y007796D03*
X021199Y007801D03*
X021199Y007806D03*
X021199Y007811D03*
X021199Y007816D03*
X021199Y007821D03*
X021199Y007826D03*
X021199Y007831D03*
X021199Y007836D03*
X021199Y007841D03*
X021199Y007846D03*
X021199Y007851D03*
X021204Y007871D03*
X021204Y007876D03*
X021204Y007881D03*
X021204Y007886D03*
X021209Y007891D03*
X021209Y007896D03*
X021209Y007901D03*
X021214Y007911D03*
X021214Y007916D03*
X021674Y008261D03*
X021674Y008266D03*
X021674Y008271D03*
X021679Y008286D03*
X021679Y008291D03*
X021679Y008296D03*
X021679Y008301D03*
X021684Y008311D03*
X021684Y008316D03*
X021684Y008321D03*
X021689Y008331D03*
X021694Y008346D03*
X023779Y007511D03*
X023784Y007501D03*
X023784Y007496D03*
X023784Y007491D03*
X023789Y007481D03*
X023789Y007476D03*
X023789Y007471D03*
X023789Y007466D03*
X023794Y007456D03*
X023794Y007451D03*
X023794Y007446D03*
X023794Y007441D03*
X023794Y007436D03*
X023794Y007431D03*
X023794Y007426D03*
X023794Y007421D03*
X023794Y007416D03*
X023794Y007411D03*
X023794Y007406D03*
X023794Y007401D03*
X023794Y007396D03*
X023794Y007391D03*
X023794Y007386D03*
X023794Y007381D03*
X023794Y007376D03*
X023789Y007361D03*
X023789Y007356D03*
X023789Y007351D03*
X023789Y007346D03*
X023784Y007341D03*
X023784Y007336D03*
X023784Y007331D03*
X023779Y007321D03*
X024034Y007841D03*
X024039Y007856D03*
X024039Y007861D03*
X024039Y007866D03*
X024044Y007871D03*
X024044Y007876D03*
X024044Y007881D03*
X024044Y007886D03*
X024049Y007896D03*
X024049Y007901D03*
X024049Y007906D03*
X024049Y007911D03*
X024049Y007916D03*
X024049Y007921D03*
X024049Y007926D03*
X024049Y007931D03*
X024049Y007936D03*
X024049Y007941D03*
X024049Y007946D03*
X024049Y007951D03*
X024049Y007956D03*
X024049Y007961D03*
X024049Y007966D03*
X024049Y007971D03*
X024044Y007986D03*
X024044Y007991D03*
X024044Y007996D03*
X024044Y008001D03*
X024039Y008006D03*
X024039Y008011D03*
X024039Y008016D03*
X024034Y008026D03*
X024034Y008031D03*
D135*
X024024Y008056D03*
X024019Y008066D03*
X024014Y008076D03*
X024009Y008086D03*
X024004Y008096D03*
X024024Y007816D03*
X024019Y007806D03*
X024014Y007796D03*
X024009Y007786D03*
X024004Y007776D03*
X023764Y007546D03*
X023769Y007536D03*
X023764Y007281D03*
X023759Y007271D03*
X023754Y007266D03*
X023749Y007256D03*
X022554Y008501D03*
X021719Y008396D03*
X021714Y008391D03*
X021714Y008386D03*
X021709Y008381D03*
X021709Y008376D03*
X021249Y007986D03*
X021244Y007976D03*
X021239Y007971D03*
X021239Y007966D03*
X021234Y007961D03*
X021229Y007951D03*
X021234Y007681D03*
X021234Y007676D03*
X021239Y007671D03*
X021244Y007661D03*
X021349Y007521D03*
X021339Y007501D03*
X021334Y007491D03*
X021329Y007486D03*
X021324Y007476D03*
X021319Y007466D03*
X021319Y007211D03*
X021324Y007201D03*
X021329Y007191D03*
X021334Y007186D03*
X021334Y007181D03*
X021339Y007176D03*
X022104Y007041D03*
D136*
X022392Y007046D03*
X022642Y007221D03*
X023762Y007276D03*
X023767Y007286D03*
X023767Y007291D03*
X023772Y007296D03*
X023772Y007301D03*
X023777Y007306D03*
X023777Y007311D03*
X023777Y007316D03*
X023782Y007326D03*
X023787Y007486D03*
X023782Y007506D03*
X023777Y007516D03*
X023777Y007521D03*
X023772Y007526D03*
X023772Y007531D03*
X023767Y007541D03*
X023762Y007551D03*
X024012Y007791D03*
X024017Y007801D03*
X024022Y007811D03*
X024027Y007821D03*
X024027Y007826D03*
X024032Y007831D03*
X024032Y007836D03*
X024037Y007846D03*
X024037Y007851D03*
X024037Y008021D03*
X024032Y008036D03*
X024032Y008041D03*
X024027Y008046D03*
X024027Y008051D03*
X024022Y008061D03*
X024017Y008071D03*
X024012Y008081D03*
X021707Y008371D03*
X021702Y008366D03*
X021702Y008361D03*
X021697Y008356D03*
X021697Y008351D03*
X021692Y008341D03*
X021692Y008336D03*
X021687Y008326D03*
X021232Y007956D03*
X021227Y007946D03*
X021227Y007941D03*
X021222Y007936D03*
X021222Y007931D03*
X021217Y007926D03*
X021217Y007921D03*
X021212Y007906D03*
X021207Y007751D03*
X021212Y007731D03*
X021217Y007721D03*
X021217Y007716D03*
X021222Y007706D03*
X021222Y007701D03*
X021227Y007696D03*
X021227Y007691D03*
X021232Y007686D03*
X021327Y007481D03*
X021322Y007471D03*
X021317Y007461D03*
X021317Y007456D03*
X021312Y007451D03*
X021312Y007446D03*
X021307Y007436D03*
X021307Y007431D03*
X021302Y007261D03*
X021307Y007241D03*
X021312Y007231D03*
X021312Y007226D03*
X021317Y007221D03*
X021317Y007216D03*
X021322Y007206D03*
X021327Y007196D03*
D137*
X021297Y007281D03*
X021292Y007311D03*
X021292Y007316D03*
X021292Y007321D03*
X021292Y007326D03*
X021292Y007331D03*
X021292Y007336D03*
X021292Y007341D03*
X021292Y007361D03*
X021292Y007366D03*
X021292Y007371D03*
X021202Y007776D03*
X021202Y007781D03*
X021202Y007856D03*
X021202Y007861D03*
X021202Y007866D03*
X021677Y008276D03*
X021677Y008281D03*
X021682Y008306D03*
X022552Y008496D03*
X023117Y008601D03*
X024047Y007981D03*
X024047Y007976D03*
X024047Y007891D03*
X023792Y007461D03*
X023792Y007371D03*
X023792Y007366D03*
X022572Y007271D03*
X022107Y007046D03*
D138*
X023269Y007051D03*
X022194Y008601D03*
D139*
X022547Y008521D03*
X023572Y008366D03*
X023877Y008221D03*
X023877Y007651D03*
X023787Y007586D03*
X023617Y007126D03*
X023057Y007086D03*
X022622Y007231D03*
X021467Y007051D03*
D140*
X021364Y007141D03*
X021359Y007146D03*
X021354Y007151D03*
X021274Y007621D03*
X021269Y007626D03*
X021264Y007631D03*
X021264Y007636D03*
X021259Y007641D03*
X021254Y007646D03*
X021259Y008001D03*
X021264Y008006D03*
X021269Y008011D03*
X021269Y008016D03*
X021739Y008426D03*
X021744Y008431D03*
X022399Y007056D03*
X023724Y007221D03*
X023729Y007226D03*
X023734Y007231D03*
X023974Y007736D03*
X023979Y007741D03*
X023984Y007746D03*
X023989Y007756D03*
X023989Y008116D03*
X023984Y008126D03*
X023979Y008131D03*
X023974Y008136D03*
X023549Y008376D03*
D141*
X022999Y007761D03*
X022834Y007761D03*
X022834Y007766D03*
X022299Y007631D03*
X022299Y007626D03*
X022429Y007431D03*
X022429Y007426D03*
X022114Y007061D03*
X023054Y007291D03*
X023054Y007296D03*
X022554Y008481D03*
D142*
X022672Y008366D03*
X023152Y008586D03*
X023462Y008271D03*
X022947Y007836D03*
X022952Y007826D03*
X022837Y007791D03*
X022837Y007786D03*
X022797Y007721D03*
X022797Y007716D03*
X022792Y007711D03*
X022787Y007706D03*
X022787Y007701D03*
X022782Y007696D03*
X022782Y007691D03*
X022777Y007686D03*
X022772Y007676D03*
X022767Y007671D03*
X022767Y007666D03*
X022762Y007661D03*
X022757Y007651D03*
X022752Y007646D03*
X022752Y007641D03*
X022747Y007636D03*
X022742Y007626D03*
X022737Y007616D03*
X022732Y007611D03*
X022727Y007601D03*
X022722Y007591D03*
X022712Y007576D03*
X022707Y007566D03*
X022697Y007551D03*
X022692Y007541D03*
X022687Y007531D03*
X022432Y007396D03*
X022432Y007391D03*
X022282Y007686D03*
X022282Y007691D03*
X022277Y007696D03*
X022277Y007701D03*
X022112Y007066D03*
X023057Y007271D03*
D143*
X023294Y007071D03*
D144*
X023302Y007076D03*
D145*
X023499Y007081D03*
X023619Y008336D03*
D146*
X023527Y007086D03*
X021942Y008566D03*
X021597Y008216D03*
D147*
X021747Y008436D03*
X021752Y008441D03*
X021757Y008446D03*
X021282Y008026D03*
X021277Y008021D03*
X021277Y007616D03*
X021282Y007611D03*
X021347Y007536D03*
X021367Y007136D03*
X021372Y007131D03*
X021377Y007126D03*
X021382Y007121D03*
X022552Y008506D03*
X023962Y008151D03*
X023967Y008146D03*
X023972Y008141D03*
X023972Y007731D03*
X023967Y007726D03*
X023962Y007721D03*
X023957Y007716D03*
X023767Y007561D03*
X023722Y007216D03*
X023717Y007211D03*
X023712Y007206D03*
D148*
X023062Y007186D03*
X023022Y007631D03*
X023022Y007636D03*
X022442Y007286D03*
X022227Y007861D03*
X022227Y007866D03*
X022557Y008466D03*
D149*
X022659Y008456D03*
X022659Y008451D03*
X022844Y007861D03*
X022844Y007856D03*
X023019Y007641D03*
X023059Y007191D03*
X022444Y007291D03*
X022444Y007296D03*
X022229Y007851D03*
X022229Y007856D03*
D150*
X022232Y007846D03*
X022232Y007841D03*
X022442Y007306D03*
X022442Y007301D03*
X023062Y007196D03*
X023022Y007646D03*
X022842Y007851D03*
X022662Y008441D03*
X022662Y008446D03*
X022197Y008686D03*
D151*
X022234Y007836D03*
X022234Y007831D03*
X022239Y007826D03*
X022239Y007821D03*
X022844Y007846D03*
X023019Y007656D03*
X023019Y007651D03*
X023059Y007206D03*
X023059Y007201D03*
D152*
X023059Y007216D03*
X023059Y007221D03*
X023014Y007671D03*
X022439Y007331D03*
X022439Y007326D03*
X022439Y007321D03*
X022244Y007801D03*
X022244Y007806D03*
X022664Y008421D03*
X022664Y008426D03*
D153*
X022682Y008301D03*
X022682Y008296D03*
X022832Y007741D03*
X022832Y007736D03*
X022992Y007796D03*
X022992Y007801D03*
X023057Y007326D03*
X022427Y007466D03*
X022322Y007556D03*
X022317Y007566D03*
X022317Y007571D03*
D154*
X022257Y007761D03*
X022257Y007766D03*
X022437Y007351D03*
X022437Y007346D03*
X022842Y007821D03*
X023012Y007696D03*
X023012Y007691D03*
X022667Y008401D03*
X022667Y008406D03*
D155*
X021544Y008176D03*
X021529Y008166D03*
X021519Y008161D03*
D156*
X021537Y008171D03*
X023632Y008326D03*
D157*
X022534Y008551D03*
X022194Y008666D03*
X021569Y008196D03*
D158*
X021584Y008206D03*
X021959Y008571D03*
X023614Y008341D03*
D159*
X023672Y008276D03*
X022962Y008681D03*
D160*
X023669Y008281D03*
D161*
X023659Y008291D03*
X022194Y008651D03*
D162*
X023657Y008296D03*
D163*
X023609Y008346D03*
D164*
X022529Y008556D03*
D165*
X022527Y008561D03*
D166*
X022519Y008566D03*
X022979Y008691D03*
D167*
X022509Y008571D03*
X022194Y008646D03*
D168*
X022287Y008576D03*
D169*
X022297Y008581D03*
D170*
X022309Y008586D03*
D171*
X022324Y008591D03*
D172*
X022342Y008596D03*
D173*
X022882Y008611D03*
X022887Y008616D03*
D174*
X022194Y008616D03*
D175*
X022892Y008621D03*
D176*
X022194Y008621D03*
D177*
X022194Y008626D03*
X022899Y008631D03*
D178*
X022909Y008641D03*
X022194Y008631D03*
D179*
X022194Y008636D03*
D180*
X022192Y008641D03*
D181*
X022917Y008646D03*
D182*
X022932Y008661D03*
D183*
X022192Y008661D03*
D184*
X022939Y008666D03*
D185*
X022954Y008676D03*
D186*
X022989Y008696D03*
D187*
X005618Y003401D02*
X005612Y003391D01*
X005621Y003392D02*
X005623Y003391D01*
X005626Y003391D01*
X005628Y003392D01*
X005628Y003401D01*
X005632Y003397D02*
X005637Y003397D01*
X005639Y003396D02*
X005641Y003397D01*
X005644Y003397D01*
X005646Y003396D01*
X005646Y003394D01*
X005639Y003394D01*
X005639Y003392D02*
X005639Y003396D01*
X005639Y003392D02*
X005641Y003391D01*
X005644Y003391D01*
X005649Y003391D02*
X005649Y003397D01*
X005652Y003397D02*
X005654Y003397D01*
X005652Y003397D02*
X005649Y003394D01*
X005656Y003396D02*
X005658Y003397D01*
X005663Y003397D01*
X005661Y003394D02*
X005658Y003394D01*
X005656Y003396D01*
X005656Y003391D02*
X005661Y003391D01*
X005663Y003392D01*
X005661Y003394D01*
X005666Y003391D02*
X005672Y003401D01*
X005675Y003397D02*
X005678Y003397D01*
X005676Y003399D02*
X005676Y003392D01*
X005678Y003391D01*
X005681Y003391D02*
X005681Y003401D01*
X005683Y003397D02*
X005686Y003397D01*
X005688Y003396D01*
X005688Y003391D01*
X005690Y003392D02*
X005692Y003391D01*
X005695Y003391D01*
X005697Y003392D01*
X005697Y003396D01*
X005695Y003397D01*
X005692Y003397D01*
X005690Y003396D01*
X005690Y003392D01*
X005683Y003397D02*
X005681Y003396D01*
X005699Y003397D02*
X005701Y003397D01*
X005703Y003396D01*
X005704Y003397D01*
X005706Y003396D01*
X005706Y003391D01*
X005708Y003392D02*
X005710Y003394D01*
X005715Y003394D01*
X005715Y003396D02*
X005715Y003391D01*
X005710Y003391D01*
X005708Y003392D01*
X005703Y003391D02*
X005703Y003396D01*
X005699Y003397D02*
X005699Y003391D01*
X005710Y003397D02*
X005713Y003397D01*
X005715Y003396D01*
X005718Y003396D02*
X005719Y003397D01*
X005724Y003397D01*
X005727Y003397D02*
X005732Y003397D01*
X005734Y003396D01*
X005734Y003392D01*
X005732Y003391D01*
X005727Y003391D01*
X005724Y003392D02*
X005723Y003394D01*
X005719Y003394D01*
X005718Y003396D01*
X005718Y003391D02*
X005723Y003391D01*
X005724Y003392D01*
X005727Y003387D02*
X005727Y003397D01*
X005736Y003397D02*
X005736Y003391D01*
X005736Y003394D02*
X005739Y003397D01*
X005741Y003397D01*
X005744Y003397D02*
X005745Y003397D01*
X005745Y003391D01*
X005744Y003391D02*
X005747Y003391D01*
X005750Y003392D02*
X005752Y003391D01*
X005757Y003391D01*
X005759Y003392D02*
X005759Y003396D01*
X005761Y003397D01*
X005764Y003397D01*
X005766Y003396D01*
X005766Y003394D01*
X005759Y003394D01*
X005759Y003392D02*
X005761Y003391D01*
X005764Y003391D01*
X005768Y003391D02*
X005775Y003401D01*
X005778Y003401D02*
X005783Y003401D01*
X005784Y003399D01*
X005784Y003392D01*
X005783Y003391D01*
X005778Y003391D01*
X005778Y003401D01*
X005787Y003396D02*
X005787Y003392D01*
X005788Y003391D01*
X005792Y003391D01*
X005793Y003392D01*
X005793Y003396D01*
X005792Y003397D01*
X005788Y003397D01*
X005787Y003396D01*
X005796Y003396D02*
X005796Y003392D01*
X005798Y003391D01*
X005803Y003391D01*
X005805Y003392D02*
X005807Y003391D01*
X005812Y003391D01*
X005812Y003397D01*
X005814Y003397D02*
X005816Y003397D01*
X005818Y003396D01*
X005819Y003397D01*
X005821Y003396D01*
X005821Y003391D01*
X005824Y003392D02*
X005824Y003396D01*
X005825Y003397D01*
X005829Y003397D01*
X005830Y003396D01*
X005830Y003394D01*
X005824Y003394D01*
X005824Y003392D02*
X005825Y003391D01*
X005829Y003391D01*
X005833Y003391D02*
X005833Y003397D01*
X005838Y003397D01*
X005839Y003396D01*
X005839Y003391D01*
X005844Y003392D02*
X005845Y003391D01*
X005844Y003392D02*
X005844Y003399D01*
X005842Y003397D02*
X005845Y003397D01*
X005848Y003396D02*
X005850Y003397D01*
X005855Y003397D01*
X005853Y003394D02*
X005850Y003394D01*
X005848Y003396D01*
X005848Y003391D02*
X005853Y003391D01*
X005855Y003392D01*
X005853Y003394D01*
X005857Y003391D02*
X005864Y003401D01*
X005868Y003397D02*
X005872Y003397D01*
X005873Y003396D01*
X005873Y003394D01*
X005867Y003394D01*
X005867Y003396D02*
X005868Y003397D01*
X005867Y003396D02*
X005867Y003392D01*
X005868Y003391D01*
X005872Y003391D01*
X005876Y003392D02*
X005877Y003394D01*
X005882Y003394D01*
X005882Y003396D02*
X005882Y003391D01*
X005877Y003391D01*
X005876Y003392D01*
X005877Y003397D02*
X005881Y003397D01*
X005882Y003396D01*
X005885Y003396D02*
X005885Y003392D01*
X005887Y003391D01*
X005892Y003391D01*
X005892Y003389D02*
X005892Y003397D01*
X005887Y003397D01*
X005885Y003396D01*
X005888Y003387D02*
X005890Y003387D01*
X005892Y003389D01*
X005894Y003391D02*
X005898Y003391D01*
X005896Y003391D02*
X005896Y003401D01*
X005894Y003401D01*
X005900Y003396D02*
X005902Y003397D01*
X005905Y003397D01*
X005907Y003396D01*
X005907Y003394D01*
X005900Y003394D01*
X005900Y003392D02*
X005900Y003396D01*
X005900Y003392D02*
X005902Y003391D01*
X005905Y003391D01*
X005910Y003391D02*
X005916Y003401D01*
X005919Y003401D02*
X005920Y003401D01*
X005920Y003391D01*
X005919Y003391D02*
X005922Y003391D01*
X005925Y003392D02*
X005927Y003391D01*
X005930Y003391D01*
X005932Y003392D01*
X005932Y003396D01*
X005930Y003397D01*
X005927Y003397D01*
X005925Y003396D01*
X005925Y003392D01*
X005934Y003392D02*
X005936Y003391D01*
X005941Y003391D01*
X005941Y003389D02*
X005941Y003397D01*
X005936Y003397D01*
X005934Y003396D01*
X005934Y003392D01*
X005937Y003387D02*
X005939Y003387D01*
X005941Y003389D01*
X005943Y003392D02*
X005945Y003391D01*
X005948Y003391D01*
X005950Y003392D01*
X005950Y003396D01*
X005948Y003397D01*
X005945Y003397D01*
X005943Y003396D01*
X005943Y003392D01*
X005952Y003391D02*
X005959Y003401D01*
X005962Y003401D02*
X005965Y003397D01*
X005968Y003401D01*
X005968Y003391D01*
X005971Y003392D02*
X005973Y003394D01*
X005978Y003394D01*
X005978Y003396D02*
X005978Y003391D01*
X005973Y003391D01*
X005971Y003392D01*
X005973Y003397D02*
X005976Y003397D01*
X005978Y003396D01*
X005980Y003396D02*
X005980Y003392D01*
X005982Y003391D01*
X005987Y003391D01*
X005987Y003389D02*
X005987Y003397D01*
X005982Y003397D01*
X005980Y003396D01*
X005983Y003387D02*
X005985Y003387D01*
X005987Y003389D01*
X005989Y003391D02*
X005993Y003391D01*
X005991Y003391D02*
X005991Y003397D01*
X005989Y003397D01*
X005991Y003401D02*
X005991Y003402D01*
X005997Y003397D02*
X005995Y003396D01*
X005995Y003392D01*
X005997Y003391D01*
X006002Y003391D01*
X006005Y003389D02*
X006011Y003389D01*
X006014Y003392D02*
X006016Y003391D01*
X006019Y003391D01*
X006021Y003392D01*
X006021Y003394D01*
X006019Y003396D01*
X006016Y003396D01*
X006014Y003397D01*
X006014Y003399D01*
X006016Y003401D01*
X006019Y003401D01*
X006021Y003399D01*
X006023Y003397D02*
X006025Y003397D01*
X006026Y003396D01*
X006028Y003397D01*
X006030Y003396D01*
X006030Y003391D01*
X006032Y003392D02*
X006034Y003391D01*
X006037Y003391D01*
X006039Y003392D01*
X006039Y003396D01*
X006037Y003397D01*
X006034Y003397D01*
X006032Y003396D01*
X006032Y003392D01*
X006026Y003391D02*
X006026Y003396D01*
X006023Y003397D02*
X006023Y003391D01*
X006041Y003391D02*
X006041Y003401D01*
X006041Y003394D02*
X006047Y003397D01*
X006049Y003396D02*
X006051Y003397D01*
X006054Y003397D01*
X006056Y003396D01*
X006056Y003394D01*
X006049Y003394D01*
X006049Y003392D02*
X006049Y003396D01*
X006049Y003392D02*
X006051Y003391D01*
X006054Y003391D01*
X006058Y003389D02*
X006065Y003389D01*
X006068Y003391D02*
X006071Y003391D01*
X006069Y003391D02*
X006069Y003401D01*
X006068Y003401D01*
X006074Y003396D02*
X006074Y003392D01*
X006075Y003391D01*
X006079Y003391D01*
X006080Y003392D01*
X006080Y003396D01*
X006079Y003397D01*
X006075Y003397D01*
X006074Y003396D01*
X006083Y003396D02*
X006083Y003392D01*
X006085Y003391D01*
X006090Y003391D01*
X006090Y003389D02*
X006090Y003397D01*
X006085Y003397D01*
X006083Y003396D01*
X006092Y003396D02*
X006092Y003392D01*
X006094Y003391D01*
X006097Y003391D01*
X006099Y003392D01*
X006099Y003396D01*
X006097Y003397D01*
X006094Y003397D01*
X006092Y003396D01*
X006090Y003389D02*
X006088Y003387D01*
X006086Y003387D01*
X006101Y003391D02*
X006103Y003391D01*
X006103Y003392D01*
X006101Y003392D01*
X006101Y003391D01*
X006106Y003391D02*
X006111Y003391D01*
X006113Y003392D01*
X006113Y003396D01*
X006111Y003397D01*
X006106Y003397D01*
X006106Y003401D02*
X006106Y003391D01*
X006115Y003391D02*
X006115Y003397D01*
X006117Y003397D01*
X006118Y003396D01*
X006120Y003397D01*
X006122Y003396D01*
X006122Y003391D01*
X006124Y003391D02*
X006129Y003391D01*
X006131Y003392D01*
X006131Y003396D01*
X006129Y003397D01*
X006124Y003397D01*
X006124Y003387D01*
X006118Y003391D02*
X006118Y003396D01*
X006047Y003391D02*
X006041Y003394D01*
X006002Y003397D02*
X005997Y003397D01*
X005962Y003391D02*
X005962Y003401D01*
X005818Y003396D02*
X005818Y003391D01*
X005814Y003391D02*
X005814Y003397D01*
X005805Y003397D02*
X005805Y003392D01*
X005803Y003397D02*
X005798Y003397D01*
X005796Y003396D01*
X005757Y003397D02*
X005752Y003397D01*
X005750Y003396D01*
X005750Y003392D01*
X005745Y003401D02*
X005745Y003402D01*
X005637Y003392D02*
X005635Y003394D01*
X005632Y003394D01*
X005630Y003396D01*
X005632Y003397D01*
X005630Y003391D02*
X005635Y003391D01*
X005637Y003392D01*
X005621Y003392D02*
X005621Y003401D01*
X007187Y003416D02*
X023722Y003416D01*
X023092Y004990D02*
X023094Y005040D01*
X023100Y005090D01*
X023110Y005139D01*
X023124Y005187D01*
X023141Y005234D01*
X023162Y005279D01*
X023187Y005323D01*
X023215Y005364D01*
X023247Y005403D01*
X023281Y005440D01*
X023318Y005474D01*
X023358Y005504D01*
X023400Y005531D01*
X023444Y005555D01*
X023490Y005576D01*
X023537Y005592D01*
X023585Y005605D01*
X023635Y005614D01*
X023684Y005619D01*
X023735Y005620D01*
X023785Y005617D01*
X023834Y005610D01*
X023883Y005599D01*
X023931Y005584D01*
X023977Y005566D01*
X024022Y005544D01*
X024065Y005518D01*
X024106Y005489D01*
X024145Y005457D01*
X024181Y005422D01*
X024213Y005384D01*
X024243Y005344D01*
X024270Y005301D01*
X024293Y005257D01*
X024312Y005211D01*
X024328Y005163D01*
X024340Y005114D01*
X024348Y005065D01*
X024352Y005015D01*
X024352Y004965D01*
X024348Y004915D01*
X024340Y004866D01*
X024328Y004817D01*
X024312Y004769D01*
X024293Y004723D01*
X024270Y004679D01*
X024243Y004636D01*
X024213Y004596D01*
X024181Y004558D01*
X024145Y004523D01*
X024106Y004491D01*
X024065Y004462D01*
X024022Y004436D01*
X023977Y004414D01*
X023931Y004396D01*
X023883Y004381D01*
X023834Y004370D01*
X023785Y004363D01*
X023735Y004360D01*
X023684Y004361D01*
X023635Y004366D01*
X023585Y004375D01*
X023537Y004388D01*
X023490Y004404D01*
X023444Y004425D01*
X023400Y004449D01*
X023358Y004476D01*
X023318Y004506D01*
X023281Y004540D01*
X023247Y004577D01*
X023215Y004616D01*
X023187Y004657D01*
X023162Y004701D01*
X023141Y004746D01*
X023124Y004793D01*
X023110Y004841D01*
X023100Y004890D01*
X023094Y004940D01*
X023092Y004990D01*
X023722Y003415D02*
X023799Y003417D01*
X023876Y003423D01*
X023953Y003432D01*
X024029Y003445D01*
X024105Y003462D01*
X024179Y003483D01*
X024253Y003507D01*
X024325Y003535D01*
X024395Y003566D01*
X024464Y003601D01*
X024532Y003639D01*
X024597Y003680D01*
X024660Y003725D01*
X024721Y003773D01*
X024780Y003823D01*
X024836Y003876D01*
X024889Y003932D01*
X024939Y003991D01*
X024987Y004052D01*
X025032Y004115D01*
X025073Y004180D01*
X025111Y004248D01*
X025146Y004317D01*
X025177Y004387D01*
X025205Y004459D01*
X025229Y004533D01*
X025250Y004607D01*
X025267Y004683D01*
X025280Y004759D01*
X025289Y004836D01*
X025295Y004913D01*
X025297Y004990D01*
X025297Y021526D01*
X023092Y021526D02*
X023094Y021576D01*
X023100Y021626D01*
X023110Y021675D01*
X023124Y021723D01*
X023141Y021770D01*
X023162Y021815D01*
X023187Y021859D01*
X023215Y021900D01*
X023247Y021939D01*
X023281Y021976D01*
X023318Y022010D01*
X023358Y022040D01*
X023400Y022067D01*
X023444Y022091D01*
X023490Y022112D01*
X023537Y022128D01*
X023585Y022141D01*
X023635Y022150D01*
X023684Y022155D01*
X023735Y022156D01*
X023785Y022153D01*
X023834Y022146D01*
X023883Y022135D01*
X023931Y022120D01*
X023977Y022102D01*
X024022Y022080D01*
X024065Y022054D01*
X024106Y022025D01*
X024145Y021993D01*
X024181Y021958D01*
X024213Y021920D01*
X024243Y021880D01*
X024270Y021837D01*
X024293Y021793D01*
X024312Y021747D01*
X024328Y021699D01*
X024340Y021650D01*
X024348Y021601D01*
X024352Y021551D01*
X024352Y021501D01*
X024348Y021451D01*
X024340Y021402D01*
X024328Y021353D01*
X024312Y021305D01*
X024293Y021259D01*
X024270Y021215D01*
X024243Y021172D01*
X024213Y021132D01*
X024181Y021094D01*
X024145Y021059D01*
X024106Y021027D01*
X024065Y020998D01*
X024022Y020972D01*
X023977Y020950D01*
X023931Y020932D01*
X023883Y020917D01*
X023834Y020906D01*
X023785Y020899D01*
X023735Y020896D01*
X023684Y020897D01*
X023635Y020902D01*
X023585Y020911D01*
X023537Y020924D01*
X023490Y020940D01*
X023444Y020961D01*
X023400Y020985D01*
X023358Y021012D01*
X023318Y021042D01*
X023281Y021076D01*
X023247Y021113D01*
X023215Y021152D01*
X023187Y021193D01*
X023162Y021237D01*
X023141Y021282D01*
X023124Y021329D01*
X023110Y021377D01*
X023100Y021426D01*
X023094Y021476D01*
X023092Y021526D01*
X023722Y023101D02*
X023799Y023099D01*
X023876Y023093D01*
X023953Y023084D01*
X024029Y023071D01*
X024105Y023054D01*
X024179Y023033D01*
X024253Y023009D01*
X024325Y022981D01*
X024395Y022950D01*
X024464Y022915D01*
X024532Y022877D01*
X024597Y022836D01*
X024660Y022791D01*
X024721Y022743D01*
X024780Y022693D01*
X024836Y022640D01*
X024889Y022584D01*
X024939Y022525D01*
X024987Y022464D01*
X025032Y022401D01*
X025073Y022336D01*
X025111Y022268D01*
X025146Y022199D01*
X025177Y022129D01*
X025205Y022057D01*
X025229Y021983D01*
X025250Y021909D01*
X025267Y021833D01*
X025280Y021757D01*
X025289Y021680D01*
X025295Y021603D01*
X025297Y021526D01*
X023722Y023101D02*
X007187Y023101D01*
X006557Y021526D02*
X006559Y021576D01*
X006565Y021626D01*
X006575Y021675D01*
X006589Y021723D01*
X006606Y021770D01*
X006627Y021815D01*
X006652Y021859D01*
X006680Y021900D01*
X006712Y021939D01*
X006746Y021976D01*
X006783Y022010D01*
X006823Y022040D01*
X006865Y022067D01*
X006909Y022091D01*
X006955Y022112D01*
X007002Y022128D01*
X007050Y022141D01*
X007100Y022150D01*
X007149Y022155D01*
X007200Y022156D01*
X007250Y022153D01*
X007299Y022146D01*
X007348Y022135D01*
X007396Y022120D01*
X007442Y022102D01*
X007487Y022080D01*
X007530Y022054D01*
X007571Y022025D01*
X007610Y021993D01*
X007646Y021958D01*
X007678Y021920D01*
X007708Y021880D01*
X007735Y021837D01*
X007758Y021793D01*
X007777Y021747D01*
X007793Y021699D01*
X007805Y021650D01*
X007813Y021601D01*
X007817Y021551D01*
X007817Y021501D01*
X007813Y021451D01*
X007805Y021402D01*
X007793Y021353D01*
X007777Y021305D01*
X007758Y021259D01*
X007735Y021215D01*
X007708Y021172D01*
X007678Y021132D01*
X007646Y021094D01*
X007610Y021059D01*
X007571Y021027D01*
X007530Y020998D01*
X007487Y020972D01*
X007442Y020950D01*
X007396Y020932D01*
X007348Y020917D01*
X007299Y020906D01*
X007250Y020899D01*
X007200Y020896D01*
X007149Y020897D01*
X007100Y020902D01*
X007050Y020911D01*
X007002Y020924D01*
X006955Y020940D01*
X006909Y020961D01*
X006865Y020985D01*
X006823Y021012D01*
X006783Y021042D01*
X006746Y021076D01*
X006712Y021113D01*
X006680Y021152D01*
X006652Y021193D01*
X006627Y021237D01*
X006606Y021282D01*
X006589Y021329D01*
X006575Y021377D01*
X006565Y021426D01*
X006559Y021476D01*
X006557Y021526D01*
X005612Y021526D02*
X005614Y021603D01*
X005620Y021680D01*
X005629Y021757D01*
X005642Y021833D01*
X005659Y021909D01*
X005680Y021983D01*
X005704Y022057D01*
X005732Y022129D01*
X005763Y022199D01*
X005798Y022268D01*
X005836Y022336D01*
X005877Y022401D01*
X005922Y022464D01*
X005970Y022525D01*
X006020Y022584D01*
X006073Y022640D01*
X006129Y022693D01*
X006188Y022743D01*
X006249Y022791D01*
X006312Y022836D01*
X006377Y022877D01*
X006445Y022915D01*
X006514Y022950D01*
X006584Y022981D01*
X006656Y023009D01*
X006730Y023033D01*
X006804Y023054D01*
X006880Y023071D01*
X006956Y023084D01*
X007033Y023093D01*
X007110Y023099D01*
X007187Y023101D01*
X005612Y021526D02*
X005612Y004990D01*
X006557Y004990D02*
X006559Y005040D01*
X006565Y005090D01*
X006575Y005139D01*
X006589Y005187D01*
X006606Y005234D01*
X006627Y005279D01*
X006652Y005323D01*
X006680Y005364D01*
X006712Y005403D01*
X006746Y005440D01*
X006783Y005474D01*
X006823Y005504D01*
X006865Y005531D01*
X006909Y005555D01*
X006955Y005576D01*
X007002Y005592D01*
X007050Y005605D01*
X007100Y005614D01*
X007149Y005619D01*
X007200Y005620D01*
X007250Y005617D01*
X007299Y005610D01*
X007348Y005599D01*
X007396Y005584D01*
X007442Y005566D01*
X007487Y005544D01*
X007530Y005518D01*
X007571Y005489D01*
X007610Y005457D01*
X007646Y005422D01*
X007678Y005384D01*
X007708Y005344D01*
X007735Y005301D01*
X007758Y005257D01*
X007777Y005211D01*
X007793Y005163D01*
X007805Y005114D01*
X007813Y005065D01*
X007817Y005015D01*
X007817Y004965D01*
X007813Y004915D01*
X007805Y004866D01*
X007793Y004817D01*
X007777Y004769D01*
X007758Y004723D01*
X007735Y004679D01*
X007708Y004636D01*
X007678Y004596D01*
X007646Y004558D01*
X007610Y004523D01*
X007571Y004491D01*
X007530Y004462D01*
X007487Y004436D01*
X007442Y004414D01*
X007396Y004396D01*
X007348Y004381D01*
X007299Y004370D01*
X007250Y004363D01*
X007200Y004360D01*
X007149Y004361D01*
X007100Y004366D01*
X007050Y004375D01*
X007002Y004388D01*
X006955Y004404D01*
X006909Y004425D01*
X006865Y004449D01*
X006823Y004476D01*
X006783Y004506D01*
X006746Y004540D01*
X006712Y004577D01*
X006680Y004616D01*
X006652Y004657D01*
X006627Y004701D01*
X006606Y004746D01*
X006589Y004793D01*
X006575Y004841D01*
X006565Y004890D01*
X006559Y004940D01*
X006557Y004990D01*
X005612Y004990D02*
X005614Y004913D01*
X005620Y004836D01*
X005629Y004759D01*
X005642Y004683D01*
X005659Y004607D01*
X005680Y004533D01*
X005704Y004459D01*
X005732Y004387D01*
X005763Y004317D01*
X005798Y004248D01*
X005836Y004180D01*
X005877Y004115D01*
X005922Y004052D01*
X005970Y003991D01*
X006020Y003932D01*
X006073Y003876D01*
X006129Y003823D01*
X006188Y003773D01*
X006249Y003725D01*
X006312Y003680D01*
X006377Y003639D01*
X006445Y003601D01*
X006514Y003566D01*
X006584Y003535D01*
X006656Y003507D01*
X006730Y003483D01*
X006804Y003462D01*
X006880Y003445D01*
X006956Y003432D01*
X007033Y003423D01*
X007110Y003417D01*
X007187Y003415D01*
D188*
X014477Y005855D02*
X014477Y006095D01*
X014795Y006127D01*
X014829Y006234D01*
X014880Y006333D01*
X014679Y006581D01*
X015056Y006581D01*
X015096Y006549D02*
X015195Y006600D01*
X015302Y006634D01*
X015334Y006952D01*
X015574Y006952D01*
X015607Y006634D01*
X015713Y006600D01*
X015813Y006549D01*
X016060Y006750D01*
X016230Y006581D01*
X016028Y006333D01*
X016080Y006234D01*
X016114Y006127D01*
X016431Y006095D01*
X016431Y005855D01*
X016114Y005822D01*
X016080Y005716D01*
X016028Y005616D01*
X016230Y005369D01*
X016060Y005199D01*
X015813Y005401D01*
X015713Y005349D01*
X015572Y005690D01*
X015625Y005719D01*
X015672Y005757D01*
X015710Y005804D01*
X015739Y005857D01*
X015756Y005915D01*
X015762Y005975D01*
X015755Y006037D01*
X015736Y006098D01*
X015705Y006153D01*
X015664Y006200D01*
X015613Y006238D01*
X015556Y006265D01*
X015494Y006280D01*
X015431Y006281D01*
X015369Y006270D01*
X015311Y006247D01*
X015258Y006212D01*
X015214Y006166D01*
X015180Y006113D01*
X015157Y006054D01*
X015147Y005992D01*
X015150Y005929D01*
X015166Y005868D01*
X015194Y005811D01*
X015233Y005761D01*
X015281Y005721D01*
X015337Y005690D01*
X015195Y005349D01*
X015096Y005401D01*
X014848Y005199D01*
X014679Y005369D01*
X014880Y005616D01*
X014829Y005716D01*
X014795Y005822D01*
X014477Y005855D01*
X014477Y005890D02*
X015160Y005890D01*
X015149Y005948D02*
X014477Y005948D01*
X014477Y006006D02*
X015149Y006006D01*
X015161Y006063D02*
X014477Y006063D01*
X014734Y006121D02*
X015185Y006121D01*
X015225Y006178D02*
X014811Y006178D01*
X014830Y006236D02*
X015294Y006236D01*
X015616Y006236D02*
X016078Y006236D01*
X016097Y006178D02*
X015683Y006178D01*
X015723Y006121D02*
X016174Y006121D01*
X016049Y006293D02*
X014860Y006293D01*
X014866Y006351D02*
X016043Y006351D01*
X016090Y006408D02*
X014819Y006408D01*
X014772Y006466D02*
X016136Y006466D01*
X016183Y006524D02*
X014725Y006524D01*
X014679Y006581D02*
X014848Y006750D01*
X015096Y006549D01*
X015159Y006581D02*
X015750Y006581D01*
X015853Y006581D02*
X016229Y006581D01*
X016172Y006639D02*
X015924Y006639D01*
X015994Y006696D02*
X016114Y006696D01*
X015606Y006639D02*
X015303Y006639D01*
X015308Y006696D02*
X015600Y006696D01*
X015594Y006754D02*
X015314Y006754D01*
X015320Y006811D02*
X015589Y006811D01*
X015583Y006869D02*
X015326Y006869D01*
X015332Y006926D02*
X015577Y006926D01*
X014985Y006639D02*
X014737Y006639D01*
X014794Y006696D02*
X014915Y006696D01*
X015747Y006063D02*
X016431Y006063D01*
X016431Y006006D02*
X015759Y006006D01*
X015759Y005948D02*
X016431Y005948D01*
X016431Y005890D02*
X015749Y005890D01*
X015726Y005833D02*
X016217Y005833D01*
X016099Y005775D02*
X015687Y005775D01*
X015623Y005718D02*
X016080Y005718D01*
X016051Y005660D02*
X015585Y005660D01*
X015608Y005603D02*
X016039Y005603D01*
X016086Y005545D02*
X015632Y005545D01*
X015656Y005488D02*
X016133Y005488D01*
X016180Y005430D02*
X015680Y005430D01*
X015704Y005372D02*
X015758Y005372D01*
X015848Y005372D02*
X016227Y005372D01*
X016176Y005315D02*
X015918Y005315D01*
X015989Y005257D02*
X016119Y005257D01*
X016061Y005200D02*
X016059Y005200D01*
X015276Y005545D02*
X014823Y005545D01*
X014870Y005603D02*
X015300Y005603D01*
X015324Y005660D02*
X014858Y005660D01*
X014828Y005718D02*
X015286Y005718D01*
X015222Y005775D02*
X014810Y005775D01*
X014692Y005833D02*
X015183Y005833D01*
X015253Y005488D02*
X014776Y005488D01*
X014729Y005430D02*
X015229Y005430D01*
X015205Y005372D02*
X015151Y005372D01*
X015061Y005372D02*
X014682Y005372D01*
X014732Y005315D02*
X014990Y005315D01*
X014920Y005257D02*
X014790Y005257D01*
X014848Y005200D02*
X014849Y005200D01*
M02*
