G75*
G70*
%OFA0B0*%
%FSLAX24Y24*%
%IPPOS*%
%LPD*%
%AMOC8*
5,1,8,0,0,1.08239X$1,22.5*
%
%ADD10R,0.2190X0.0010*%
%ADD11R,0.2210X0.0010*%
%ADD12R,0.2200X0.0010*%
%ADD13R,0.2170X0.0010*%
%ADD14R,0.0090X0.0010*%
%ADD15R,0.0100X0.0010*%
%ADD16R,0.0010X0.0010*%
%ADD17R,0.0020X0.0010*%
%ADD18R,0.0030X0.0010*%
%ADD19R,0.0040X0.0010*%
%ADD20R,0.0050X0.0010*%
%ADD21R,0.0060X0.0010*%
%ADD22R,0.0070X0.0010*%
%ADD23R,0.0110X0.0010*%
%ADD24R,0.0130X0.0010*%
%ADD25R,0.0140X0.0010*%
%ADD26R,0.0160X0.0010*%
%ADD27R,0.0170X0.0010*%
%ADD28R,0.0180X0.0010*%
%ADD29R,0.0200X0.0010*%
%ADD30R,0.0210X0.0010*%
%ADD31R,0.0220X0.0010*%
%ADD32R,0.0240X0.0010*%
%ADD33R,0.0080X0.0010*%
%ADD34R,0.0120X0.0010*%
%ADD35R,0.0150X0.0010*%
%ADD36R,0.0230X0.0010*%
%ADD37R,0.0310X0.0010*%
%ADD38R,0.0300X0.0010*%
%ADD39R,0.0290X0.0010*%
%ADD40R,0.0270X0.0010*%
%ADD41R,0.0260X0.0010*%
%ADD42R,0.0250X0.0010*%
%ADD43R,0.0190X0.0010*%
%ADD44C,0.0090*%
%ADD45C,0.0060*%
%ADD46R,0.0330X0.0010*%
%ADD47R,0.0390X0.0010*%
%ADD48R,0.0450X0.0010*%
%ADD49R,0.0490X0.0010*%
%ADD50R,0.0530X0.0010*%
%ADD51R,0.0570X0.0010*%
%ADD52R,0.0610X0.0010*%
%ADD53R,0.0640X0.0010*%
%ADD54R,0.0670X0.0010*%
%ADD55R,0.0690X0.0010*%
%ADD56R,0.0730X0.0010*%
%ADD57R,0.0750X0.0010*%
%ADD58R,0.0770X0.0010*%
%ADD59R,0.0320X0.0010*%
%ADD60R,0.0370X0.0010*%
%ADD61R,0.0420X0.0010*%
%ADD62R,0.0460X0.0010*%
%ADD63R,0.0520X0.0010*%
%ADD64R,0.0550X0.0010*%
%ADD65R,0.0800X0.0010*%
%ADD66R,0.0810X0.0010*%
%ADD67R,0.0280X0.0010*%
%ADD68R,0.0840X0.0010*%
%ADD69R,0.0360X0.0010*%
%ADD70R,0.0860X0.0010*%
%ADD71R,0.0880X0.0010*%
%ADD72R,0.0470X0.0010*%
%ADD73R,0.0350X0.0010*%
%ADD74R,0.0650X0.0010*%
%ADD75R,0.0660X0.0010*%
%ADD76R,0.0410X0.0010*%
%ADD77R,0.0680X0.0010*%
%ADD78R,0.0700X0.0010*%
%ADD79R,0.0720X0.0010*%
%ADD80R,0.0380X0.0010*%
%ADD81R,0.0590X0.0010*%
%ADD82R,0.0890X0.0010*%
%ADD83R,0.0970X0.0010*%
%ADD84R,0.0940X0.0010*%
%ADD85R,0.0740X0.0010*%
%ADD86R,0.0620X0.0010*%
%ADD87R,0.0510X0.0010*%
%ADD88R,0.0400X0.0010*%
%ADD89R,0.0500X0.0010*%
%ADD90R,0.0580X0.0010*%
%ADD91R,0.0760X0.0010*%
%ADD92R,0.0430X0.0010*%
%ADD93R,0.0340X0.0010*%
%ADD94R,0.0440X0.0010*%
%ADD95R,0.0980X0.0010*%
%ADD96R,0.1000X0.0010*%
%ADD97R,0.0630X0.0010*%
%ADD98R,0.0600X0.0010*%
%ADD99R,0.0560X0.0010*%
%ADD100R,0.0480X0.0010*%
%ADD101C,0.0000*%
%ADD102C,0.0059*%
D10*
X011616Y007568D03*
X011616Y007618D03*
X011616Y016623D03*
X011616Y016673D03*
D11*
X011616Y016653D03*
X011616Y016643D03*
X011616Y016633D03*
X011616Y007598D03*
X011616Y007588D03*
X011616Y007578D03*
D12*
X011611Y007608D03*
X011611Y016663D03*
D13*
X011616Y016683D03*
X011616Y007628D03*
D14*
X011586Y007808D03*
X011626Y008018D03*
X011626Y008028D03*
X011626Y008038D03*
X011356Y008228D03*
X011396Y008348D03*
X011396Y008358D03*
X011086Y008528D03*
X011086Y008538D03*
X011096Y008548D03*
X011096Y008558D03*
X011106Y008568D03*
X011116Y008588D03*
X011126Y008608D03*
X011136Y008618D03*
X011136Y008628D03*
X011146Y008638D03*
X011156Y008658D03*
X011166Y008678D03*
X011176Y008688D03*
X011186Y008708D03*
X011196Y008728D03*
X011206Y008748D03*
X011216Y008758D03*
X011216Y008768D03*
X011226Y008778D03*
X011236Y008798D03*
X011246Y008818D03*
X011256Y008838D03*
X011266Y008848D03*
X011276Y008868D03*
X011286Y008888D03*
X011296Y008908D03*
X011306Y008918D03*
X011316Y008938D03*
X011326Y008958D03*
X011336Y008978D03*
X011346Y008988D03*
X011346Y008998D03*
X011356Y009008D03*
X011366Y009028D03*
X011376Y009048D03*
X011386Y009068D03*
X011396Y009078D03*
X011406Y009098D03*
X011416Y009118D03*
X011426Y009138D03*
X011436Y009148D03*
X011446Y009168D03*
X011456Y009188D03*
X011466Y009208D03*
X011486Y009238D03*
X011496Y009258D03*
X011506Y009278D03*
X011516Y009288D03*
X011526Y009308D03*
X011536Y009328D03*
X011546Y009348D03*
X011556Y009358D03*
X011556Y009368D03*
X011566Y009378D03*
X011576Y009398D03*
X011586Y009418D03*
X011696Y009418D03*
X011706Y009398D03*
X011716Y009378D03*
X011726Y009358D03*
X011736Y009348D03*
X011736Y009338D03*
X011746Y009328D03*
X011756Y009308D03*
X011766Y009288D03*
X011776Y009268D03*
X011786Y009248D03*
X011796Y009228D03*
X011806Y009218D03*
X011806Y009208D03*
X011816Y009198D03*
X011826Y009178D03*
X011836Y009158D03*
X011846Y009138D03*
X011856Y009118D03*
X011866Y009108D03*
X011866Y009098D03*
X011876Y009088D03*
X011876Y009078D03*
X011886Y009068D03*
X011896Y009048D03*
X011906Y009028D03*
X011916Y009008D03*
X011926Y008998D03*
X011926Y008988D03*
X011936Y008978D03*
X011936Y008968D03*
X011946Y008958D03*
X011946Y008948D03*
X011956Y008938D03*
X011956Y008928D03*
X011966Y008918D03*
X011976Y008898D03*
X011986Y008878D03*
X011996Y008858D03*
X012006Y008848D03*
X012006Y008838D03*
X012016Y008828D03*
X012016Y008818D03*
X012026Y008808D03*
X012026Y008798D03*
X012036Y008788D03*
X012046Y008768D03*
X012056Y008748D03*
X012066Y008738D03*
X012066Y008728D03*
X012076Y008708D03*
X012086Y008698D03*
X012086Y008688D03*
X012096Y008678D03*
X012096Y008668D03*
X012106Y008658D03*
X012116Y008638D03*
X012126Y008618D03*
X012136Y008598D03*
X012146Y008578D03*
X012156Y008568D03*
X012156Y008558D03*
X012166Y008548D03*
X012166Y008538D03*
X012176Y008528D03*
X012186Y008508D03*
X012196Y008488D03*
X012206Y008468D03*
X012216Y008448D03*
X012226Y008438D03*
X012226Y008428D03*
X012236Y008418D03*
X012236Y008408D03*
X012246Y008398D03*
X012256Y008378D03*
X012266Y008358D03*
X012276Y008348D03*
X012276Y008338D03*
X012286Y008328D03*
X012286Y008318D03*
X012296Y008308D03*
X012296Y008298D03*
X012306Y008288D03*
X012306Y008278D03*
X012316Y008268D03*
X012326Y008248D03*
X012336Y008228D03*
X012346Y008208D03*
X012356Y008188D03*
X012366Y008178D03*
X012366Y008168D03*
X012376Y008158D03*
X012376Y008148D03*
X012386Y008138D03*
X012396Y008118D03*
X012406Y008098D03*
X012416Y008078D03*
X012426Y008068D03*
X012426Y008058D03*
X012436Y008048D03*
X012436Y008038D03*
X012446Y008028D03*
X012446Y008018D03*
X012456Y008008D03*
X012466Y007988D03*
X012476Y007968D03*
X012486Y007948D03*
X012496Y007938D03*
X012496Y007928D03*
X012506Y007918D03*
X012506Y007908D03*
X012516Y007898D03*
X012516Y007888D03*
X012526Y007878D03*
X012536Y007858D03*
X012546Y007838D03*
X012556Y007818D03*
X012566Y007798D03*
X012576Y007788D03*
X012576Y007778D03*
X012586Y007768D03*
X012586Y007758D03*
X012596Y007748D03*
X012606Y007728D03*
X012616Y007708D03*
X012626Y007688D03*
X012636Y007668D03*
X012646Y007658D03*
X012646Y007648D03*
X012656Y007638D03*
X011046Y008458D03*
X011046Y008468D03*
X011056Y008478D03*
X011066Y008498D03*
X011076Y008518D03*
X011036Y008448D03*
X011026Y008428D03*
X011016Y008408D03*
X011006Y008398D03*
X011006Y008388D03*
X010996Y008378D03*
X010986Y008358D03*
X010976Y008338D03*
X010966Y008318D03*
X010956Y008308D03*
X010956Y008298D03*
X010946Y008288D03*
X010936Y008268D03*
X010926Y008248D03*
X010916Y008238D03*
X010916Y008228D03*
X010906Y008218D03*
X010896Y008198D03*
X010886Y008178D03*
X010876Y008168D03*
X010876Y008158D03*
X010866Y008148D03*
X010856Y008128D03*
X010846Y008108D03*
X010836Y008098D03*
X010836Y008088D03*
X010826Y008078D03*
X010816Y008058D03*
X010806Y008038D03*
X010796Y008028D03*
X010796Y008018D03*
X010776Y007988D03*
X010766Y007968D03*
X010756Y007948D03*
X010746Y007928D03*
X010736Y007918D03*
X010726Y007898D03*
X010716Y007878D03*
X010706Y007868D03*
X010706Y007858D03*
X010696Y007848D03*
X010686Y007828D03*
X010676Y007808D03*
X010666Y007788D03*
X010656Y007778D03*
X010646Y007758D03*
X010636Y007738D03*
X010626Y007718D03*
X010616Y007708D03*
X010616Y007698D03*
X010606Y007688D03*
X010596Y007668D03*
X010586Y007648D03*
X010576Y007638D03*
X011646Y009518D03*
X012656Y016693D03*
X012646Y016703D03*
X012646Y016713D03*
X012636Y016723D03*
X012626Y016743D03*
X012616Y016763D03*
X012606Y016783D03*
X012596Y016803D03*
X012586Y016813D03*
X012586Y016823D03*
X012576Y016833D03*
X012576Y016843D03*
X012566Y016853D03*
X012556Y016873D03*
X012546Y016893D03*
X012536Y016913D03*
X012526Y016933D03*
X012516Y016943D03*
X012516Y016953D03*
X012506Y016963D03*
X012506Y016973D03*
X012496Y016983D03*
X012496Y016993D03*
X012486Y017003D03*
X012476Y017023D03*
X012466Y017043D03*
X012456Y017063D03*
X012446Y017073D03*
X012446Y017083D03*
X012436Y017093D03*
X012436Y017103D03*
X012426Y017113D03*
X012426Y017123D03*
X012416Y017133D03*
X012406Y017153D03*
X012396Y017173D03*
X012386Y017193D03*
X012376Y017203D03*
X012376Y017213D03*
X012366Y017223D03*
X012366Y017233D03*
X012356Y017243D03*
X012346Y017263D03*
X012336Y017283D03*
X012326Y017303D03*
X012316Y017323D03*
X012306Y017333D03*
X012306Y017343D03*
X012296Y017353D03*
X012296Y017363D03*
X012286Y017373D03*
X012286Y017383D03*
X012276Y017393D03*
X012276Y017403D03*
X012266Y017413D03*
X012256Y017433D03*
X012246Y017453D03*
X012236Y017463D03*
X012236Y017473D03*
X012226Y017483D03*
X012226Y017493D03*
X012216Y017503D03*
X012206Y017523D03*
X012196Y017543D03*
X012186Y017563D03*
X012176Y017583D03*
X012166Y017593D03*
X012166Y017603D03*
X012156Y017613D03*
X012156Y017623D03*
X012146Y017633D03*
X012136Y017653D03*
X012126Y017673D03*
X012116Y017693D03*
X012106Y017713D03*
X012096Y017723D03*
X012096Y017733D03*
X012086Y017743D03*
X012086Y017753D03*
X012076Y017763D03*
X012066Y017783D03*
X012066Y017793D03*
X012056Y017803D03*
X012046Y017823D03*
X012036Y017843D03*
X012026Y017853D03*
X012026Y017863D03*
X012016Y017873D03*
X012016Y017883D03*
X012006Y017893D03*
X012006Y017903D03*
X011996Y017913D03*
X011986Y017933D03*
X011976Y017953D03*
X011966Y017973D03*
X011956Y017983D03*
X011956Y017993D03*
X011946Y018003D03*
X011946Y018013D03*
X011936Y018023D03*
X011936Y018033D03*
X011926Y018043D03*
X011926Y018053D03*
X011916Y018063D03*
X011906Y018083D03*
X011896Y018103D03*
X011886Y018123D03*
X011876Y018133D03*
X011876Y018143D03*
X011866Y018153D03*
X011866Y018163D03*
X011856Y018173D03*
X011846Y018193D03*
X011836Y018213D03*
X011826Y018233D03*
X011816Y018253D03*
X011806Y018263D03*
X011806Y018273D03*
X011796Y018283D03*
X011786Y018303D03*
X011776Y018323D03*
X011766Y018343D03*
X011756Y018363D03*
X011746Y018383D03*
X011736Y018393D03*
X011736Y018403D03*
X011726Y018413D03*
X011716Y018433D03*
X011706Y018453D03*
X011696Y018473D03*
X011586Y018473D03*
X011576Y018453D03*
X011566Y018433D03*
X011556Y018423D03*
X011556Y018413D03*
X011546Y018403D03*
X011536Y018383D03*
X011526Y018363D03*
X011516Y018343D03*
X011506Y018333D03*
X011496Y018313D03*
X011486Y018293D03*
X011466Y018263D03*
X011456Y018243D03*
X011446Y018223D03*
X011436Y018203D03*
X011426Y018193D03*
X011416Y018173D03*
X011406Y018153D03*
X011396Y018133D03*
X011386Y018123D03*
X011376Y018103D03*
X011366Y018083D03*
X011356Y018063D03*
X011346Y018053D03*
X011346Y018043D03*
X011336Y018033D03*
X011326Y018013D03*
X011316Y017993D03*
X011306Y017973D03*
X011296Y017963D03*
X011286Y017943D03*
X011276Y017923D03*
X011266Y017903D03*
X011256Y017893D03*
X011246Y017873D03*
X011236Y017853D03*
X011226Y017833D03*
X011216Y017823D03*
X011216Y017813D03*
X011206Y017803D03*
X011196Y017783D03*
X011186Y017763D03*
X011176Y017743D03*
X011166Y017733D03*
X011156Y017713D03*
X011146Y017693D03*
X011136Y017683D03*
X011136Y017673D03*
X011126Y017663D03*
X011116Y017643D03*
X011106Y017623D03*
X011096Y017613D03*
X011096Y017603D03*
X011086Y017593D03*
X011086Y017583D03*
X011076Y017573D03*
X011066Y017553D03*
X011056Y017533D03*
X011046Y017523D03*
X011046Y017513D03*
X011036Y017503D03*
X011026Y017483D03*
X011016Y017463D03*
X011006Y017453D03*
X011006Y017443D03*
X010996Y017433D03*
X010986Y017413D03*
X010976Y017393D03*
X010966Y017373D03*
X010956Y017363D03*
X010956Y017353D03*
X010946Y017343D03*
X010936Y017323D03*
X010926Y017303D03*
X010916Y017293D03*
X010916Y017283D03*
X010906Y017273D03*
X010896Y017253D03*
X010886Y017233D03*
X010876Y017223D03*
X010876Y017213D03*
X010866Y017203D03*
X010856Y017183D03*
X010846Y017163D03*
X010836Y017153D03*
X010836Y017143D03*
X010826Y017133D03*
X010816Y017113D03*
X010806Y017093D03*
X010796Y017083D03*
X010796Y017073D03*
X010776Y017043D03*
X010766Y017023D03*
X010756Y017003D03*
X010746Y016983D03*
X010736Y016973D03*
X010726Y016953D03*
X010716Y016933D03*
X010706Y016923D03*
X010706Y016913D03*
X010696Y016903D03*
X010686Y016883D03*
X010676Y016863D03*
X010666Y016843D03*
X010656Y016833D03*
X010646Y016813D03*
X010636Y016793D03*
X010626Y016773D03*
X010616Y016763D03*
X010616Y016753D03*
X010606Y016743D03*
X010596Y016723D03*
X010586Y016703D03*
X010576Y016693D03*
X011356Y017283D03*
X011396Y017403D03*
X011396Y017413D03*
X011626Y017093D03*
X011626Y017083D03*
X011626Y017073D03*
X011586Y016863D03*
X011646Y018573D03*
X022226Y006818D03*
D15*
X023141Y006888D03*
X022671Y008708D03*
X012631Y007678D03*
X012621Y007698D03*
X012611Y007718D03*
X012601Y007738D03*
X012561Y007808D03*
X012551Y007828D03*
X012541Y007848D03*
X012531Y007868D03*
X012481Y007958D03*
X012471Y007978D03*
X012461Y007998D03*
X012411Y008088D03*
X012401Y008108D03*
X012391Y008128D03*
X012351Y008198D03*
X012341Y008218D03*
X012331Y008238D03*
X012321Y008258D03*
X012261Y008368D03*
X012251Y008388D03*
X012211Y008458D03*
X012201Y008478D03*
X012191Y008498D03*
X012181Y008518D03*
X012141Y008588D03*
X012131Y008608D03*
X012121Y008628D03*
X012111Y008648D03*
X012071Y008718D03*
X012051Y008758D03*
X012041Y008778D03*
X011991Y008868D03*
X011981Y008888D03*
X011971Y008908D03*
X011911Y009018D03*
X011901Y009038D03*
X011891Y009058D03*
X011851Y009128D03*
X011841Y009148D03*
X011831Y009168D03*
X011821Y009188D03*
X011791Y009238D03*
X011781Y009258D03*
X011771Y009278D03*
X011761Y009298D03*
X011751Y009318D03*
X011721Y009368D03*
X011711Y009388D03*
X011701Y009408D03*
X011641Y009508D03*
X011581Y009408D03*
X011571Y009388D03*
X011541Y009338D03*
X011531Y009318D03*
X011521Y009298D03*
X011501Y009268D03*
X011491Y009248D03*
X011481Y009228D03*
X011471Y009218D03*
X011461Y009198D03*
X011451Y009178D03*
X011441Y009158D03*
X011421Y009128D03*
X011411Y009108D03*
X011401Y009088D03*
X011381Y009058D03*
X011371Y009038D03*
X011361Y009018D03*
X011331Y008968D03*
X011321Y008948D03*
X011311Y008928D03*
X011291Y008898D03*
X011281Y008878D03*
X011271Y008858D03*
X011251Y008828D03*
X011241Y008808D03*
X011231Y008788D03*
X011201Y008738D03*
X011191Y008718D03*
X011181Y008698D03*
X011161Y008668D03*
X011151Y008648D03*
X011121Y008598D03*
X011111Y008578D03*
X011071Y008508D03*
X011061Y008488D03*
X011031Y008438D03*
X011021Y008418D03*
X010991Y008368D03*
X010981Y008348D03*
X010971Y008328D03*
X010941Y008278D03*
X010931Y008258D03*
X010901Y008208D03*
X010891Y008188D03*
X010861Y008138D03*
X010851Y008118D03*
X010821Y008068D03*
X010811Y008048D03*
X010791Y008008D03*
X010781Y007998D03*
X010771Y007978D03*
X010761Y007958D03*
X010751Y007938D03*
X010731Y007908D03*
X010721Y007888D03*
X010691Y007838D03*
X010681Y007818D03*
X010671Y007798D03*
X010651Y007768D03*
X010641Y007748D03*
X010631Y007728D03*
X010601Y007678D03*
X010591Y007658D03*
X011361Y008238D03*
X011401Y008368D03*
X011401Y008378D03*
X011411Y008388D03*
X011411Y008398D03*
X011411Y008408D03*
X011431Y008448D03*
X011761Y008508D03*
X011641Y008108D03*
X011631Y008078D03*
X011631Y008068D03*
X011631Y008058D03*
X011631Y008048D03*
X011591Y007828D03*
X011591Y007818D03*
X010591Y016713D03*
X010601Y016733D03*
X010631Y016783D03*
X010641Y016803D03*
X010651Y016823D03*
X010671Y016853D03*
X010681Y016873D03*
X010691Y016893D03*
X010721Y016943D03*
X010731Y016963D03*
X010751Y016993D03*
X010761Y017013D03*
X010771Y017033D03*
X010781Y017053D03*
X010791Y017063D03*
X010811Y017103D03*
X010821Y017123D03*
X010851Y017173D03*
X010861Y017193D03*
X010891Y017243D03*
X010901Y017263D03*
X010931Y017313D03*
X010941Y017333D03*
X010971Y017383D03*
X010981Y017403D03*
X010991Y017423D03*
X011021Y017473D03*
X011031Y017493D03*
X011061Y017543D03*
X011071Y017563D03*
X011111Y017633D03*
X011121Y017653D03*
X011151Y017703D03*
X011161Y017723D03*
X011181Y017753D03*
X011191Y017773D03*
X011201Y017793D03*
X011231Y017843D03*
X011241Y017863D03*
X011251Y017883D03*
X011271Y017913D03*
X011281Y017933D03*
X011291Y017953D03*
X011311Y017983D03*
X011321Y018003D03*
X011331Y018023D03*
X011361Y018073D03*
X011371Y018093D03*
X011381Y018113D03*
X011401Y018143D03*
X011411Y018163D03*
X011421Y018183D03*
X011441Y018213D03*
X011451Y018233D03*
X011461Y018253D03*
X011471Y018273D03*
X011481Y018283D03*
X011491Y018303D03*
X011501Y018323D03*
X011521Y018353D03*
X011531Y018373D03*
X011541Y018393D03*
X011571Y018443D03*
X011581Y018463D03*
X011641Y018563D03*
X011701Y018463D03*
X011711Y018443D03*
X011721Y018423D03*
X011751Y018373D03*
X011761Y018353D03*
X011771Y018333D03*
X011781Y018313D03*
X011791Y018293D03*
X011821Y018243D03*
X011831Y018223D03*
X011841Y018203D03*
X011851Y018183D03*
X011891Y018113D03*
X011901Y018093D03*
X011911Y018073D03*
X011971Y017963D03*
X011981Y017943D03*
X011991Y017923D03*
X012041Y017833D03*
X012051Y017813D03*
X012071Y017773D03*
X012111Y017703D03*
X012121Y017683D03*
X012131Y017663D03*
X012141Y017643D03*
X012181Y017573D03*
X012191Y017553D03*
X012201Y017533D03*
X012211Y017513D03*
X012251Y017443D03*
X012261Y017423D03*
X012321Y017313D03*
X012331Y017293D03*
X012341Y017273D03*
X012351Y017253D03*
X012391Y017183D03*
X012401Y017163D03*
X012411Y017143D03*
X012461Y017053D03*
X012471Y017033D03*
X012481Y017013D03*
X012531Y016923D03*
X012541Y016903D03*
X012551Y016883D03*
X012561Y016863D03*
X012601Y016793D03*
X012611Y016773D03*
X012621Y016753D03*
X012631Y016733D03*
X011761Y017563D03*
X011431Y017503D03*
X011411Y017463D03*
X011411Y017453D03*
X011411Y017443D03*
X011401Y017433D03*
X011401Y017423D03*
X011361Y017293D03*
X011641Y017163D03*
X011631Y017133D03*
X011631Y017123D03*
X011631Y017113D03*
X011631Y017103D03*
X011591Y016883D03*
X011591Y016873D03*
D16*
X011576Y016783D03*
X011306Y017233D03*
X011306Y008178D03*
X011576Y007728D03*
D17*
X011571Y007738D03*
X011821Y008568D03*
X011571Y016793D03*
X011821Y017623D03*
D18*
X011806Y017613D03*
X011316Y017243D03*
X011576Y016803D03*
X011806Y008558D03*
X011316Y008188D03*
X011576Y007748D03*
D19*
X011581Y007758D03*
X011801Y008548D03*
X011581Y016813D03*
X011801Y017603D03*
X022231Y006828D03*
D20*
X023136Y006898D03*
X011576Y007768D03*
X011326Y008198D03*
X011336Y008208D03*
X011576Y016823D03*
X011326Y017253D03*
X011336Y017263D03*
D21*
X011581Y016833D03*
X011791Y017593D03*
X011641Y018593D03*
X011641Y009538D03*
X011791Y008538D03*
X011581Y007778D03*
D22*
X011586Y007788D03*
X011586Y007798D03*
X011346Y008218D03*
X011776Y008528D03*
X011586Y016843D03*
X011586Y016853D03*
X011346Y017273D03*
X011776Y017583D03*
D23*
X011446Y017553D03*
X011436Y017533D03*
X011436Y017523D03*
X011436Y017513D03*
X011426Y017493D03*
X011426Y017483D03*
X011416Y017473D03*
X011376Y017303D03*
X011646Y017203D03*
X011646Y017193D03*
X011646Y017183D03*
X011646Y017173D03*
X011636Y017153D03*
X011636Y017143D03*
X011596Y016893D03*
X011446Y008498D03*
X011436Y008478D03*
X011436Y008468D03*
X011436Y008458D03*
X011426Y008438D03*
X011426Y008428D03*
X011416Y008418D03*
X011376Y008248D03*
X011646Y008148D03*
X011646Y008138D03*
X011646Y008128D03*
X011646Y008118D03*
X011636Y008098D03*
X011636Y008088D03*
X011596Y007838D03*
X022226Y006808D03*
D24*
X022616Y007128D03*
X022636Y007158D03*
X022706Y007258D03*
X022726Y007288D03*
X022816Y007418D03*
X022836Y007448D03*
X022906Y007548D03*
X022516Y007988D03*
X022526Y007998D03*
X022536Y008008D03*
X022546Y008018D03*
X022556Y008028D03*
X022566Y008038D03*
X022596Y008078D03*
X022606Y008088D03*
X022616Y008098D03*
X022626Y008108D03*
X022636Y008118D03*
X022666Y008158D03*
X022676Y008168D03*
X022686Y008178D03*
X022696Y008188D03*
X022706Y008198D03*
X022716Y008208D03*
X022736Y008238D03*
X022746Y008248D03*
X022756Y008258D03*
X022766Y008268D03*
X022776Y008278D03*
X022786Y008288D03*
X022816Y008328D03*
X022826Y008338D03*
X022836Y008348D03*
X022846Y008358D03*
X022856Y008368D03*
X022866Y008378D03*
X022886Y008408D03*
X023146Y006878D03*
X022666Y006458D03*
X011656Y008188D03*
X011656Y008198D03*
X011656Y008208D03*
X011656Y008218D03*
X011386Y008258D03*
X011466Y008558D03*
X011476Y008578D03*
X011476Y008588D03*
X011486Y008608D03*
X011486Y008618D03*
X011496Y008638D03*
X011506Y008668D03*
X011596Y007848D03*
X011596Y016903D03*
X011656Y017243D03*
X011656Y017253D03*
X011656Y017263D03*
X011656Y017273D03*
X011386Y017313D03*
X011466Y017613D03*
X011476Y017633D03*
X011476Y017643D03*
X011486Y017663D03*
X011486Y017673D03*
X011496Y017693D03*
X011506Y017723D03*
D25*
X011501Y017713D03*
X011501Y017703D03*
X011491Y017683D03*
X011511Y017733D03*
X011511Y017743D03*
X011521Y017763D03*
X011531Y017793D03*
X011731Y017533D03*
X011671Y017343D03*
X011671Y017333D03*
X011671Y017323D03*
X011661Y017303D03*
X011661Y017293D03*
X011661Y017283D03*
X011391Y017323D03*
X011601Y016923D03*
X011601Y016913D03*
X011641Y018523D03*
X011641Y018533D03*
X011641Y009478D03*
X011641Y009468D03*
X011531Y008738D03*
X011521Y008708D03*
X011511Y008688D03*
X011511Y008678D03*
X011501Y008658D03*
X011501Y008648D03*
X011491Y008628D03*
X011731Y008478D03*
X011671Y008288D03*
X011671Y008278D03*
X011671Y008268D03*
X011661Y008248D03*
X011661Y008238D03*
X011661Y008228D03*
X011391Y008268D03*
X011601Y007868D03*
X011601Y007858D03*
X021321Y007748D03*
X021411Y007248D03*
X021411Y007128D03*
X021411Y007118D03*
X022221Y006798D03*
X022741Y007078D03*
X022751Y007088D03*
X022861Y007188D03*
X022871Y007198D03*
X022981Y007298D03*
X022991Y007308D03*
X023101Y007408D03*
X023111Y007418D03*
X023221Y007518D03*
X023231Y007528D03*
X023331Y007618D03*
X023341Y007628D03*
X023351Y007638D03*
X023461Y007738D03*
X023471Y007748D03*
X023911Y007328D03*
X023911Y007318D03*
X023911Y007308D03*
X023911Y007298D03*
X023911Y007258D03*
X023911Y007248D03*
X024161Y008048D03*
X022881Y008398D03*
X022871Y008388D03*
X022811Y008318D03*
X022801Y008308D03*
X022791Y008298D03*
X022731Y008228D03*
X022721Y008218D03*
X022661Y008148D03*
X022651Y008138D03*
X022641Y008128D03*
X022591Y008068D03*
X022581Y008058D03*
X022571Y008048D03*
X022511Y007978D03*
X022671Y008728D03*
D26*
X022731Y008408D03*
X022721Y008398D03*
X022711Y008388D03*
X022701Y008378D03*
X022681Y008368D03*
X022671Y008358D03*
X022661Y008348D03*
X022651Y008338D03*
X022631Y008328D03*
X022621Y008318D03*
X022611Y008308D03*
X022601Y008298D03*
X022581Y008288D03*
X022571Y008278D03*
X022561Y008268D03*
X022551Y008258D03*
X022521Y008238D03*
X022511Y008228D03*
X022501Y008218D03*
X022491Y008208D03*
X022471Y008198D03*
X022461Y008188D03*
X022451Y008178D03*
X022441Y008168D03*
X022421Y008158D03*
X022411Y008148D03*
X022401Y008138D03*
X022391Y008128D03*
X022361Y008108D03*
X022351Y008098D03*
X022341Y008088D03*
X022331Y008078D03*
X022311Y008068D03*
X022301Y008058D03*
X022291Y008048D03*
X022281Y008038D03*
X022261Y008028D03*
X022251Y008018D03*
X022241Y008008D03*
X022231Y007998D03*
X022201Y007978D03*
X022191Y007968D03*
X022181Y007958D03*
X022171Y007948D03*
X022151Y007938D03*
X022141Y007928D03*
X022131Y007918D03*
X022121Y007908D03*
X022091Y007888D03*
X022081Y007878D03*
X022071Y007868D03*
X022041Y007848D03*
X022031Y007838D03*
X022021Y007828D03*
X022011Y007818D03*
X021991Y007808D03*
X021981Y007798D03*
X021971Y007788D03*
X021961Y007778D03*
X022511Y007968D03*
X021811Y008528D03*
X021821Y008548D03*
X021821Y008558D03*
X021831Y008578D03*
X021831Y008588D03*
X021841Y008598D03*
X021841Y008608D03*
X021371Y008058D03*
X021361Y008038D03*
X021361Y008028D03*
X021351Y008018D03*
X021351Y008008D03*
X021341Y007988D03*
X021341Y007978D03*
X021331Y007698D03*
X021341Y007668D03*
X021341Y007658D03*
X021351Y007648D03*
X021351Y007638D03*
X021361Y007628D03*
X021361Y007618D03*
X021371Y007598D03*
X021381Y007578D03*
X021471Y007438D03*
X021471Y007428D03*
X021461Y007418D03*
X021461Y007408D03*
X021451Y007398D03*
X021451Y007388D03*
X021441Y007368D03*
X021441Y007358D03*
X021431Y007338D03*
X021421Y007298D03*
X021421Y007068D03*
X021431Y007038D03*
X021431Y007028D03*
X021441Y007008D03*
X021441Y006998D03*
X021451Y006988D03*
X021451Y006978D03*
X021461Y006958D03*
X021471Y006938D03*
X023151Y006868D03*
X023851Y007048D03*
X023861Y007068D03*
X023871Y007088D03*
X023871Y007098D03*
X023881Y007108D03*
X023881Y007118D03*
X023891Y007148D03*
X023901Y007188D03*
X023891Y007428D03*
X023891Y007438D03*
X023881Y007458D03*
X023881Y007468D03*
X024111Y007758D03*
X024121Y007768D03*
X024121Y007778D03*
X024131Y007788D03*
X024131Y007798D03*
X024141Y007818D03*
X024141Y007828D03*
X024151Y007858D03*
X024141Y008138D03*
X024141Y008148D03*
X024131Y008158D03*
X024131Y008168D03*
X024121Y008188D03*
X024111Y008208D03*
X023571Y008588D03*
X023561Y008608D03*
X023561Y008618D03*
X023551Y008638D03*
X023541Y008658D03*
X023481Y007758D03*
X011881Y008838D03*
X011581Y008878D03*
X011571Y008858D03*
X011571Y008848D03*
X011561Y008828D03*
X011561Y008818D03*
X011721Y008468D03*
X011711Y008458D03*
X011681Y008338D03*
X011581Y007978D03*
X011601Y007878D03*
X011641Y009448D03*
X011641Y009458D03*
X011601Y016933D03*
X011581Y017033D03*
X011681Y017393D03*
X011711Y017513D03*
X011721Y017523D03*
X011561Y017873D03*
X011561Y017883D03*
X011571Y017903D03*
X011571Y017913D03*
X011581Y017933D03*
X011881Y017893D03*
X011641Y018503D03*
X011641Y018513D03*
D27*
X011616Y018033D03*
X011606Y018003D03*
X011596Y017983D03*
X011596Y017973D03*
X011586Y017953D03*
X011586Y017943D03*
X011576Y017923D03*
X011416Y017343D03*
X011606Y016953D03*
X011606Y016943D03*
X011616Y008978D03*
X011606Y008948D03*
X011596Y008928D03*
X011596Y008918D03*
X011586Y008898D03*
X011586Y008888D03*
X011576Y008868D03*
X011416Y008288D03*
X011606Y007898D03*
X011606Y007888D03*
X021366Y008048D03*
X021376Y008068D03*
X021386Y008078D03*
X021396Y008098D03*
X021366Y007608D03*
X021376Y007588D03*
X021386Y007568D03*
X021396Y007558D03*
X021466Y007448D03*
X021446Y007378D03*
X021456Y006968D03*
X021466Y006948D03*
X021476Y006928D03*
X021486Y006918D03*
X022216Y006788D03*
X023826Y007008D03*
X023836Y007018D03*
X023836Y007028D03*
X023846Y007038D03*
X023856Y007058D03*
X023866Y007078D03*
X023876Y007478D03*
X024086Y007708D03*
X024096Y007718D03*
X024096Y007728D03*
X024106Y007738D03*
X024106Y007748D03*
X024116Y008198D03*
X024106Y008218D03*
X024106Y008228D03*
X024096Y008238D03*
X024076Y008268D03*
X023556Y008628D03*
X023546Y008648D03*
X023536Y008668D03*
X023526Y008678D03*
X023526Y008688D03*
X023516Y008698D03*
X023216Y008798D03*
X023206Y008788D03*
X023196Y008778D03*
X023186Y008768D03*
X022666Y008738D03*
X021886Y008678D03*
X021866Y008648D03*
X021856Y008638D03*
X021856Y008628D03*
X021846Y008618D03*
D28*
X021871Y008658D03*
X021881Y008668D03*
X021891Y008688D03*
X021901Y008698D03*
X021411Y008118D03*
X021401Y008108D03*
X021391Y008088D03*
X021401Y007548D03*
X021411Y007538D03*
X021411Y007528D03*
X021421Y007518D03*
X021451Y007478D03*
X021461Y007458D03*
X021491Y006908D03*
X021501Y006898D03*
X021511Y006878D03*
X022411Y006788D03*
X022421Y006798D03*
X022901Y007578D03*
X023811Y006988D03*
X023821Y006998D03*
X024061Y007678D03*
X024071Y007688D03*
X024081Y007698D03*
X024091Y008248D03*
X024081Y008258D03*
X024071Y008278D03*
X024061Y008288D03*
X023511Y008708D03*
X023501Y008718D03*
X023171Y008758D03*
X023161Y008748D03*
X011701Y008448D03*
X011421Y008298D03*
X011611Y007908D03*
X011591Y008908D03*
X011601Y008938D03*
X011611Y008958D03*
X011611Y008968D03*
X011621Y008988D03*
X011621Y008998D03*
X011631Y009018D03*
X011631Y009028D03*
X011641Y009438D03*
X011611Y016963D03*
X011421Y017353D03*
X011701Y017503D03*
X011591Y017963D03*
X011601Y017993D03*
X011611Y018013D03*
X011611Y018023D03*
X011621Y018043D03*
X011621Y018053D03*
X011631Y018073D03*
X011631Y018083D03*
X011641Y018493D03*
D29*
X011641Y018483D03*
X011691Y017493D03*
X011681Y017483D03*
X011431Y017363D03*
X011611Y016973D03*
X011641Y009428D03*
X011691Y008438D03*
X011681Y008428D03*
X011431Y008308D03*
X011611Y007918D03*
X021441Y008158D03*
X021451Y008168D03*
X021461Y008178D03*
X021471Y008188D03*
X022471Y006858D03*
X022461Y006848D03*
X022451Y006838D03*
X023031Y006688D03*
X023041Y006698D03*
X023051Y006708D03*
X023761Y006928D03*
X023771Y006938D03*
X023781Y006948D03*
X023891Y007498D03*
X024011Y007618D03*
X024021Y007628D03*
X024031Y007638D03*
X024041Y007648D03*
X023101Y008688D03*
X023111Y008698D03*
X023121Y008708D03*
X023131Y008718D03*
X023461Y008768D03*
X023471Y008758D03*
X023481Y008748D03*
D30*
X023456Y008778D03*
X023446Y008788D03*
X023086Y008678D03*
X023076Y008668D03*
X023066Y008658D03*
X022666Y008758D03*
X021946Y008748D03*
X021936Y008738D03*
X021926Y008728D03*
X021546Y006838D03*
X021556Y006828D03*
X021566Y006818D03*
X021936Y006598D03*
X023896Y007508D03*
X024026Y008328D03*
X024016Y008338D03*
X024006Y008348D03*
X011616Y007938D03*
X011616Y007928D03*
X011446Y008318D03*
X011616Y016983D03*
X011616Y016993D03*
X011446Y017373D03*
D31*
X011671Y017473D03*
X011621Y017003D03*
X011671Y008418D03*
X011621Y007948D03*
X021481Y008198D03*
X021491Y008208D03*
X021751Y008388D03*
X021961Y008758D03*
X021971Y008768D03*
X023051Y008638D03*
X023061Y008648D03*
X023431Y008798D03*
X023991Y008358D03*
X024001Y007608D03*
X023751Y006918D03*
X023741Y006908D03*
X023021Y006678D03*
X023011Y006668D03*
X022501Y006888D03*
X022491Y006878D03*
X022481Y006868D03*
X021591Y006798D03*
X021581Y006808D03*
D32*
X021621Y006778D03*
X022541Y006938D03*
X022551Y006948D03*
X022561Y006958D03*
X022981Y006648D03*
X023181Y006848D03*
X023911Y007528D03*
X023921Y007538D03*
X023931Y007548D03*
X023961Y007578D03*
X023451Y007768D03*
X023971Y008378D03*
X022991Y008588D03*
X022981Y008578D03*
X022661Y008768D03*
X021521Y008228D03*
X011661Y008408D03*
X011461Y008338D03*
X011621Y007968D03*
X011621Y007958D03*
X011621Y017013D03*
X011621Y017023D03*
X011461Y017393D03*
X011661Y017463D03*
D33*
X011771Y017573D03*
X011621Y017063D03*
X011621Y017053D03*
X011621Y017043D03*
X011531Y017043D03*
X011641Y018583D03*
X011641Y009528D03*
X011771Y008518D03*
X011621Y008008D03*
X011621Y007998D03*
X011621Y007988D03*
X011531Y007988D03*
X022311Y008978D03*
X022671Y008698D03*
D34*
X022671Y008718D03*
X022921Y007568D03*
X022911Y007558D03*
X022901Y007538D03*
X022891Y007528D03*
X022881Y007518D03*
X022881Y007508D03*
X022871Y007498D03*
X022861Y007488D03*
X022861Y007478D03*
X022851Y007468D03*
X022841Y007458D03*
X022831Y007438D03*
X022821Y007428D03*
X022811Y007408D03*
X022801Y007398D03*
X022791Y007388D03*
X022791Y007378D03*
X022781Y007368D03*
X022771Y007358D03*
X022771Y007348D03*
X022761Y007338D03*
X022751Y007328D03*
X022751Y007318D03*
X022741Y007308D03*
X022731Y007298D03*
X022721Y007278D03*
X022711Y007268D03*
X022701Y007248D03*
X022691Y007238D03*
X022681Y007228D03*
X022681Y007218D03*
X022671Y007208D03*
X022661Y007198D03*
X022661Y007188D03*
X022651Y007178D03*
X022641Y007168D03*
X022631Y007148D03*
X022621Y007138D03*
X022611Y007118D03*
X022601Y007108D03*
X022591Y007098D03*
X022591Y007088D03*
X022581Y007078D03*
X022571Y007068D03*
X022571Y007058D03*
X022561Y007048D03*
X022551Y007038D03*
X011751Y008498D03*
X011741Y008488D03*
X011471Y008568D03*
X011461Y008548D03*
X011461Y008538D03*
X011451Y008518D03*
X011451Y008508D03*
X011441Y008488D03*
X011481Y008598D03*
X011651Y008178D03*
X011651Y008168D03*
X011651Y008158D03*
X011661Y009038D03*
X011641Y009488D03*
X011641Y009498D03*
X011651Y017213D03*
X011651Y017223D03*
X011651Y017233D03*
X011741Y017543D03*
X011751Y017553D03*
X011481Y017653D03*
X011471Y017623D03*
X011461Y017603D03*
X011461Y017593D03*
X011451Y017573D03*
X011451Y017563D03*
X011441Y017543D03*
X011661Y018093D03*
X011641Y018543D03*
X011641Y018553D03*
D35*
X011566Y017893D03*
X011556Y017863D03*
X011556Y017853D03*
X011546Y017843D03*
X011546Y017833D03*
X011546Y017823D03*
X011536Y017813D03*
X011536Y017803D03*
X011526Y017783D03*
X011526Y017773D03*
X011516Y017753D03*
X011676Y017373D03*
X011676Y017363D03*
X011676Y017353D03*
X011666Y017313D03*
X011406Y017333D03*
X011566Y008838D03*
X011556Y008808D03*
X011556Y008798D03*
X011546Y008788D03*
X011546Y008778D03*
X011546Y008768D03*
X011536Y008758D03*
X011536Y008748D03*
X011526Y008728D03*
X011526Y008718D03*
X011516Y008698D03*
X011676Y008318D03*
X011676Y008308D03*
X011676Y008298D03*
X011666Y008258D03*
X011406Y008278D03*
X021316Y007898D03*
X021316Y007888D03*
X021316Y007878D03*
X021316Y007868D03*
X021316Y007858D03*
X021316Y007848D03*
X021316Y007838D03*
X021316Y007828D03*
X021316Y007818D03*
X021316Y007808D03*
X021316Y007798D03*
X021316Y007788D03*
X021316Y007778D03*
X021316Y007768D03*
X021316Y007758D03*
X021326Y007738D03*
X021326Y007728D03*
X021326Y007718D03*
X021326Y007708D03*
X021336Y007688D03*
X021336Y007678D03*
X021326Y007908D03*
X021326Y007918D03*
X021326Y007928D03*
X021326Y007938D03*
X021336Y007948D03*
X021336Y007958D03*
X021336Y007968D03*
X021346Y007998D03*
X021786Y008408D03*
X021796Y008418D03*
X021796Y008428D03*
X021796Y008438D03*
X021796Y008448D03*
X021796Y008458D03*
X021796Y008468D03*
X021796Y008478D03*
X021806Y008488D03*
X021806Y008498D03*
X021806Y008508D03*
X021806Y008518D03*
X021816Y008538D03*
X021826Y008568D03*
X022216Y007988D03*
X022106Y007898D03*
X022056Y007858D03*
X021946Y007768D03*
X022376Y008118D03*
X022536Y008248D03*
X023076Y009018D03*
X023566Y008598D03*
X023576Y008578D03*
X024126Y008178D03*
X024146Y008128D03*
X024146Y008118D03*
X024146Y008108D03*
X024156Y008098D03*
X024156Y008088D03*
X024156Y008078D03*
X024156Y008068D03*
X024156Y008058D03*
X024166Y008038D03*
X024166Y008028D03*
X024166Y008018D03*
X024166Y008008D03*
X024166Y007998D03*
X024166Y007988D03*
X024166Y007978D03*
X024166Y007968D03*
X024166Y007958D03*
X024166Y007948D03*
X024166Y007938D03*
X024166Y007928D03*
X024166Y007918D03*
X024156Y007908D03*
X024156Y007898D03*
X024156Y007888D03*
X024156Y007878D03*
X024156Y007868D03*
X024146Y007848D03*
X024146Y007838D03*
X024136Y007808D03*
X023886Y007448D03*
X023896Y007418D03*
X023896Y007408D03*
X023896Y007398D03*
X023906Y007388D03*
X023906Y007378D03*
X023906Y007368D03*
X023906Y007358D03*
X023906Y007348D03*
X023906Y007338D03*
X023916Y007288D03*
X023916Y007278D03*
X023916Y007268D03*
X023906Y007238D03*
X023906Y007228D03*
X023906Y007218D03*
X023906Y007208D03*
X023906Y007198D03*
X023896Y007178D03*
X023896Y007168D03*
X023896Y007158D03*
X023886Y007138D03*
X023886Y007128D03*
X023366Y007648D03*
X023376Y007658D03*
X023386Y007668D03*
X023396Y007678D03*
X023406Y007688D03*
X023416Y007698D03*
X023426Y007708D03*
X023436Y007718D03*
X023446Y007728D03*
X023316Y007608D03*
X023306Y007598D03*
X023296Y007588D03*
X023286Y007578D03*
X023276Y007568D03*
X023266Y007558D03*
X023256Y007548D03*
X023246Y007538D03*
X023206Y007508D03*
X023196Y007498D03*
X023186Y007488D03*
X023176Y007478D03*
X023166Y007468D03*
X023156Y007458D03*
X023146Y007448D03*
X023136Y007438D03*
X023126Y007428D03*
X023086Y007398D03*
X023076Y007388D03*
X023066Y007378D03*
X023056Y007368D03*
X023046Y007358D03*
X023036Y007348D03*
X023026Y007338D03*
X023016Y007328D03*
X023006Y007318D03*
X022966Y007288D03*
X022956Y007278D03*
X022946Y007268D03*
X022936Y007258D03*
X022926Y007248D03*
X022916Y007238D03*
X022906Y007228D03*
X022896Y007218D03*
X022886Y007208D03*
X022846Y007178D03*
X022836Y007168D03*
X022826Y007158D03*
X022816Y007148D03*
X022806Y007138D03*
X022796Y007128D03*
X022786Y007118D03*
X022776Y007108D03*
X022766Y007098D03*
X022726Y007068D03*
X022716Y007058D03*
X022706Y007048D03*
X022696Y007038D03*
X021436Y007018D03*
X021426Y007048D03*
X021426Y007058D03*
X021416Y007078D03*
X021416Y007088D03*
X021416Y007098D03*
X021416Y007108D03*
X021406Y007138D03*
X021406Y007148D03*
X021406Y007158D03*
X021406Y007168D03*
X021406Y007178D03*
X021406Y007188D03*
X021406Y007198D03*
X021406Y007208D03*
X021406Y007218D03*
X021406Y007228D03*
X021406Y007238D03*
X021416Y007258D03*
X021416Y007268D03*
X021416Y007278D03*
X021416Y007288D03*
X021426Y007308D03*
X021426Y007318D03*
X021426Y007328D03*
X021436Y007348D03*
D36*
X021606Y006788D03*
X022336Y006658D03*
X022506Y006898D03*
X022516Y006908D03*
X022526Y006918D03*
X022536Y006928D03*
X022996Y006658D03*
X023716Y006888D03*
X023726Y006898D03*
X023906Y007518D03*
X023976Y007588D03*
X023986Y007598D03*
X023976Y008368D03*
X023616Y008568D03*
X023036Y008628D03*
X023026Y008618D03*
X023016Y008608D03*
X023006Y008598D03*
X022316Y008968D03*
X021986Y008778D03*
X021506Y008218D03*
X011456Y008328D03*
X011456Y017383D03*
D37*
X011606Y017403D03*
X011606Y008348D03*
X021706Y008348D03*
X022656Y008788D03*
X023666Y008548D03*
X023636Y006848D03*
X021676Y006748D03*
D38*
X022051Y008818D03*
X023341Y008848D03*
X011611Y008358D03*
X011611Y017413D03*
D39*
X011626Y017423D03*
X011626Y008368D03*
X021716Y008358D03*
X021986Y007748D03*
X022816Y008418D03*
X022826Y008428D03*
X022836Y008438D03*
X022846Y008448D03*
X022856Y008458D03*
X023336Y008858D03*
X023646Y008558D03*
X023916Y008408D03*
X022926Y006618D03*
X022406Y006618D03*
X021936Y006608D03*
D40*
X022376Y006628D03*
X022596Y006998D03*
X022606Y007008D03*
X022616Y007018D03*
X022946Y006628D03*
X023936Y008398D03*
X022896Y008498D03*
X022886Y008488D03*
X021726Y008368D03*
X011636Y008378D03*
X011636Y017433D03*
D41*
X011641Y017443D03*
X011641Y008388D03*
X021551Y008248D03*
X022011Y008798D03*
X022911Y008508D03*
X022921Y008518D03*
X022931Y008528D03*
X022941Y008538D03*
X022951Y008548D03*
X023071Y009008D03*
X022591Y006988D03*
X022361Y006638D03*
X022661Y006468D03*
X023681Y006868D03*
X021641Y006768D03*
D42*
X022346Y006648D03*
X022566Y006968D03*
X022576Y006978D03*
X022966Y006638D03*
X023696Y006878D03*
X023936Y007558D03*
X023946Y007568D03*
X023956Y008388D03*
X022976Y008568D03*
X022966Y008558D03*
X022546Y007958D03*
X021736Y008378D03*
X021536Y008238D03*
X021996Y008788D03*
X011656Y008398D03*
X011656Y017453D03*
D43*
X011626Y018063D03*
X011636Y018093D03*
X011636Y009038D03*
X011626Y009008D03*
X021416Y008128D03*
X021426Y008138D03*
X021436Y008148D03*
X021766Y008398D03*
X021906Y008708D03*
X021916Y008718D03*
X022666Y008748D03*
X023146Y008728D03*
X023156Y008738D03*
X023486Y008738D03*
X023496Y008728D03*
X024036Y008318D03*
X024046Y008308D03*
X024056Y008298D03*
X024056Y007668D03*
X024046Y007658D03*
X023886Y007488D03*
X023806Y006978D03*
X023796Y006968D03*
X023786Y006958D03*
X023396Y006698D03*
X023166Y006858D03*
X023066Y006728D03*
X023056Y006718D03*
X022446Y006828D03*
X022436Y006818D03*
X022426Y006808D03*
X021536Y006848D03*
X021526Y006858D03*
X021516Y006868D03*
X021506Y006888D03*
X021456Y007468D03*
X021446Y007488D03*
X021436Y007498D03*
X021426Y007508D03*
X021946Y007758D03*
D44*
X018370Y004586D02*
X018284Y004671D01*
X018114Y004671D01*
X018029Y004586D01*
X017817Y004586D02*
X017817Y004246D01*
X017732Y004161D01*
X017562Y004161D01*
X017477Y004246D01*
X017477Y004586D02*
X017562Y004671D01*
X017732Y004671D01*
X017817Y004586D01*
X018029Y004246D02*
X018114Y004161D01*
X018284Y004161D01*
X018370Y004246D01*
X018370Y004586D01*
X016712Y004671D02*
X016712Y004161D01*
X016457Y004161D01*
X016372Y004246D01*
X016372Y004331D01*
X016457Y004416D01*
X016712Y004416D01*
X016712Y004671D02*
X016457Y004671D01*
X016372Y004586D01*
X016372Y004501D01*
X016457Y004416D01*
X016160Y004586D02*
X016160Y004671D01*
X016160Y004586D02*
X015990Y004416D01*
X015990Y004161D01*
X015990Y004416D02*
X015819Y004586D01*
X015819Y004671D01*
X015607Y004416D02*
X015267Y004416D01*
X015055Y004501D02*
X014970Y004416D01*
X014800Y004416D01*
X014714Y004331D01*
X014714Y004246D01*
X014800Y004161D01*
X014970Y004161D01*
X015055Y004246D01*
X015055Y004501D02*
X015055Y004586D01*
X014970Y004671D01*
X014800Y004671D01*
X014714Y004586D01*
X014502Y004501D02*
X014502Y004161D01*
X014502Y004416D02*
X014162Y004416D01*
X014162Y004501D02*
X014162Y004161D01*
X014162Y004501D02*
X014332Y004671D01*
X014502Y004501D01*
X013397Y004586D02*
X013312Y004671D01*
X013142Y004671D01*
X013057Y004586D01*
X013057Y004501D01*
X013142Y004416D01*
X013057Y004331D01*
X013057Y004246D01*
X013142Y004161D01*
X013312Y004161D01*
X013397Y004246D01*
X013227Y004416D02*
X013142Y004416D01*
X012845Y004246D02*
X012760Y004246D01*
X012760Y004161D01*
X012845Y004161D01*
X012845Y004246D01*
X012569Y004246D02*
X012569Y004586D01*
X012484Y004671D01*
X012313Y004671D01*
X012228Y004586D01*
X012569Y004246D01*
X012484Y004161D01*
X012313Y004161D01*
X012228Y004246D01*
X012228Y004586D01*
X009760Y011067D02*
X009420Y011067D01*
X009208Y011152D02*
X009208Y011492D01*
X009123Y011577D01*
X008952Y011577D01*
X008867Y011492D01*
X008867Y011152D01*
X008952Y011067D01*
X009123Y011067D01*
X009208Y011152D01*
X009760Y011067D02*
X009760Y011577D01*
X008655Y011407D02*
X008655Y011067D01*
X008655Y011322D02*
X008315Y011322D01*
X008315Y011407D02*
X008315Y011067D01*
X008103Y011067D02*
X007847Y011067D01*
X007762Y011152D01*
X007762Y011492D01*
X007847Y011577D01*
X008103Y011577D01*
X008103Y011067D01*
X008315Y011407D02*
X008485Y011577D01*
X008655Y011407D01*
X006998Y011407D02*
X006998Y011067D01*
X006998Y011322D02*
X006657Y011322D01*
X006657Y011407D02*
X006657Y011067D01*
X006657Y011407D02*
X006828Y011577D01*
X006998Y011407D01*
X006998Y015004D02*
X006743Y015004D01*
X006657Y015089D01*
X006657Y015174D01*
X006743Y015259D01*
X006998Y015259D01*
X006998Y015004D02*
X006998Y015514D01*
X006743Y015514D01*
X006657Y015429D01*
X006657Y015344D01*
X006743Y015259D01*
X007762Y015089D02*
X007762Y015429D01*
X007847Y015514D01*
X008103Y015514D01*
X008103Y015004D01*
X007847Y015004D01*
X007762Y015089D01*
X008315Y015004D02*
X008315Y015344D01*
X008485Y015514D01*
X008655Y015344D01*
X008655Y015004D01*
X008867Y015089D02*
X008867Y015429D01*
X008952Y015514D01*
X009123Y015514D01*
X009208Y015429D01*
X009208Y015089D01*
X009123Y015004D01*
X008952Y015004D01*
X008867Y015089D01*
X008655Y015259D02*
X008315Y015259D01*
X009420Y015004D02*
X009760Y015004D01*
X009760Y015514D01*
X021620Y018770D02*
X021960Y018770D01*
X021960Y018685D02*
X021960Y018855D01*
X021875Y018940D01*
X021705Y018940D01*
X021620Y018855D01*
X021620Y018770D01*
X021705Y018600D02*
X021875Y018600D01*
X021960Y018685D01*
X022166Y018600D02*
X022421Y018770D01*
X022166Y018940D01*
X022421Y019110D02*
X022421Y018600D01*
X022633Y018685D02*
X022633Y018855D01*
X022718Y018940D01*
X022888Y018940D01*
X022973Y018855D01*
X022973Y018685D01*
X022888Y018600D01*
X022718Y018600D01*
X022633Y018685D01*
X022718Y018210D02*
X022633Y018125D01*
X022973Y017785D01*
X022888Y017700D01*
X022718Y017700D01*
X022633Y017785D01*
X022633Y018125D01*
X022718Y018210D02*
X022888Y018210D01*
X022973Y018125D01*
X022973Y017785D01*
X023185Y017785D02*
X023271Y017700D01*
X023526Y017700D01*
X023526Y018210D01*
X023271Y018210D01*
X023185Y018125D01*
X023185Y018040D01*
X023271Y017955D01*
X023526Y017955D01*
X023738Y017955D02*
X023738Y018125D01*
X023823Y018210D01*
X024078Y018210D01*
X024078Y017700D01*
X024078Y017870D02*
X023823Y017870D01*
X023738Y017955D01*
X023908Y017870D02*
X023738Y017700D01*
X023271Y017955D02*
X023185Y017870D01*
X023185Y017785D01*
X022421Y017700D02*
X022081Y018040D01*
X022081Y018125D01*
X022166Y018210D01*
X022336Y018210D01*
X022421Y018125D01*
X022421Y017700D02*
X022081Y017700D01*
X023185Y018600D02*
X023185Y018855D01*
X023271Y018940D01*
X023356Y018855D01*
X023356Y018600D01*
X023526Y018600D02*
X023526Y018940D01*
X023441Y018940D01*
X023356Y018855D01*
X023738Y018770D02*
X023738Y018685D01*
X023823Y018600D01*
X023993Y018600D01*
X024078Y018685D01*
X023993Y018855D02*
X023823Y018855D01*
X023738Y018770D01*
X023738Y019025D02*
X023823Y019110D01*
X023993Y019110D01*
X024078Y019025D01*
X024078Y018940D01*
X023993Y018855D01*
X024078Y019500D02*
X024078Y020010D01*
X023908Y019840D01*
X023738Y020010D01*
X023738Y019500D01*
X023526Y019585D02*
X023441Y019670D01*
X023185Y019670D01*
X023185Y019755D02*
X023185Y019500D01*
X023441Y019500D01*
X023526Y019585D01*
X023441Y019840D02*
X023271Y019840D01*
X023185Y019755D01*
X022973Y019755D02*
X022888Y019840D01*
X022633Y019840D01*
X022633Y019415D01*
X022718Y019330D01*
X022803Y019330D01*
X022888Y019500D02*
X022633Y019500D01*
X022421Y019500D02*
X022251Y019500D01*
X022336Y019500D02*
X022336Y019840D01*
X022421Y019840D01*
X022336Y020010D02*
X022336Y020095D01*
X022052Y019755D02*
X021967Y019840D01*
X021712Y019840D01*
X022052Y019755D02*
X022052Y019585D01*
X021967Y019500D01*
X021712Y019500D01*
X022888Y019500D02*
X022973Y019585D01*
X022973Y019755D01*
D45*
X021475Y016721D02*
X021532Y016664D01*
X021532Y016550D01*
X021475Y016494D01*
X021249Y016494D01*
X021192Y016550D01*
X021192Y016664D01*
X021249Y016721D01*
X021249Y016352D02*
X021192Y016295D01*
X021192Y016182D01*
X021249Y016125D01*
X021475Y016125D01*
X021532Y016182D01*
X021532Y016295D01*
X021475Y016352D01*
X021532Y015984D02*
X021305Y015984D01*
X021192Y015870D01*
X021305Y015757D01*
X021532Y015757D01*
X021464Y015042D02*
X021407Y015042D01*
X021350Y014986D01*
X021350Y014816D01*
X021350Y014986D02*
X021293Y015042D01*
X021237Y015042D01*
X021180Y014986D01*
X021180Y014816D01*
X021520Y014816D01*
X021520Y014986D01*
X021464Y015042D01*
X021180Y014674D02*
X021180Y014447D01*
X021520Y014447D01*
X021520Y014306D02*
X021520Y014079D01*
X021520Y014192D02*
X021180Y014192D01*
X021237Y013937D02*
X021180Y013881D01*
X021180Y013767D01*
X021237Y013711D01*
X021464Y013711D01*
X021520Y013767D01*
X021520Y013881D01*
X021464Y013937D01*
X021407Y013074D02*
X021180Y013074D01*
X021350Y013074D02*
X021350Y012847D01*
X021407Y012847D02*
X021180Y012847D01*
X021180Y012706D02*
X021180Y012479D01*
X021520Y012479D01*
X021520Y012337D02*
X021520Y012110D01*
X021520Y012224D02*
X021180Y012224D01*
X021237Y011969D02*
X021180Y011912D01*
X021180Y011799D01*
X021237Y011742D01*
X021464Y011742D01*
X021520Y011799D01*
X021520Y011912D01*
X021464Y011969D01*
X021407Y012847D02*
X021520Y012960D01*
X021407Y013074D01*
X021464Y010772D02*
X021237Y010772D01*
X021180Y010715D01*
X021180Y010545D01*
X021520Y010545D01*
X021520Y010715D01*
X021464Y010772D01*
X021520Y010403D02*
X021180Y010403D01*
X021520Y010177D01*
X021180Y010177D01*
X021237Y010035D02*
X021350Y010035D01*
X021350Y009922D01*
X021237Y010035D02*
X021180Y009978D01*
X021180Y009865D01*
X021237Y009808D01*
X021464Y009808D01*
X021520Y009865D01*
X021520Y009978D01*
X021464Y010035D01*
X021590Y004280D02*
X021297Y004280D01*
X021370Y004133D02*
X021297Y004060D01*
X021297Y003913D01*
X021370Y003839D01*
X021517Y003839D01*
X021590Y003913D01*
X021590Y004060D02*
X021443Y004133D01*
X021370Y004133D01*
X021590Y004060D02*
X021590Y004280D01*
X021757Y004206D02*
X021757Y004060D01*
X021830Y003986D01*
X022051Y003986D01*
X022051Y003839D02*
X022051Y004280D01*
X021830Y004280D01*
X021757Y004206D01*
X022217Y004206D02*
X022217Y003913D01*
X022291Y003839D01*
X022511Y003839D01*
X022511Y004280D01*
X022291Y004280D01*
X022217Y004206D01*
X021130Y004206D02*
X021130Y003913D01*
X020836Y004206D01*
X020836Y003913D01*
X020910Y003839D01*
X021056Y003839D01*
X021130Y003913D01*
X021130Y004206D02*
X021056Y004280D01*
X020910Y004280D01*
X020836Y004206D01*
X020669Y004280D02*
X020669Y004060D01*
X020523Y004133D01*
X020449Y004133D01*
X020376Y004060D01*
X020376Y003913D01*
X020449Y003839D01*
X020596Y003839D01*
X020669Y003913D01*
X020669Y004280D02*
X020376Y004280D01*
X020209Y004206D02*
X020136Y004280D01*
X019989Y004280D01*
X019915Y004206D01*
X020209Y003913D01*
X020136Y003839D01*
X019989Y003839D01*
X019915Y003913D01*
X019915Y004206D01*
X020209Y004206D02*
X020209Y003913D01*
X019749Y003766D02*
X019455Y003766D01*
X019288Y003986D02*
X019141Y003839D01*
X018995Y003986D01*
X018995Y004280D01*
X018828Y004133D02*
X018681Y004280D01*
X018681Y003839D01*
X018828Y003839D02*
X018534Y003839D01*
X019288Y003986D02*
X019288Y004280D01*
X008935Y012839D02*
X008878Y012782D01*
X008765Y012782D01*
X008708Y012839D01*
X008708Y013066D01*
X008765Y013123D01*
X008878Y013123D01*
X008935Y013066D01*
X008935Y012839D01*
X008567Y012782D02*
X008397Y012782D01*
X008340Y012839D01*
X008340Y012952D01*
X008397Y013009D01*
X008567Y013009D01*
X008567Y012669D01*
X008198Y012839D02*
X008198Y012952D01*
X008142Y013009D01*
X008028Y013009D01*
X007971Y012952D01*
X007971Y012896D01*
X008198Y012896D01*
X008198Y012839D02*
X008142Y012782D01*
X008028Y012782D01*
X007830Y012782D02*
X007830Y013009D01*
X007660Y013009D01*
X007603Y012952D01*
X007603Y012782D01*
X007131Y013316D02*
X007075Y013316D01*
X007018Y013372D01*
X007018Y013656D01*
X007245Y013656D02*
X007245Y013486D01*
X007188Y013429D01*
X007018Y013429D01*
X007377Y013429D02*
X007490Y013429D01*
X007434Y013429D02*
X007434Y013769D01*
X007490Y013769D01*
X007679Y013769D02*
X007679Y013429D01*
X007736Y013429D02*
X007622Y013429D01*
X007877Y013429D02*
X008047Y013429D01*
X008104Y013486D01*
X008047Y013543D01*
X007877Y013543D01*
X007877Y013599D02*
X007877Y013429D01*
X007877Y013599D02*
X007934Y013656D01*
X008047Y013656D01*
X008246Y013599D02*
X008246Y013429D01*
X008359Y013429D02*
X008359Y013599D01*
X008302Y013656D01*
X008246Y013599D01*
X008359Y013599D02*
X008416Y013656D01*
X008473Y013656D01*
X008473Y013429D01*
X008609Y013656D02*
X008666Y013656D01*
X008779Y013543D01*
X008779Y013656D02*
X008779Y013429D01*
X008921Y013486D02*
X008921Y013599D01*
X008978Y013656D01*
X009091Y013656D01*
X009148Y013599D01*
X009148Y013486D01*
X009091Y013429D01*
X008978Y013429D01*
X008921Y013486D01*
X009289Y013429D02*
X009289Y013769D01*
X009516Y013769D02*
X009289Y013429D01*
X009516Y013429D02*
X009516Y013769D01*
X007736Y013769D02*
X007679Y013769D01*
D46*
X021606Y008268D03*
X021696Y008338D03*
X022086Y008828D03*
X023076Y008998D03*
X022896Y006608D03*
X022666Y006478D03*
D47*
X022666Y006488D03*
X022286Y006768D03*
X023706Y008518D03*
X023336Y008808D03*
X023076Y008988D03*
X022646Y008808D03*
D48*
X023076Y008978D03*
X023746Y008478D03*
X023806Y008428D03*
X022666Y006498D03*
D49*
X022666Y006508D03*
X022766Y007608D03*
X022646Y007928D03*
D50*
X023076Y008958D03*
X022666Y006518D03*
D51*
X022666Y006528D03*
X022676Y007918D03*
X023076Y008948D03*
D52*
X023076Y008938D03*
X022666Y006538D03*
D53*
X022661Y006548D03*
X023301Y006738D03*
X023071Y008928D03*
D54*
X023076Y008918D03*
X023286Y007818D03*
X023346Y006768D03*
X022666Y006558D03*
D55*
X022666Y006568D03*
D56*
X022666Y006578D03*
X023416Y006838D03*
X022746Y007898D03*
X023076Y008898D03*
D57*
X023076Y008888D03*
X022966Y007868D03*
X022816Y007888D03*
X023256Y007828D03*
X022666Y006588D03*
D58*
X022666Y006598D03*
X023076Y008878D03*
D59*
X023311Y008868D03*
X023341Y008838D03*
X022831Y008868D03*
X022311Y008958D03*
X022581Y007948D03*
X023421Y007778D03*
X023891Y008418D03*
X022431Y006608D03*
D60*
X022306Y006778D03*
X021926Y006618D03*
X021636Y008278D03*
X021646Y008288D03*
X021656Y008298D03*
X023696Y008528D03*
D61*
X023721Y008498D03*
X023391Y006728D03*
X022241Y006748D03*
X021931Y006628D03*
D62*
X021931Y006638D03*
D63*
X021931Y006648D03*
X022311Y008918D03*
D64*
X021926Y006658D03*
D65*
X022001Y006688D03*
X022021Y006678D03*
X022031Y006668D03*
X022631Y007638D03*
D66*
X021996Y006698D03*
D67*
X021651Y006758D03*
X022621Y007028D03*
X022851Y007588D03*
X022871Y008468D03*
X022881Y008478D03*
X022661Y008778D03*
X022031Y008808D03*
X021571Y008258D03*
X023391Y006708D03*
X023661Y006858D03*
D68*
X021991Y006708D03*
X022201Y007698D03*
D69*
X021671Y008308D03*
X021681Y008318D03*
X023341Y008818D03*
X023391Y006718D03*
D70*
X021991Y006718D03*
D71*
X021991Y006728D03*
D72*
X022206Y006738D03*
X023786Y008438D03*
X023776Y008448D03*
X023766Y008458D03*
X023756Y008468D03*
D73*
X021686Y008328D03*
X021706Y006738D03*
D74*
X023316Y006748D03*
D75*
X023331Y006758D03*
X022711Y007908D03*
X022311Y008878D03*
D76*
X022616Y007938D03*
X023386Y007788D03*
X023716Y008508D03*
X022266Y006758D03*
D77*
X023361Y006778D03*
D78*
X023371Y006788D03*
X023381Y006798D03*
X023391Y006808D03*
X022671Y007628D03*
X022311Y008868D03*
X023071Y008908D03*
D79*
X023411Y006828D03*
X023401Y006818D03*
D80*
X022811Y007598D03*
X022311Y008948D03*
D81*
X022716Y007618D03*
D82*
X022586Y007648D03*
D83*
X022516Y007658D03*
X022426Y007668D03*
X022336Y007678D03*
X022416Y008838D03*
D84*
X022241Y007688D03*
D85*
X022161Y007708D03*
D86*
X022111Y007718D03*
D87*
X022076Y007728D03*
X022626Y008828D03*
D88*
X022031Y007738D03*
D89*
X023351Y007798D03*
X023071Y008968D03*
D90*
X023321Y007808D03*
D91*
X023191Y007838D03*
X023111Y007848D03*
X023041Y007858D03*
X022891Y007878D03*
D92*
X023736Y008488D03*
X022316Y008938D03*
D93*
X022651Y008798D03*
X023341Y008828D03*
X023681Y008538D03*
D94*
X022641Y008818D03*
D95*
X022431Y008848D03*
D96*
X022451Y008858D03*
D97*
X022316Y008888D03*
D98*
X022311Y008898D03*
D99*
X022311Y008908D03*
D100*
X022311Y008928D03*
D101*
X005612Y004990D02*
X005612Y021526D01*
X006557Y021526D02*
X006559Y021576D01*
X006565Y021626D01*
X006575Y021675D01*
X006589Y021723D01*
X006606Y021770D01*
X006627Y021815D01*
X006652Y021859D01*
X006680Y021900D01*
X006712Y021939D01*
X006746Y021976D01*
X006783Y022010D01*
X006823Y022040D01*
X006865Y022067D01*
X006909Y022091D01*
X006955Y022112D01*
X007002Y022128D01*
X007050Y022141D01*
X007100Y022150D01*
X007149Y022155D01*
X007200Y022156D01*
X007250Y022153D01*
X007299Y022146D01*
X007348Y022135D01*
X007396Y022120D01*
X007442Y022102D01*
X007487Y022080D01*
X007530Y022054D01*
X007571Y022025D01*
X007610Y021993D01*
X007646Y021958D01*
X007678Y021920D01*
X007708Y021880D01*
X007735Y021837D01*
X007758Y021793D01*
X007777Y021747D01*
X007793Y021699D01*
X007805Y021650D01*
X007813Y021601D01*
X007817Y021551D01*
X007817Y021501D01*
X007813Y021451D01*
X007805Y021402D01*
X007793Y021353D01*
X007777Y021305D01*
X007758Y021259D01*
X007735Y021215D01*
X007708Y021172D01*
X007678Y021132D01*
X007646Y021094D01*
X007610Y021059D01*
X007571Y021027D01*
X007530Y020998D01*
X007487Y020972D01*
X007442Y020950D01*
X007396Y020932D01*
X007348Y020917D01*
X007299Y020906D01*
X007250Y020899D01*
X007200Y020896D01*
X007149Y020897D01*
X007100Y020902D01*
X007050Y020911D01*
X007002Y020924D01*
X006955Y020940D01*
X006909Y020961D01*
X006865Y020985D01*
X006823Y021012D01*
X006783Y021042D01*
X006746Y021076D01*
X006712Y021113D01*
X006680Y021152D01*
X006652Y021193D01*
X006627Y021237D01*
X006606Y021282D01*
X006589Y021329D01*
X006575Y021377D01*
X006565Y021426D01*
X006559Y021476D01*
X006557Y021526D01*
X005612Y021526D02*
X005614Y021603D01*
X005620Y021680D01*
X005629Y021757D01*
X005642Y021833D01*
X005659Y021909D01*
X005680Y021983D01*
X005704Y022057D01*
X005732Y022129D01*
X005763Y022199D01*
X005798Y022268D01*
X005836Y022336D01*
X005877Y022401D01*
X005922Y022464D01*
X005970Y022525D01*
X006020Y022584D01*
X006073Y022640D01*
X006129Y022693D01*
X006188Y022743D01*
X006249Y022791D01*
X006312Y022836D01*
X006377Y022877D01*
X006445Y022915D01*
X006514Y022950D01*
X006584Y022981D01*
X006656Y023009D01*
X006730Y023033D01*
X006804Y023054D01*
X006880Y023071D01*
X006956Y023084D01*
X007033Y023093D01*
X007110Y023099D01*
X007187Y023101D01*
X023722Y023101D01*
X023092Y021526D02*
X023094Y021576D01*
X023100Y021626D01*
X023110Y021675D01*
X023124Y021723D01*
X023141Y021770D01*
X023162Y021815D01*
X023187Y021859D01*
X023215Y021900D01*
X023247Y021939D01*
X023281Y021976D01*
X023318Y022010D01*
X023358Y022040D01*
X023400Y022067D01*
X023444Y022091D01*
X023490Y022112D01*
X023537Y022128D01*
X023585Y022141D01*
X023635Y022150D01*
X023684Y022155D01*
X023735Y022156D01*
X023785Y022153D01*
X023834Y022146D01*
X023883Y022135D01*
X023931Y022120D01*
X023977Y022102D01*
X024022Y022080D01*
X024065Y022054D01*
X024106Y022025D01*
X024145Y021993D01*
X024181Y021958D01*
X024213Y021920D01*
X024243Y021880D01*
X024270Y021837D01*
X024293Y021793D01*
X024312Y021747D01*
X024328Y021699D01*
X024340Y021650D01*
X024348Y021601D01*
X024352Y021551D01*
X024352Y021501D01*
X024348Y021451D01*
X024340Y021402D01*
X024328Y021353D01*
X024312Y021305D01*
X024293Y021259D01*
X024270Y021215D01*
X024243Y021172D01*
X024213Y021132D01*
X024181Y021094D01*
X024145Y021059D01*
X024106Y021027D01*
X024065Y020998D01*
X024022Y020972D01*
X023977Y020950D01*
X023931Y020932D01*
X023883Y020917D01*
X023834Y020906D01*
X023785Y020899D01*
X023735Y020896D01*
X023684Y020897D01*
X023635Y020902D01*
X023585Y020911D01*
X023537Y020924D01*
X023490Y020940D01*
X023444Y020961D01*
X023400Y020985D01*
X023358Y021012D01*
X023318Y021042D01*
X023281Y021076D01*
X023247Y021113D01*
X023215Y021152D01*
X023187Y021193D01*
X023162Y021237D01*
X023141Y021282D01*
X023124Y021329D01*
X023110Y021377D01*
X023100Y021426D01*
X023094Y021476D01*
X023092Y021526D01*
X023722Y023101D02*
X023799Y023099D01*
X023876Y023093D01*
X023953Y023084D01*
X024029Y023071D01*
X024105Y023054D01*
X024179Y023033D01*
X024253Y023009D01*
X024325Y022981D01*
X024395Y022950D01*
X024464Y022915D01*
X024532Y022877D01*
X024597Y022836D01*
X024660Y022791D01*
X024721Y022743D01*
X024780Y022693D01*
X024836Y022640D01*
X024889Y022584D01*
X024939Y022525D01*
X024987Y022464D01*
X025032Y022401D01*
X025073Y022336D01*
X025111Y022268D01*
X025146Y022199D01*
X025177Y022129D01*
X025205Y022057D01*
X025229Y021983D01*
X025250Y021909D01*
X025267Y021833D01*
X025280Y021757D01*
X025289Y021680D01*
X025295Y021603D01*
X025297Y021526D01*
X025297Y004990D01*
X023092Y004990D02*
X023094Y005040D01*
X023100Y005090D01*
X023110Y005139D01*
X023124Y005187D01*
X023141Y005234D01*
X023162Y005279D01*
X023187Y005323D01*
X023215Y005364D01*
X023247Y005403D01*
X023281Y005440D01*
X023318Y005474D01*
X023358Y005504D01*
X023400Y005531D01*
X023444Y005555D01*
X023490Y005576D01*
X023537Y005592D01*
X023585Y005605D01*
X023635Y005614D01*
X023684Y005619D01*
X023735Y005620D01*
X023785Y005617D01*
X023834Y005610D01*
X023883Y005599D01*
X023931Y005584D01*
X023977Y005566D01*
X024022Y005544D01*
X024065Y005518D01*
X024106Y005489D01*
X024145Y005457D01*
X024181Y005422D01*
X024213Y005384D01*
X024243Y005344D01*
X024270Y005301D01*
X024293Y005257D01*
X024312Y005211D01*
X024328Y005163D01*
X024340Y005114D01*
X024348Y005065D01*
X024352Y005015D01*
X024352Y004965D01*
X024348Y004915D01*
X024340Y004866D01*
X024328Y004817D01*
X024312Y004769D01*
X024293Y004723D01*
X024270Y004679D01*
X024243Y004636D01*
X024213Y004596D01*
X024181Y004558D01*
X024145Y004523D01*
X024106Y004491D01*
X024065Y004462D01*
X024022Y004436D01*
X023977Y004414D01*
X023931Y004396D01*
X023883Y004381D01*
X023834Y004370D01*
X023785Y004363D01*
X023735Y004360D01*
X023684Y004361D01*
X023635Y004366D01*
X023585Y004375D01*
X023537Y004388D01*
X023490Y004404D01*
X023444Y004425D01*
X023400Y004449D01*
X023358Y004476D01*
X023318Y004506D01*
X023281Y004540D01*
X023247Y004577D01*
X023215Y004616D01*
X023187Y004657D01*
X023162Y004701D01*
X023141Y004746D01*
X023124Y004793D01*
X023110Y004841D01*
X023100Y004890D01*
X023094Y004940D01*
X023092Y004990D01*
X023722Y003415D02*
X023799Y003417D01*
X023876Y003423D01*
X023953Y003432D01*
X024029Y003445D01*
X024105Y003462D01*
X024179Y003483D01*
X024253Y003507D01*
X024325Y003535D01*
X024395Y003566D01*
X024464Y003601D01*
X024532Y003639D01*
X024597Y003680D01*
X024660Y003725D01*
X024721Y003773D01*
X024780Y003823D01*
X024836Y003876D01*
X024889Y003932D01*
X024939Y003991D01*
X024987Y004052D01*
X025032Y004115D01*
X025073Y004180D01*
X025111Y004248D01*
X025146Y004317D01*
X025177Y004387D01*
X025205Y004459D01*
X025229Y004533D01*
X025250Y004607D01*
X025267Y004683D01*
X025280Y004759D01*
X025289Y004836D01*
X025295Y004913D01*
X025297Y004990D01*
X023722Y003416D02*
X007187Y003416D01*
X006557Y004990D02*
X006559Y005040D01*
X006565Y005090D01*
X006575Y005139D01*
X006589Y005187D01*
X006606Y005234D01*
X006627Y005279D01*
X006652Y005323D01*
X006680Y005364D01*
X006712Y005403D01*
X006746Y005440D01*
X006783Y005474D01*
X006823Y005504D01*
X006865Y005531D01*
X006909Y005555D01*
X006955Y005576D01*
X007002Y005592D01*
X007050Y005605D01*
X007100Y005614D01*
X007149Y005619D01*
X007200Y005620D01*
X007250Y005617D01*
X007299Y005610D01*
X007348Y005599D01*
X007396Y005584D01*
X007442Y005566D01*
X007487Y005544D01*
X007530Y005518D01*
X007571Y005489D01*
X007610Y005457D01*
X007646Y005422D01*
X007678Y005384D01*
X007708Y005344D01*
X007735Y005301D01*
X007758Y005257D01*
X007777Y005211D01*
X007793Y005163D01*
X007805Y005114D01*
X007813Y005065D01*
X007817Y005015D01*
X007817Y004965D01*
X007813Y004915D01*
X007805Y004866D01*
X007793Y004817D01*
X007777Y004769D01*
X007758Y004723D01*
X007735Y004679D01*
X007708Y004636D01*
X007678Y004596D01*
X007646Y004558D01*
X007610Y004523D01*
X007571Y004491D01*
X007530Y004462D01*
X007487Y004436D01*
X007442Y004414D01*
X007396Y004396D01*
X007348Y004381D01*
X007299Y004370D01*
X007250Y004363D01*
X007200Y004360D01*
X007149Y004361D01*
X007100Y004366D01*
X007050Y004375D01*
X007002Y004388D01*
X006955Y004404D01*
X006909Y004425D01*
X006865Y004449D01*
X006823Y004476D01*
X006783Y004506D01*
X006746Y004540D01*
X006712Y004577D01*
X006680Y004616D01*
X006652Y004657D01*
X006627Y004701D01*
X006606Y004746D01*
X006589Y004793D01*
X006575Y004841D01*
X006565Y004890D01*
X006559Y004940D01*
X006557Y004990D01*
X005612Y004990D02*
X005614Y004913D01*
X005620Y004836D01*
X005629Y004759D01*
X005642Y004683D01*
X005659Y004607D01*
X005680Y004533D01*
X005704Y004459D01*
X005732Y004387D01*
X005763Y004317D01*
X005798Y004248D01*
X005836Y004180D01*
X005877Y004115D01*
X005922Y004052D01*
X005970Y003991D01*
X006020Y003932D01*
X006073Y003876D01*
X006129Y003823D01*
X006188Y003773D01*
X006249Y003725D01*
X006312Y003680D01*
X006377Y003639D01*
X006445Y003601D01*
X006514Y003566D01*
X006584Y003535D01*
X006656Y003507D01*
X006730Y003483D01*
X006804Y003462D01*
X006880Y003445D01*
X006956Y003432D01*
X007033Y003423D01*
X007110Y003417D01*
X007187Y003415D01*
D102*
X014477Y005855D02*
X014477Y006095D01*
X014795Y006127D01*
X014829Y006234D01*
X014880Y006333D01*
X014679Y006581D01*
X015056Y006581D01*
X015096Y006549D02*
X015195Y006600D01*
X015302Y006634D01*
X015334Y006952D01*
X015574Y006952D01*
X015607Y006634D01*
X015713Y006600D01*
X015813Y006549D01*
X016060Y006750D01*
X016230Y006581D01*
X016028Y006333D01*
X016080Y006234D01*
X016114Y006127D01*
X016431Y006095D01*
X016431Y005855D01*
X016114Y005822D01*
X016080Y005716D01*
X016028Y005616D01*
X016230Y005369D01*
X016060Y005199D01*
X015813Y005401D01*
X015713Y005349D01*
X015572Y005690D01*
X015625Y005719D01*
X015672Y005757D01*
X015710Y005804D01*
X015739Y005857D01*
X015756Y005915D01*
X015762Y005975D01*
X015755Y006037D01*
X015736Y006098D01*
X015705Y006153D01*
X015664Y006200D01*
X015613Y006238D01*
X015556Y006265D01*
X015494Y006280D01*
X015431Y006281D01*
X015369Y006270D01*
X015311Y006247D01*
X015258Y006212D01*
X015214Y006166D01*
X015180Y006113D01*
X015157Y006054D01*
X015147Y005992D01*
X015150Y005929D01*
X015166Y005868D01*
X015194Y005811D01*
X015233Y005761D01*
X015281Y005721D01*
X015337Y005690D01*
X015195Y005349D01*
X015096Y005401D01*
X014848Y005199D01*
X014679Y005369D01*
X014880Y005616D01*
X014829Y005716D01*
X014795Y005822D01*
X014477Y005855D01*
X014477Y005890D02*
X015160Y005890D01*
X015149Y005948D02*
X014477Y005948D01*
X014477Y006006D02*
X015149Y006006D01*
X015161Y006063D02*
X014477Y006063D01*
X014734Y006121D02*
X015185Y006121D01*
X015225Y006178D02*
X014811Y006178D01*
X014830Y006236D02*
X015294Y006236D01*
X015616Y006236D02*
X016078Y006236D01*
X016097Y006178D02*
X015683Y006178D01*
X015723Y006121D02*
X016174Y006121D01*
X016049Y006293D02*
X014860Y006293D01*
X014866Y006351D02*
X016043Y006351D01*
X016090Y006408D02*
X014819Y006408D01*
X014772Y006466D02*
X016136Y006466D01*
X016183Y006524D02*
X014725Y006524D01*
X014679Y006581D02*
X014848Y006750D01*
X015096Y006549D01*
X015159Y006581D02*
X015750Y006581D01*
X015853Y006581D02*
X016229Y006581D01*
X016172Y006639D02*
X015924Y006639D01*
X015994Y006696D02*
X016114Y006696D01*
X015606Y006639D02*
X015303Y006639D01*
X015308Y006696D02*
X015600Y006696D01*
X015594Y006754D02*
X015314Y006754D01*
X015320Y006811D02*
X015589Y006811D01*
X015583Y006869D02*
X015326Y006869D01*
X015332Y006926D02*
X015577Y006926D01*
X014985Y006639D02*
X014737Y006639D01*
X014794Y006696D02*
X014915Y006696D01*
X015747Y006063D02*
X016431Y006063D01*
X016431Y006006D02*
X015759Y006006D01*
X015759Y005948D02*
X016431Y005948D01*
X016431Y005890D02*
X015749Y005890D01*
X015726Y005833D02*
X016217Y005833D01*
X016099Y005775D02*
X015687Y005775D01*
X015623Y005718D02*
X016080Y005718D01*
X016051Y005660D02*
X015585Y005660D01*
X015608Y005603D02*
X016039Y005603D01*
X016086Y005545D02*
X015632Y005545D01*
X015656Y005488D02*
X016133Y005488D01*
X016180Y005430D02*
X015680Y005430D01*
X015704Y005372D02*
X015758Y005372D01*
X015848Y005372D02*
X016227Y005372D01*
X016176Y005315D02*
X015918Y005315D01*
X015989Y005257D02*
X016119Y005257D01*
X016061Y005200D02*
X016059Y005200D01*
X015276Y005545D02*
X014823Y005545D01*
X014870Y005603D02*
X015300Y005603D01*
X015324Y005660D02*
X014858Y005660D01*
X014828Y005718D02*
X015286Y005718D01*
X015222Y005775D02*
X014810Y005775D01*
X014692Y005833D02*
X015183Y005833D01*
X015253Y005488D02*
X014776Y005488D01*
X014729Y005430D02*
X015229Y005430D01*
X015205Y005372D02*
X015151Y005372D01*
X015061Y005372D02*
X014682Y005372D01*
X014732Y005315D02*
X014990Y005315D01*
X014920Y005257D02*
X014790Y005257D01*
X014848Y005200D02*
X014849Y005200D01*
M02*
