G75*
G70*
%OFA0B0*%
%FSLAX24Y24*%
%IPPOS*%
%LPD*%
%AMOC8*
5,1,8,0,0,1.08239X$1,22.5*
%
%ADD10C,0.0090*%
%ADD11C,0.0060*%
%ADD12R,0.0010X0.2190*%
%ADD13R,0.0010X0.2210*%
%ADD14R,0.0010X0.2200*%
%ADD15R,0.0010X0.2170*%
%ADD16R,0.0010X0.0090*%
%ADD17R,0.0010X0.0100*%
%ADD18R,0.0010X0.0010*%
%ADD19R,0.0010X0.0020*%
%ADD20R,0.0010X0.0030*%
%ADD21R,0.0010X0.0040*%
%ADD22R,0.0010X0.0050*%
%ADD23R,0.0010X0.0060*%
%ADD24R,0.0010X0.0070*%
%ADD25R,0.0010X0.0110*%
%ADD26R,0.0010X0.0130*%
%ADD27R,0.0010X0.0140*%
%ADD28R,0.0010X0.0160*%
%ADD29R,0.0010X0.0170*%
%ADD30R,0.0010X0.0180*%
%ADD31R,0.0010X0.0200*%
%ADD32R,0.0010X0.0210*%
%ADD33R,0.0010X0.0220*%
%ADD34R,0.0010X0.0240*%
%ADD35R,0.0010X0.0080*%
%ADD36R,0.0010X0.0120*%
%ADD37R,0.0010X0.0150*%
%ADD38R,0.0010X0.0230*%
%ADD39R,0.0010X0.0310*%
%ADD40R,0.0010X0.0300*%
%ADD41R,0.0010X0.0290*%
%ADD42R,0.0010X0.0270*%
%ADD43R,0.0010X0.0260*%
%ADD44R,0.0010X0.0250*%
%ADD45R,0.0010X0.0190*%
%ADD46R,0.0005X0.0110*%
%ADD47R,0.0005X0.0210*%
%ADD48R,0.0005X0.0280*%
%ADD49R,0.0005X0.0325*%
%ADD50R,0.0005X0.0365*%
%ADD51R,0.0005X0.0410*%
%ADD52R,0.0005X0.0440*%
%ADD53R,0.0005X0.0470*%
%ADD54R,0.0005X0.0505*%
%ADD55R,0.0005X0.0530*%
%ADD56R,0.0005X0.0555*%
%ADD57R,0.0005X0.0580*%
%ADD58R,0.0005X0.0600*%
%ADD59R,0.0005X0.0625*%
%ADD60R,0.0005X0.0645*%
%ADD61R,0.0005X0.0665*%
%ADD62R,0.0005X0.0685*%
%ADD63R,0.0005X0.0705*%
%ADD64R,0.0005X0.0715*%
%ADD65R,0.0005X0.0735*%
%ADD66R,0.0005X0.0755*%
%ADD67R,0.0005X0.0090*%
%ADD68R,0.0005X0.0770*%
%ADD69R,0.0005X0.0190*%
%ADD70R,0.0005X0.0355*%
%ADD71R,0.0005X0.0360*%
%ADD72R,0.0005X0.0260*%
%ADD73R,0.0005X0.0315*%
%ADD74R,0.0005X0.0320*%
%ADD75R,0.0005X0.0295*%
%ADD76R,0.0005X0.0275*%
%ADD77R,0.0005X0.0400*%
%ADD78R,0.0005X0.0265*%
%ADD79R,0.0005X0.0435*%
%ADD80R,0.0005X0.0255*%
%ADD81R,0.0005X0.0465*%
%ADD82R,0.0005X0.0245*%
%ADD83R,0.0005X0.0495*%
%ADD84R,0.0005X0.0235*%
%ADD85R,0.0005X0.0525*%
%ADD86R,0.0005X0.0230*%
%ADD87R,0.0005X0.0240*%
%ADD88R,0.0005X0.0545*%
%ADD89R,0.0005X0.0820*%
%ADD90R,0.0005X0.0220*%
%ADD91R,0.0005X0.0025*%
%ADD92R,0.0005X0.0795*%
%ADD93R,0.0005X0.0215*%
%ADD94R,0.0005X0.0035*%
%ADD95R,0.0005X0.0040*%
%ADD96R,0.0005X0.0800*%
%ADD97R,0.0005X0.0205*%
%ADD98R,0.0005X0.0050*%
%ADD99R,0.0005X0.0805*%
%ADD100R,0.0005X0.0165*%
%ADD101R,0.0005X0.0055*%
%ADD102R,0.0005X0.0200*%
%ADD103R,0.0005X0.0060*%
%ADD104R,0.0005X0.0300*%
%ADD105R,0.0005X0.0195*%
%ADD106R,0.0005X0.0065*%
%ADD107R,0.0005X0.0345*%
%ADD108R,0.0005X0.0070*%
%ADD109R,0.0005X0.0385*%
%ADD110R,0.0005X0.0080*%
%ADD111R,0.0005X0.0425*%
%ADD112R,0.0005X0.0185*%
%ADD113R,0.0005X0.0085*%
%ADD114R,0.0005X0.0635*%
%ADD115R,0.0005X0.0810*%
%ADD116R,0.0005X0.0095*%
%ADD117R,0.0005X0.0335*%
%ADD118R,0.0005X0.0655*%
%ADD119R,0.0005X0.0105*%
%ADD120R,0.0005X0.0290*%
%ADD121R,0.0005X0.0660*%
%ADD122R,0.0005X0.0115*%
%ADD123R,0.0005X0.0285*%
%ADD124R,0.0005X0.0120*%
%ADD125R,0.0005X0.0270*%
%ADD126R,0.0005X0.0675*%
%ADD127R,0.0005X0.0130*%
%ADD128R,0.0005X0.0680*%
%ADD129R,0.0005X0.0135*%
%ADD130R,0.0005X0.0250*%
%ADD131R,0.0005X0.0140*%
%ADD132R,0.0005X0.0180*%
%ADD133R,0.0005X0.0695*%
%ADD134R,0.0005X0.0150*%
%ADD135R,0.0005X0.0160*%
%ADD136R,0.0005X0.0155*%
%ADD137R,0.0005X0.0145*%
%ADD138R,0.0005X0.0700*%
%ADD139R,0.0005X0.0225*%
%ADD140R,0.0005X0.0170*%
%ADD141R,0.0005X0.0100*%
%ADD142R,0.0005X0.0075*%
%ADD143R,0.0005X0.0720*%
%ADD144R,0.0005X0.0725*%
%ADD145R,0.0005X0.0340*%
%ADD146R,0.0005X0.0305*%
%ADD147R,0.0005X0.0175*%
%ADD148R,0.0005X0.0005*%
%ADD149R,0.0005X0.0010*%
%ADD150R,0.0005X0.0015*%
%ADD151R,0.0005X0.0020*%
%ADD152R,0.0005X0.0030*%
%ADD153R,0.0005X0.0125*%
%ADD154R,0.0005X0.0045*%
%ADD155R,0.0005X0.0370*%
%ADD156R,0.0005X0.0375*%
%ADD157R,0.0005X0.0350*%
%ADD158R,0.0005X0.0330*%
%ADD159R,0.0005X0.0485*%
%ADD160R,0.0005X0.0480*%
%ADD161R,0.0005X0.0460*%
%ADD162R,0.0005X0.0445*%
%ADD163R,0.0005X0.0310*%
%ADD164R,0.0005X0.0380*%
%ADD165R,0.0005X0.0415*%
%ADD166R,0.0005X0.0450*%
%ADD167R,0.0005X0.0490*%
%ADD168R,0.0005X0.0965*%
%ADD169R,0.0005X0.0975*%
%ADD170R,0.0005X0.0980*%
%ADD171R,0.0005X0.0990*%
%ADD172R,0.0005X0.1005*%
%ADD173R,0.0005X0.0615*%
%ADD174R,0.0005X0.0640*%
%ADD175R,0.0005X0.0605*%
%ADD176R,0.0005X0.0620*%
%ADD177R,0.0005X0.0590*%
%ADD178R,0.0005X0.0570*%
%ADD179R,0.0005X0.0540*%
%ADD180R,0.0005X0.0515*%
%ADD181R,0.0005X0.0565*%
%ADD182R,0.0005X0.0535*%
%ADD183R,0.0005X0.0395*%
%ADD184R,0.0005X0.0520*%
%ADD185R,0.0005X0.0500*%
%ADD186R,0.0005X0.0430*%
%ADD187C,0.0000*%
%ADD188C,0.0059*%
D10*
X006494Y007162D02*
X006494Y007502D01*
X006579Y007714D02*
X006494Y007799D01*
X006494Y007969D01*
X006579Y008054D01*
X006920Y008054D01*
X007005Y007969D01*
X007005Y007799D01*
X006920Y007714D01*
X006579Y007714D01*
X006494Y008266D02*
X006835Y008266D01*
X007005Y008437D01*
X006835Y008607D01*
X006494Y008607D01*
X006494Y008819D02*
X006494Y009074D01*
X006579Y009159D01*
X006920Y009159D01*
X007005Y009074D01*
X007005Y008819D01*
X006494Y008819D01*
X006749Y008607D02*
X006749Y008266D01*
X007005Y007162D02*
X006494Y007162D01*
X006494Y009924D02*
X006835Y009924D01*
X007005Y010094D01*
X006835Y010264D01*
X006494Y010264D01*
X006749Y010264D02*
X006749Y009924D01*
X006494Y016217D02*
X006494Y016557D01*
X006579Y016769D02*
X006494Y016854D01*
X006494Y017024D01*
X006579Y017109D01*
X006920Y017109D01*
X007005Y017024D01*
X007005Y016854D01*
X006920Y016769D01*
X006579Y016769D01*
X006494Y016217D02*
X007005Y016217D01*
X006835Y017322D02*
X006494Y017322D01*
X006749Y017322D02*
X006749Y017662D01*
X006835Y017662D02*
X006494Y017662D01*
X006494Y017874D02*
X006494Y018129D01*
X006579Y018214D01*
X006920Y018214D01*
X007005Y018129D01*
X007005Y017874D01*
X006494Y017874D01*
X006835Y017662D02*
X007005Y017492D01*
X006835Y017322D01*
X006749Y018979D02*
X006749Y019234D01*
X006664Y019319D01*
X006579Y019319D01*
X006494Y019234D01*
X006494Y018979D01*
X007005Y018979D01*
X007005Y019234D01*
X006920Y019319D01*
X006835Y019319D01*
X006749Y019234D01*
X014513Y016462D02*
X014513Y016292D01*
X014598Y016207D01*
X014938Y016547D01*
X014598Y016547D01*
X014513Y016462D01*
X014598Y016207D02*
X014938Y016207D01*
X015024Y016292D01*
X015024Y016462D01*
X014938Y016547D01*
X014598Y016015D02*
X014513Y016015D01*
X014513Y015930D01*
X014598Y015930D01*
X014598Y016015D01*
X014598Y015718D02*
X014513Y015633D01*
X014513Y015463D01*
X014598Y015378D01*
X014768Y015548D02*
X014768Y015633D01*
X014683Y015718D01*
X014598Y015718D01*
X014768Y015633D02*
X014853Y015718D01*
X014938Y015718D01*
X015024Y015633D01*
X015024Y015463D01*
X014938Y015378D01*
X014853Y014613D02*
X014513Y014613D01*
X014768Y014613D02*
X014768Y014273D01*
X014853Y014273D02*
X015024Y014443D01*
X014853Y014613D01*
X014853Y014273D02*
X014513Y014273D01*
X014598Y014061D02*
X014513Y013976D01*
X014513Y013806D01*
X014598Y013720D01*
X014768Y013806D02*
X014768Y013976D01*
X014683Y014061D01*
X014598Y014061D01*
X014768Y013806D02*
X014853Y013720D01*
X014938Y013720D01*
X015024Y013806D01*
X015024Y013976D01*
X014938Y014061D01*
X014768Y013508D02*
X014768Y013168D01*
X014938Y012956D02*
X015024Y012956D01*
X014938Y012956D02*
X014768Y012786D01*
X014513Y012786D01*
X014768Y012786D02*
X014938Y012615D01*
X015024Y012615D01*
X014938Y012403D02*
X014853Y012403D01*
X014768Y012318D01*
X014768Y012063D01*
X014513Y012063D02*
X014513Y012318D01*
X014598Y012403D01*
X014683Y012403D01*
X014768Y012318D01*
X014938Y012403D02*
X015024Y012318D01*
X015024Y012063D01*
X014513Y012063D01*
X014598Y011298D02*
X014513Y011213D01*
X014513Y011043D01*
X014598Y010958D01*
X014938Y010958D01*
X015024Y011043D01*
X015024Y011213D01*
X014938Y011298D01*
X014938Y010746D02*
X015024Y010661D01*
X015024Y010491D01*
X014938Y010406D01*
X014598Y010406D01*
X014513Y010491D01*
X014513Y010661D01*
X014598Y010746D01*
X021806Y008674D02*
X021806Y008334D01*
X022146Y008674D01*
X022231Y008674D01*
X022316Y008589D01*
X022316Y008419D01*
X022231Y008334D01*
X022231Y008122D02*
X021891Y008122D01*
X021806Y008037D01*
X021806Y007866D01*
X021891Y007781D01*
X022231Y008122D01*
X022316Y008037D01*
X022316Y007866D01*
X022231Y007781D01*
X021891Y007781D01*
X021891Y007569D02*
X021806Y007484D01*
X021806Y007229D01*
X022316Y007229D01*
X022316Y007484D01*
X022231Y007569D01*
X022146Y007569D01*
X022061Y007484D01*
X022061Y007229D01*
X022061Y007017D02*
X021976Y006932D01*
X021976Y006676D01*
X021806Y006676D02*
X022316Y006676D01*
X022316Y006932D01*
X022231Y007017D01*
X022061Y007017D01*
X021976Y006847D02*
X021806Y007017D01*
X022061Y007484D02*
X021976Y007569D01*
X021891Y007569D01*
X022706Y007569D02*
X022961Y007569D01*
X023046Y007484D01*
X022961Y007399D01*
X022706Y007399D01*
X022706Y007229D02*
X023046Y007229D01*
X023046Y007314D01*
X022961Y007399D01*
X022876Y007017D02*
X022791Y007017D01*
X022706Y006932D01*
X022706Y006761D01*
X022791Y006676D01*
X022961Y006761D02*
X022961Y006932D01*
X022876Y007017D01*
X023131Y007017D02*
X023216Y006932D01*
X023216Y006761D01*
X023131Y006676D01*
X023046Y006676D01*
X022961Y006761D01*
X023606Y006676D02*
X024116Y006676D01*
X023946Y006847D01*
X024116Y007017D01*
X023606Y007017D01*
X023691Y007229D02*
X023776Y007314D01*
X023776Y007569D01*
X023861Y007569D02*
X023606Y007569D01*
X023606Y007314D01*
X023691Y007229D01*
X023946Y007314D02*
X023946Y007484D01*
X023861Y007569D01*
X023861Y007781D02*
X023691Y007781D01*
X023606Y007866D01*
X023606Y008122D01*
X023521Y008122D02*
X023946Y008122D01*
X023946Y007866D01*
X023861Y007781D01*
X023436Y007951D02*
X023436Y008037D01*
X023521Y008122D01*
X023606Y008334D02*
X023606Y008504D01*
X023606Y008419D02*
X023946Y008419D01*
X023946Y008334D01*
X024116Y008419D02*
X024202Y008419D01*
X023861Y008702D02*
X023691Y008702D01*
X023606Y008787D01*
X023606Y009042D01*
X023946Y009042D02*
X023946Y008787D01*
X023861Y008702D01*
X023216Y008334D02*
X022706Y008334D01*
X022876Y008334D02*
X022706Y008589D01*
X022791Y008794D02*
X022961Y008794D01*
X023046Y008879D01*
X023046Y009049D01*
X022961Y009134D01*
X022876Y009134D01*
X022876Y008794D01*
X022791Y008794D02*
X022706Y008879D01*
X022706Y009049D01*
X023046Y008589D02*
X022876Y008334D01*
X022791Y008122D02*
X022961Y008122D01*
X023046Y008037D01*
X023046Y007866D01*
X022961Y007781D01*
X022791Y007781D01*
X022706Y007866D01*
X022706Y008037D01*
X022791Y008122D01*
D11*
X021464Y009808D02*
X021237Y009808D01*
X021180Y009865D01*
X021180Y009978D01*
X021237Y010035D01*
X021350Y010035D01*
X021350Y009922D01*
X021464Y010035D02*
X021520Y009978D01*
X021520Y009865D01*
X021464Y009808D01*
X021520Y010177D02*
X021180Y010177D01*
X021180Y010403D02*
X021520Y010403D01*
X021520Y010545D02*
X021180Y010545D01*
X021180Y010715D01*
X021237Y010772D01*
X021464Y010772D01*
X021520Y010715D01*
X021520Y010545D01*
X021520Y010177D02*
X021180Y010403D01*
X021237Y011742D02*
X021180Y011799D01*
X021180Y011912D01*
X021237Y011969D01*
X021464Y011969D02*
X021520Y011912D01*
X021520Y011799D01*
X021464Y011742D01*
X021237Y011742D01*
X021520Y012110D02*
X021520Y012337D01*
X021520Y012224D02*
X021180Y012224D01*
X021180Y012479D02*
X021180Y012706D01*
X021180Y012847D02*
X021407Y012847D01*
X021520Y012960D01*
X021407Y013074D01*
X021180Y013074D01*
X021350Y013074D02*
X021350Y012847D01*
X021520Y012479D02*
X021180Y012479D01*
X021237Y013711D02*
X021180Y013767D01*
X021180Y013881D01*
X021237Y013937D01*
X021237Y013711D02*
X021464Y013711D01*
X021520Y013767D01*
X021520Y013881D01*
X021464Y013937D01*
X021520Y014079D02*
X021520Y014306D01*
X021520Y014192D02*
X021180Y014192D01*
X021180Y014447D02*
X021180Y014674D01*
X021180Y014816D02*
X021180Y014986D01*
X021237Y015042D01*
X021293Y015042D01*
X021350Y014986D01*
X021350Y014816D01*
X021350Y014986D02*
X021407Y015042D01*
X021464Y015042D01*
X021520Y014986D01*
X021520Y014816D01*
X021180Y014816D01*
X021180Y014447D02*
X021520Y014447D01*
X021532Y015757D02*
X021305Y015757D01*
X021192Y015870D01*
X021305Y015984D01*
X021532Y015984D01*
X021475Y016125D02*
X021249Y016125D01*
X021192Y016182D01*
X021192Y016295D01*
X021249Y016352D01*
X021249Y016494D02*
X021192Y016550D01*
X021192Y016664D01*
X021249Y016721D01*
X021475Y016721D02*
X021532Y016664D01*
X021532Y016550D01*
X021475Y016494D01*
X021249Y016494D01*
X021475Y016352D02*
X021532Y016295D01*
X021532Y016182D01*
X021475Y016125D01*
X021590Y004280D02*
X021297Y004280D01*
X021370Y004133D02*
X021297Y004060D01*
X021297Y003913D01*
X021370Y003839D01*
X021517Y003839D01*
X021590Y003913D01*
X021590Y004060D02*
X021443Y004133D01*
X021370Y004133D01*
X021590Y004060D02*
X021590Y004280D01*
X021757Y004206D02*
X021757Y004060D01*
X021830Y003986D01*
X022051Y003986D01*
X022051Y003839D02*
X022051Y004280D01*
X021830Y004280D01*
X021757Y004206D01*
X022217Y004206D02*
X022217Y003913D01*
X022291Y003839D01*
X022511Y003839D01*
X022511Y004280D01*
X022291Y004280D01*
X022217Y004206D01*
X021130Y004206D02*
X021130Y003913D01*
X020836Y004206D01*
X020836Y003913D01*
X020910Y003839D01*
X021056Y003839D01*
X021130Y003913D01*
X021130Y004206D02*
X021056Y004280D01*
X020910Y004280D01*
X020836Y004206D01*
X020669Y004280D02*
X020669Y004060D01*
X020523Y004133D01*
X020449Y004133D01*
X020376Y004060D01*
X020376Y003913D01*
X020449Y003839D01*
X020596Y003839D01*
X020669Y003913D01*
X020669Y004280D02*
X020376Y004280D01*
X020209Y004206D02*
X020136Y004280D01*
X019989Y004280D01*
X019915Y004206D01*
X020209Y003913D01*
X020136Y003839D01*
X019989Y003839D01*
X019915Y003913D01*
X019915Y004206D01*
X020209Y004206D02*
X020209Y003913D01*
X019749Y003766D02*
X019455Y003766D01*
X019288Y003986D02*
X019141Y003839D01*
X018995Y003986D01*
X018995Y004280D01*
X018828Y004133D02*
X018681Y004280D01*
X018681Y003839D01*
X018828Y003839D02*
X018534Y003839D01*
X019288Y003986D02*
X019288Y004280D01*
X008138Y011971D02*
X007798Y012197D01*
X008138Y012197D01*
X007968Y012339D02*
X007855Y012339D01*
X007798Y012396D01*
X007798Y012509D01*
X007855Y012566D01*
X007968Y012566D01*
X008025Y012509D01*
X008025Y012396D01*
X007968Y012339D01*
X007912Y012707D02*
X008025Y012821D01*
X008025Y012877D01*
X008025Y013014D02*
X008025Y013071D01*
X007968Y013128D01*
X008025Y013184D01*
X007968Y013241D01*
X007798Y013241D01*
X007798Y013128D02*
X007968Y013128D01*
X008025Y013014D02*
X007798Y013014D01*
X007798Y012707D02*
X008025Y012707D01*
X007557Y012660D02*
X007557Y012547D01*
X007501Y012490D01*
X007274Y012490D01*
X007217Y012547D01*
X007217Y012660D01*
X007274Y012717D01*
X007501Y012717D01*
X007557Y012660D01*
X007444Y012858D02*
X007104Y012858D01*
X007217Y012858D02*
X007217Y013029D01*
X007274Y013085D01*
X007387Y013085D01*
X007444Y013029D01*
X007444Y012858D01*
X007387Y013227D02*
X007274Y013227D01*
X007217Y013283D01*
X007217Y013397D01*
X007330Y013454D02*
X007330Y013227D01*
X007387Y013227D02*
X007444Y013283D01*
X007444Y013397D01*
X007387Y013454D01*
X007330Y013454D01*
X007217Y013595D02*
X007444Y013595D01*
X007444Y013765D01*
X007387Y013822D01*
X007217Y013822D01*
X007798Y013807D02*
X008138Y013807D01*
X008138Y013751D01*
X007968Y013609D02*
X007798Y013609D01*
X007798Y013439D01*
X007855Y013382D01*
X007912Y013439D01*
X007912Y013609D01*
X007968Y013609D02*
X008025Y013553D01*
X008025Y013439D01*
X007798Y013751D02*
X007798Y013864D01*
X007798Y013996D02*
X007798Y014110D01*
X007798Y014053D02*
X008138Y014053D01*
X008138Y013996D01*
X008025Y014242D02*
X007855Y014242D01*
X007798Y014299D01*
X007798Y014469D01*
X007741Y014469D02*
X007685Y014412D01*
X007685Y014355D01*
X007741Y014469D02*
X008025Y014469D01*
X008138Y011971D02*
X007798Y011971D01*
D12*
X012323Y008436D03*
X012373Y008436D03*
X012373Y018081D03*
X012323Y018081D03*
D13*
X012333Y018081D03*
X012343Y018081D03*
X012353Y018081D03*
X012353Y008436D03*
X012343Y008436D03*
X012333Y008436D03*
D14*
X012363Y008441D03*
X012363Y018086D03*
D15*
X012383Y018081D03*
X012383Y008436D03*
D16*
X012563Y008466D03*
X012773Y008426D03*
X012783Y008426D03*
X012793Y008426D03*
X012983Y008696D03*
X013103Y008656D03*
X013113Y008656D03*
X013283Y008966D03*
X013293Y008966D03*
X013303Y008956D03*
X013313Y008956D03*
X013323Y008946D03*
X013343Y008936D03*
X013363Y008926D03*
X013373Y008916D03*
X013383Y008916D03*
X013393Y008906D03*
X013413Y008896D03*
X013433Y008886D03*
X013443Y008876D03*
X013463Y008866D03*
X013483Y008856D03*
X013503Y008846D03*
X013513Y008836D03*
X013523Y008836D03*
X013533Y008826D03*
X013553Y008816D03*
X013573Y008806D03*
X013593Y008796D03*
X013603Y008786D03*
X013623Y008776D03*
X013643Y008766D03*
X013663Y008756D03*
X013673Y008746D03*
X013693Y008736D03*
X013713Y008726D03*
X013733Y008716D03*
X013743Y008706D03*
X013753Y008706D03*
X013763Y008696D03*
X013783Y008686D03*
X013803Y008676D03*
X013823Y008666D03*
X013833Y008656D03*
X013853Y008646D03*
X013873Y008636D03*
X013893Y008626D03*
X013903Y008616D03*
X013923Y008606D03*
X013943Y008596D03*
X013963Y008586D03*
X013993Y008566D03*
X014013Y008556D03*
X014033Y008546D03*
X014043Y008536D03*
X014063Y008526D03*
X014083Y008516D03*
X014103Y008506D03*
X014113Y008496D03*
X014123Y008496D03*
X014133Y008486D03*
X014153Y008476D03*
X014173Y008466D03*
X014173Y008356D03*
X014153Y008346D03*
X014133Y008336D03*
X014113Y008326D03*
X014103Y008316D03*
X014093Y008316D03*
X014083Y008306D03*
X014063Y008296D03*
X014043Y008286D03*
X014023Y008276D03*
X014003Y008266D03*
X013983Y008256D03*
X013973Y008246D03*
X013963Y008246D03*
X013953Y008236D03*
X013933Y008226D03*
X013913Y008216D03*
X013893Y008206D03*
X013873Y008196D03*
X013863Y008186D03*
X013853Y008186D03*
X013843Y008176D03*
X013833Y008176D03*
X013823Y008166D03*
X013803Y008156D03*
X013783Y008146D03*
X013763Y008136D03*
X013753Y008126D03*
X013743Y008126D03*
X013733Y008116D03*
X013723Y008116D03*
X013713Y008106D03*
X013703Y008106D03*
X013693Y008096D03*
X013683Y008096D03*
X013673Y008086D03*
X013653Y008076D03*
X013633Y008066D03*
X013613Y008056D03*
X013603Y008046D03*
X013593Y008046D03*
X013583Y008036D03*
X013573Y008036D03*
X013563Y008026D03*
X013553Y008026D03*
X013543Y008016D03*
X013523Y008006D03*
X013503Y007996D03*
X013493Y007986D03*
X013483Y007986D03*
X013463Y007976D03*
X013453Y007966D03*
X013443Y007966D03*
X013433Y007956D03*
X013423Y007956D03*
X013413Y007946D03*
X013393Y007936D03*
X013373Y007926D03*
X013353Y007916D03*
X013333Y007906D03*
X013323Y007896D03*
X013313Y007896D03*
X013303Y007886D03*
X013293Y007886D03*
X013283Y007876D03*
X013263Y007866D03*
X013243Y007856D03*
X013223Y007846D03*
X013203Y007836D03*
X013193Y007826D03*
X013183Y007826D03*
X013173Y007816D03*
X013163Y007816D03*
X013153Y007806D03*
X013133Y007796D03*
X013113Y007786D03*
X013103Y007776D03*
X013093Y007776D03*
X013083Y007766D03*
X013073Y007766D03*
X013063Y007756D03*
X013053Y007756D03*
X013043Y007746D03*
X013033Y007746D03*
X013023Y007736D03*
X013003Y007726D03*
X012983Y007716D03*
X012963Y007706D03*
X012943Y007696D03*
X012933Y007686D03*
X012923Y007686D03*
X012913Y007676D03*
X012903Y007676D03*
X012893Y007666D03*
X012873Y007656D03*
X012853Y007646D03*
X012833Y007636D03*
X012823Y007626D03*
X012813Y007626D03*
X012803Y007616D03*
X012793Y007616D03*
X012783Y007606D03*
X012773Y007606D03*
X012763Y007596D03*
X012743Y007586D03*
X012723Y007576D03*
X012703Y007566D03*
X012693Y007556D03*
X012683Y007556D03*
X012673Y007546D03*
X012663Y007546D03*
X012653Y007536D03*
X012643Y007536D03*
X012633Y007526D03*
X012613Y007516D03*
X012593Y007506D03*
X012573Y007496D03*
X012553Y007486D03*
X012543Y007476D03*
X012533Y007476D03*
X012523Y007466D03*
X012513Y007466D03*
X012503Y007456D03*
X012483Y007446D03*
X012463Y007436D03*
X012443Y007426D03*
X012423Y007416D03*
X012413Y007406D03*
X012403Y007406D03*
X012393Y007396D03*
X013253Y008986D03*
X013233Y008996D03*
X013223Y009006D03*
X013213Y009006D03*
X013203Y009016D03*
X013183Y009026D03*
X013163Y009036D03*
X013153Y009046D03*
X013143Y009046D03*
X013133Y009056D03*
X013113Y009066D03*
X013093Y009076D03*
X013073Y009086D03*
X013063Y009096D03*
X013053Y009096D03*
X013043Y009106D03*
X013023Y009116D03*
X013003Y009126D03*
X012993Y009136D03*
X012983Y009136D03*
X012973Y009146D03*
X012953Y009156D03*
X012933Y009166D03*
X012923Y009176D03*
X012913Y009176D03*
X012903Y009186D03*
X012883Y009196D03*
X012863Y009206D03*
X012853Y009216D03*
X012843Y009216D03*
X012833Y009226D03*
X012813Y009236D03*
X012793Y009246D03*
X012783Y009256D03*
X012773Y009256D03*
X012743Y009276D03*
X012723Y009286D03*
X012703Y009296D03*
X012683Y009306D03*
X012673Y009316D03*
X012653Y009326D03*
X012633Y009336D03*
X012623Y009346D03*
X012613Y009346D03*
X012603Y009356D03*
X012583Y009366D03*
X012563Y009376D03*
X012543Y009386D03*
X012533Y009396D03*
X012513Y009406D03*
X012493Y009416D03*
X012473Y009426D03*
X012463Y009436D03*
X012453Y009436D03*
X012443Y009446D03*
X012423Y009456D03*
X012403Y009466D03*
X012393Y009476D03*
X013273Y008976D03*
X014273Y008406D03*
X012393Y017041D03*
X012403Y017051D03*
X012413Y017051D03*
X012423Y017061D03*
X012443Y017071D03*
X012463Y017081D03*
X012483Y017091D03*
X012503Y017101D03*
X012513Y017111D03*
X012523Y017111D03*
X012533Y017121D03*
X012543Y017121D03*
X012553Y017131D03*
X012573Y017141D03*
X012593Y017151D03*
X012613Y017161D03*
X012633Y017171D03*
X012643Y017181D03*
X012653Y017181D03*
X012663Y017191D03*
X012673Y017191D03*
X012683Y017201D03*
X012693Y017201D03*
X012703Y017211D03*
X012723Y017221D03*
X012743Y017231D03*
X012763Y017241D03*
X012773Y017251D03*
X012783Y017251D03*
X012793Y017261D03*
X012803Y017261D03*
X012813Y017271D03*
X012823Y017271D03*
X012833Y017281D03*
X012853Y017291D03*
X012873Y017301D03*
X012893Y017311D03*
X012903Y017321D03*
X012913Y017321D03*
X012923Y017331D03*
X012933Y017331D03*
X012943Y017341D03*
X012963Y017351D03*
X012983Y017361D03*
X013003Y017371D03*
X013023Y017381D03*
X013033Y017391D03*
X013043Y017391D03*
X013053Y017401D03*
X013063Y017401D03*
X013073Y017411D03*
X013083Y017411D03*
X013093Y017421D03*
X013103Y017421D03*
X013113Y017431D03*
X013133Y017441D03*
X013153Y017451D03*
X013163Y017461D03*
X013173Y017461D03*
X013183Y017471D03*
X013193Y017471D03*
X013203Y017481D03*
X013223Y017491D03*
X013243Y017501D03*
X013263Y017511D03*
X013283Y017521D03*
X013293Y017531D03*
X013303Y017531D03*
X013313Y017541D03*
X013323Y017541D03*
X013333Y017551D03*
X013353Y017561D03*
X013373Y017571D03*
X013393Y017581D03*
X013413Y017591D03*
X013423Y017601D03*
X013433Y017601D03*
X013443Y017611D03*
X013453Y017611D03*
X013463Y017621D03*
X013483Y017631D03*
X013493Y017631D03*
X013503Y017641D03*
X013523Y017651D03*
X013543Y017661D03*
X013553Y017671D03*
X013563Y017671D03*
X013573Y017681D03*
X013583Y017681D03*
X013593Y017691D03*
X013603Y017691D03*
X013613Y017701D03*
X013633Y017711D03*
X013653Y017721D03*
X013673Y017731D03*
X013683Y017741D03*
X013693Y017741D03*
X013703Y017751D03*
X013713Y017751D03*
X013723Y017761D03*
X013733Y017761D03*
X013743Y017771D03*
X013753Y017771D03*
X013763Y017781D03*
X013783Y017791D03*
X013803Y017801D03*
X013823Y017811D03*
X013833Y017821D03*
X013843Y017821D03*
X013853Y017831D03*
X013863Y017831D03*
X013873Y017841D03*
X013893Y017851D03*
X013913Y017861D03*
X013933Y017871D03*
X013953Y017881D03*
X013963Y017891D03*
X013973Y017891D03*
X013983Y017901D03*
X014003Y017911D03*
X014023Y017921D03*
X014043Y017931D03*
X014063Y017941D03*
X014083Y017951D03*
X014093Y017961D03*
X014103Y017961D03*
X014113Y017971D03*
X014133Y017981D03*
X014153Y017991D03*
X014173Y018001D03*
X014173Y018111D03*
X014153Y018121D03*
X014133Y018131D03*
X014123Y018141D03*
X014113Y018141D03*
X014103Y018151D03*
X014083Y018161D03*
X014063Y018171D03*
X014043Y018181D03*
X014033Y018191D03*
X014013Y018201D03*
X013993Y018211D03*
X013963Y018231D03*
X013943Y018241D03*
X013923Y018251D03*
X013903Y018261D03*
X013893Y018271D03*
X013873Y018281D03*
X013853Y018291D03*
X013833Y018301D03*
X013823Y018311D03*
X013803Y018321D03*
X013783Y018331D03*
X013763Y018341D03*
X013753Y018351D03*
X013743Y018351D03*
X013733Y018361D03*
X013713Y018371D03*
X013693Y018381D03*
X013673Y018391D03*
X013663Y018401D03*
X013643Y018411D03*
X013623Y018421D03*
X013603Y018431D03*
X013593Y018441D03*
X013573Y018451D03*
X013553Y018461D03*
X013533Y018471D03*
X013523Y018481D03*
X013513Y018481D03*
X013503Y018491D03*
X013483Y018501D03*
X013463Y018511D03*
X013443Y018521D03*
X013433Y018531D03*
X013413Y018541D03*
X013393Y018551D03*
X013383Y018561D03*
X013373Y018561D03*
X013363Y018571D03*
X013343Y018581D03*
X013323Y018591D03*
X013313Y018601D03*
X013303Y018601D03*
X013293Y018611D03*
X013283Y018611D03*
X013273Y018621D03*
X013253Y018631D03*
X013233Y018641D03*
X013223Y018651D03*
X013213Y018651D03*
X013203Y018661D03*
X013183Y018671D03*
X013163Y018681D03*
X013153Y018691D03*
X013143Y018691D03*
X013133Y018701D03*
X013113Y018711D03*
X013093Y018721D03*
X013073Y018731D03*
X013063Y018741D03*
X013053Y018741D03*
X013043Y018751D03*
X013023Y018761D03*
X013003Y018771D03*
X012993Y018781D03*
X012983Y018781D03*
X012973Y018791D03*
X012953Y018801D03*
X012933Y018811D03*
X012923Y018821D03*
X012913Y018821D03*
X012903Y018831D03*
X012883Y018841D03*
X012863Y018851D03*
X012853Y018861D03*
X012843Y018861D03*
X012833Y018871D03*
X012813Y018881D03*
X012793Y018891D03*
X012783Y018901D03*
X012773Y018901D03*
X012743Y018921D03*
X012723Y018931D03*
X012703Y018941D03*
X012683Y018951D03*
X012673Y018961D03*
X012653Y018971D03*
X012633Y018981D03*
X012623Y018991D03*
X012613Y018991D03*
X012603Y019001D03*
X012583Y019011D03*
X012563Y019021D03*
X012543Y019031D03*
X012533Y019041D03*
X012513Y019051D03*
X012493Y019061D03*
X012473Y019071D03*
X012463Y019081D03*
X012453Y019081D03*
X012443Y019091D03*
X012423Y019101D03*
X012403Y019111D03*
X012393Y019121D03*
X012983Y018341D03*
X013103Y018301D03*
X013113Y018301D03*
X012793Y018071D03*
X012783Y018071D03*
X012773Y018071D03*
X012563Y018111D03*
X014273Y018051D03*
D17*
X014263Y018056D03*
X014163Y017996D03*
X014143Y017986D03*
X014123Y017976D03*
X014073Y017946D03*
X014053Y017936D03*
X014033Y017926D03*
X014013Y017916D03*
X013993Y017906D03*
X013943Y017876D03*
X013923Y017866D03*
X013903Y017856D03*
X013883Y017846D03*
X013813Y017806D03*
X013793Y017796D03*
X013773Y017786D03*
X013663Y017726D03*
X013643Y017716D03*
X013623Y017706D03*
X013533Y017656D03*
X013513Y017646D03*
X013473Y017626D03*
X013403Y017586D03*
X013383Y017576D03*
X013363Y017566D03*
X013343Y017556D03*
X013273Y017516D03*
X013253Y017506D03*
X013233Y017496D03*
X013213Y017486D03*
X013143Y017446D03*
X013123Y017436D03*
X013013Y017376D03*
X012993Y017366D03*
X012973Y017356D03*
X012953Y017346D03*
X012883Y017306D03*
X012863Y017296D03*
X012843Y017286D03*
X012753Y017236D03*
X012733Y017226D03*
X012713Y017216D03*
X012623Y017166D03*
X012603Y017156D03*
X012583Y017146D03*
X012563Y017136D03*
X012493Y017096D03*
X012473Y017086D03*
X012453Y017076D03*
X012433Y017066D03*
X013263Y017936D03*
X013203Y018266D03*
X013163Y018286D03*
X013153Y018286D03*
X013143Y018286D03*
X013133Y018296D03*
X013123Y018296D03*
X012993Y018336D03*
X012863Y018056D03*
X012833Y018066D03*
X012823Y018066D03*
X012813Y018066D03*
X012803Y018066D03*
X012583Y018106D03*
X012573Y018106D03*
X013083Y018726D03*
X013103Y018716D03*
X013123Y018706D03*
X013173Y018676D03*
X013193Y018666D03*
X013243Y018636D03*
X013263Y018626D03*
X013333Y018586D03*
X013353Y018576D03*
X013403Y018546D03*
X013423Y018536D03*
X013453Y018516D03*
X013473Y018506D03*
X013493Y018496D03*
X013543Y018466D03*
X013563Y018456D03*
X013583Y018446D03*
X013613Y018426D03*
X013633Y018416D03*
X013653Y018406D03*
X013683Y018386D03*
X013703Y018376D03*
X013723Y018366D03*
X013773Y018336D03*
X013793Y018326D03*
X013813Y018316D03*
X013843Y018296D03*
X013863Y018286D03*
X013883Y018276D03*
X013913Y018256D03*
X013933Y018246D03*
X013953Y018236D03*
X013973Y018226D03*
X013983Y018216D03*
X014003Y018206D03*
X014023Y018196D03*
X014053Y018176D03*
X014073Y018166D03*
X014093Y018156D03*
X014143Y018126D03*
X014163Y018116D03*
X013033Y018756D03*
X013013Y018766D03*
X012963Y018796D03*
X012943Y018806D03*
X012893Y018836D03*
X012873Y018846D03*
X012823Y018876D03*
X012803Y018886D03*
X012763Y018906D03*
X012753Y018916D03*
X012733Y018926D03*
X012713Y018936D03*
X012693Y018946D03*
X012663Y018966D03*
X012643Y018976D03*
X012593Y019006D03*
X012573Y019016D03*
X012553Y019026D03*
X012523Y019046D03*
X012503Y019056D03*
X012483Y019066D03*
X012433Y019096D03*
X012413Y019106D03*
X012413Y009461D03*
X012433Y009451D03*
X012483Y009421D03*
X012503Y009411D03*
X012523Y009401D03*
X012553Y009381D03*
X012573Y009371D03*
X012593Y009361D03*
X012643Y009331D03*
X012663Y009321D03*
X012693Y009301D03*
X012713Y009291D03*
X012733Y009281D03*
X012753Y009271D03*
X012763Y009261D03*
X012803Y009241D03*
X012823Y009231D03*
X012873Y009201D03*
X012893Y009191D03*
X012943Y009161D03*
X012963Y009151D03*
X013013Y009121D03*
X013033Y009111D03*
X013083Y009081D03*
X013103Y009071D03*
X013123Y009061D03*
X013173Y009031D03*
X013193Y009021D03*
X013243Y008991D03*
X013263Y008981D03*
X013333Y008941D03*
X013353Y008931D03*
X013403Y008901D03*
X013423Y008891D03*
X013453Y008871D03*
X013473Y008861D03*
X013493Y008851D03*
X013543Y008821D03*
X013563Y008811D03*
X013583Y008801D03*
X013613Y008781D03*
X013633Y008771D03*
X013653Y008761D03*
X013683Y008741D03*
X013703Y008731D03*
X013723Y008721D03*
X013773Y008691D03*
X013793Y008681D03*
X013813Y008671D03*
X013843Y008651D03*
X013863Y008641D03*
X013883Y008631D03*
X013913Y008611D03*
X013933Y008601D03*
X013953Y008591D03*
X013973Y008581D03*
X013983Y008571D03*
X014003Y008561D03*
X014023Y008551D03*
X014053Y008531D03*
X014073Y008521D03*
X014093Y008511D03*
X014143Y008481D03*
X014163Y008471D03*
X014263Y008411D03*
X014163Y008351D03*
X014143Y008341D03*
X014123Y008331D03*
X014073Y008301D03*
X014053Y008291D03*
X014033Y008281D03*
X014013Y008271D03*
X013993Y008261D03*
X013943Y008231D03*
X013923Y008221D03*
X013903Y008211D03*
X013883Y008201D03*
X013813Y008161D03*
X013793Y008151D03*
X013773Y008141D03*
X013663Y008081D03*
X013643Y008071D03*
X013623Y008061D03*
X013533Y008011D03*
X013513Y008001D03*
X013473Y007981D03*
X013403Y007941D03*
X013383Y007931D03*
X013363Y007921D03*
X013343Y007911D03*
X013273Y007871D03*
X013253Y007861D03*
X013233Y007851D03*
X013213Y007841D03*
X013143Y007801D03*
X013123Y007791D03*
X013013Y007731D03*
X012993Y007721D03*
X012973Y007711D03*
X012953Y007701D03*
X012883Y007661D03*
X012863Y007651D03*
X012843Y007641D03*
X012753Y007591D03*
X012733Y007581D03*
X012713Y007571D03*
X012623Y007521D03*
X012603Y007511D03*
X012583Y007501D03*
X012563Y007491D03*
X012493Y007451D03*
X012473Y007441D03*
X012453Y007431D03*
X012433Y007421D03*
X012573Y008461D03*
X012583Y008461D03*
X012803Y008421D03*
X012813Y008421D03*
X012823Y008421D03*
X012833Y008421D03*
X012863Y008411D03*
X012993Y008691D03*
X013123Y008651D03*
X013133Y008651D03*
X013143Y008641D03*
X013153Y008641D03*
X013163Y008641D03*
X013203Y008621D03*
X013263Y008291D03*
D18*
X012933Y008746D03*
X012483Y008476D03*
X012483Y018121D03*
X012933Y018391D03*
D19*
X012493Y018126D03*
X013323Y017876D03*
X012493Y008481D03*
X013323Y008231D03*
D20*
X013313Y008246D03*
X012943Y008736D03*
X012503Y008476D03*
X013313Y017891D03*
X012943Y018381D03*
X012503Y018121D03*
D21*
X012513Y018116D03*
X013303Y017896D03*
X012513Y008471D03*
X013303Y008251D03*
D22*
X012963Y008716D03*
X012953Y008726D03*
X012523Y008476D03*
X012523Y018121D03*
X012953Y018371D03*
X012963Y018361D03*
D23*
X012533Y018116D03*
X013293Y017906D03*
X014293Y018056D03*
X014293Y008411D03*
X013293Y008261D03*
X012533Y008471D03*
D24*
X012543Y008466D03*
X012553Y008466D03*
X012973Y008706D03*
X013283Y008276D03*
X013283Y017921D03*
X012973Y018351D03*
X012553Y018111D03*
X012543Y018111D03*
D25*
X012593Y018101D03*
X012843Y018061D03*
X012853Y018061D03*
X012873Y018051D03*
X012883Y018051D03*
X012893Y018051D03*
X012903Y018051D03*
X013003Y018321D03*
X013173Y018281D03*
X013183Y018271D03*
X013193Y018271D03*
X013213Y018261D03*
X013223Y018261D03*
X013233Y018261D03*
X013253Y018251D03*
X013003Y008676D03*
X013173Y008636D03*
X013183Y008626D03*
X013193Y008626D03*
X013213Y008616D03*
X013223Y008616D03*
X013233Y008616D03*
X013253Y008606D03*
X012903Y008406D03*
X012893Y008406D03*
X012883Y008406D03*
X012873Y008406D03*
X012853Y008416D03*
X012843Y008416D03*
X012593Y008456D03*
D26*
X012603Y008456D03*
X012943Y008396D03*
X012953Y008396D03*
X012963Y008396D03*
X012973Y008396D03*
X013013Y008666D03*
X013313Y008586D03*
X013333Y008576D03*
X013343Y008576D03*
X013363Y008566D03*
X013373Y008566D03*
X013393Y008556D03*
X013423Y008546D03*
X012973Y018041D03*
X012963Y018041D03*
X012953Y018041D03*
X012943Y018041D03*
X013013Y018311D03*
X013313Y018231D03*
X013333Y018221D03*
X013343Y018221D03*
X013363Y018211D03*
X013373Y018211D03*
X013393Y018201D03*
X013423Y018191D03*
X012603Y018101D03*
D27*
X012613Y018096D03*
X012623Y018096D03*
X012983Y018036D03*
X012993Y018036D03*
X013003Y018036D03*
X013023Y018026D03*
X013033Y018026D03*
X013043Y018026D03*
X013233Y017966D03*
X013383Y018206D03*
X013403Y018196D03*
X013413Y018196D03*
X013433Y018186D03*
X013443Y018186D03*
X013463Y018176D03*
X013493Y018166D03*
X013023Y018306D03*
X014223Y018056D03*
X014233Y018056D03*
X013023Y008661D03*
X013003Y008391D03*
X012993Y008391D03*
X012983Y008391D03*
X013023Y008381D03*
X013033Y008381D03*
X013043Y008381D03*
X013233Y008321D03*
X013383Y008561D03*
X013403Y008551D03*
X013413Y008551D03*
X013433Y008541D03*
X013443Y008541D03*
X013463Y008531D03*
X013493Y008521D03*
X014223Y008411D03*
X014233Y008411D03*
X012623Y008451D03*
X012613Y008451D03*
D28*
X012633Y008451D03*
X012733Y008471D03*
X013084Y008374D03*
X013093Y008371D03*
X013213Y008341D03*
X013223Y008331D03*
X013573Y008491D03*
X013583Y008491D03*
X013603Y008481D03*
X013613Y008481D03*
X013633Y008471D03*
X014203Y008411D03*
X014213Y008411D03*
X013223Y017976D03*
X013213Y017986D03*
X013093Y018016D03*
X013084Y018020D03*
X012733Y018116D03*
X012633Y018096D03*
X013573Y018136D03*
X013583Y018136D03*
X013603Y018126D03*
X013613Y018126D03*
X013633Y018116D03*
X014203Y018056D03*
X014213Y018056D03*
D29*
X013733Y018081D03*
X013703Y018091D03*
X013683Y018101D03*
X013673Y018101D03*
X013653Y018111D03*
X013643Y018111D03*
X013623Y018121D03*
X013043Y018281D03*
X012653Y018091D03*
X012643Y018091D03*
X013043Y008636D03*
X012653Y008446D03*
X012643Y008446D03*
X013623Y008476D03*
X013643Y008466D03*
X013653Y008466D03*
X013673Y008456D03*
X013683Y008456D03*
X013703Y008446D03*
X013733Y008436D03*
D30*
X013723Y008441D03*
X013713Y008441D03*
X013693Y008451D03*
X013663Y008461D03*
X013743Y008431D03*
X013753Y008431D03*
X013773Y008421D03*
X013783Y008421D03*
X014193Y008411D03*
X013203Y008351D03*
X013053Y008631D03*
X012663Y008441D03*
X013203Y017996D03*
X013053Y018276D03*
X012663Y018086D03*
X013663Y018106D03*
X013693Y018096D03*
X013713Y018086D03*
X013723Y018086D03*
X013743Y018076D03*
X013753Y018076D03*
X013773Y018066D03*
X013783Y018066D03*
X014193Y018056D03*
D31*
X014183Y018056D03*
X013193Y018006D03*
X013183Y018016D03*
X013063Y018266D03*
X012673Y018086D03*
X013063Y008621D03*
X013183Y008371D03*
X013193Y008361D03*
X012673Y008441D03*
X014183Y008411D03*
D32*
X013073Y008606D03*
X012693Y008436D03*
X012683Y008436D03*
X012683Y018081D03*
X012693Y018081D03*
X013073Y018251D03*
D33*
X013173Y018026D03*
X012703Y018076D03*
X012703Y008431D03*
X013173Y008381D03*
D34*
X013163Y008391D03*
X013093Y008591D03*
X012723Y008431D03*
X012713Y008431D03*
X013163Y018036D03*
X013093Y018236D03*
X012723Y018076D03*
X012713Y018076D03*
D35*
X012743Y018076D03*
X012753Y018076D03*
X012763Y018076D03*
X012743Y018166D03*
X013273Y017926D03*
X014283Y018056D03*
X012743Y008521D03*
X012743Y008431D03*
X012753Y008431D03*
X012763Y008431D03*
X013273Y008281D03*
X014283Y008411D03*
D36*
X014253Y008411D03*
X014243Y008411D03*
X013793Y008391D03*
X013353Y008571D03*
X013323Y008581D03*
X013303Y008591D03*
X013293Y008591D03*
X013283Y008596D03*
X013273Y008601D03*
X013263Y008601D03*
X013243Y008611D03*
X013243Y008311D03*
X013253Y008301D03*
X012933Y008401D03*
X012923Y008401D03*
X012913Y008401D03*
X013253Y017946D03*
X013243Y017956D03*
X013323Y018226D03*
X013303Y018236D03*
X013293Y018236D03*
X013283Y018242D03*
X013273Y018246D03*
X013263Y018246D03*
X013243Y018256D03*
X013353Y018216D03*
X012933Y018046D03*
X012923Y018046D03*
X012913Y018046D03*
X013793Y018036D03*
X014243Y018056D03*
X014253Y018056D03*
D37*
X013593Y018131D03*
X013563Y018141D03*
X013553Y018141D03*
X013543Y018151D03*
X013533Y018151D03*
X013523Y018151D03*
X013513Y018161D03*
X013503Y018161D03*
X013483Y018171D03*
X013473Y018171D03*
X013453Y018181D03*
X013073Y018021D03*
X013063Y018021D03*
X013053Y018021D03*
X013013Y018031D03*
X013033Y018291D03*
X013033Y008646D03*
X013013Y008386D03*
X013053Y008376D03*
X013063Y008376D03*
X013073Y008376D03*
X013453Y008536D03*
X013473Y008526D03*
X013483Y008526D03*
X013503Y008516D03*
X013513Y008516D03*
X013523Y008506D03*
X013533Y008506D03*
X013543Y008506D03*
X013553Y008496D03*
X013563Y008496D03*
X013593Y008486D03*
D38*
X013083Y008596D03*
X013083Y018241D03*
D39*
X013103Y018091D03*
X013103Y008446D03*
D40*
X013113Y008441D03*
X013113Y018086D03*
D41*
X013123Y018071D03*
X013123Y008426D03*
D42*
X013133Y008416D03*
X013133Y018061D03*
D43*
X013143Y018056D03*
X013143Y008411D03*
D44*
X013153Y008396D03*
X013153Y018041D03*
D45*
X013763Y018071D03*
X013793Y018061D03*
X013763Y008426D03*
X013793Y008416D03*
D46*
X022496Y018287D03*
X022691Y018257D03*
X022596Y018662D03*
X022586Y018677D03*
X022581Y018682D03*
X022576Y018692D03*
X022571Y018697D03*
X022566Y018707D03*
X022561Y018712D03*
X022556Y018717D03*
X022551Y018727D03*
X022546Y018732D03*
X022536Y018747D03*
X022526Y018762D03*
X022521Y018767D03*
X022511Y018782D03*
X022481Y018827D03*
X022471Y018842D03*
X022466Y018847D03*
X022461Y018852D03*
X022451Y018867D03*
X022176Y018762D03*
X022826Y018882D03*
X022981Y019002D03*
X022986Y019002D03*
X022991Y019007D03*
X022996Y019007D03*
X023136Y018477D03*
X023141Y018477D03*
X023161Y018317D03*
X023166Y018317D03*
X023701Y018632D03*
X023706Y018632D03*
D47*
X023901Y018762D03*
X024096Y018352D03*
X023591Y017412D03*
X023051Y017412D03*
X023046Y017417D03*
X022526Y017672D03*
X022346Y018402D03*
X022181Y018762D03*
X022451Y019867D03*
X023481Y019952D03*
X023631Y019667D03*
D48*
X023611Y019702D03*
X022301Y019037D03*
X022186Y018762D03*
X023641Y017507D03*
X024091Y018352D03*
D49*
X024086Y018354D03*
X023931Y018774D03*
X022391Y019734D03*
X022191Y018764D03*
D50*
X022196Y018764D03*
X023566Y019759D03*
D51*
X022201Y018762D03*
X023696Y017667D03*
D52*
X023686Y017657D03*
X022206Y018762D03*
D53*
X022211Y018762D03*
X023671Y017647D03*
D54*
X024056Y018364D03*
X022216Y018764D03*
D55*
X022221Y018762D03*
D56*
X022226Y018764D03*
X024036Y018389D03*
D57*
X024021Y018407D03*
X022231Y018762D03*
D58*
X022236Y018762D03*
X024011Y018417D03*
D59*
X022241Y018764D03*
D60*
X022246Y018764D03*
X022391Y018119D03*
D61*
X022406Y018089D03*
X022251Y018764D03*
D62*
X022256Y018764D03*
X022421Y018064D03*
D63*
X022441Y018034D03*
X022261Y018764D03*
D64*
X022266Y018764D03*
X022446Y018029D03*
X022451Y018024D03*
D65*
X022271Y018764D03*
D66*
X022276Y018764D03*
D67*
X022386Y018947D03*
X022801Y018882D03*
X023031Y019017D03*
X023041Y019022D03*
X023046Y019022D03*
X022276Y019497D03*
X022501Y018292D03*
X022666Y018257D03*
X023136Y018312D03*
X023161Y018477D03*
X023731Y018637D03*
D68*
X022281Y018762D03*
D69*
X022611Y018682D03*
X022281Y019497D03*
X022936Y019972D03*
X022941Y019977D03*
X022951Y019982D03*
X022956Y019987D03*
X022961Y019992D03*
X022966Y019997D03*
X023441Y020002D03*
X023446Y019997D03*
X023451Y019992D03*
X023636Y019657D03*
X023856Y019532D03*
X023861Y019527D03*
X023866Y019522D03*
X022951Y017542D03*
X023076Y017382D03*
X023081Y017377D03*
X022561Y017627D03*
X022556Y017632D03*
X023561Y017377D03*
X023566Y017382D03*
D70*
X022286Y018549D03*
X022296Y019499D03*
X023576Y019744D03*
D71*
X023571Y019752D03*
X023541Y019802D03*
X022286Y018977D03*
X023991Y018567D03*
X023716Y017687D03*
X023656Y017567D03*
D72*
X022486Y017742D03*
X023916Y018767D03*
X023936Y019412D03*
X023616Y019692D03*
X022411Y019797D03*
X022286Y019497D03*
D73*
X022291Y019009D03*
X022291Y018519D03*
X023986Y018599D03*
D74*
X023651Y017542D03*
X022291Y019497D03*
X023536Y019832D03*
X023596Y019722D03*
D75*
X023606Y019709D03*
X023531Y019849D03*
X022296Y019024D03*
X022296Y018504D03*
X023646Y017524D03*
D76*
X023741Y017719D03*
X022636Y018689D03*
X022301Y018489D03*
X022466Y018234D03*
X022481Y017759D03*
D77*
X023701Y017672D03*
X022301Y019497D03*
D78*
X022401Y019234D03*
X022306Y019054D03*
X022626Y018699D03*
X022306Y018474D03*
X023636Y017494D03*
X023521Y019879D03*
D79*
X022306Y019499D03*
D80*
X022311Y019064D03*
X022621Y018699D03*
X022311Y018464D03*
X022491Y017734D03*
X023631Y017484D03*
X023516Y019889D03*
D81*
X022311Y019499D03*
X024071Y018339D03*
D82*
X023926Y019434D03*
X023511Y019899D03*
X022316Y019074D03*
X022316Y018454D03*
X022496Y017724D03*
X022986Y017509D03*
X022991Y017504D03*
X023016Y017469D03*
D83*
X022316Y019499D03*
D84*
X022321Y019084D03*
X022321Y018444D03*
X022361Y018039D03*
X022506Y017704D03*
X022976Y017519D03*
X022981Y017514D03*
X023616Y017454D03*
X023921Y019444D03*
X023501Y019919D03*
D85*
X022321Y019499D03*
D86*
X022426Y019827D03*
X022431Y019837D03*
X023496Y019927D03*
X023626Y019677D03*
X023916Y019452D03*
X022326Y018437D03*
X022331Y018427D03*
X023026Y017452D03*
X023031Y017442D03*
X023611Y017442D03*
D87*
X023621Y017462D03*
X023021Y017462D03*
X022501Y017712D03*
X022641Y018702D03*
X022326Y019092D03*
X022406Y019227D03*
X022421Y019817D03*
X023506Y019912D03*
X023911Y018767D03*
D88*
X024041Y018384D03*
X022326Y019499D03*
D89*
X022331Y019377D03*
D90*
X022441Y019852D03*
X023491Y019937D03*
X023906Y019467D03*
X023911Y019462D03*
X022336Y018417D03*
X022516Y017687D03*
X023601Y017427D03*
D91*
X023051Y018294D03*
X023046Y018294D03*
X023226Y018469D03*
X023816Y018649D03*
X023821Y018649D03*
X023201Y019069D03*
X023196Y019069D03*
X022701Y018869D03*
X022696Y018869D03*
X022336Y018974D03*
X022596Y018249D03*
D92*
X022336Y019399D03*
X022341Y019409D03*
D93*
X022411Y019219D03*
X022646Y018714D03*
X022341Y018409D03*
X022521Y017679D03*
X022966Y017529D03*
X023041Y017424D03*
X023596Y017419D03*
X023901Y019474D03*
X023486Y019944D03*
X022446Y019859D03*
D94*
X023166Y019059D03*
X023176Y019064D03*
X023181Y019064D03*
X023801Y018644D03*
X023221Y018469D03*
X023216Y018469D03*
X023061Y018294D03*
X022511Y018294D03*
X022341Y018969D03*
D95*
X022346Y018967D03*
X022456Y019197D03*
X022721Y018872D03*
X022726Y018872D03*
X023156Y019057D03*
X023161Y019057D03*
X023171Y019062D03*
X023796Y018647D03*
X023211Y018472D03*
X023071Y018297D03*
X023066Y018297D03*
X022616Y018252D03*
X022611Y018252D03*
D96*
X022346Y019417D03*
X022356Y019437D03*
X022361Y019447D03*
D97*
X022456Y019874D03*
X022461Y019879D03*
X023476Y019959D03*
X023891Y019489D03*
X023896Y019484D03*
X022356Y018389D03*
X022351Y018394D03*
X022531Y017664D03*
X022961Y017534D03*
X023056Y017404D03*
X023586Y017404D03*
D98*
X023086Y018302D03*
X023201Y018472D03*
X023781Y018642D03*
X023141Y019052D03*
X023136Y019052D03*
X022351Y018967D03*
X022621Y018252D03*
X022626Y018252D03*
X022631Y018252D03*
D99*
X022351Y019429D03*
X022366Y019454D03*
X022371Y019464D03*
X022376Y019469D03*
X022381Y019479D03*
D100*
X022541Y019959D03*
X022546Y019964D03*
X022551Y019964D03*
X022556Y019969D03*
X022881Y019974D03*
X022891Y019969D03*
X022896Y019964D03*
X022901Y019964D03*
X022911Y019959D03*
X022916Y019959D03*
X023036Y020059D03*
X023041Y020064D03*
X023051Y020069D03*
X023366Y020064D03*
X023376Y020059D03*
X023381Y020054D03*
X023641Y019644D03*
X023786Y019589D03*
X023791Y019584D03*
X023796Y019584D03*
X023801Y019579D03*
X023806Y019574D03*
X022436Y018914D03*
X022356Y018039D03*
X022621Y017574D03*
X022626Y017569D03*
X022631Y017569D03*
X022636Y017564D03*
X022646Y017559D03*
X022941Y017549D03*
X023136Y017324D03*
X023146Y017319D03*
X023151Y017314D03*
X023156Y017309D03*
X023166Y017304D03*
X023476Y017304D03*
X023486Y017309D03*
X023491Y017314D03*
X023496Y017319D03*
X023506Y017324D03*
D101*
X023786Y018184D03*
X023816Y018179D03*
X023846Y018174D03*
X023876Y018169D03*
X023901Y018164D03*
X023906Y018164D03*
X023931Y018159D03*
X023936Y018159D03*
X023961Y018154D03*
X023966Y018154D03*
X024086Y018134D03*
X024091Y018134D03*
X023776Y018644D03*
X023196Y018474D03*
X023091Y018299D03*
X022746Y018874D03*
X022741Y018874D03*
X022356Y018964D03*
X023116Y019044D03*
X023121Y019044D03*
X023126Y019049D03*
X023131Y019049D03*
D102*
X023886Y019497D03*
X023471Y019967D03*
X023466Y019972D03*
X022466Y019887D03*
X022416Y019217D03*
X022361Y018382D03*
X022476Y018262D03*
X022536Y017657D03*
X022541Y017652D03*
X022956Y017537D03*
X023061Y017397D03*
X023066Y017392D03*
X023576Y017392D03*
X023581Y017397D03*
X023756Y017752D03*
X023991Y018222D03*
D103*
X023956Y018157D03*
X023951Y018157D03*
X023946Y018157D03*
X023941Y018157D03*
X023926Y018162D03*
X023921Y018162D03*
X023916Y018162D03*
X023911Y018162D03*
X023896Y018167D03*
X023891Y018167D03*
X023886Y018167D03*
X023881Y018167D03*
X023871Y018172D03*
X023866Y018172D03*
X023861Y018172D03*
X023856Y018172D03*
X023851Y018172D03*
X023841Y018177D03*
X023836Y018177D03*
X023831Y018177D03*
X023826Y018177D03*
X023821Y018177D03*
X023811Y018182D03*
X023806Y018182D03*
X023801Y018182D03*
X023796Y018182D03*
X023791Y018182D03*
X023781Y018187D03*
X023776Y018187D03*
X023771Y018187D03*
X023766Y018187D03*
X023761Y018187D03*
X023756Y018192D03*
X023751Y018192D03*
X023746Y018192D03*
X023741Y018192D03*
X023736Y018192D03*
X023731Y018192D03*
X023726Y018197D03*
X023721Y018197D03*
X023716Y018197D03*
X023711Y018197D03*
X023706Y018197D03*
X023701Y018197D03*
X023696Y018202D03*
X023691Y018202D03*
X023686Y018202D03*
X023681Y018202D03*
X023676Y018202D03*
X023671Y018202D03*
X023661Y018207D03*
X023656Y018207D03*
X023651Y018207D03*
X023646Y018207D03*
X023641Y018207D03*
X023631Y018212D03*
X023626Y018212D03*
X023621Y018212D03*
X023616Y018212D03*
X023606Y018217D03*
X023601Y018217D03*
X023596Y018217D03*
X023591Y018217D03*
X023586Y018217D03*
X023576Y018222D03*
X023571Y018222D03*
X023566Y018222D03*
X023561Y018222D03*
X023556Y018222D03*
X023546Y018227D03*
X023541Y018227D03*
X023536Y018227D03*
X023531Y018227D03*
X023526Y018227D03*
X023516Y018232D03*
X023511Y018232D03*
X023506Y018232D03*
X023501Y018232D03*
X023491Y018237D03*
X023486Y018237D03*
X023481Y018237D03*
X023476Y018237D03*
X023471Y018237D03*
X023461Y018242D03*
X023456Y018242D03*
X023451Y018242D03*
X023446Y018242D03*
X023441Y018242D03*
X023431Y018247D03*
X023426Y018247D03*
X023421Y018247D03*
X023416Y018247D03*
X023411Y018247D03*
X023401Y018252D03*
X023396Y018252D03*
X023391Y018252D03*
X023386Y018252D03*
X023381Y018252D03*
X023371Y018257D03*
X023366Y018257D03*
X023361Y018257D03*
X023356Y018257D03*
X023346Y018262D03*
X023341Y018262D03*
X023336Y018262D03*
X023331Y018262D03*
X023326Y018262D03*
X023316Y018267D03*
X023311Y018267D03*
X023306Y018267D03*
X023301Y018267D03*
X023296Y018267D03*
X023286Y018272D03*
X023281Y018272D03*
X023276Y018272D03*
X023271Y018272D03*
X023266Y018272D03*
X023256Y018277D03*
X023251Y018277D03*
X023246Y018277D03*
X023241Y018277D03*
X023231Y018282D03*
X023226Y018282D03*
X023221Y018282D03*
X023216Y018282D03*
X023211Y018282D03*
X023096Y018302D03*
X023056Y018422D03*
X023081Y018432D03*
X023031Y018412D03*
X023006Y018402D03*
X023191Y018472D03*
X023291Y018752D03*
X023311Y018747D03*
X023331Y018742D03*
X023356Y018737D03*
X023376Y018732D03*
X023396Y018727D03*
X023421Y018722D03*
X023441Y018717D03*
X023461Y018712D03*
X023486Y018707D03*
X023506Y018702D03*
X023526Y018697D03*
X023551Y018692D03*
X023571Y018687D03*
X023591Y018682D03*
X023611Y018677D03*
X023616Y018677D03*
X023636Y018672D03*
X023656Y018667D03*
X023766Y018642D03*
X023771Y018642D03*
X023266Y018757D03*
X023246Y018762D03*
X023226Y018767D03*
X023201Y018772D03*
X023181Y018777D03*
X023161Y018782D03*
X023136Y018787D03*
X023116Y018792D03*
X023096Y018797D03*
X023071Y018802D03*
X023051Y018807D03*
X023031Y018812D03*
X023006Y018817D03*
X022986Y018822D03*
X022966Y018827D03*
X022941Y018832D03*
X022926Y018837D03*
X022921Y018837D03*
X022911Y018842D03*
X022906Y018842D03*
X022901Y018842D03*
X022886Y018847D03*
X022881Y018847D03*
X022876Y018847D03*
X022866Y018852D03*
X022861Y018852D03*
X022756Y018877D03*
X022751Y018877D03*
X022751Y019002D03*
X022756Y019002D03*
X022761Y019002D03*
X022801Y019007D03*
X022806Y019007D03*
X022831Y019012D03*
X022836Y019012D03*
X022841Y019012D03*
X022846Y019012D03*
X022851Y019012D03*
X022861Y019017D03*
X022866Y019017D03*
X022871Y019017D03*
X022876Y019017D03*
X022881Y019017D03*
X022886Y019017D03*
X022891Y019017D03*
X022896Y019017D03*
X022906Y019022D03*
X022911Y019022D03*
X022916Y019022D03*
X022921Y019022D03*
X022926Y019022D03*
X022931Y019022D03*
X023106Y019042D03*
X023111Y019042D03*
X022716Y018997D03*
X022711Y018997D03*
X022706Y018997D03*
X022701Y018997D03*
X022691Y018992D03*
X022686Y018992D03*
X022681Y018992D03*
X022676Y018992D03*
X022671Y018992D03*
X022666Y018992D03*
X022661Y018992D03*
X022656Y018992D03*
X022651Y018992D03*
X022646Y018987D03*
X022641Y018987D03*
X022636Y018987D03*
X022631Y018987D03*
X022626Y018987D03*
X022621Y018987D03*
X022616Y018987D03*
X022611Y018987D03*
X022606Y018987D03*
X022601Y018987D03*
X022596Y018982D03*
X022591Y018982D03*
X022586Y018982D03*
X022581Y018982D03*
X022576Y018982D03*
X022571Y018982D03*
X022566Y018982D03*
X022561Y018982D03*
X022556Y018982D03*
X022551Y018982D03*
X022546Y018977D03*
X022541Y018977D03*
X022536Y018977D03*
X022531Y018977D03*
X022526Y018977D03*
X022521Y018977D03*
X022516Y018977D03*
X022511Y018977D03*
X022506Y018977D03*
X022501Y018977D03*
X022496Y018972D03*
X022491Y018972D03*
X022486Y018972D03*
X022481Y018972D03*
X022476Y018972D03*
X022471Y018972D03*
X022466Y018972D03*
X022461Y018972D03*
X022456Y018972D03*
X022451Y018972D03*
X022446Y018967D03*
X022361Y018962D03*
X022636Y018252D03*
X022641Y018252D03*
X022746Y018212D03*
X022771Y018202D03*
X022796Y018192D03*
X022821Y018182D03*
X022886Y018157D03*
X022911Y018147D03*
X022936Y018137D03*
X022961Y018127D03*
X023026Y018102D03*
X023051Y018092D03*
X023076Y018082D03*
X023101Y018072D03*
X023166Y018047D03*
X023191Y018037D03*
X023216Y018027D03*
X023241Y018017D03*
X023331Y017982D03*
X023356Y017972D03*
X023381Y017962D03*
X023406Y017952D03*
X023471Y017927D03*
X023496Y017917D03*
X023521Y017907D03*
X023546Y017897D03*
X023571Y017887D03*
X023596Y017877D03*
X023611Y017872D03*
X023636Y017862D03*
X024096Y018132D03*
X024101Y018132D03*
D104*
X023926Y018772D03*
X024056Y019117D03*
X022396Y019757D03*
X022366Y018037D03*
D105*
X022376Y018364D03*
X022371Y018369D03*
X022366Y018374D03*
X022546Y017644D03*
X022551Y017639D03*
X023071Y017384D03*
X023571Y017389D03*
X023881Y019504D03*
X023876Y019509D03*
X023871Y019514D03*
X023461Y019979D03*
X023456Y019984D03*
X022481Y019904D03*
X022476Y019899D03*
X022471Y019894D03*
D106*
X022856Y019014D03*
X022826Y019009D03*
X022821Y019009D03*
X022816Y019009D03*
X022811Y019009D03*
X022796Y019004D03*
X022791Y019004D03*
X022786Y019004D03*
X022781Y019004D03*
X022776Y019004D03*
X022771Y019004D03*
X022766Y019004D03*
X022746Y018999D03*
X022741Y018999D03*
X022736Y018999D03*
X022731Y018999D03*
X022726Y018999D03*
X022721Y018999D03*
X022696Y018994D03*
X022761Y018874D03*
X022861Y018919D03*
X022871Y018924D03*
X022881Y018929D03*
X022891Y018934D03*
X022901Y018939D03*
X022911Y018944D03*
X022921Y018949D03*
X022931Y018954D03*
X022901Y019019D03*
X022871Y018849D03*
X022891Y018844D03*
X022896Y018844D03*
X022916Y018839D03*
X022931Y018834D03*
X022936Y018834D03*
X022946Y018829D03*
X022951Y018829D03*
X022956Y018829D03*
X022961Y018829D03*
X022971Y018824D03*
X022976Y018824D03*
X022981Y018824D03*
X022991Y018819D03*
X022996Y018819D03*
X023001Y018819D03*
X023011Y018814D03*
X023016Y018814D03*
X023021Y018814D03*
X023026Y018814D03*
X023036Y018809D03*
X023041Y018809D03*
X023046Y018809D03*
X023056Y018804D03*
X023061Y018804D03*
X023066Y018804D03*
X023076Y018799D03*
X023081Y018799D03*
X023086Y018799D03*
X023091Y018799D03*
X023101Y018794D03*
X023106Y018794D03*
X023111Y018794D03*
X023121Y018789D03*
X023126Y018789D03*
X023131Y018789D03*
X023141Y018784D03*
X023146Y018784D03*
X023151Y018784D03*
X023156Y018784D03*
X023166Y018779D03*
X023171Y018779D03*
X023176Y018779D03*
X023186Y018774D03*
X023191Y018774D03*
X023196Y018774D03*
X023206Y018769D03*
X023211Y018769D03*
X023216Y018769D03*
X023221Y018769D03*
X023231Y018764D03*
X023236Y018764D03*
X023241Y018764D03*
X023251Y018759D03*
X023256Y018759D03*
X023261Y018759D03*
X023271Y018754D03*
X023276Y018754D03*
X023281Y018754D03*
X023286Y018754D03*
X023296Y018749D03*
X023301Y018749D03*
X023306Y018749D03*
X023316Y018744D03*
X023321Y018744D03*
X023326Y018744D03*
X023336Y018739D03*
X023341Y018739D03*
X023346Y018739D03*
X023351Y018739D03*
X023361Y018734D03*
X023366Y018734D03*
X023371Y018734D03*
X023381Y018729D03*
X023386Y018729D03*
X023391Y018729D03*
X023401Y018724D03*
X023406Y018724D03*
X023411Y018724D03*
X023416Y018724D03*
X023426Y018719D03*
X023431Y018719D03*
X023436Y018719D03*
X023446Y018714D03*
X023451Y018714D03*
X023456Y018714D03*
X023466Y018709D03*
X023471Y018709D03*
X023476Y018709D03*
X023481Y018709D03*
X023491Y018704D03*
X023496Y018704D03*
X023501Y018704D03*
X023511Y018699D03*
X023516Y018699D03*
X023521Y018699D03*
X023531Y018694D03*
X023536Y018694D03*
X023541Y018694D03*
X023546Y018694D03*
X023556Y018689D03*
X023561Y018689D03*
X023566Y018689D03*
X023576Y018684D03*
X023581Y018684D03*
X023586Y018684D03*
X023596Y018679D03*
X023601Y018679D03*
X023606Y018679D03*
X023621Y018674D03*
X023626Y018674D03*
X023631Y018674D03*
X023641Y018669D03*
X023646Y018669D03*
X023651Y018669D03*
X023661Y018664D03*
X023666Y018664D03*
X023671Y018664D03*
X023671Y018594D03*
X023661Y018589D03*
X023651Y018584D03*
X023641Y018579D03*
X023631Y018574D03*
X023621Y018569D03*
X023611Y018564D03*
X023601Y018559D03*
X023591Y018554D03*
X023581Y018549D03*
X023571Y018544D03*
X023561Y018539D03*
X023551Y018534D03*
X023541Y018529D03*
X023531Y018524D03*
X023521Y018519D03*
X023511Y018514D03*
X023501Y018509D03*
X023491Y018504D03*
X023481Y018499D03*
X023471Y018494D03*
X023466Y018489D03*
X023461Y018489D03*
X023456Y018484D03*
X023451Y018484D03*
X023446Y018479D03*
X023441Y018479D03*
X023436Y018474D03*
X023431Y018474D03*
X023426Y018469D03*
X023416Y018464D03*
X023406Y018459D03*
X023396Y018454D03*
X023386Y018449D03*
X023376Y018444D03*
X023366Y018439D03*
X023356Y018434D03*
X023346Y018429D03*
X023336Y018424D03*
X023186Y018474D03*
X023106Y018439D03*
X023101Y018439D03*
X023096Y018439D03*
X023091Y018434D03*
X023086Y018434D03*
X023076Y018429D03*
X023071Y018429D03*
X023066Y018424D03*
X023061Y018424D03*
X023051Y018419D03*
X023046Y018419D03*
X023041Y018414D03*
X023036Y018414D03*
X023026Y018409D03*
X023021Y018409D03*
X023016Y018404D03*
X023011Y018404D03*
X023001Y018399D03*
X022996Y018399D03*
X022991Y018394D03*
X022986Y018394D03*
X022981Y018394D03*
X022976Y018389D03*
X022971Y018389D03*
X022966Y018384D03*
X022961Y018384D03*
X022956Y018384D03*
X022946Y018379D03*
X022936Y018374D03*
X022931Y018374D03*
X022921Y018369D03*
X022911Y018364D03*
X022906Y018364D03*
X022896Y018359D03*
X022886Y018354D03*
X022876Y018349D03*
X022871Y018349D03*
X022861Y018344D03*
X022851Y018339D03*
X022846Y018339D03*
X022836Y018334D03*
X022826Y018329D03*
X022821Y018329D03*
X022811Y018324D03*
X022801Y018319D03*
X022786Y018314D03*
X022776Y018309D03*
X022751Y018299D03*
X022731Y018219D03*
X022736Y018214D03*
X022741Y018214D03*
X022751Y018209D03*
X022756Y018209D03*
X022761Y018204D03*
X022766Y018204D03*
X022776Y018199D03*
X022781Y018199D03*
X022786Y018194D03*
X022791Y018194D03*
X022801Y018189D03*
X022806Y018189D03*
X022811Y018184D03*
X022816Y018184D03*
X022826Y018179D03*
X022831Y018179D03*
X022836Y018174D03*
X022841Y018174D03*
X022846Y018174D03*
X022851Y018169D03*
X022856Y018169D03*
X022861Y018164D03*
X022866Y018164D03*
X022871Y018164D03*
X022876Y018159D03*
X022881Y018159D03*
X022891Y018154D03*
X022896Y018154D03*
X022901Y018149D03*
X022906Y018149D03*
X022916Y018144D03*
X022921Y018144D03*
X022926Y018139D03*
X022931Y018139D03*
X022941Y018134D03*
X022946Y018134D03*
X022951Y018129D03*
X022956Y018129D03*
X022966Y018124D03*
X022971Y018124D03*
X022976Y018119D03*
X022981Y018119D03*
X022986Y018119D03*
X022991Y018114D03*
X022996Y018114D03*
X023001Y018109D03*
X023006Y018109D03*
X023011Y018109D03*
X023016Y018104D03*
X023021Y018104D03*
X023031Y018099D03*
X023036Y018099D03*
X023041Y018094D03*
X023046Y018094D03*
X023056Y018089D03*
X023061Y018089D03*
X023066Y018084D03*
X023071Y018084D03*
X023081Y018079D03*
X023086Y018079D03*
X023091Y018074D03*
X023096Y018074D03*
X023106Y018069D03*
X023111Y018069D03*
X023116Y018064D03*
X023121Y018064D03*
X023126Y018064D03*
X023131Y018059D03*
X023136Y018059D03*
X023141Y018054D03*
X023146Y018054D03*
X023151Y018054D03*
X023156Y018049D03*
X023161Y018049D03*
X023171Y018044D03*
X023176Y018044D03*
X023181Y018039D03*
X023186Y018039D03*
X023196Y018034D03*
X023201Y018034D03*
X023206Y018029D03*
X023211Y018029D03*
X023221Y018024D03*
X023226Y018024D03*
X023231Y018019D03*
X023236Y018019D03*
X023246Y018014D03*
X023251Y018014D03*
X023256Y018009D03*
X023261Y018009D03*
X023266Y018009D03*
X023271Y018004D03*
X023276Y018004D03*
X023281Y017999D03*
X023286Y017999D03*
X023291Y017999D03*
X023296Y017994D03*
X023301Y017994D03*
X023306Y017989D03*
X023311Y017989D03*
X023316Y017989D03*
X023321Y017984D03*
X023326Y017984D03*
X023336Y017979D03*
X023341Y017979D03*
X023346Y017974D03*
X023351Y017974D03*
X023361Y017969D03*
X023366Y017969D03*
X023371Y017964D03*
X023376Y017964D03*
X023386Y017959D03*
X023391Y017959D03*
X023396Y017954D03*
X023401Y017954D03*
X023411Y017949D03*
X023416Y017949D03*
X023421Y017944D03*
X023426Y017944D03*
X023431Y017944D03*
X023436Y017939D03*
X023441Y017939D03*
X023446Y017934D03*
X023451Y017934D03*
X023456Y017934D03*
X023461Y017929D03*
X023466Y017929D03*
X023476Y017924D03*
X023481Y017924D03*
X023486Y017919D03*
X023491Y017919D03*
X023501Y017914D03*
X023506Y017914D03*
X023511Y017909D03*
X023516Y017909D03*
X023526Y017904D03*
X023531Y017904D03*
X023536Y017899D03*
X023541Y017899D03*
X023551Y017894D03*
X023556Y017894D03*
X023561Y017889D03*
X023566Y017889D03*
X023576Y017884D03*
X023581Y017884D03*
X023586Y017879D03*
X023591Y017879D03*
X023601Y017874D03*
X023606Y017874D03*
X023616Y017869D03*
X023621Y017869D03*
X023626Y017864D03*
X023631Y017864D03*
X023641Y017859D03*
X023646Y017859D03*
X023651Y017854D03*
X023771Y017809D03*
X023776Y017809D03*
X023786Y017804D03*
X023801Y017799D03*
X023811Y017794D03*
X023826Y017789D03*
X023836Y017784D03*
X023851Y017779D03*
X023876Y017769D03*
X023901Y017759D03*
X023916Y017754D03*
X023926Y017749D03*
X023941Y017744D03*
X023951Y017739D03*
X023966Y017734D03*
X023976Y017729D03*
X023991Y017724D03*
X024001Y017719D03*
X024016Y017714D03*
X024026Y017709D03*
X024041Y017704D03*
X024051Y017699D03*
X024056Y017699D03*
X024066Y017694D03*
X024076Y017689D03*
X024081Y017689D03*
X024086Y017689D03*
X024091Y017684D03*
X024096Y017684D03*
X024101Y017679D03*
X023666Y018204D03*
X023636Y018209D03*
X023611Y018214D03*
X023581Y018219D03*
X023551Y018224D03*
X023521Y018229D03*
X023496Y018234D03*
X023466Y018239D03*
X023436Y018244D03*
X023406Y018249D03*
X023376Y018254D03*
X023351Y018259D03*
X023321Y018264D03*
X023291Y018269D03*
X023261Y018274D03*
X023236Y018279D03*
X023206Y018284D03*
X023101Y018304D03*
X022506Y018289D03*
X022366Y018959D03*
X023096Y019039D03*
X023101Y019039D03*
X023756Y018639D03*
X023761Y018639D03*
X023856Y018754D03*
D107*
X022371Y018039D03*
D108*
X022646Y018252D03*
X022651Y018252D03*
X022731Y018292D03*
X022736Y018292D03*
X022741Y018297D03*
X022746Y018297D03*
X022756Y018302D03*
X022761Y018302D03*
X022766Y018307D03*
X022771Y018307D03*
X022781Y018312D03*
X022791Y018317D03*
X022796Y018317D03*
X022806Y018322D03*
X022816Y018327D03*
X022831Y018332D03*
X022841Y018337D03*
X022856Y018342D03*
X022866Y018347D03*
X022881Y018352D03*
X022891Y018357D03*
X022901Y018362D03*
X022916Y018367D03*
X022926Y018372D03*
X022941Y018377D03*
X022951Y018382D03*
X023106Y018307D03*
X023111Y018307D03*
X023206Y018357D03*
X023216Y018362D03*
X023226Y018367D03*
X023231Y018372D03*
X023236Y018372D03*
X023241Y018377D03*
X023246Y018377D03*
X023251Y018382D03*
X023256Y018382D03*
X023261Y018387D03*
X023266Y018387D03*
X023271Y018392D03*
X023276Y018392D03*
X023281Y018397D03*
X023286Y018397D03*
X023291Y018402D03*
X023296Y018402D03*
X023301Y018407D03*
X023306Y018407D03*
X023311Y018412D03*
X023316Y018412D03*
X023321Y018417D03*
X023326Y018417D03*
X023331Y018422D03*
X023341Y018427D03*
X023351Y018432D03*
X023361Y018437D03*
X023371Y018442D03*
X023381Y018447D03*
X023391Y018452D03*
X023401Y018457D03*
X023411Y018462D03*
X023421Y018467D03*
X023476Y018497D03*
X023486Y018502D03*
X023496Y018507D03*
X023506Y018512D03*
X023516Y018517D03*
X023526Y018522D03*
X023536Y018527D03*
X023546Y018532D03*
X023556Y018537D03*
X023566Y018542D03*
X023576Y018547D03*
X023586Y018552D03*
X023596Y018557D03*
X023606Y018562D03*
X023616Y018567D03*
X023626Y018572D03*
X023636Y018577D03*
X023646Y018582D03*
X023656Y018587D03*
X023666Y018592D03*
X023181Y018472D03*
X023066Y018537D03*
X023041Y018552D03*
X023016Y018567D03*
X023006Y018572D03*
X022991Y018582D03*
X022981Y018587D03*
X022971Y018592D03*
X022966Y018597D03*
X022956Y018602D03*
X022946Y018607D03*
X022941Y018612D03*
X022931Y018617D03*
X022921Y018622D03*
X022911Y018627D03*
X022906Y018632D03*
X022901Y018632D03*
X022896Y018637D03*
X022891Y018637D03*
X022886Y018642D03*
X022881Y018647D03*
X022876Y018647D03*
X022871Y018652D03*
X022866Y018652D03*
X022861Y018657D03*
X022856Y018662D03*
X022851Y018662D03*
X022846Y018667D03*
X022841Y018667D03*
X022836Y018672D03*
X022831Y018677D03*
X022826Y018677D03*
X022821Y018682D03*
X022816Y018682D03*
X022811Y018687D03*
X022806Y018692D03*
X022801Y018692D03*
X022796Y018697D03*
X022791Y018697D03*
X022786Y018702D03*
X022781Y018707D03*
X022776Y018707D03*
X022771Y018712D03*
X022766Y018712D03*
X022761Y018717D03*
X022756Y018722D03*
X022751Y018722D03*
X022746Y018727D03*
X022741Y018727D03*
X022736Y018732D03*
X022731Y018737D03*
X022726Y018737D03*
X022721Y018742D03*
X022716Y018742D03*
X022711Y018747D03*
X022706Y018752D03*
X022701Y018752D03*
X022696Y018757D03*
X022691Y018757D03*
X022686Y018762D03*
X022681Y018767D03*
X022676Y018767D03*
X022671Y018772D03*
X022766Y018877D03*
X022771Y018877D03*
X022866Y018922D03*
X022876Y018927D03*
X022886Y018932D03*
X022896Y018937D03*
X022906Y018942D03*
X022916Y018947D03*
X022926Y018952D03*
X023091Y019037D03*
X022371Y018957D03*
X023781Y017807D03*
X023791Y017802D03*
X023796Y017802D03*
X023806Y017797D03*
X023816Y017792D03*
X023821Y017792D03*
X023831Y017787D03*
X023841Y017782D03*
X023846Y017782D03*
X023856Y017777D03*
X023861Y017777D03*
X023866Y017772D03*
X023871Y017772D03*
X023881Y017767D03*
X023886Y017767D03*
X023891Y017762D03*
X023896Y017762D03*
X023906Y017757D03*
X023911Y017757D03*
X023921Y017752D03*
X023931Y017747D03*
X023936Y017747D03*
X023946Y017742D03*
X023956Y017737D03*
X023961Y017737D03*
X023971Y017732D03*
X023981Y017727D03*
X023986Y017727D03*
X023996Y017722D03*
X024006Y017717D03*
X024011Y017717D03*
X024021Y017712D03*
X024031Y017707D03*
X024036Y017707D03*
X024046Y017702D03*
X024061Y017697D03*
X024071Y017692D03*
D109*
X023706Y017674D03*
X022376Y018039D03*
D110*
X022661Y018252D03*
X023116Y018307D03*
X023121Y018307D03*
X022666Y018767D03*
X022376Y018952D03*
X023061Y019027D03*
X023066Y019027D03*
X023741Y018637D03*
X023746Y018637D03*
D111*
X024041Y019119D03*
X023691Y017664D03*
X022381Y018039D03*
D112*
X022381Y018359D03*
X022566Y017624D03*
X022571Y017619D03*
X023086Y017369D03*
X023091Y017364D03*
X023096Y017359D03*
X023546Y017359D03*
X023551Y017364D03*
X023556Y017369D03*
X023896Y018759D03*
X023436Y020009D03*
X023431Y020014D03*
X022986Y020019D03*
X022981Y020014D03*
X022976Y020009D03*
X022971Y020004D03*
X022946Y019979D03*
X022931Y019969D03*
X022496Y019919D03*
X022491Y019914D03*
X022486Y019909D03*
D113*
X023051Y019024D03*
X023056Y019024D03*
X022796Y018879D03*
X022791Y018879D03*
X022786Y018879D03*
X022381Y018949D03*
X023126Y018309D03*
X023131Y018309D03*
X023166Y018474D03*
X023736Y018634D03*
X023861Y018754D03*
D114*
X022386Y018129D03*
D115*
X022386Y019487D03*
D116*
X022391Y018944D03*
X022806Y018879D03*
X023021Y019014D03*
X023026Y019014D03*
X023036Y019019D03*
X023156Y018474D03*
X023141Y018314D03*
X022671Y018254D03*
X023721Y018634D03*
X023726Y018634D03*
X023976Y018169D03*
D117*
X022391Y019254D03*
X023586Y019734D03*
D118*
X022396Y018104D03*
D119*
X022686Y018254D03*
X022541Y018739D03*
X022531Y018754D03*
X022516Y018774D03*
X022506Y018789D03*
X022501Y018794D03*
X022496Y018804D03*
X022456Y018859D03*
X022446Y018874D03*
X022396Y018939D03*
X022821Y018884D03*
X023001Y019009D03*
X023006Y019009D03*
X023151Y018314D03*
X023156Y018314D03*
X023711Y018634D03*
X023716Y018634D03*
X024101Y018354D03*
X023766Y017794D03*
D120*
X023736Y017712D03*
X022476Y017772D03*
X022396Y019242D03*
D121*
X022401Y018097D03*
X023996Y019117D03*
D122*
X022976Y018999D03*
X022971Y018999D03*
X022841Y018884D03*
X022836Y018884D03*
X022831Y018884D03*
X022661Y018754D03*
X022591Y018669D03*
X022491Y018814D03*
X022486Y018819D03*
X022476Y018834D03*
X022401Y018939D03*
X022441Y019199D03*
X022696Y018254D03*
X023171Y018319D03*
D123*
X023921Y018769D03*
X023946Y019384D03*
X023526Y019864D03*
X022401Y019769D03*
D124*
X022406Y018937D03*
X022601Y018662D03*
X022846Y018887D03*
X022961Y018997D03*
X022966Y018997D03*
X023131Y018477D03*
X023176Y018317D03*
X023691Y018632D03*
X023696Y018632D03*
X023871Y018757D03*
X023981Y018182D03*
X022706Y018257D03*
X022701Y018257D03*
D125*
X022631Y018692D03*
X022406Y019782D03*
X023941Y019402D03*
D126*
X022411Y018079D03*
D127*
X022491Y018282D03*
X022716Y018257D03*
X023191Y018322D03*
X023196Y018322D03*
X023676Y018627D03*
X023876Y018757D03*
X022946Y018992D03*
X022936Y018987D03*
X022856Y018887D03*
X022411Y018932D03*
X022436Y019202D03*
D128*
X022416Y018072D03*
X023991Y019117D03*
D129*
X023116Y018479D03*
X023111Y018479D03*
X023201Y018324D03*
X022721Y018254D03*
X022416Y018929D03*
D130*
X022416Y019807D03*
X023621Y019687D03*
X023931Y019422D03*
X024061Y019117D03*
X023746Y017727D03*
X023626Y017472D03*
X023011Y017477D03*
X023006Y017487D03*
X023001Y017492D03*
X022996Y017497D03*
D131*
X022726Y018257D03*
X022421Y018927D03*
D132*
X022421Y019212D03*
X022651Y018727D03*
X022481Y018272D03*
X022576Y017612D03*
X022581Y017607D03*
X022586Y017602D03*
X023541Y017357D03*
X024066Y019117D03*
X023851Y019537D03*
X023846Y019542D03*
X023841Y019547D03*
X023836Y019552D03*
X023426Y020017D03*
X023421Y020022D03*
X023416Y020027D03*
X022991Y020022D03*
X022926Y019967D03*
X022501Y019927D03*
D133*
X022426Y018054D03*
X022431Y018049D03*
D134*
X022486Y018277D03*
X022426Y018922D03*
X022621Y020002D03*
X022631Y020007D03*
X022636Y020007D03*
X022641Y020007D03*
X022651Y020012D03*
X022656Y020012D03*
X022661Y020012D03*
X022671Y020017D03*
X022676Y020017D03*
X022681Y020017D03*
X022686Y020017D03*
X022691Y020017D03*
X022731Y020022D03*
X022736Y020022D03*
X022741Y020022D03*
X022761Y020017D03*
X022766Y020017D03*
X022771Y020017D03*
X022776Y020017D03*
X022781Y020017D03*
X022786Y020012D03*
X022791Y020012D03*
X022796Y020012D03*
X022801Y020012D03*
X022806Y020007D03*
X022811Y020007D03*
X022826Y020002D03*
X023096Y020092D03*
X023111Y020097D03*
X023121Y020102D03*
X023126Y020102D03*
X023131Y020102D03*
X023141Y020107D03*
X023146Y020107D03*
X023151Y020107D03*
X023156Y020107D03*
X023171Y020112D03*
X023176Y020112D03*
X023181Y020112D03*
X023186Y020112D03*
X023191Y020112D03*
X023196Y020112D03*
X023201Y020112D03*
X023206Y020112D03*
X023211Y020112D03*
X023216Y020112D03*
X023221Y020112D03*
X023226Y020112D03*
X023231Y020112D03*
X023236Y020112D03*
X023256Y020107D03*
X023261Y020107D03*
X023266Y020107D03*
X023271Y020107D03*
X023276Y020102D03*
X023281Y020102D03*
X023286Y020102D03*
X023296Y020097D03*
X023301Y020097D03*
X023646Y019637D03*
X023651Y019637D03*
X023656Y019637D03*
X023671Y019632D03*
X023676Y019632D03*
X023681Y019632D03*
X023686Y019632D03*
X023696Y019627D03*
X023701Y019627D03*
X023706Y019627D03*
X023716Y019622D03*
X023731Y019617D03*
X022896Y017532D03*
X022886Y017527D03*
X022881Y017527D03*
X022876Y017527D03*
X022866Y017522D03*
X022861Y017522D03*
X022856Y017522D03*
X022851Y017522D03*
X022841Y017517D03*
X022836Y017517D03*
X022831Y017517D03*
X022826Y017517D03*
X022821Y017517D03*
X022816Y017517D03*
X022811Y017517D03*
X022806Y017517D03*
X022801Y017517D03*
X022796Y017517D03*
X022791Y017517D03*
X022786Y017517D03*
X022781Y017517D03*
X022776Y017517D03*
X022771Y017517D03*
X022766Y017517D03*
X022761Y017517D03*
X022746Y017522D03*
X022741Y017522D03*
X022736Y017522D03*
X022731Y017522D03*
X022726Y017527D03*
X022721Y017527D03*
X022716Y017527D03*
X022706Y017532D03*
X023226Y017277D03*
X023241Y017272D03*
X023246Y017272D03*
X023251Y017272D03*
X023256Y017267D03*
X023261Y017267D03*
X023266Y017267D03*
X023271Y017267D03*
X023281Y017262D03*
X023286Y017262D03*
X023291Y017262D03*
X023296Y017262D03*
X023301Y017262D03*
X023306Y017262D03*
X023311Y017262D03*
X023316Y017262D03*
X023321Y017262D03*
X023326Y017262D03*
X023331Y017262D03*
X023336Y017262D03*
X023341Y017262D03*
X023346Y017262D03*
X023351Y017262D03*
X023356Y017262D03*
X023371Y017267D03*
X023376Y017267D03*
X023381Y017267D03*
X023386Y017267D03*
X023391Y017272D03*
X023396Y017272D03*
X023401Y017272D03*
X023411Y017277D03*
X023416Y017277D03*
D135*
X023441Y017287D03*
X023451Y017292D03*
X023461Y017297D03*
X023471Y017302D03*
X023481Y017307D03*
X023201Y017287D03*
X023191Y017292D03*
X023181Y017297D03*
X023171Y017302D03*
X023161Y017307D03*
X022931Y017547D03*
X022921Y017542D03*
X022666Y017547D03*
X022656Y017552D03*
X022651Y017557D03*
X022641Y017562D03*
X023886Y018757D03*
X023781Y019592D03*
X023776Y019597D03*
X023771Y019597D03*
X023766Y019602D03*
X023761Y019602D03*
X023371Y020062D03*
X023361Y020067D03*
X023356Y020072D03*
X023351Y020072D03*
X023346Y020077D03*
X023336Y020082D03*
X023066Y020077D03*
X023061Y020077D03*
X023056Y020072D03*
X023046Y020067D03*
X022906Y019962D03*
X022886Y019972D03*
X022876Y019977D03*
X022871Y019982D03*
X022861Y019987D03*
X022851Y019992D03*
X022596Y019992D03*
X022586Y019987D03*
X022576Y019982D03*
X022571Y019977D03*
X022566Y019977D03*
X022561Y019972D03*
X022426Y019207D03*
D136*
X022431Y018919D03*
X022606Y018669D03*
X022661Y017549D03*
X022671Y017544D03*
X022676Y017544D03*
X022681Y017539D03*
X022686Y017539D03*
X022691Y017534D03*
X022696Y017534D03*
X022701Y017534D03*
X022711Y017529D03*
X022871Y017524D03*
X022891Y017529D03*
X022901Y017534D03*
X022906Y017534D03*
X022911Y017539D03*
X022916Y017539D03*
X022926Y017544D03*
X022936Y017549D03*
X023176Y017299D03*
X023186Y017294D03*
X023196Y017289D03*
X023206Y017284D03*
X023211Y017284D03*
X023216Y017279D03*
X023221Y017279D03*
X023231Y017274D03*
X023236Y017274D03*
X023406Y017274D03*
X023421Y017279D03*
X023426Y017279D03*
X023431Y017284D03*
X023436Y017284D03*
X023446Y017289D03*
X023456Y017294D03*
X023466Y017299D03*
X023756Y019604D03*
X023751Y019609D03*
X023746Y019609D03*
X023741Y019614D03*
X023736Y019614D03*
X023726Y019619D03*
X023721Y019619D03*
X023711Y019624D03*
X023341Y020079D03*
X023331Y020084D03*
X023326Y020084D03*
X023321Y020089D03*
X023316Y020089D03*
X023311Y020094D03*
X023306Y020094D03*
X023291Y020099D03*
X023136Y020104D03*
X023116Y020099D03*
X023106Y020094D03*
X023101Y020094D03*
X023091Y020089D03*
X023086Y020089D03*
X023081Y020084D03*
X023076Y020084D03*
X023071Y020079D03*
X022866Y019984D03*
X022856Y019989D03*
X022846Y019994D03*
X022841Y019994D03*
X022836Y019999D03*
X022831Y019999D03*
X022821Y020004D03*
X022816Y020004D03*
X022646Y020009D03*
X022626Y020004D03*
X022616Y019999D03*
X022611Y019999D03*
X022606Y019994D03*
X022601Y019994D03*
X022591Y019989D03*
X022581Y019984D03*
D137*
X022666Y020014D03*
X022696Y020019D03*
X022701Y020019D03*
X022706Y020019D03*
X022711Y020019D03*
X022716Y020019D03*
X022721Y020019D03*
X022726Y020019D03*
X022746Y020019D03*
X022751Y020019D03*
X022756Y020019D03*
X023161Y020109D03*
X023166Y020109D03*
X023241Y020109D03*
X023246Y020109D03*
X023251Y020109D03*
X023661Y019634D03*
X023666Y019634D03*
X023691Y019629D03*
X023881Y018759D03*
X023986Y018194D03*
X023366Y017264D03*
X023361Y017264D03*
X023276Y017264D03*
X022846Y017519D03*
X022756Y017519D03*
X022751Y017519D03*
X022656Y018739D03*
X022431Y019204D03*
D138*
X022436Y018042D03*
X023986Y019117D03*
D139*
X023906Y018764D03*
X023751Y017739D03*
X023606Y017434D03*
X023036Y017434D03*
X022971Y017524D03*
X022511Y017694D03*
X022471Y018254D03*
X022616Y018689D03*
X022436Y019844D03*
D140*
X022526Y019947D03*
X022531Y019952D03*
X022536Y019957D03*
X023006Y020037D03*
X023011Y020042D03*
X023016Y020047D03*
X023021Y020047D03*
X023026Y020052D03*
X023031Y020057D03*
X023386Y020052D03*
X023391Y020047D03*
X023396Y020042D03*
X023401Y020042D03*
X023811Y019572D03*
X023816Y019567D03*
X022441Y018912D03*
X022606Y017587D03*
X022611Y017582D03*
X022616Y017577D03*
X023121Y017337D03*
X023126Y017332D03*
X023131Y017327D03*
X023141Y017322D03*
X023501Y017322D03*
X023511Y017327D03*
X023516Y017332D03*
X023521Y017337D03*
X023761Y017762D03*
D141*
X023146Y018312D03*
X023146Y018477D03*
X023151Y018477D03*
X022681Y018257D03*
X022676Y018257D03*
X022811Y018882D03*
X022816Y018882D03*
X023011Y019012D03*
X023016Y019012D03*
X022446Y019197D03*
X023866Y018757D03*
D142*
X023751Y018639D03*
X023971Y018159D03*
X023656Y017849D03*
X023221Y018364D03*
X023211Y018359D03*
X023176Y018474D03*
X023171Y018474D03*
X023106Y018514D03*
X023101Y018514D03*
X023096Y018519D03*
X023091Y018524D03*
X023086Y018524D03*
X023081Y018529D03*
X023076Y018529D03*
X023071Y018534D03*
X023061Y018539D03*
X023056Y018544D03*
X023051Y018544D03*
X023046Y018549D03*
X023036Y018554D03*
X023031Y018559D03*
X023026Y018559D03*
X023021Y018564D03*
X023011Y018569D03*
X023001Y018574D03*
X022996Y018579D03*
X022986Y018584D03*
X022976Y018589D03*
X022961Y018599D03*
X022951Y018604D03*
X022936Y018614D03*
X022926Y018619D03*
X022916Y018624D03*
X022781Y018879D03*
X022776Y018879D03*
X023071Y019029D03*
X023076Y019029D03*
X023081Y019034D03*
X023086Y019034D03*
X022451Y019199D03*
X022656Y018254D03*
D143*
X022456Y018017D03*
D144*
X022461Y018009D03*
D145*
X022466Y017812D03*
X023721Y017692D03*
D146*
X022471Y017784D03*
X023951Y019369D03*
X023601Y019714D03*
D147*
X023821Y019564D03*
X023826Y019559D03*
X023831Y019554D03*
X023411Y020029D03*
X023406Y020034D03*
X023001Y020034D03*
X022996Y020029D03*
X022921Y019964D03*
X022521Y019944D03*
X022516Y019939D03*
X022511Y019934D03*
X022506Y019929D03*
X023891Y018759D03*
X022946Y017544D03*
X023101Y017354D03*
X023106Y017349D03*
X023111Y017344D03*
X023116Y017339D03*
X022601Y017589D03*
X022596Y017594D03*
X022591Y017599D03*
X023526Y017339D03*
X023531Y017344D03*
X023536Y017349D03*
D148*
X023021Y018289D03*
X023016Y018289D03*
X022571Y018249D03*
X022671Y018869D03*
X023246Y019084D03*
X023251Y019084D03*
X023851Y018754D03*
D149*
X023841Y018652D03*
X023836Y018652D03*
X023246Y018467D03*
X023241Y018467D03*
X023026Y018292D03*
X022576Y018252D03*
X022676Y018867D03*
X022681Y018867D03*
X023236Y019082D03*
X023241Y019082D03*
D150*
X023231Y019079D03*
X023226Y019079D03*
X022691Y018869D03*
X022686Y018869D03*
X022581Y018249D03*
X023031Y018289D03*
X023236Y018469D03*
X023826Y018649D03*
X023831Y018649D03*
X024071Y019114D03*
D151*
X023221Y019077D03*
X023216Y019077D03*
X023211Y019072D03*
X023206Y019072D03*
X023231Y018467D03*
X023041Y018292D03*
X023036Y018292D03*
X022591Y018252D03*
X022586Y018252D03*
D152*
X022601Y018252D03*
X022606Y018252D03*
X023056Y018297D03*
X022716Y018872D03*
X022711Y018872D03*
X022706Y018872D03*
X023186Y019067D03*
X023191Y019067D03*
X023806Y018647D03*
X023811Y018647D03*
D153*
X023686Y018629D03*
X023681Y018629D03*
X023186Y018319D03*
X023181Y018319D03*
X023126Y018479D03*
X023121Y018479D03*
X022711Y018254D03*
X022851Y018884D03*
X022941Y018989D03*
X022951Y018994D03*
X022956Y018994D03*
D154*
X023146Y019054D03*
X023151Y019054D03*
X022736Y018874D03*
X022731Y018874D03*
X023206Y018469D03*
X023081Y018299D03*
X023076Y018299D03*
X023786Y018644D03*
X023791Y018644D03*
D155*
X023561Y019767D03*
X023551Y019782D03*
X023546Y019792D03*
D156*
X023556Y019774D03*
X023711Y017679D03*
D157*
X023936Y018777D03*
X024051Y019117D03*
X023581Y019742D03*
D158*
X023591Y019727D03*
X023956Y019352D03*
X023726Y017697D03*
D159*
X023661Y017639D03*
X024066Y018349D03*
D160*
X023666Y017642D03*
D161*
X023676Y017652D03*
X024036Y019117D03*
D162*
X023681Y017654D03*
D163*
X023731Y017702D03*
D164*
X023941Y018782D03*
D165*
X023946Y018784D03*
D166*
X023951Y018792D03*
X024076Y018332D03*
D167*
X023956Y018802D03*
X024031Y019117D03*
D168*
X023961Y019024D03*
D169*
X023966Y019014D03*
D170*
X023971Y019002D03*
D171*
X023976Y018987D03*
D172*
X023981Y018969D03*
D173*
X023996Y018429D03*
X024001Y018424D03*
D174*
X024001Y019117D03*
D175*
X024006Y018419D03*
D176*
X024006Y019117D03*
D177*
X024011Y019117D03*
X024016Y018412D03*
D178*
X024026Y018402D03*
X024016Y019117D03*
D179*
X024021Y019117D03*
D180*
X024026Y019119D03*
D181*
X024031Y018394D03*
D182*
X024046Y018379D03*
D183*
X024046Y019119D03*
D184*
X024051Y018372D03*
D185*
X024061Y018357D03*
D186*
X024081Y018322D03*
D187*
X005618Y003401D02*
X005612Y003391D01*
X005621Y003392D02*
X005623Y003391D01*
X005626Y003391D01*
X005628Y003392D01*
X005628Y003401D01*
X005632Y003397D02*
X005637Y003397D01*
X005639Y003396D02*
X005641Y003397D01*
X005644Y003397D01*
X005646Y003396D01*
X005646Y003394D01*
X005639Y003394D01*
X005639Y003392D02*
X005639Y003396D01*
X005639Y003392D02*
X005641Y003391D01*
X005644Y003391D01*
X005649Y003391D02*
X005649Y003397D01*
X005652Y003397D02*
X005654Y003397D01*
X005652Y003397D02*
X005649Y003394D01*
X005656Y003396D02*
X005658Y003397D01*
X005663Y003397D01*
X005661Y003394D02*
X005658Y003394D01*
X005656Y003396D01*
X005656Y003391D02*
X005661Y003391D01*
X005663Y003392D01*
X005661Y003394D01*
X005666Y003391D02*
X005672Y003401D01*
X005675Y003397D02*
X005678Y003397D01*
X005676Y003399D02*
X005676Y003392D01*
X005678Y003391D01*
X005681Y003391D02*
X005681Y003401D01*
X005683Y003397D02*
X005686Y003397D01*
X005688Y003396D01*
X005688Y003391D01*
X005690Y003392D02*
X005692Y003391D01*
X005695Y003391D01*
X005697Y003392D01*
X005697Y003396D01*
X005695Y003397D01*
X005692Y003397D01*
X005690Y003396D01*
X005690Y003392D01*
X005683Y003397D02*
X005681Y003396D01*
X005699Y003397D02*
X005701Y003397D01*
X005703Y003396D01*
X005704Y003397D01*
X005706Y003396D01*
X005706Y003391D01*
X005708Y003392D02*
X005710Y003394D01*
X005715Y003394D01*
X005715Y003396D02*
X005715Y003391D01*
X005710Y003391D01*
X005708Y003392D01*
X005703Y003391D02*
X005703Y003396D01*
X005699Y003397D02*
X005699Y003391D01*
X005710Y003397D02*
X005713Y003397D01*
X005715Y003396D01*
X005718Y003396D02*
X005719Y003397D01*
X005724Y003397D01*
X005727Y003397D02*
X005732Y003397D01*
X005734Y003396D01*
X005734Y003392D01*
X005732Y003391D01*
X005727Y003391D01*
X005724Y003392D02*
X005723Y003394D01*
X005719Y003394D01*
X005718Y003396D01*
X005718Y003391D02*
X005723Y003391D01*
X005724Y003392D01*
X005727Y003387D02*
X005727Y003397D01*
X005736Y003397D02*
X005736Y003391D01*
X005736Y003394D02*
X005739Y003397D01*
X005741Y003397D01*
X005744Y003397D02*
X005745Y003397D01*
X005745Y003391D01*
X005744Y003391D02*
X005747Y003391D01*
X005750Y003392D02*
X005752Y003391D01*
X005757Y003391D01*
X005759Y003392D02*
X005759Y003396D01*
X005761Y003397D01*
X005764Y003397D01*
X005766Y003396D01*
X005766Y003394D01*
X005759Y003394D01*
X005759Y003392D02*
X005761Y003391D01*
X005764Y003391D01*
X005768Y003391D02*
X005775Y003401D01*
X005778Y003401D02*
X005783Y003401D01*
X005784Y003399D01*
X005784Y003392D01*
X005783Y003391D01*
X005778Y003391D01*
X005778Y003401D01*
X005787Y003396D02*
X005787Y003392D01*
X005788Y003391D01*
X005792Y003391D01*
X005793Y003392D01*
X005793Y003396D01*
X005792Y003397D01*
X005788Y003397D01*
X005787Y003396D01*
X005796Y003396D02*
X005796Y003392D01*
X005798Y003391D01*
X005803Y003391D01*
X005805Y003392D02*
X005807Y003391D01*
X005812Y003391D01*
X005812Y003397D01*
X005814Y003397D02*
X005816Y003397D01*
X005818Y003396D01*
X005819Y003397D01*
X005821Y003396D01*
X005821Y003391D01*
X005824Y003392D02*
X005824Y003396D01*
X005825Y003397D01*
X005829Y003397D01*
X005830Y003396D01*
X005830Y003394D01*
X005824Y003394D01*
X005824Y003392D02*
X005825Y003391D01*
X005829Y003391D01*
X005833Y003391D02*
X005833Y003397D01*
X005838Y003397D01*
X005839Y003396D01*
X005839Y003391D01*
X005844Y003392D02*
X005845Y003391D01*
X005844Y003392D02*
X005844Y003399D01*
X005842Y003397D02*
X005845Y003397D01*
X005848Y003396D02*
X005850Y003397D01*
X005855Y003397D01*
X005853Y003394D02*
X005850Y003394D01*
X005848Y003396D01*
X005848Y003391D02*
X005853Y003391D01*
X005855Y003392D01*
X005853Y003394D01*
X005857Y003391D02*
X005864Y003401D01*
X005868Y003397D02*
X005872Y003397D01*
X005873Y003396D01*
X005873Y003394D01*
X005867Y003394D01*
X005867Y003396D02*
X005868Y003397D01*
X005867Y003396D02*
X005867Y003392D01*
X005868Y003391D01*
X005872Y003391D01*
X005876Y003392D02*
X005877Y003394D01*
X005882Y003394D01*
X005882Y003396D02*
X005882Y003391D01*
X005877Y003391D01*
X005876Y003392D01*
X005877Y003397D02*
X005881Y003397D01*
X005882Y003396D01*
X005885Y003396D02*
X005885Y003392D01*
X005887Y003391D01*
X005892Y003391D01*
X005892Y003389D02*
X005892Y003397D01*
X005887Y003397D01*
X005885Y003396D01*
X005888Y003387D02*
X005890Y003387D01*
X005892Y003389D01*
X005894Y003391D02*
X005898Y003391D01*
X005896Y003391D02*
X005896Y003401D01*
X005894Y003401D01*
X005900Y003396D02*
X005902Y003397D01*
X005905Y003397D01*
X005907Y003396D01*
X005907Y003394D01*
X005900Y003394D01*
X005900Y003392D02*
X005900Y003396D01*
X005900Y003392D02*
X005902Y003391D01*
X005905Y003391D01*
X005910Y003391D02*
X005916Y003401D01*
X005919Y003401D02*
X005920Y003401D01*
X005920Y003391D01*
X005919Y003391D02*
X005922Y003391D01*
X005925Y003392D02*
X005927Y003391D01*
X005930Y003391D01*
X005932Y003392D01*
X005932Y003396D01*
X005930Y003397D01*
X005927Y003397D01*
X005925Y003396D01*
X005925Y003392D01*
X005934Y003392D02*
X005936Y003391D01*
X005941Y003391D01*
X005941Y003389D02*
X005941Y003397D01*
X005936Y003397D01*
X005934Y003396D01*
X005934Y003392D01*
X005937Y003387D02*
X005939Y003387D01*
X005941Y003389D01*
X005943Y003392D02*
X005945Y003391D01*
X005948Y003391D01*
X005950Y003392D01*
X005950Y003396D01*
X005948Y003397D01*
X005945Y003397D01*
X005943Y003396D01*
X005943Y003392D01*
X005952Y003391D02*
X005959Y003401D01*
X005962Y003401D02*
X005965Y003397D01*
X005968Y003401D01*
X005968Y003391D01*
X005971Y003392D02*
X005973Y003394D01*
X005978Y003394D01*
X005978Y003396D02*
X005978Y003391D01*
X005973Y003391D01*
X005971Y003392D01*
X005973Y003397D02*
X005976Y003397D01*
X005978Y003396D01*
X005980Y003396D02*
X005980Y003392D01*
X005982Y003391D01*
X005987Y003391D01*
X005987Y003389D02*
X005987Y003397D01*
X005982Y003397D01*
X005980Y003396D01*
X005983Y003387D02*
X005985Y003387D01*
X005987Y003389D01*
X005989Y003391D02*
X005993Y003391D01*
X005991Y003391D02*
X005991Y003397D01*
X005989Y003397D01*
X005991Y003401D02*
X005991Y003402D01*
X005997Y003397D02*
X005995Y003396D01*
X005995Y003392D01*
X005997Y003391D01*
X006002Y003391D01*
X006005Y003389D02*
X006011Y003389D01*
X006014Y003392D02*
X006016Y003391D01*
X006019Y003391D01*
X006021Y003392D01*
X006021Y003394D01*
X006019Y003396D01*
X006016Y003396D01*
X006014Y003397D01*
X006014Y003399D01*
X006016Y003401D01*
X006019Y003401D01*
X006021Y003399D01*
X006023Y003397D02*
X006025Y003397D01*
X006026Y003396D01*
X006028Y003397D01*
X006030Y003396D01*
X006030Y003391D01*
X006032Y003392D02*
X006034Y003391D01*
X006037Y003391D01*
X006039Y003392D01*
X006039Y003396D01*
X006037Y003397D01*
X006034Y003397D01*
X006032Y003396D01*
X006032Y003392D01*
X006026Y003391D02*
X006026Y003396D01*
X006023Y003397D02*
X006023Y003391D01*
X006041Y003391D02*
X006041Y003401D01*
X006041Y003394D02*
X006047Y003397D01*
X006049Y003396D02*
X006051Y003397D01*
X006054Y003397D01*
X006056Y003396D01*
X006056Y003394D01*
X006049Y003394D01*
X006049Y003392D02*
X006049Y003396D01*
X006049Y003392D02*
X006051Y003391D01*
X006054Y003391D01*
X006058Y003389D02*
X006065Y003389D01*
X006068Y003391D02*
X006071Y003391D01*
X006069Y003391D02*
X006069Y003401D01*
X006068Y003401D01*
X006074Y003396D02*
X006074Y003392D01*
X006075Y003391D01*
X006079Y003391D01*
X006080Y003392D01*
X006080Y003396D01*
X006079Y003397D01*
X006075Y003397D01*
X006074Y003396D01*
X006083Y003396D02*
X006083Y003392D01*
X006085Y003391D01*
X006090Y003391D01*
X006090Y003389D02*
X006090Y003397D01*
X006085Y003397D01*
X006083Y003396D01*
X006092Y003396D02*
X006092Y003392D01*
X006094Y003391D01*
X006097Y003391D01*
X006099Y003392D01*
X006099Y003396D01*
X006097Y003397D01*
X006094Y003397D01*
X006092Y003396D01*
X006090Y003389D02*
X006088Y003387D01*
X006086Y003387D01*
X006101Y003391D02*
X006103Y003391D01*
X006103Y003392D01*
X006101Y003392D01*
X006101Y003391D01*
X006106Y003391D02*
X006111Y003391D01*
X006113Y003392D01*
X006113Y003396D01*
X006111Y003397D01*
X006106Y003397D01*
X006106Y003401D02*
X006106Y003391D01*
X006115Y003391D02*
X006115Y003397D01*
X006117Y003397D01*
X006118Y003396D01*
X006120Y003397D01*
X006122Y003396D01*
X006122Y003391D01*
X006124Y003391D02*
X006129Y003391D01*
X006131Y003392D01*
X006131Y003396D01*
X006129Y003397D01*
X006124Y003397D01*
X006124Y003387D01*
X006118Y003391D02*
X006118Y003396D01*
X006047Y003391D02*
X006041Y003394D01*
X006002Y003397D02*
X005997Y003397D01*
X005962Y003391D02*
X005962Y003401D01*
X005818Y003396D02*
X005818Y003391D01*
X005814Y003391D02*
X005814Y003397D01*
X005805Y003397D02*
X005805Y003392D01*
X005803Y003397D02*
X005798Y003397D01*
X005796Y003396D01*
X005757Y003397D02*
X005752Y003397D01*
X005750Y003396D01*
X005750Y003392D01*
X005745Y003401D02*
X005745Y003402D01*
X005637Y003392D02*
X005635Y003394D01*
X005632Y003394D01*
X005630Y003396D01*
X005632Y003397D01*
X005630Y003391D02*
X005635Y003391D01*
X005637Y003392D01*
X005621Y003392D02*
X005621Y003401D01*
X007187Y003416D02*
X023722Y003416D01*
X023092Y004990D02*
X023094Y005040D01*
X023100Y005090D01*
X023110Y005139D01*
X023124Y005187D01*
X023141Y005234D01*
X023162Y005279D01*
X023187Y005323D01*
X023215Y005364D01*
X023247Y005403D01*
X023281Y005440D01*
X023318Y005474D01*
X023358Y005504D01*
X023400Y005531D01*
X023444Y005555D01*
X023490Y005576D01*
X023537Y005592D01*
X023585Y005605D01*
X023635Y005614D01*
X023684Y005619D01*
X023735Y005620D01*
X023785Y005617D01*
X023834Y005610D01*
X023883Y005599D01*
X023931Y005584D01*
X023977Y005566D01*
X024022Y005544D01*
X024065Y005518D01*
X024106Y005489D01*
X024145Y005457D01*
X024181Y005422D01*
X024213Y005384D01*
X024243Y005344D01*
X024270Y005301D01*
X024293Y005257D01*
X024312Y005211D01*
X024328Y005163D01*
X024340Y005114D01*
X024348Y005065D01*
X024352Y005015D01*
X024352Y004965D01*
X024348Y004915D01*
X024340Y004866D01*
X024328Y004817D01*
X024312Y004769D01*
X024293Y004723D01*
X024270Y004679D01*
X024243Y004636D01*
X024213Y004596D01*
X024181Y004558D01*
X024145Y004523D01*
X024106Y004491D01*
X024065Y004462D01*
X024022Y004436D01*
X023977Y004414D01*
X023931Y004396D01*
X023883Y004381D01*
X023834Y004370D01*
X023785Y004363D01*
X023735Y004360D01*
X023684Y004361D01*
X023635Y004366D01*
X023585Y004375D01*
X023537Y004388D01*
X023490Y004404D01*
X023444Y004425D01*
X023400Y004449D01*
X023358Y004476D01*
X023318Y004506D01*
X023281Y004540D01*
X023247Y004577D01*
X023215Y004616D01*
X023187Y004657D01*
X023162Y004701D01*
X023141Y004746D01*
X023124Y004793D01*
X023110Y004841D01*
X023100Y004890D01*
X023094Y004940D01*
X023092Y004990D01*
X023722Y003415D02*
X023799Y003417D01*
X023876Y003423D01*
X023953Y003432D01*
X024029Y003445D01*
X024105Y003462D01*
X024179Y003483D01*
X024253Y003507D01*
X024325Y003535D01*
X024395Y003566D01*
X024464Y003601D01*
X024532Y003639D01*
X024597Y003680D01*
X024660Y003725D01*
X024721Y003773D01*
X024780Y003823D01*
X024836Y003876D01*
X024889Y003932D01*
X024939Y003991D01*
X024987Y004052D01*
X025032Y004115D01*
X025073Y004180D01*
X025111Y004248D01*
X025146Y004317D01*
X025177Y004387D01*
X025205Y004459D01*
X025229Y004533D01*
X025250Y004607D01*
X025267Y004683D01*
X025280Y004759D01*
X025289Y004836D01*
X025295Y004913D01*
X025297Y004990D01*
X025297Y021526D01*
X023092Y021526D02*
X023094Y021576D01*
X023100Y021626D01*
X023110Y021675D01*
X023124Y021723D01*
X023141Y021770D01*
X023162Y021815D01*
X023187Y021859D01*
X023215Y021900D01*
X023247Y021939D01*
X023281Y021976D01*
X023318Y022010D01*
X023358Y022040D01*
X023400Y022067D01*
X023444Y022091D01*
X023490Y022112D01*
X023537Y022128D01*
X023585Y022141D01*
X023635Y022150D01*
X023684Y022155D01*
X023735Y022156D01*
X023785Y022153D01*
X023834Y022146D01*
X023883Y022135D01*
X023931Y022120D01*
X023977Y022102D01*
X024022Y022080D01*
X024065Y022054D01*
X024106Y022025D01*
X024145Y021993D01*
X024181Y021958D01*
X024213Y021920D01*
X024243Y021880D01*
X024270Y021837D01*
X024293Y021793D01*
X024312Y021747D01*
X024328Y021699D01*
X024340Y021650D01*
X024348Y021601D01*
X024352Y021551D01*
X024352Y021501D01*
X024348Y021451D01*
X024340Y021402D01*
X024328Y021353D01*
X024312Y021305D01*
X024293Y021259D01*
X024270Y021215D01*
X024243Y021172D01*
X024213Y021132D01*
X024181Y021094D01*
X024145Y021059D01*
X024106Y021027D01*
X024065Y020998D01*
X024022Y020972D01*
X023977Y020950D01*
X023931Y020932D01*
X023883Y020917D01*
X023834Y020906D01*
X023785Y020899D01*
X023735Y020896D01*
X023684Y020897D01*
X023635Y020902D01*
X023585Y020911D01*
X023537Y020924D01*
X023490Y020940D01*
X023444Y020961D01*
X023400Y020985D01*
X023358Y021012D01*
X023318Y021042D01*
X023281Y021076D01*
X023247Y021113D01*
X023215Y021152D01*
X023187Y021193D01*
X023162Y021237D01*
X023141Y021282D01*
X023124Y021329D01*
X023110Y021377D01*
X023100Y021426D01*
X023094Y021476D01*
X023092Y021526D01*
X023722Y023101D02*
X023799Y023099D01*
X023876Y023093D01*
X023953Y023084D01*
X024029Y023071D01*
X024105Y023054D01*
X024179Y023033D01*
X024253Y023009D01*
X024325Y022981D01*
X024395Y022950D01*
X024464Y022915D01*
X024532Y022877D01*
X024597Y022836D01*
X024660Y022791D01*
X024721Y022743D01*
X024780Y022693D01*
X024836Y022640D01*
X024889Y022584D01*
X024939Y022525D01*
X024987Y022464D01*
X025032Y022401D01*
X025073Y022336D01*
X025111Y022268D01*
X025146Y022199D01*
X025177Y022129D01*
X025205Y022057D01*
X025229Y021983D01*
X025250Y021909D01*
X025267Y021833D01*
X025280Y021757D01*
X025289Y021680D01*
X025295Y021603D01*
X025297Y021526D01*
X023722Y023101D02*
X007187Y023101D01*
X006557Y021526D02*
X006559Y021576D01*
X006565Y021626D01*
X006575Y021675D01*
X006589Y021723D01*
X006606Y021770D01*
X006627Y021815D01*
X006652Y021859D01*
X006680Y021900D01*
X006712Y021939D01*
X006746Y021976D01*
X006783Y022010D01*
X006823Y022040D01*
X006865Y022067D01*
X006909Y022091D01*
X006955Y022112D01*
X007002Y022128D01*
X007050Y022141D01*
X007100Y022150D01*
X007149Y022155D01*
X007200Y022156D01*
X007250Y022153D01*
X007299Y022146D01*
X007348Y022135D01*
X007396Y022120D01*
X007442Y022102D01*
X007487Y022080D01*
X007530Y022054D01*
X007571Y022025D01*
X007610Y021993D01*
X007646Y021958D01*
X007678Y021920D01*
X007708Y021880D01*
X007735Y021837D01*
X007758Y021793D01*
X007777Y021747D01*
X007793Y021699D01*
X007805Y021650D01*
X007813Y021601D01*
X007817Y021551D01*
X007817Y021501D01*
X007813Y021451D01*
X007805Y021402D01*
X007793Y021353D01*
X007777Y021305D01*
X007758Y021259D01*
X007735Y021215D01*
X007708Y021172D01*
X007678Y021132D01*
X007646Y021094D01*
X007610Y021059D01*
X007571Y021027D01*
X007530Y020998D01*
X007487Y020972D01*
X007442Y020950D01*
X007396Y020932D01*
X007348Y020917D01*
X007299Y020906D01*
X007250Y020899D01*
X007200Y020896D01*
X007149Y020897D01*
X007100Y020902D01*
X007050Y020911D01*
X007002Y020924D01*
X006955Y020940D01*
X006909Y020961D01*
X006865Y020985D01*
X006823Y021012D01*
X006783Y021042D01*
X006746Y021076D01*
X006712Y021113D01*
X006680Y021152D01*
X006652Y021193D01*
X006627Y021237D01*
X006606Y021282D01*
X006589Y021329D01*
X006575Y021377D01*
X006565Y021426D01*
X006559Y021476D01*
X006557Y021526D01*
X005612Y021526D02*
X005614Y021603D01*
X005620Y021680D01*
X005629Y021757D01*
X005642Y021833D01*
X005659Y021909D01*
X005680Y021983D01*
X005704Y022057D01*
X005732Y022129D01*
X005763Y022199D01*
X005798Y022268D01*
X005836Y022336D01*
X005877Y022401D01*
X005922Y022464D01*
X005970Y022525D01*
X006020Y022584D01*
X006073Y022640D01*
X006129Y022693D01*
X006188Y022743D01*
X006249Y022791D01*
X006312Y022836D01*
X006377Y022877D01*
X006445Y022915D01*
X006514Y022950D01*
X006584Y022981D01*
X006656Y023009D01*
X006730Y023033D01*
X006804Y023054D01*
X006880Y023071D01*
X006956Y023084D01*
X007033Y023093D01*
X007110Y023099D01*
X007187Y023101D01*
X005612Y021526D02*
X005612Y004990D01*
X006557Y004990D02*
X006559Y005040D01*
X006565Y005090D01*
X006575Y005139D01*
X006589Y005187D01*
X006606Y005234D01*
X006627Y005279D01*
X006652Y005323D01*
X006680Y005364D01*
X006712Y005403D01*
X006746Y005440D01*
X006783Y005474D01*
X006823Y005504D01*
X006865Y005531D01*
X006909Y005555D01*
X006955Y005576D01*
X007002Y005592D01*
X007050Y005605D01*
X007100Y005614D01*
X007149Y005619D01*
X007200Y005620D01*
X007250Y005617D01*
X007299Y005610D01*
X007348Y005599D01*
X007396Y005584D01*
X007442Y005566D01*
X007487Y005544D01*
X007530Y005518D01*
X007571Y005489D01*
X007610Y005457D01*
X007646Y005422D01*
X007678Y005384D01*
X007708Y005344D01*
X007735Y005301D01*
X007758Y005257D01*
X007777Y005211D01*
X007793Y005163D01*
X007805Y005114D01*
X007813Y005065D01*
X007817Y005015D01*
X007817Y004965D01*
X007813Y004915D01*
X007805Y004866D01*
X007793Y004817D01*
X007777Y004769D01*
X007758Y004723D01*
X007735Y004679D01*
X007708Y004636D01*
X007678Y004596D01*
X007646Y004558D01*
X007610Y004523D01*
X007571Y004491D01*
X007530Y004462D01*
X007487Y004436D01*
X007442Y004414D01*
X007396Y004396D01*
X007348Y004381D01*
X007299Y004370D01*
X007250Y004363D01*
X007200Y004360D01*
X007149Y004361D01*
X007100Y004366D01*
X007050Y004375D01*
X007002Y004388D01*
X006955Y004404D01*
X006909Y004425D01*
X006865Y004449D01*
X006823Y004476D01*
X006783Y004506D01*
X006746Y004540D01*
X006712Y004577D01*
X006680Y004616D01*
X006652Y004657D01*
X006627Y004701D01*
X006606Y004746D01*
X006589Y004793D01*
X006575Y004841D01*
X006565Y004890D01*
X006559Y004940D01*
X006557Y004990D01*
X005612Y004990D02*
X005614Y004913D01*
X005620Y004836D01*
X005629Y004759D01*
X005642Y004683D01*
X005659Y004607D01*
X005680Y004533D01*
X005704Y004459D01*
X005732Y004387D01*
X005763Y004317D01*
X005798Y004248D01*
X005836Y004180D01*
X005877Y004115D01*
X005922Y004052D01*
X005970Y003991D01*
X006020Y003932D01*
X006073Y003876D01*
X006129Y003823D01*
X006188Y003773D01*
X006249Y003725D01*
X006312Y003680D01*
X006377Y003639D01*
X006445Y003601D01*
X006514Y003566D01*
X006584Y003535D01*
X006656Y003507D01*
X006730Y003483D01*
X006804Y003462D01*
X006880Y003445D01*
X006956Y003432D01*
X007033Y003423D01*
X007110Y003417D01*
X007187Y003415D01*
D188*
X016319Y012281D02*
X016286Y012599D01*
X016180Y012633D01*
X016080Y012684D01*
X015833Y012483D01*
X015663Y012652D01*
X015865Y012900D01*
X015813Y012999D01*
X016154Y013140D01*
X016183Y013087D01*
X016221Y013041D01*
X016268Y013002D01*
X016321Y012974D01*
X016379Y012956D01*
X016439Y012951D01*
X016501Y012957D01*
X016562Y012976D01*
X016617Y013007D01*
X016664Y013049D01*
X016702Y013099D01*
X016729Y013157D01*
X016744Y013218D01*
X016745Y013281D01*
X016734Y013343D01*
X016711Y013402D01*
X016675Y013454D01*
X016630Y013499D01*
X016577Y013533D01*
X016518Y013555D01*
X016456Y013565D01*
X016393Y013562D01*
X016332Y013547D01*
X016275Y013519D01*
X016225Y013480D01*
X016184Y013431D01*
X016154Y013376D01*
X015813Y013517D01*
X015865Y013617D01*
X015663Y013864D01*
X015833Y014034D01*
X016080Y013832D01*
X016180Y013883D01*
X016286Y013917D01*
X016319Y014235D01*
X016559Y014235D01*
X016591Y013917D01*
X016698Y013883D01*
X016797Y013832D01*
X017045Y014034D01*
X017214Y013864D01*
X017012Y013617D01*
X017064Y013517D01*
X017098Y013410D01*
X017416Y013378D01*
X017416Y013138D01*
X017098Y013106D01*
X017064Y012999D01*
X017012Y012900D01*
X017214Y012652D01*
X017045Y012483D01*
X016797Y012684D01*
X016698Y012633D01*
X016591Y012599D01*
X016559Y012281D01*
X016319Y012281D01*
X016313Y012337D02*
X016564Y012337D01*
X016570Y012394D02*
X016307Y012394D01*
X016301Y012452D02*
X016576Y012452D01*
X016582Y012509D02*
X016295Y012509D01*
X016290Y012567D02*
X016588Y012567D01*
X016671Y012624D02*
X016206Y012624D01*
X016084Y012682D02*
X016793Y012682D01*
X016800Y012682D02*
X017190Y012682D01*
X017186Y012624D02*
X016871Y012624D01*
X016941Y012567D02*
X017129Y012567D01*
X017071Y012509D02*
X017012Y012509D01*
X017143Y012740D02*
X015734Y012740D01*
X015781Y012797D02*
X017096Y012797D01*
X017049Y012855D02*
X015828Y012855D01*
X015858Y012912D02*
X017019Y012912D01*
X017049Y012970D02*
X016542Y012970D01*
X016639Y013027D02*
X017073Y013027D01*
X017091Y013085D02*
X016691Y013085D01*
X016722Y013142D02*
X017416Y013142D01*
X017416Y013200D02*
X016739Y013200D01*
X016745Y013258D02*
X017416Y013258D01*
X017416Y013315D02*
X016739Y013315D01*
X016722Y013373D02*
X017416Y013373D01*
X017092Y013430D02*
X016692Y013430D01*
X016641Y013488D02*
X017073Y013488D01*
X017049Y013545D02*
X016544Y013545D01*
X016329Y013545D02*
X015828Y013545D01*
X015858Y013603D02*
X017020Y013603D01*
X017048Y013660D02*
X015829Y013660D01*
X015782Y013718D02*
X017095Y013718D01*
X017142Y013776D02*
X015735Y013776D01*
X015688Y013833D02*
X016079Y013833D01*
X016082Y013833D02*
X016795Y013833D01*
X016799Y013833D02*
X017189Y013833D01*
X017188Y013891D02*
X016869Y013891D01*
X016940Y013948D02*
X017130Y013948D01*
X017072Y014006D02*
X017010Y014006D01*
X016674Y013891D02*
X016203Y013891D01*
X016290Y013948D02*
X016588Y013948D01*
X016582Y014006D02*
X016295Y014006D01*
X016301Y014063D02*
X016576Y014063D01*
X016570Y014121D02*
X016307Y014121D01*
X016313Y014178D02*
X016564Y014178D01*
X016008Y013891D02*
X015690Y013891D01*
X015747Y013948D02*
X015937Y013948D01*
X015867Y014006D02*
X015805Y014006D01*
X015884Y013488D02*
X016236Y013488D01*
X016184Y013430D02*
X016023Y013430D01*
X016020Y013085D02*
X016185Y013085D01*
X016237Y013027D02*
X015881Y013027D01*
X015829Y012970D02*
X016335Y012970D01*
X016077Y012682D02*
X015687Y012682D01*
X015691Y012624D02*
X016007Y012624D01*
X015936Y012567D02*
X015748Y012567D01*
X015806Y012509D02*
X015865Y012509D01*
M02*
