%
M48
M72
T01C0.0320
T02C0.0354
T03C0.0512
T04C0.0551
T05C0.1260
%
T01
X19285Y5384
X20285Y5384
X20285Y7943
X19785Y8693
X19285Y7943
X19285Y14439
X20285Y14439
X20285Y16998
X19785Y17748
X19285Y16998
T02
X17817Y17514
X17817Y18648
X18801Y18648
X19785Y18648
X19785Y21648
X18801Y21648
X17817Y21648
X17817Y14514
X17817Y12593
X18801Y12593
X19785Y12593
X19785Y9593
X18801Y9593
X17817Y9593
X17817Y8459
X17817Y5459
T03
X15848Y11368
X13486Y12156
X11124Y11368
X11163Y15616
X11163Y20420
X13525Y21207
X15887Y20420
X11124Y6565
T04
X7994Y7746
X7994Y9715
X8092Y16809
X8092Y18778
X23309Y16211
X23309Y14242
X23309Y12274
X23309Y10305
T05
X7187Y4990
X23722Y4990
X23722Y21526
X7187Y21526
M30
